<svg width="50" height="50" viewBox="0 0 50 50" fill="none" xmlns="http://www.w3.org/2000/svg">
<g clip-path="url(#clip0_326_1403)">
<path d="M17.5832 25.2446C17.3586 24.8037 17.5339 24.2641 17.9748 24.0394L25.2801 20.3172C25.7211 20.0925 26.2607 20.2678 26.4853 20.7088L37.513 42.3518C37.8539 43.0209 37.2699 43.7875 36.5342 43.6363L32.7972 42.8683C32.3872 42.7841 31.9735 42.9948 31.8007 43.376L30.2254 46.8508C29.9153 47.5348 28.9518 47.5568 28.6109 46.8876L17.5832 25.2446Z" fill="#7BDB81"/>
<path d="M14.4673 20.7089C14.692 20.2679 15.2316 20.0926 15.6725 20.3173L22.9778 24.0395C23.4188 24.2642 23.5941 24.8038 23.3694 25.2447L12.3418 46.8877C12.0008 47.5569 11.0374 47.5349 10.7273 46.8509L9.15199 43.3761C8.97917 42.9949 8.56548 42.7841 8.15551 42.8684L4.41843 43.6364C3.6828 43.7876 3.09871 43.021 3.43966 42.3519L14.4673 20.7089Z" fill="#7BDB81"/>
<path d="M18.8438 0.241454C19.5939 -0.457802 20.757 -0.457802 21.507 0.241454L24.5409 3.06998C24.963 3.46349 25.5375 3.65016 26.1102 3.57989L30.2273 3.07484C31.2451 2.94998 32.186 3.63365 32.3818 4.64021L33.1737 8.7118C33.2839 9.27825 33.6389 9.76695 34.1436 10.0468L37.7712 12.0581C38.668 12.5553 39.0275 13.6615 38.5942 14.5909L36.8416 18.3504C36.5978 18.8734 36.5978 19.4775 36.8416 20.0005L38.5942 23.7599C39.0275 24.6893 38.668 25.7955 37.7712 26.2928L34.1436 28.3041C33.6389 28.5839 33.2839 29.0726 33.1737 29.6391L32.3818 33.7107C32.186 34.7172 31.2451 35.4009 30.2273 35.276L26.1102 34.771C25.5375 34.7007 24.963 34.8874 24.5409 35.2809L21.507 38.1094C20.757 38.8087 19.5939 38.8087 18.8438 38.1094L15.81 35.2809C15.3879 34.8874 14.8134 34.7007 14.2406 34.771L10.1236 35.276C9.1058 35.4009 8.16481 34.7172 7.96904 33.7107L7.17715 29.6391C7.06698 29.0726 6.71192 28.5839 6.20724 28.3041L2.57963 26.2928C1.68283 25.7955 1.3234 24.6893 1.75667 23.7599L3.50924 20.0005C3.75305 19.4775 3.75305 18.8734 3.50924 18.3504L1.75667 14.5909C1.3234 13.6615 1.68283 12.5553 2.57963 12.0581L6.20724 10.0468C6.71192 9.76695 7.06698 9.27825 7.17715 8.7118L7.96904 4.64021C8.16481 3.63365 9.1058 2.94998 10.1236 3.07484L14.2406 3.57989C14.8134 3.65016 15.3879 3.46349 15.81 3.06998L18.8438 0.241454Z" fill="#143A69" stroke="#143A69"/>
<path d="M19.5261 2.02549C19.892 1.68433 20.4595 1.68433 20.8254 2.02549L21.5074 1.29407L20.8254 2.02549L23.5968 4.60929C24.235 5.20431 25.1038 5.48658 25.9698 5.38033L29.7307 4.91897C30.2272 4.85806 30.6863 5.19161 30.7818 5.6827L31.5052 9.40201C31.6718 10.2585 32.2087 10.9975 32.9718 11.4206L36.2856 13.2579C36.7231 13.5005 36.8985 14.0402 36.6871 14.4937L35.0861 17.9278C34.7175 18.7187 34.7175 19.6321 35.0861 20.423L36.6871 23.8572C36.8985 24.3106 36.7231 24.8503 36.2856 25.0929L32.9718 26.9302C32.2087 27.3533 31.6718 28.0923 31.5052 28.9488L30.7818 32.6681C30.6863 33.1592 30.2272 33.4928 29.7306 33.4319L25.9698 32.9705C25.1038 32.8642 24.235 33.1465 23.5968 33.7415L20.8254 36.3253C20.4595 36.6665 19.892 36.6665 19.5261 36.3253L16.7547 33.7415C16.1165 33.1465 15.2478 32.8642 14.3817 32.9705L10.6209 33.4319C10.1243 33.4928 9.66523 33.1592 9.56971 32.6681L8.84634 28.9488C8.67975 28.0923 8.14285 27.3533 7.37972 26.9302L4.06598 25.0929C3.62845 24.8503 3.45309 24.3106 3.66447 23.8572L5.2654 20.423C5.63408 19.6321 5.63408 18.7187 5.2654 17.9278L3.66447 14.4937C3.45309 14.0402 3.62845 13.5005 4.06599 13.2579L7.37972 11.4206C8.14285 10.9975 8.67975 10.2585 8.84634 9.40201L9.56971 5.6827C9.66523 5.19161 10.1243 4.85806 10.6209 4.91897L14.3817 5.38033C15.2478 5.48658 16.1165 5.20431 16.7547 4.60929L19.5261 2.02549Z" fill="#61BB67" stroke="#7BDB81" stroke-width="2"/>
<circle cx="20.1759" cy="19.1754" r="7.77193" fill="#7BDB81" stroke="#143A69" stroke-width="2"/>
<path d="M19.5087 15.1061C19.6978 14.6802 20.3022 14.6802 20.4913 15.1061L21.2521 16.8186C21.3302 16.9945 21.4963 17.1152 21.6877 17.1351L23.5515 17.3294C24.015 17.3777 24.2017 17.9525 23.8552 18.264L22.4615 19.5167C22.3184 19.6454 22.255 19.8406 22.2951 20.0288L22.6863 21.8615C22.7836 22.3172 22.2946 22.6724 21.8913 22.4391L20.2692 21.5007C20.1027 21.4044 19.8973 21.4044 19.7308 21.5007L18.1087 22.4391C17.7054 22.6724 17.2164 22.3172 17.3137 21.8615L17.7049 20.0288C17.745 19.8406 17.6816 19.6454 17.5385 19.5167L16.1448 18.264C15.7983 17.9525 15.985 17.3777 16.4485 17.3294L18.3123 17.1351C18.5037 17.1152 18.6698 16.9945 18.7479 16.8186L19.5087 15.1061Z" fill="#143A69"/>
</g>
<defs>
<clipPath id="clip0_326_1403">
<rect width="50" height="50" fill="white"/>
</clipPath>
</defs>
</svg>
