<?xml version="1.0" encoding="utf-8"?>
<!-- Generator: Adobe Illustrator 28.3.0, SVG Export Plug-In . SVG Version: 6.00 Build 0)  -->
<svg version="1.0" id="Layer_1" xmlns="http://www.w3.org/2000/svg" xmlns:xlink="http://www.w3.org/1999/xlink" x="0px" y="0px"
	 viewBox="0 0 183.79 75" style="enable-background:new 0 0 183.79 75;" xml:space="preserve">
<style type="text/css">
	.st0{fill:none;stroke:#FFFFFF;stroke-width:0.5;stroke-miterlimit:10;}
	.st1{fill-rule:evenodd;clip-rule:evenodd;fill:#FFFFFF;}
	
		.st2{clip-path:url(#SVGID_00000041978379920242576850000010990508283085434246_);fill-rule:evenodd;clip-rule:evenodd;fill:#FFFFFF;}
	.st3{fill:#FFFFFF;}
	
		.st4{clip-path:url(#SVGID_00000042732563955630137310000014735256561138631335_);fill-rule:evenodd;clip-rule:evenodd;fill:#FFFFFF;}
</style>
<path class="st0" d="M43.37-54.45c-12.26,0-22.24-9.96-22.24-22.19s9.97-22.19,22.24-22.19S65.6-88.89,65.6-76.65
	S55.63-54.45,43.37-54.45z M43.37-96.84c-11.16,0-20.24,9.06-20.24,20.19c0,11.13,9.08,20.19,20.24,20.19S63.6-65.51,63.6-76.65
	C63.6-87.78,54.53-96.84,43.37-96.84z"/>
<path class="st0" d="M77.74-84.58c0-2.67,2.34-4.91,5.11-4.91c1.48,0,2.84,0.64,3.78,1.63l-1.73,1.54c-0.5-0.62-1.25-1.02-2.05-1.02
	c-1.45,0-2.69,1.27-2.69,2.76c0,1.51,1.23,2.78,2.69,2.78c0.82,0,1.55-0.4,2.06-1.02l1.72,1.52c-0.94,1.01-2.3,1.65-3.78,1.65
	C80.08-79.66,77.74-81.91,77.74-84.58z"/>
<path class="st0" d="M94.78-84.37v4.55h-2.24v-4.02c0-0.79-0.5-1.34-1.22-1.34c-0.72,0-1.26,0.54-1.26,1.24v4.12H87.7v-9.66h2.35
	v3.32c0.44-0.59,1.19-0.97,2.09-0.97C93.69-87.14,94.78-85.99,94.78-84.37z"/>
<path class="st0" d="M95.96-83.4c0-2.03,1.81-3.73,3.98-3.73c2.16,0,3.98,1.7,3.98,3.73s-1.81,3.75-3.98,3.75
	C97.78-79.66,95.96-81.37,95.96-83.4z M101.7-83.4c0-0.97-0.8-1.78-1.76-1.78s-1.76,0.82-1.76,1.78c0,0.97,0.8,1.8,1.76,1.8
	S101.7-82.44,101.7-83.4z"/>
<path class="st0" d="M104.76-83.4c0-2.03,1.81-3.73,3.98-3.73c2.16,0,3.98,1.7,3.98,3.73s-1.81,3.75-3.98,3.75
	C106.57-79.66,104.76-81.37,104.76-83.4z M110.5-83.4c0-0.97-0.8-1.78-1.76-1.78s-1.76,0.82-1.76,1.78c0,0.97,0.8,1.8,1.76,1.8
	S110.5-82.44,110.5-83.4z"/>
<path class="st0" d="M113.38-80.73l0.94-1.51c0.67,0.47,1.58,0.82,2.44,0.82c0.51,0,0.8-0.17,0.8-0.44c0-0.35-0.47-0.48-1.18-0.65
	c-1.39-0.32-2.67-0.68-2.69-2.23c0-1.37,1.12-2.39,2.9-2.39c1.07,0,2.11,0.37,2.91,0.91l-0.86,1.53c-0.62-0.4-1.4-0.71-2.05-0.71
	c-0.43,0-0.73,0.19-0.73,0.42c0,0.32,0.3,0.39,1.15,0.61c1.27,0.3,2.7,0.72,2.7,2.35c0,1.44-1.16,2.36-3.01,2.36
	C115.5-79.66,114.25-80.06,113.38-80.73z"/>
<path class="st0" d="M125.94-82.16l1.39,1.4c-0.64,0.65-1.87,1.11-2.94,1.11c-2.22,0-3.85-1.56-3.85-3.76
	c0-2.17,1.58-3.72,3.74-3.72c2.27,0,3.6,1.66,3.6,4.38h-5.11c0.22,0.72,0.79,1.2,1.55,1.2C124.88-81.55,125.52-81.78,125.94-82.16z
	 M122.8-84.18h2.91c-0.19-0.65-0.68-1.08-1.39-1.08S123.05-84.84,122.8-84.18z"/>
<path class="st0" d="M135.63-86.97h1.48v1.87h-1.48v5.28h-2.24v-5.28h-0.94v-1.87h0.94v-0.51c0-1.34,0.94-2.29,2.29-2.29
	c0.61,0,1.32,0.28,1.75,0.68l-0.47,1.4c-0.14-0.14-0.4-0.24-0.67-0.24c-0.37,0-0.65,0.32-0.65,0.77V-86.97z"/>
<path class="st0" d="M143.02-87.14v1.95c-1.45,0-2.34,0.83-2.34,2.14l-0.01-0.03v3.25h-2.34v-7.15h2.34v1.33
	C141.13-86.57,141.98-87.14,143.02-87.14z"/>
<path class="st0" d="M143.57-83.4c0-2.03,1.81-3.73,3.98-3.73c2.16,0,3.98,1.7,3.98,3.73s-1.81,3.75-3.98,3.75
	C145.38-79.66,143.57-81.37,143.57-83.4z M149.31-83.4c0-0.97-0.8-1.78-1.76-1.78s-1.76,0.82-1.76,1.78c0,0.97,0.8,1.8,1.76,1.8
	S149.31-82.44,149.31-83.4z"/>
<path class="st0" d="M164.23-84.37v4.56h-2.24v-4.15c0-0.72-0.47-1.23-1.14-1.23c-0.71,0-1.21,0.48-1.21,1.13v4.24h-2.24v-4.15
	c0-0.72-0.47-1.23-1.14-1.23c-0.71,0-1.21,0.48-1.21,1.13v4.23h-2.34v-7.15h2.34v0.93c0.35-0.68,1.04-1.09,1.91-1.09
	c0.96,0,1.79,0.47,2.26,1.23c0.39-0.75,1.26-1.23,2.31-1.23C163.04-87.14,164.23-85.99,164.23-84.37z"/>
<path class="st0" d="M77.51-64.64l1.36-1.56c0.69,0.69,1.58,1.04,2.47,1.04c0.96,0,1.48-0.4,1.48-0.95c0-0.59-0.46-0.9-1.66-0.9
	L80.03-67v-1.99h1.12c0.96,0.01,1.47-0.3,1.47-0.86c0-0.58-0.57-0.93-1.43-0.93c-0.85,0-1.54,0.4-2.16,1.01L77.7-71.2
	c0.82-0.95,1.98-1.69,3.74-1.69c2.25,0,3.59,1.11,3.59,2.6c0,1.06-0.69,1.87-1.76,2.17c1.05,0.25,1.97,1,1.97,2.21
	c0,1.67-1.48,2.86-3.78,2.86C79.69-63.05,78.35-63.7,77.51-64.64z"/>
<path class="st0" d="M86.25-67.98c0-2.88,1.81-4.91,4.38-4.91c2.58,0,4.38,2.03,4.38,4.91c0,2.89-1.8,4.92-4.38,4.92
	C88.06-63.06,86.25-65.09,86.25-67.98z M92.58-67.98c0-1.62-0.8-2.76-1.95-2.76c-1.14,0-1.94,1.15-1.94,2.76
	c0,1.62,0.8,2.78,1.94,2.78C91.78-65.2,92.58-66.37,92.58-67.98z"/>
<path class="st0" d="M96.11-67.98c0-2.88,1.81-4.91,4.38-4.91c2.58,0,4.38,2.03,4.38,4.91c0,2.89-1.8,4.92-4.38,4.92
	C97.93-63.06,96.11-65.09,96.11-67.98z M102.44-67.98c0-1.62-0.8-2.76-1.95-2.76c-1.14,0-1.94,1.15-1.94,2.76
	c0,1.62,0.8,2.78,1.94,2.78C101.64-65.2,102.44-66.37,102.44-67.98z"/>
<path class="st0" d="M105.98-67.98c0-2.88,1.82-4.91,4.38-4.91c2.58,0,4.38,2.03,4.38,4.91c0,2.89-1.8,4.92-4.38,4.92
	C107.79-63.06,105.98-65.09,105.98-67.98z M112.31-67.98c0-1.62-0.8-2.76-1.95-2.76c-1.14,0-1.94,1.15-1.94,2.76
	c0,1.62,0.8,2.78,1.94,2.78C111.51-65.2,112.31-66.37,112.31-67.98z"/>
<path class="st0" d="M122.88-66.92h-2.4v2.47h-1.98v-2.47h-2.42v-1.85h2.42v-2.46h1.98v2.46h2.4V-66.92z"/>
<path class="st0" d="M130.78-70.61h-2.9v-2.12h8.15v2.12h-2.88v7.38h-2.37V-70.61z"/>
<path class="st0" d="M142.24-65.56l1.39,1.4c-0.64,0.65-1.87,1.11-2.94,1.11c-2.22,0-3.85-1.56-3.85-3.76
	c0-2.17,1.58-3.72,3.74-3.72c2.27,0,3.6,1.66,3.6,4.38h-5.11c0.22,0.72,0.79,1.2,1.55,1.2C141.17-64.96,141.81-65.19,142.24-65.56z
	 M139.09-67.58H142c-0.19-0.65-0.68-1.08-1.39-1.08S139.34-68.25,139.09-67.58z"/>
<path class="st0" d="M144.86-64.14l0.94-1.51c0.67,0.47,1.58,0.82,2.44,0.82c0.51,0,0.8-0.17,0.8-0.44c0-0.35-0.47-0.48-1.18-0.65
	c-1.39-0.32-2.67-0.68-2.69-2.23c0-1.37,1.12-2.39,2.9-2.39c1.07,0,2.11,0.37,2.91,0.91l-0.86,1.53c-0.62-0.4-1.4-0.71-2.05-0.71
	c-0.43,0-0.73,0.19-0.73,0.42c0,0.32,0.3,0.39,1.15,0.61c1.27,0.3,2.7,0.72,2.7,2.35c0,1.44-1.16,2.36-3.01,2.36
	C146.98-63.06,145.73-63.46,144.86-64.14z"/>
<path class="st0" d="M156.87-63.74c-0.43,0.4-1.14,0.68-1.75,0.68c-1.34,0-2.29-0.95-2.29-2.29v-3.15h-0.94v-1.87h0.94v-1.96h2.24
	v1.96h1.48v1.87h-1.48v2.72c0,0.46,0.28,0.77,0.65,0.77c0.26,0,0.53-0.1,0.67-0.24L156.87-63.74z"/>
<path class="st0" d="M157.48-64.14l0.94-1.51c0.67,0.47,1.58,0.82,2.44,0.82c0.51,0,0.8-0.17,0.8-0.44c0-0.35-0.47-0.48-1.18-0.65
	c-1.39-0.32-2.67-0.68-2.69-2.23c0-1.37,1.12-2.39,2.9-2.39c1.07,0,2.11,0.37,2.91,0.91l-0.86,1.53c-0.62-0.4-1.4-0.71-2.05-0.71
	c-0.43,0-0.73,0.19-0.73,0.42c0,0.32,0.3,0.39,1.15,0.61c1.27,0.3,2.7,0.72,2.7,2.35c0,1.44-1.16,2.36-3.01,2.36
	C159.6-63.06,158.35-63.46,157.48-64.14z"/>
<path class="st1" d="M54.43-78.5h-1.98v-6.31c0-0.01-0.01-0.01-0.01-0.02c0-0.05-0.03-0.1-0.06-0.15c-0.01-0.01-0.01-0.03-0.02-0.04
	l-4.38-4.37c0,0,0,0,0,0c-0.06-0.05-0.12-0.07-0.19-0.08c-0.01,0-0.01-0.01-0.02-0.01H33.87c-0.75,0-1.36,0.61-1.36,1.36v22.55
	c0,0.75,0.61,1.36,1.36,1.36h18.29l0,0c0,0,0,0,0,0c1.52,0,2.75-1.17,2.87-2.66c0-0.02,0.01-0.03,0.01-0.05
	c0-0.06,0.02-0.12,0.02-0.18v-8.64h0.04c0.16,0,0.3-0.13,0.3-0.3v-1.53C55.38-78.08,54.96-78.5,54.43-78.5z M54.79-77.56v1.23h-0.04
	h-0.7v-1.59h0.38C54.63-77.91,54.79-77.75,54.79-77.56z M54.46-67.19h-4.59v-6.8h4.59V-67.19z M49.53-76.32L49.53-76.32L49.53-76.32
	l0-1.23c0-0.2,0.16-0.36,0.36-0.36h0.38v1.59h-0.7H49.53z M52.46-76.32v-1.59h1v1.59H52.46z M51.86-77.91v1.59h-1v-1.59H51.86z
	 M48.08-88.47l1.68,1.68l1.68,1.68h-3.37L48.08-88.47z M33.87-64.79c-0.43,0-0.77-0.34-0.77-0.77v-22.55c0-0.42,0.35-0.77,0.77-0.77
	h13.61l0,4.07c0,0.16,0.13,0.3,0.3,0.3h4.08v6.01h-1.98c-0.52,0-0.95,0.42-0.95,0.95v1.53c0,0.16,0.13,0.3,0.3,0.3h0.04v8.64
	c0,0.06,0.01,0.12,0.02,0.18c0,0.02,0,0.03,0.01,0.05c0.07,0.84,0.49,1.58,1.13,2.06H33.87z M52.16-64.79
	C52.16-64.79,52.16-64.79,52.16-64.79L52.16-64.79c-1.1,0-2.01-0.77-2.24-1.8h4.48C54.17-65.57,53.26-64.79,52.16-64.79z
	 M54.46-74.58h-4.59v-1.15h4.59V-74.58z"/>
<path class="st1" d="M37.23-75.02l-0.28,0.28c-0.19,0.19-0.05,0.51,0.21,0.51v0c0.1,0,0.29-0.16,0.5-0.36
	c0.21,0.2,0.4,0.36,0.5,0.36v0c0.26,0,0.4-0.32,0.21-0.51l-0.28-0.28c0.11-0.12,0.21-0.22,0.28-0.3c0.28-0.28-0.14-0.7-0.42-0.42
	l-0.29,0.29l-0.29-0.29c-0.28-0.28-0.7,0.14-0.42,0.42C37.02-75.24,37.12-75.13,37.23-75.02z"/>
<path class="st1" d="M37.29-80.49L37.29-80.49c0.16,0,1-0.53,1.19-0.64c0.14-0.08,0.19-0.26,0.11-0.4
	c-0.21-0.36-0.69,0.05-1.19,0.34l-0.14-0.25c-0.19-0.34-0.71-0.04-0.51,0.3C36.92-80.81,37.03-80.49,37.29-80.49z"/>
<path class="st1" d="M37.29-68.37c0.16,0,1-0.53,1.19-0.64c0.14-0.08,0.19-0.26,0.11-0.4c-0.21-0.36-0.69,0.05-1.19,0.34l-0.14-0.25
	c-0.2-0.34-0.71-0.04-0.51,0.3C36.92-68.69,37.03-68.37,37.29-68.37z"/>
<g>
	<defs>
		<path id="SVGID_1_" d="M52.16-68.78c0.82,0,1.48-0.66,1.48-1.48c0-0.61-0.77-1.58-1.23-2.35c-0.12-0.19-0.4-0.19-0.51,0
			c-0.46,0.77-1.23,1.74-1.23,2.35C50.68-69.44,51.34-68.78,52.16-68.78z M52.16-71.91c0.29,0.46,0.89,1.33,0.89,1.65
			c0,1.17-1.78,1.17-1.78,0C51.27-70.57,51.86-71.45,52.16-71.91z"/>
	</defs>
	<use xlink:href="#SVGID_1_"  style="overflow:visible;fill-rule:evenodd;clip-rule:evenodd;fill:#FFFFFF;"/>
	<clipPath id="SVGID_00000000915336517139736960000013667389055410197662_">
		<use xlink:href="#SVGID_1_"  style="overflow:visible;"/>
	</clipPath>
	
		<rect x="51.27" y="-71.91" style="clip-path:url(#SVGID_00000000915336517139736960000013667389055410197662_);fill-rule:evenodd;clip-rule:evenodd;fill:#FFFFFF;" width="0.05" height="2.81"/>
	
		<rect x="51.32" y="-71.91" style="clip-path:url(#SVGID_00000000915336517139736960000013667389055410197662_);fill-rule:evenodd;clip-rule:evenodd;fill:#FFFFFF;" width="0.13" height="2.81"/>
	
		<rect x="51.45" y="-71.91" style="clip-path:url(#SVGID_00000000915336517139736960000013667389055410197662_);fill-rule:evenodd;clip-rule:evenodd;fill:#FFFFFF;" width="0.13" height="2.81"/>
	
		<rect x="51.58" y="-71.91" style="clip-path:url(#SVGID_00000000915336517139736960000013667389055410197662_);fill-rule:evenodd;clip-rule:evenodd;fill:#FFFFFF;" width="0.13" height="2.81"/>
	
		<rect x="51.71" y="-71.91" style="clip-path:url(#SVGID_00000000915336517139736960000013667389055410197662_);fill-rule:evenodd;clip-rule:evenodd;fill:#FFFFFF;" width="0.13" height="2.81"/>
	
		<rect x="51.84" y="-71.91" style="clip-path:url(#SVGID_00000000915336517139736960000013667389055410197662_);fill-rule:evenodd;clip-rule:evenodd;fill:#FFFFFF;" width="0.13" height="2.81"/>
	
		<rect x="51.97" y="-71.91" style="clip-path:url(#SVGID_00000000915336517139736960000013667389055410197662_);fill-rule:evenodd;clip-rule:evenodd;fill:#FFFFFF;" width="0.13" height="2.81"/>
	
		<rect x="52.09" y="-71.91" style="clip-path:url(#SVGID_00000000915336517139736960000013667389055410197662_);fill-rule:evenodd;clip-rule:evenodd;fill:#FFFFFF;" width="0.13" height="2.81"/>
	
		<rect x="52.22" y="-71.91" style="clip-path:url(#SVGID_00000000915336517139736960000013667389055410197662_);fill-rule:evenodd;clip-rule:evenodd;fill:#FFFFFF;" width="0.13" height="2.81"/>
	
		<rect x="52.35" y="-71.91" style="clip-path:url(#SVGID_00000000915336517139736960000013667389055410197662_);fill-rule:evenodd;clip-rule:evenodd;fill:#FFFFFF;" width="0.13" height="2.81"/>
	
		<rect x="52.48" y="-71.91" style="clip-path:url(#SVGID_00000000915336517139736960000013667389055410197662_);fill-rule:evenodd;clip-rule:evenodd;fill:#FFFFFF;" width="0.13" height="2.81"/>
	
		<rect x="52.61" y="-71.91" style="clip-path:url(#SVGID_00000000915336517139736960000013667389055410197662_);fill-rule:evenodd;clip-rule:evenodd;fill:#FFFFFF;" width="0.13" height="2.81"/>
	
		<rect x="52.74" y="-71.91" style="clip-path:url(#SVGID_00000000915336517139736960000013667389055410197662_);fill-rule:evenodd;clip-rule:evenodd;fill:#FFFFFF;" width="0.13" height="2.81"/>
	
		<rect x="52.87" y="-71.91" style="clip-path:url(#SVGID_00000000915336517139736960000013667389055410197662_);fill-rule:evenodd;clip-rule:evenodd;fill:#FFFFFF;" width="0.13" height="2.81"/>
	
		<rect x="53" y="-71.91" style="clip-path:url(#SVGID_00000000915336517139736960000013667389055410197662_);fill-rule:evenodd;clip-rule:evenodd;fill:#FFFFFF;" width="0.05" height="2.81"/>
	
		<path style="clip-path:url(#SVGID_00000000915336517139736960000013667389055410197662_);fill-rule:evenodd;clip-rule:evenodd;fill:#FFFFFF;" d="
		M50.68-72.8v4.02V-72.8z"/>
	
		<rect x="50.68" y="-72.8" style="clip-path:url(#SVGID_00000000915336517139736960000013667389055410197662_);fill-rule:evenodd;clip-rule:evenodd;fill:#FFFFFF;" width="0.13" height="4.02"/>
	
		<rect x="50.81" y="-72.8" style="clip-path:url(#SVGID_00000000915336517139736960000013667389055410197662_);fill-rule:evenodd;clip-rule:evenodd;fill:#FFFFFF;" width="0.13" height="4.02"/>
	
		<rect x="50.94" y="-72.8" style="clip-path:url(#SVGID_00000000915336517139736960000013667389055410197662_);fill-rule:evenodd;clip-rule:evenodd;fill:#FFFFFF;" width="0.13" height="4.02"/>
	
		<rect x="51.06" y="-72.8" style="clip-path:url(#SVGID_00000000915336517139736960000013667389055410197662_);fill-rule:evenodd;clip-rule:evenodd;fill:#FFFFFF;" width="0.13" height="4.02"/>
	
		<rect x="51.19" y="-72.8" style="clip-path:url(#SVGID_00000000915336517139736960000013667389055410197662_);fill-rule:evenodd;clip-rule:evenodd;fill:#FFFFFF;" width="0.13" height="4.02"/>
	
		<rect x="51.32" y="-72.8" style="clip-path:url(#SVGID_00000000915336517139736960000013667389055410197662_);fill-rule:evenodd;clip-rule:evenodd;fill:#FFFFFF;" width="0.13" height="4.02"/>
	
		<rect x="51.45" y="-72.8" style="clip-path:url(#SVGID_00000000915336517139736960000013667389055410197662_);fill-rule:evenodd;clip-rule:evenodd;fill:#FFFFFF;" width="0.13" height="4.02"/>
	
		<rect x="51.58" y="-72.8" style="clip-path:url(#SVGID_00000000915336517139736960000013667389055410197662_);fill-rule:evenodd;clip-rule:evenodd;fill:#FFFFFF;" width="0.13" height="4.02"/>
	
		<rect x="51.71" y="-72.8" style="clip-path:url(#SVGID_00000000915336517139736960000013667389055410197662_);fill-rule:evenodd;clip-rule:evenodd;fill:#FFFFFF;" width="0.13" height="4.02"/>
	
		<rect x="51.84" y="-72.8" style="clip-path:url(#SVGID_00000000915336517139736960000013667389055410197662_);fill-rule:evenodd;clip-rule:evenodd;fill:#FFFFFF;" width="0.13" height="4.02"/>
	
		<rect x="51.97" y="-72.8" style="clip-path:url(#SVGID_00000000915336517139736960000013667389055410197662_);fill-rule:evenodd;clip-rule:evenodd;fill:#FFFFFF;" width="0.13" height="4.02"/>
	
		<rect x="52.09" y="-72.8" style="clip-path:url(#SVGID_00000000915336517139736960000013667389055410197662_);fill-rule:evenodd;clip-rule:evenodd;fill:#FFFFFF;" width="0.13" height="4.02"/>
	
		<rect x="52.22" y="-72.8" style="clip-path:url(#SVGID_00000000915336517139736960000013667389055410197662_);fill-rule:evenodd;clip-rule:evenodd;fill:#FFFFFF;" width="0.13" height="4.02"/>
	
		<rect x="52.35" y="-72.8" style="clip-path:url(#SVGID_00000000915336517139736960000013667389055410197662_);fill-rule:evenodd;clip-rule:evenodd;fill:#FFFFFF;" width="0.13" height="4.02"/>
	
		<rect x="52.48" y="-72.8" style="clip-path:url(#SVGID_00000000915336517139736960000013667389055410197662_);fill-rule:evenodd;clip-rule:evenodd;fill:#FFFFFF;" width="0.13" height="4.02"/>
	
		<rect x="52.61" y="-72.8" style="clip-path:url(#SVGID_00000000915336517139736960000013667389055410197662_);fill-rule:evenodd;clip-rule:evenodd;fill:#FFFFFF;" width="0.13" height="4.02"/>
	
		<rect x="52.74" y="-72.8" style="clip-path:url(#SVGID_00000000915336517139736960000013667389055410197662_);fill-rule:evenodd;clip-rule:evenodd;fill:#FFFFFF;" width="0.13" height="4.02"/>
	
		<rect x="52.87" y="-72.8" style="clip-path:url(#SVGID_00000000915336517139736960000013667389055410197662_);fill-rule:evenodd;clip-rule:evenodd;fill:#FFFFFF;" width="0.13" height="4.02"/>
	
		<rect x="53" y="-72.8" style="clip-path:url(#SVGID_00000000915336517139736960000013667389055410197662_);fill-rule:evenodd;clip-rule:evenodd;fill:#FFFFFF;" width="0.13" height="4.02"/>
	
		<rect x="53.13" y="-72.8" style="clip-path:url(#SVGID_00000000915336517139736960000013667389055410197662_);fill-rule:evenodd;clip-rule:evenodd;fill:#FFFFFF;" width="0.13" height="4.02"/>
	
		<rect x="53.25" y="-72.8" style="clip-path:url(#SVGID_00000000915336517139736960000013667389055410197662_);fill-rule:evenodd;clip-rule:evenodd;fill:#FFFFFF;" width="0.13" height="4.02"/>
	
		<rect x="53.38" y="-72.8" style="clip-path:url(#SVGID_00000000915336517139736960000013667389055410197662_);fill-rule:evenodd;clip-rule:evenodd;fill:#FFFFFF;" width="0.13" height="4.02"/>
	
		<rect x="53.51" y="-72.8" style="clip-path:url(#SVGID_00000000915336517139736960000013667389055410197662_);fill-rule:evenodd;clip-rule:evenodd;fill:#FFFFFF;" width="0.13" height="4.02"/>
	
		<rect x="53.64" y="-72.8" style="clip-path:url(#SVGID_00000000915336517139736960000013667389055410197662_);fill-rule:evenodd;clip-rule:evenodd;fill:#FFFFFF;" width="0" height="4.02"/>
</g>
<path class="st1" d="M39.7-83.08h-4.07c-0.16,0-0.3,0.13-0.3,0.3v3.4c0,0.16,0.13,0.3,0.3,0.3h4.07c0.16,0,0.3-0.13,0.3-0.3v-3.4
	C39.99-82.95,39.86-83.08,39.7-83.08z M39.4-79.68h-3.48v-2.8h3.48V-79.68z"/>
<path class="st1" d="M39.7-77.02h-4.07c-0.16,0-0.3,0.13-0.3,0.3v3.4c0,0.16,0.13,0.3,0.3,0.3h4.07c0.16,0,0.3-0.13,0.3-0.3v-3.4
	C39.99-76.89,39.86-77.02,39.7-77.02z M39.4-73.62h-3.48v-2.8h3.48V-73.62z"/>
<path class="st1" d="M39.7-70.96h-4.07c-0.16,0-0.3,0.13-0.3,0.3v3.4c0,0.16,0.13,0.3,0.3,0.3h4.07c0.16,0,0.3-0.13,0.3-0.3v-3.4
	C39.99-70.82,39.86-70.96,39.7-70.96z M39.4-67.56h-3.48v-2.8h3.48V-67.56z"/>
<path class="st1" d="M41.66-80.79h7.68c0.39,0,0.39-0.59,0-0.59h-7.68C41.27-81.38,41.27-80.79,41.66-80.79z"/>
<path class="st1" d="M47.67-75.32h-6.01c-0.39,0-0.39,0.59,0,0.59h6.01C48.06-74.73,48.06-75.32,47.67-75.32z"/>
<path class="st1" d="M47.67-69.26h-6.01c-0.39,0-0.39,0.59,0,0.59h6.01C48.06-68.67,48.06-69.26,47.67-69.26z"/>
<path class="st3" d="M43.37,60.06c-12.26,0-22.24-9.96-22.24-22.19s9.97-22.19,22.24-22.19S65.6,25.63,65.6,37.86
	S55.63,60.06,43.37,60.06z M43.37,17.67c-11.16,0-20.24,9.06-20.24,20.19c0,11.13,9.08,20.19,20.24,20.19S63.6,49,63.6,37.86
	C63.6,26.73,54.53,17.67,43.37,17.67z"/>
<path class="st3" d="M77.74,29.93c0-2.67,2.34-4.91,5.11-4.91c1.48,0,2.84,0.64,3.78,1.63l-1.73,1.54c-0.5-0.62-1.25-1.02-2.05-1.02
	c-1.45,0-2.69,1.27-2.69,2.76c0,1.51,1.23,2.78,2.69,2.78c0.82,0,1.55-0.4,2.06-1.02l1.72,1.52c-0.94,1.01-2.3,1.65-3.78,1.65
	C80.08,34.85,77.74,32.6,77.74,29.93z"/>
<path class="st3" d="M94.78,30.14v4.55h-2.24v-4.02c0-0.79-0.5-1.34-1.22-1.34c-0.72,0-1.26,0.54-1.26,1.24v4.12H87.7v-9.66h2.35
	v3.32c0.44-0.59,1.19-0.97,2.09-0.97C93.69,27.38,94.78,28.52,94.78,30.14z"/>
<path class="st3" d="M95.96,31.11c0-2.03,1.81-3.73,3.98-3.73c2.16,0,3.98,1.7,3.98,3.73s-1.81,3.75-3.98,3.75
	C97.78,34.85,95.96,33.14,95.96,31.11z M101.7,31.11c0-0.97-0.8-1.78-1.76-1.78s-1.76,0.82-1.76,1.78c0,0.97,0.8,1.8,1.76,1.8
	S101.7,32.08,101.7,31.11z"/>
<path class="st3" d="M104.76,31.11c0-2.03,1.81-3.73,3.98-3.73c2.16,0,3.98,1.7,3.98,3.73s-1.81,3.75-3.98,3.75
	C106.57,34.85,104.76,33.14,104.76,31.11z M110.5,31.11c0-0.97-0.8-1.78-1.76-1.78s-1.76,0.82-1.76,1.78c0,0.97,0.8,1.8,1.76,1.8
	S110.5,32.08,110.5,31.11z"/>
<path class="st3" d="M113.38,33.78l0.94-1.51c0.67,0.47,1.58,0.82,2.44,0.82c0.51,0,0.8-0.17,0.8-0.44c0-0.35-0.47-0.48-1.18-0.65
	c-1.39-0.32-2.67-0.68-2.69-2.23c0-1.37,1.12-2.39,2.9-2.39c1.07,0,2.11,0.37,2.91,0.91l-0.86,1.53c-0.62-0.4-1.4-0.71-2.05-0.71
	c-0.43,0-0.73,0.19-0.73,0.42c0,0.32,0.3,0.39,1.15,0.61c1.27,0.3,2.7,0.72,2.7,2.35c0,1.44-1.16,2.36-3.01,2.36
	C115.5,34.85,114.25,34.45,113.38,33.78z"/>
<path class="st3" d="M125.94,32.35l1.39,1.4c-0.64,0.65-1.87,1.11-2.94,1.11c-2.22,0-3.85-1.56-3.85-3.76
	c0-2.17,1.58-3.72,3.74-3.72c2.27,0,3.6,1.66,3.6,4.38h-5.11c0.22,0.72,0.79,1.2,1.55,1.2C124.88,32.96,125.52,32.73,125.94,32.35z
	 M122.8,30.33h2.91c-0.19-0.65-0.68-1.08-1.39-1.08S123.05,29.67,122.8,30.33z"/>
<path class="st3" d="M135.63,27.54h1.48v1.87h-1.48v5.28h-2.24v-5.28h-0.94v-1.87h0.94v-0.51c0-1.34,0.94-2.29,2.29-2.29
	c0.61,0,1.32,0.28,1.75,0.68l-0.47,1.4c-0.14-0.14-0.4-0.24-0.67-0.24c-0.37,0-0.65,0.32-0.65,0.77V27.54z"/>
<path class="st3" d="M143.02,27.38v1.95c-1.45,0-2.34,0.83-2.34,2.14l-0.01-0.03v3.25h-2.34v-7.15h2.34v1.33
	C141.13,27.94,141.98,27.38,143.02,27.38z"/>
<path class="st3" d="M143.57,31.11c0-2.03,1.81-3.73,3.98-3.73c2.16,0,3.98,1.7,3.98,3.73s-1.81,3.75-3.98,3.75
	C145.38,34.85,143.57,33.14,143.57,31.11z M149.31,31.11c0-0.97-0.8-1.78-1.76-1.78s-1.76,0.82-1.76,1.78c0,0.97,0.8,1.8,1.76,1.8
	S149.31,32.08,149.31,31.11z"/>
<path class="st3" d="M164.23,30.14v4.56h-2.24v-4.15c0-0.72-0.47-1.23-1.14-1.23c-0.71,0-1.21,0.48-1.21,1.13v4.24h-2.24v-4.15
	c0-0.72-0.47-1.23-1.14-1.23c-0.71,0-1.21,0.48-1.21,1.13v4.23h-2.34v-7.15h2.34v0.93c0.35-0.68,1.04-1.09,1.91-1.09
	c0.96,0,1.79,0.47,2.26,1.23c0.39-0.75,1.26-1.23,2.31-1.23C163.04,27.38,164.23,28.52,164.23,30.14z"/>
<path class="st3" d="M77.51,49.87l1.36-1.56c0.69,0.69,1.58,1.04,2.47,1.04c0.96,0,1.48-0.4,1.48-0.95c0-0.59-0.46-0.9-1.66-0.9
	l-1.12,0.01v-1.99h1.12c0.96,0.01,1.47-0.3,1.47-0.86c0-0.58-0.57-0.93-1.43-0.93c-0.85,0-1.54,0.4-2.16,1.01l-1.33-1.44
	c0.82-0.95,1.98-1.69,3.74-1.69c2.25,0,3.59,1.11,3.59,2.6c0,1.06-0.69,1.87-1.76,2.17c1.05,0.25,1.97,1,1.97,2.21
	c0,1.67-1.48,2.86-3.78,2.86C79.69,51.46,78.35,50.81,77.51,49.87z"/>
<path class="st3" d="M86.25,46.53c0-2.88,1.81-4.91,4.38-4.91c2.58,0,4.38,2.03,4.38,4.91c0,2.89-1.8,4.92-4.38,4.92
	C88.06,51.45,86.25,49.42,86.25,46.53z M92.58,46.53c0-1.62-0.8-2.76-1.95-2.76c-1.14,0-1.94,1.15-1.94,2.76
	c0,1.62,0.8,2.78,1.94,2.78C91.78,49.31,92.58,48.14,92.58,46.53z"/>
<path class="st3" d="M96.11,46.53c0-2.88,1.81-4.91,4.38-4.91c2.58,0,4.38,2.03,4.38,4.91c0,2.89-1.8,4.92-4.38,4.92
	C97.93,51.45,96.11,49.42,96.11,46.53z M102.44,46.53c0-1.62-0.8-2.76-1.95-2.76c-1.14,0-1.94,1.15-1.94,2.76
	c0,1.62,0.8,2.78,1.94,2.78C101.64,49.31,102.44,48.14,102.44,46.53z"/>
<path class="st3" d="M105.98,46.53c0-2.88,1.82-4.91,4.38-4.91c2.58,0,4.38,2.03,4.38,4.91c0,2.89-1.8,4.92-4.38,4.92
	C107.79,51.45,105.98,49.42,105.98,46.53z M112.31,46.53c0-1.62-0.8-2.76-1.95-2.76c-1.14,0-1.94,1.15-1.94,2.76
	c0,1.62,0.8,2.78,1.94,2.78C111.51,49.31,112.31,48.14,112.31,46.53z"/>
<path class="st3" d="M122.88,47.59h-2.4v2.47h-1.98v-2.47h-2.42v-1.85h2.42v-2.46h1.98v2.46h2.4V47.59z"/>
<path class="st3" d="M130.78,43.9h-2.9v-2.12h8.15v2.12h-2.88v7.38h-2.37V43.9z"/>
<path class="st3" d="M142.24,48.95l1.39,1.4c-0.64,0.65-1.87,1.11-2.94,1.11c-2.22,0-3.85-1.56-3.85-3.76
	c0-2.17,1.58-3.72,3.74-3.72c2.27,0,3.6,1.66,3.6,4.38h-5.11c0.22,0.72,0.79,1.2,1.55,1.2C141.17,49.55,141.81,49.32,142.24,48.95z
	 M139.09,46.93H142c-0.19-0.65-0.68-1.08-1.39-1.08S139.34,46.26,139.09,46.93z"/>
<path class="st3" d="M144.86,50.37l0.94-1.51c0.67,0.47,1.58,0.82,2.44,0.82c0.51,0,0.8-0.17,0.8-0.44c0-0.35-0.47-0.48-1.18-0.65
	c-1.39-0.32-2.67-0.68-2.69-2.23c0-1.37,1.12-2.39,2.9-2.39c1.07,0,2.11,0.37,2.91,0.91l-0.86,1.53c-0.62-0.4-1.4-0.71-2.05-0.71
	c-0.43,0-0.73,0.19-0.73,0.42c0,0.32,0.3,0.39,1.15,0.61c1.27,0.3,2.7,0.72,2.7,2.35c0,1.44-1.16,2.36-3.01,2.36
	C146.98,51.45,145.73,51.05,144.86,50.37z"/>
<path class="st3" d="M156.87,50.77c-0.43,0.4-1.14,0.68-1.75,0.68c-1.34,0-2.29-0.95-2.29-2.29V46h-0.94v-1.87h0.94v-1.96h2.24v1.96
	h1.48V46h-1.48v2.72c0,0.46,0.28,0.77,0.65,0.77c0.26,0,0.53-0.1,0.67-0.24L156.87,50.77z"/>
<path class="st3" d="M157.48,50.37l0.94-1.51c0.67,0.47,1.58,0.82,2.44,0.82c0.51,0,0.8-0.17,0.8-0.44c0-0.35-0.47-0.48-1.18-0.65
	c-1.39-0.32-2.67-0.68-2.69-2.23c0-1.37,1.12-2.39,2.9-2.39c1.07,0,2.11,0.37,2.91,0.91l-0.86,1.53c-0.62-0.4-1.4-0.71-2.05-0.71
	c-0.43,0-0.73,0.19-0.73,0.42c0,0.32,0.3,0.39,1.15,0.61c1.27,0.3,2.7,0.72,2.7,2.35c0,1.44-1.16,2.36-3.01,2.36
	C159.6,51.45,158.35,51.05,157.48,50.37z"/>
<path class="st1" d="M54.43,36.01h-1.98V29.7c0-0.01-0.01-0.01-0.01-0.02c0-0.05-0.03-0.1-0.06-0.15c-0.01-0.01-0.01-0.03-0.02-0.04
	l-4.38-4.37c0,0,0,0,0,0c-0.06-0.05-0.12-0.07-0.19-0.08c-0.01,0-0.01-0.01-0.02-0.01H33.87c-0.75,0-1.36,0.61-1.36,1.36v22.55
	c0,0.75,0.61,1.36,1.36,1.36h18.29l0,0c0,0,0,0,0,0c1.52,0,2.75-1.17,2.87-2.66c0-0.02,0.01-0.03,0.01-0.05
	c0-0.06,0.02-0.12,0.02-0.18v-8.64h0.04c0.16,0,0.3-0.13,0.3-0.3v-1.53C55.38,36.43,54.96,36.01,54.43,36.01z M54.79,36.96v1.23
	h-0.04h-0.7V36.6h0.38C54.63,36.6,54.79,36.76,54.79,36.96z M54.46,47.32h-4.59v-6.8h4.59V47.32z M49.53,38.19L49.53,38.19
	L49.53,38.19l0-1.23c0-0.2,0.16-0.36,0.36-0.36h0.38v1.59h-0.7H49.53z M52.46,38.19V36.6h1v1.59H52.46z M51.86,36.6v1.59h-1V36.6
	H51.86z M48.08,26.04l1.68,1.68l1.68,1.68h-3.37L48.08,26.04z M33.87,49.72c-0.43,0-0.77-0.34-0.77-0.77V26.39
	c0-0.42,0.35-0.77,0.77-0.77h13.61l0,4.07c0,0.16,0.13,0.3,0.3,0.3h4.08v6.01h-1.98c-0.52,0-0.95,0.42-0.95,0.95v1.53
	c0,0.16,0.13,0.3,0.3,0.3h0.04v8.64c0,0.06,0.01,0.12,0.02,0.18c0,0.02,0,0.03,0.01,0.05c0.07,0.84,0.49,1.58,1.13,2.06H33.87z
	 M52.16,49.72C52.16,49.72,52.16,49.72,52.16,49.72L52.16,49.72c-1.1,0-2.01-0.77-2.24-1.8h4.48
	C54.17,48.94,53.26,49.72,52.16,49.72z M54.46,39.93h-4.59v-1.15h4.59V39.93z"/>
<path class="st1" d="M37.23,39.49l-0.28,0.28c-0.19,0.19-0.05,0.51,0.21,0.51v0c0.1,0,0.29-0.16,0.5-0.36
	c0.21,0.2,0.4,0.36,0.5,0.36v0c0.26,0,0.4-0.32,0.21-0.51l-0.28-0.28c0.11-0.12,0.21-0.22,0.28-0.3c0.28-0.28-0.14-0.7-0.42-0.42
	l-0.29,0.29l-0.29-0.29c-0.28-0.28-0.7,0.14-0.42,0.42C37.02,39.27,37.12,39.38,37.23,39.49z"/>
<path class="st1" d="M37.29,34.02L37.29,34.02c0.16,0,1-0.53,1.19-0.64c0.14-0.08,0.19-0.26,0.11-0.4
	c-0.21-0.36-0.69,0.05-1.19,0.34l-0.14-0.25c-0.19-0.34-0.71-0.04-0.51,0.3C36.92,33.7,37.03,34.02,37.29,34.02z"/>
<path class="st1" d="M37.29,46.14c0.16,0,1-0.53,1.19-0.64c0.14-0.08,0.19-0.26,0.11-0.4c-0.21-0.36-0.69,0.05-1.19,0.34l-0.14-0.25
	c-0.2-0.34-0.71-0.04-0.51,0.3C36.92,45.82,37.03,46.14,37.29,46.14z"/>
<g>
	<defs>
		<path id="SVGID_00000072268429658466259590000017457625580856440252_" d="M52.16,45.73c0.82,0,1.48-0.66,1.48-1.48
			c0-0.61-0.77-1.58-1.23-2.35c-0.12-0.19-0.4-0.19-0.51,0c-0.46,0.77-1.23,1.74-1.23,2.35C50.68,45.07,51.34,45.73,52.16,45.73z
			 M52.16,42.6c0.29,0.46,0.89,1.33,0.89,1.65c0,1.17-1.78,1.17-1.78,0C51.27,43.94,51.86,43.06,52.16,42.6z"/>
	</defs>
	
		<use xlink:href="#SVGID_00000072268429658466259590000017457625580856440252_"  style="overflow:visible;fill-rule:evenodd;clip-rule:evenodd;fill:#FFFFFF;"/>
	<clipPath id="SVGID_00000023239064209010510700000003245745488166167727_">
		<use xlink:href="#SVGID_00000072268429658466259590000017457625580856440252_"  style="overflow:visible;"/>
	</clipPath>
	
		<rect x="51.27" y="42.6" style="clip-path:url(#SVGID_00000023239064209010510700000003245745488166167727_);fill-rule:evenodd;clip-rule:evenodd;fill:#FFFFFF;" width="0.05" height="2.81"/>
	
		<rect x="51.32" y="42.6" style="clip-path:url(#SVGID_00000023239064209010510700000003245745488166167727_);fill-rule:evenodd;clip-rule:evenodd;fill:#FFFFFF;" width="0.13" height="2.81"/>
	
		<rect x="51.45" y="42.6" style="clip-path:url(#SVGID_00000023239064209010510700000003245745488166167727_);fill-rule:evenodd;clip-rule:evenodd;fill:#FFFFFF;" width="0.13" height="2.81"/>
	
		<rect x="51.58" y="42.6" style="clip-path:url(#SVGID_00000023239064209010510700000003245745488166167727_);fill-rule:evenodd;clip-rule:evenodd;fill:#FFFFFF;" width="0.13" height="2.81"/>
	
		<rect x="51.71" y="42.6" style="clip-path:url(#SVGID_00000023239064209010510700000003245745488166167727_);fill-rule:evenodd;clip-rule:evenodd;fill:#FFFFFF;" width="0.13" height="2.81"/>
	
		<rect x="51.84" y="42.6" style="clip-path:url(#SVGID_00000023239064209010510700000003245745488166167727_);fill-rule:evenodd;clip-rule:evenodd;fill:#FFFFFF;" width="0.13" height="2.81"/>
	
		<rect x="51.97" y="42.6" style="clip-path:url(#SVGID_00000023239064209010510700000003245745488166167727_);fill-rule:evenodd;clip-rule:evenodd;fill:#FFFFFF;" width="0.13" height="2.81"/>
	
		<rect x="52.09" y="42.6" style="clip-path:url(#SVGID_00000023239064209010510700000003245745488166167727_);fill-rule:evenodd;clip-rule:evenodd;fill:#FFFFFF;" width="0.13" height="2.81"/>
	
		<rect x="52.22" y="42.6" style="clip-path:url(#SVGID_00000023239064209010510700000003245745488166167727_);fill-rule:evenodd;clip-rule:evenodd;fill:#FFFFFF;" width="0.13" height="2.81"/>
	
		<rect x="52.35" y="42.6" style="clip-path:url(#SVGID_00000023239064209010510700000003245745488166167727_);fill-rule:evenodd;clip-rule:evenodd;fill:#FFFFFF;" width="0.13" height="2.81"/>
	
		<rect x="52.48" y="42.6" style="clip-path:url(#SVGID_00000023239064209010510700000003245745488166167727_);fill-rule:evenodd;clip-rule:evenodd;fill:#FFFFFF;" width="0.13" height="2.81"/>
	
		<rect x="52.61" y="42.6" style="clip-path:url(#SVGID_00000023239064209010510700000003245745488166167727_);fill-rule:evenodd;clip-rule:evenodd;fill:#FFFFFF;" width="0.13" height="2.81"/>
	
		<rect x="52.74" y="42.6" style="clip-path:url(#SVGID_00000023239064209010510700000003245745488166167727_);fill-rule:evenodd;clip-rule:evenodd;fill:#FFFFFF;" width="0.13" height="2.81"/>
	
		<rect x="52.87" y="42.6" style="clip-path:url(#SVGID_00000023239064209010510700000003245745488166167727_);fill-rule:evenodd;clip-rule:evenodd;fill:#FFFFFF;" width="0.13" height="2.81"/>
	
		<rect x="53" y="42.6" style="clip-path:url(#SVGID_00000023239064209010510700000003245745488166167727_);fill-rule:evenodd;clip-rule:evenodd;fill:#FFFFFF;" width="0.05" height="2.81"/>
	
		<path style="clip-path:url(#SVGID_00000023239064209010510700000003245745488166167727_);fill-rule:evenodd;clip-rule:evenodd;fill:#FFFFFF;" d="
		M50.68,41.71v4.02V41.71z"/>
	
		<rect x="50.68" y="41.71" style="clip-path:url(#SVGID_00000023239064209010510700000003245745488166167727_);fill-rule:evenodd;clip-rule:evenodd;fill:#FFFFFF;" width="0.13" height="4.02"/>
	
		<rect x="50.81" y="41.71" style="clip-path:url(#SVGID_00000023239064209010510700000003245745488166167727_);fill-rule:evenodd;clip-rule:evenodd;fill:#FFFFFF;" width="0.13" height="4.02"/>
	
		<rect x="50.94" y="41.71" style="clip-path:url(#SVGID_00000023239064209010510700000003245745488166167727_);fill-rule:evenodd;clip-rule:evenodd;fill:#FFFFFF;" width="0.13" height="4.02"/>
	
		<rect x="51.06" y="41.71" style="clip-path:url(#SVGID_00000023239064209010510700000003245745488166167727_);fill-rule:evenodd;clip-rule:evenodd;fill:#FFFFFF;" width="0.13" height="4.02"/>
	
		<rect x="51.19" y="41.71" style="clip-path:url(#SVGID_00000023239064209010510700000003245745488166167727_);fill-rule:evenodd;clip-rule:evenodd;fill:#FFFFFF;" width="0.13" height="4.02"/>
	
		<rect x="51.32" y="41.71" style="clip-path:url(#SVGID_00000023239064209010510700000003245745488166167727_);fill-rule:evenodd;clip-rule:evenodd;fill:#FFFFFF;" width="0.13" height="4.02"/>
	
		<rect x="51.45" y="41.71" style="clip-path:url(#SVGID_00000023239064209010510700000003245745488166167727_);fill-rule:evenodd;clip-rule:evenodd;fill:#FFFFFF;" width="0.13" height="4.02"/>
	
		<rect x="51.58" y="41.71" style="clip-path:url(#SVGID_00000023239064209010510700000003245745488166167727_);fill-rule:evenodd;clip-rule:evenodd;fill:#FFFFFF;" width="0.13" height="4.02"/>
	
		<rect x="51.71" y="41.71" style="clip-path:url(#SVGID_00000023239064209010510700000003245745488166167727_);fill-rule:evenodd;clip-rule:evenodd;fill:#FFFFFF;" width="0.13" height="4.02"/>
	
		<rect x="51.84" y="41.71" style="clip-path:url(#SVGID_00000023239064209010510700000003245745488166167727_);fill-rule:evenodd;clip-rule:evenodd;fill:#FFFFFF;" width="0.13" height="4.02"/>
	
		<rect x="51.97" y="41.71" style="clip-path:url(#SVGID_00000023239064209010510700000003245745488166167727_);fill-rule:evenodd;clip-rule:evenodd;fill:#FFFFFF;" width="0.13" height="4.02"/>
	
		<rect x="52.09" y="41.71" style="clip-path:url(#SVGID_00000023239064209010510700000003245745488166167727_);fill-rule:evenodd;clip-rule:evenodd;fill:#FFFFFF;" width="0.13" height="4.02"/>
	
		<rect x="52.22" y="41.71" style="clip-path:url(#SVGID_00000023239064209010510700000003245745488166167727_);fill-rule:evenodd;clip-rule:evenodd;fill:#FFFFFF;" width="0.13" height="4.02"/>
	
		<rect x="52.35" y="41.71" style="clip-path:url(#SVGID_00000023239064209010510700000003245745488166167727_);fill-rule:evenodd;clip-rule:evenodd;fill:#FFFFFF;" width="0.13" height="4.02"/>
	
		<rect x="52.48" y="41.71" style="clip-path:url(#SVGID_00000023239064209010510700000003245745488166167727_);fill-rule:evenodd;clip-rule:evenodd;fill:#FFFFFF;" width="0.13" height="4.02"/>
	
		<rect x="52.61" y="41.71" style="clip-path:url(#SVGID_00000023239064209010510700000003245745488166167727_);fill-rule:evenodd;clip-rule:evenodd;fill:#FFFFFF;" width="0.13" height="4.02"/>
	
		<rect x="52.74" y="41.71" style="clip-path:url(#SVGID_00000023239064209010510700000003245745488166167727_);fill-rule:evenodd;clip-rule:evenodd;fill:#FFFFFF;" width="0.13" height="4.02"/>
	
		<rect x="52.87" y="41.71" style="clip-path:url(#SVGID_00000023239064209010510700000003245745488166167727_);fill-rule:evenodd;clip-rule:evenodd;fill:#FFFFFF;" width="0.13" height="4.02"/>
	
		<rect x="53" y="41.71" style="clip-path:url(#SVGID_00000023239064209010510700000003245745488166167727_);fill-rule:evenodd;clip-rule:evenodd;fill:#FFFFFF;" width="0.13" height="4.02"/>
	
		<rect x="53.13" y="41.71" style="clip-path:url(#SVGID_00000023239064209010510700000003245745488166167727_);fill-rule:evenodd;clip-rule:evenodd;fill:#FFFFFF;" width="0.13" height="4.02"/>
	
		<rect x="53.25" y="41.71" style="clip-path:url(#SVGID_00000023239064209010510700000003245745488166167727_);fill-rule:evenodd;clip-rule:evenodd;fill:#FFFFFF;" width="0.13" height="4.02"/>
	
		<rect x="53.38" y="41.71" style="clip-path:url(#SVGID_00000023239064209010510700000003245745488166167727_);fill-rule:evenodd;clip-rule:evenodd;fill:#FFFFFF;" width="0.13" height="4.02"/>
	
		<rect x="53.51" y="41.71" style="clip-path:url(#SVGID_00000023239064209010510700000003245745488166167727_);fill-rule:evenodd;clip-rule:evenodd;fill:#FFFFFF;" width="0.13" height="4.02"/>
	
		<rect x="53.64" y="41.71" style="clip-path:url(#SVGID_00000023239064209010510700000003245745488166167727_);fill-rule:evenodd;clip-rule:evenodd;fill:#FFFFFF;" width="0" height="4.02"/>
</g>
<path class="st1" d="M39.7,31.43h-4.07c-0.16,0-0.3,0.13-0.3,0.3v3.4c0,0.16,0.13,0.3,0.3,0.3h4.07c0.16,0,0.3-0.13,0.3-0.3v-3.4
	C39.99,31.56,39.86,31.43,39.7,31.43z M39.4,34.83h-3.48v-2.8h3.48V34.83z"/>
<path class="st1" d="M39.7,37.49h-4.07c-0.16,0-0.3,0.13-0.3,0.3v3.4c0,0.16,0.13,0.3,0.3,0.3h4.07c0.16,0,0.3-0.13,0.3-0.3v-3.4
	C39.99,37.63,39.86,37.49,39.7,37.49z M39.4,40.89h-3.48v-2.8h3.48V40.89z"/>
<path class="st1" d="M39.7,43.55h-4.07c-0.16,0-0.3,0.13-0.3,0.3v3.4c0,0.16,0.13,0.3,0.3,0.3h4.07c0.16,0,0.3-0.13,0.3-0.3v-3.4
	C39.99,43.69,39.86,43.55,39.7,43.55z M39.4,46.95h-3.48v-2.8h3.48V46.95z"/>
<path class="st1" d="M41.66,33.72h7.68c0.39,0,0.39-0.59,0-0.59h-7.68C41.27,33.13,41.27,33.72,41.66,33.72z"/>
<path class="st1" d="M47.67,39.19h-6.01c-0.39,0-0.39,0.59,0,0.59h6.01C48.06,39.78,48.06,39.19,47.67,39.19z"/>
<path class="st1" d="M47.67,45.25h-6.01c-0.39,0-0.39,0.59,0,0.59h6.01C48.06,45.84,48.06,45.25,47.67,45.25z"/>
</svg>
