<svg width="350" height="79" viewBox="0 0 350 79" fill="none" xmlns="http://www.w3.org/2000/svg">
<path d="M100.813 30.7847L103.197 27.9138C104.863 29.298 106.735 30.0926 108.837 30.0926C110.426 30.0926 111.246 29.4518 111.246 28.529C111.246 27.5037 110.451 27.273 107.965 26.6835C104.3 25.8632 101.582 24.8635 101.582 21.4288C101.582 18.1478 104.223 15.9434 108.144 15.9434C111.015 15.9434 113.245 16.7636 115.065 18.2759L112.912 21.3262C111.349 20.1215 109.631 19.5063 108.016 19.5063C106.632 19.5063 105.863 20.1471 105.863 20.993C105.863 22.0439 106.683 22.3772 109.221 22.9411C113.066 23.7613 115.527 24.8635 115.527 28.0676C115.527 31.5024 112.912 33.6556 108.683 33.6556C105.632 33.6556 102.864 32.6559 100.813 30.7847Z" fill="white"/>
<path d="M129.574 25.7124V33.351H125.524V32.2488C124.627 33.1459 123.268 33.633 121.961 33.633C119.218 33.633 117.065 31.9668 117.065 29.5317C117.065 27.0197 119.474 25.2511 122.525 25.2511C123.473 25.2511 124.55 25.4818 125.549 25.8662V25.6868C125.549 24.3283 124.498 23.3286 122.73 23.3286C121.499 23.3286 120.577 23.7131 119.5 24.277L118.193 21.6368C119.987 20.7397 121.833 20.1758 123.832 20.1758C127.087 20.1758 129.574 22.2777 129.574 25.7124ZM125.524 29.4805V28.1219C124.883 27.8656 123.986 27.6862 123.114 27.6862C121.961 27.6862 121.064 28.4039 121.064 29.4036C121.064 30.4032 121.858 31.0441 122.986 31.0441C124.216 31.0697 125.344 30.4545 125.524 29.4805Z" fill="white"/>
<path d="M153.002 25.1434V33.3715H148.977V25.8867C148.977 24.5795 148.132 23.6567 146.927 23.6567C145.645 23.6567 144.748 24.5282 144.748 25.7073V33.3459H140.724V25.8611C140.724 24.5538 139.878 23.6311 138.673 23.6311C137.391 23.6311 136.494 24.5026 136.494 25.6817V33.2946H132.291V20.4013H136.494V22.0675C137.109 20.8371 138.365 20.0938 139.929 20.0938C141.646 20.0938 143.133 20.9396 143.979 22.3238C144.671 20.9653 146.235 20.0938 148.132 20.0938C150.849 20.1706 153.002 22.2469 153.002 25.1434Z" fill="white"/>
<path d="M170.124 26.8881C170.124 30.8612 167.689 33.6295 164.229 33.6295C162.511 33.6295 161.05 32.9118 160.025 31.6814V37.6026H155.796V20.4287H160.025V22.0692C161.05 20.8388 162.511 20.1211 164.229 20.1211C167.689 20.1724 170.124 22.9663 170.124 26.8881ZM166.074 26.8881C166.074 25.0169 164.767 23.684 162.973 23.684C161.23 23.684 160.025 25.0426 160.025 26.8881C160.025 28.785 161.23 30.1179 162.973 30.1179C164.767 30.1435 166.074 28.785 166.074 26.8881Z" fill="white"/>
<path d="M172.457 15.9434H176.686V33.348H172.457V15.9434Z" fill="white"/>
<path d="M188.657 29.145L191.143 31.657C189.99 32.8361 187.785 33.6564 185.863 33.6564C181.864 33.6564 178.942 30.8368 178.942 26.8894C178.942 22.9676 181.787 20.1992 185.658 20.1992C189.733 20.1992 192.143 23.1982 192.143 28.0941H182.941C183.351 29.3757 184.35 30.2729 185.735 30.2729C186.734 30.2472 187.888 29.8115 188.657 29.145ZM183.018 25.5052H188.247C187.888 24.3261 187.016 23.5571 185.76 23.5571C184.479 23.5571 183.453 24.3005 183.018 25.5052Z" fill="white"/>
<path d="M200.576 26.8916C200.576 23.2261 203.857 20.1758 207.753 20.1758C209.957 20.1758 211.726 21.0729 212.956 22.4571L210.162 24.764C209.598 24.1489 208.624 23.6618 207.727 23.6618C206.061 23.6618 204.626 25.1229 204.626 26.8403C204.626 28.6089 206.035 30.0956 207.727 30.0956C208.65 30.0956 209.65 29.6342 210.239 28.9422L213.033 31.2235C211.752 32.6589 209.957 33.5817 207.702 33.5817C203.857 33.6586 200.576 30.557 200.576 26.8916Z" fill="white"/>
<path d="M214.033 26.8916C214.033 23.2261 217.288 20.1758 221.184 20.1758C225.081 20.1758 228.336 23.2517 228.336 26.8916C228.336 30.5314 225.081 33.633 221.184 33.633C217.288 33.633 214.033 30.557 214.033 26.8916ZM224.337 26.8916C224.337 25.1485 222.902 23.6875 221.184 23.6875C219.467 23.6875 218.032 25.1485 218.032 26.8916C218.032 28.6346 219.467 30.1213 221.184 30.1213C222.902 30.1213 224.337 28.6346 224.337 26.8916Z" fill="white"/>
<path d="M230.566 15.9434H234.796V33.348H230.566V15.9434Z" fill="white"/>
<path d="M237.743 15.9434H241.973V33.348H237.743V15.9434Z" fill="white"/>
<path d="M253.943 29.145L256.429 31.657C255.276 32.8361 253.072 33.6564 251.149 33.6564C247.15 33.6564 244.228 30.8368 244.228 26.8894C244.228 22.9676 247.074 20.1992 250.944 20.1992C255.02 20.1992 257.429 23.1982 257.429 28.0941H248.227C248.637 29.3757 249.637 30.2729 251.021 30.2729C252.021 30.2472 253.174 29.8115 253.943 29.145ZM248.278 25.5052H253.507C253.148 24.3261 252.277 23.5571 251.021 23.5571C249.739 23.5571 248.74 24.3005 248.278 25.5052Z" fill="white"/>
<path d="M258.993 26.8916C258.993 23.2261 262.274 20.1758 266.17 20.1758C268.374 20.1758 270.143 21.0729 271.373 22.4571L268.579 24.764C268.015 24.1489 267.041 23.6618 266.144 23.6618C264.478 23.6618 263.043 25.1229 263.043 26.8403C263.043 28.6089 264.452 30.0956 266.144 30.0956C267.067 30.0956 268.067 29.6342 268.656 28.9422L271.45 31.2235C270.169 32.6589 268.374 33.5817 266.119 33.5817C262.248 33.6586 258.993 30.557 258.993 26.8916Z" fill="white"/>
<path d="M281.422 32.4275C280.653 33.1452 279.371 33.6578 278.294 33.6578C275.885 33.6578 274.193 31.9404 274.193 29.531V23.8405H272.501V20.4826H274.193V16.9453H278.218V20.4826H280.883V23.8405H278.218V28.762C278.218 29.5822 278.705 30.1462 279.397 30.1462C279.858 30.1462 280.345 29.9667 280.601 29.7104L281.422 32.4275Z" fill="white"/>
<path d="M283.447 16.6612C283.447 15.4821 284.446 14.4824 285.702 14.4824C286.933 14.4824 287.907 15.5077 287.907 16.6612C287.907 17.8916 286.933 18.9169 285.702 18.9169C284.446 18.8912 283.447 17.8916 283.447 16.6612ZM283.549 20.4805H287.753V33.3737H283.549V20.4805Z" fill="white"/>
<path d="M290.034 26.8916C290.034 23.2261 293.29 20.1758 297.186 20.1758C301.082 20.1758 304.337 23.2517 304.337 26.8916C304.337 30.5314 301.082 33.633 297.186 33.633C293.29 33.633 290.034 30.557 290.034 26.8916ZM300.339 26.8916C300.339 25.1485 298.903 23.6875 297.186 23.6875C295.469 23.6875 294.033 25.1485 294.033 26.8916C294.033 28.6346 295.469 30.1213 297.186 30.1213C298.903 30.1213 300.339 28.6346 300.339 26.8916Z" fill="white"/>
<path d="M319.204 25.1485V33.351H315.18V26.0969C315.18 24.6871 314.283 23.6875 312.975 23.6875C311.694 23.6875 310.72 24.6615 310.72 25.9431L310.694 25.8662V33.3766H306.49V20.4834H310.694V21.9444C311.489 20.8422 312.873 20.1758 314.488 20.1758C317.23 20.1758 319.204 22.252 319.204 25.1485Z" fill="white"/>
<path d="M113.63 55.6245V63.2631H109.58V62.1609C108.683 63.0837 107.324 63.5707 106.017 63.5707C103.274 63.5707 101.121 61.9046 101.121 59.4695C101.121 56.9574 103.531 55.1888 106.581 55.1888C107.53 55.1888 108.606 55.4195 109.606 55.804V55.6245C109.606 54.266 108.555 53.2663 106.786 53.2663C105.556 53.2663 104.633 53.6508 103.556 54.2147L102.249 51.5746C104.043 50.6774 105.889 50.1135 107.888 50.1135C111.144 50.0879 113.63 52.1898 113.63 55.6245ZM109.58 59.4182V58.0596C108.939 57.8033 108.042 57.6239 107.171 57.6239C106.017 57.6239 105.12 58.3416 105.12 59.3413C105.12 60.341 105.915 60.9818 107.042 60.9818C108.273 60.9818 109.401 60.3922 109.58 59.4182Z" fill="white"/>
<path d="M124.472 62.3415C123.703 63.0592 122.422 63.5719 121.345 63.5719C118.936 63.5719 117.244 61.8545 117.244 59.445V53.7546H115.552V50.3967H117.244V46.8594H121.268V50.3967H123.934V53.7546H121.268V58.6761C121.268 59.4963 121.755 60.0602 122.447 60.0602C122.909 60.0602 123.396 59.8808 123.652 59.6245L124.472 62.3415Z" fill="white"/>
<path d="M133.136 66.8251L134.008 64.0311C134.674 64.4156 135.392 64.6719 135.776 64.6719C136.392 64.6719 136.955 64.4669 137.16 64.1337L137.519 63.4159L132.239 50.3945H136.571L139.596 58.8789L142.441 50.3945H146.721L141.672 63.6466C140.647 66.2868 138.878 67.7479 136.75 67.7479C135.597 67.7479 134.11 67.389 133.136 66.8251Z" fill="white"/>
<path d="M147.132 56.829C147.132 53.1636 150.387 50.1133 154.284 50.1133C158.18 50.1133 161.435 53.1892 161.435 56.829C161.435 60.4689 158.18 63.5705 154.284 63.5705C150.387 63.5705 147.132 60.4689 147.132 56.829ZM157.436 56.829C157.436 55.086 156.001 53.625 154.284 53.625C152.566 53.625 151.131 55.086 151.131 56.829C151.131 58.5721 152.566 60.0588 154.284 60.0588C156.001 60.0588 157.436 58.5721 157.436 56.829Z" fill="white"/>
<path d="M176.276 50.3948V63.288H172.072V61.827C171.252 62.9035 169.894 63.57 168.279 63.57C165.51 63.57 163.537 61.4937 163.537 58.5972V50.3948H167.587V57.6488C167.587 59.0586 168.484 60.0583 169.791 60.0583C171.073 60.0583 172.047 59.0843 172.047 57.8026L172.072 57.8795V50.3691H176.276V50.3948Z" fill="white"/>
<path d="M187.529 50.0879V53.5996C184.915 53.5996 183.325 55.0863 183.325 57.4701L183.3 57.4188V63.2631H179.096V50.3698H183.3V52.7537C184.146 51.1132 185.684 50.0879 187.529 50.0879Z" fill="white"/>
<path d="M195.654 56.829C195.654 53.1636 198.935 50.1133 202.831 50.1133C205.036 50.1133 206.805 51.0104 208.035 52.3946L205.241 54.7015C204.677 54.0864 203.703 53.5993 202.806 53.5993C201.14 53.5993 199.704 55.0604 199.704 56.7778C199.704 58.5464 201.114 60.0331 202.806 60.0331C203.729 60.0331 204.728 59.5717 205.318 58.8797L208.112 61.161C206.83 62.5964 205.036 63.5192 202.78 63.5192C198.91 63.5705 195.654 60.4689 195.654 56.829Z" fill="white"/>
<path d="M209.086 56.829C209.086 53.1636 212.342 50.1133 216.238 50.1133C220.134 50.1133 223.389 53.1892 223.389 56.829C223.389 60.4689 220.134 63.5705 216.238 63.5705C212.342 63.5705 209.086 60.4689 209.086 56.829ZM219.416 56.829C219.416 55.086 217.981 53.625 216.263 53.625C214.546 53.625 213.111 55.086 213.111 56.829C213.111 58.5721 214.546 60.0588 216.263 60.0588C217.981 60.0588 219.416 58.5721 219.416 56.829Z" fill="white"/>
<path d="M238.281 55.0863V63.2887H234.257V56.0347C234.257 54.6249 233.36 53.6252 232.053 53.6252C230.771 53.6252 229.797 54.5992 229.797 55.8809L229.771 55.804V63.3144H225.568V50.4211H229.771V51.8822C230.566 50.78 231.95 50.1135 233.565 50.1135C236.308 50.0879 238.281 52.1641 238.281 55.0863Z" fill="white"/>
<path d="M239.871 50.3945H244.228L247.407 58.4432L250.534 50.3945H254.892L249.355 63.2878H245.433L239.871 50.3945Z" fill="white"/>
<path d="M264.837 59.0591L267.323 61.5711C266.17 62.7502 263.966 63.5705 262.043 63.5705C258.044 63.5705 255.122 60.7509 255.122 56.8034C255.122 52.8816 257.968 50.1133 261.838 50.1133C265.914 50.1133 268.323 53.1123 268.323 58.0082H259.121C259.531 59.2898 260.531 60.1869 261.915 60.1869C262.915 60.1613 264.068 59.7256 264.837 59.0591ZM259.172 55.4193H264.401C264.043 54.2401 263.171 53.4712 261.915 53.4712C260.633 53.4712 259.634 54.2145 259.172 55.4193Z" fill="white"/>
<path d="M283.241 55.0863V63.2887H279.217V56.0347C279.217 54.6249 278.32 53.6252 277.012 53.6252C275.731 53.6252 274.757 54.5992 274.757 55.8809L274.731 55.804V63.3144H270.527V50.4211H274.731V51.8822C275.526 50.78 276.91 50.1135 278.525 50.1135C281.267 50.0879 283.241 52.1641 283.241 55.0863Z" fill="white"/>
<path d="M285.958 46.5753C285.958 45.3962 286.958 44.3965 288.214 44.3965C289.445 44.3965 290.419 45.4218 290.419 46.5753C290.419 47.8056 289.445 48.8309 288.214 48.8309C286.958 48.8309 285.958 47.8056 285.958 46.5753ZM286.061 50.3945H290.265V63.2878H286.061V50.3945Z" fill="white"/>
<path d="M302.261 59.0591L304.747 61.5711C303.594 62.7502 301.389 63.5705 299.467 63.5705C295.468 63.5705 292.546 60.7509 292.546 56.8034C292.546 52.8816 295.391 50.1133 299.262 50.1133C303.337 50.1133 305.747 53.1123 305.747 58.0082H296.545C296.955 59.2898 297.955 60.1869 299.339 60.1869C300.338 60.1613 301.492 59.7256 302.261 59.0591ZM296.596 55.4193H301.825C301.466 54.2401 300.595 53.4712 299.339 53.4712C298.057 53.4712 297.058 54.2145 296.596 55.4193Z" fill="white"/>
<path d="M320.64 55.0863V63.2887H316.615V56.0347C316.615 54.6249 315.718 53.6252 314.411 53.6252C313.129 53.6252 312.155 54.5992 312.155 55.8809L312.13 55.804V63.3144H307.926V50.4211H312.13V51.8822C312.924 50.78 314.308 50.1135 315.923 50.1135C318.692 50.0879 320.64 52.1641 320.64 55.0863Z" fill="white"/>
<path d="M322.793 56.829C322.793 53.1636 326.074 50.1133 329.97 50.1133C332.175 50.1133 333.943 51.0104 335.174 52.3946L332.38 54.7015C331.816 54.0864 330.842 53.5993 329.944 53.5993C328.278 53.5993 326.843 55.0604 326.843 56.7778C326.843 58.5464 328.253 60.0331 329.944 60.0331C330.867 60.0331 331.867 59.5717 332.457 58.8797L335.25 61.161C333.969 62.5964 332.175 63.5192 329.919 63.5192C326.048 63.5705 322.793 60.4689 322.793 56.829Z" fill="white"/>
<path d="M346.221 59.0591L348.707 61.5711C347.554 62.7502 345.349 63.5705 343.427 63.5705C339.428 63.5705 336.506 60.7509 336.506 56.8034C336.506 52.8816 339.351 50.1133 343.222 50.1133C347.297 50.1133 349.707 53.1123 349.707 58.0082H340.505C340.915 59.2898 341.915 60.1869 343.299 60.1869C344.298 60.1613 345.426 59.7256 346.221 59.0591ZM340.556 55.4193H345.785C345.426 54.2401 344.555 53.4712 343.299 53.4712C342.017 53.4712 340.992 54.2145 340.556 55.4193Z" fill="white"/>
<path d="M39.5 79C17.7122 79 0 61.2878 0 39.5C0 17.7122 17.7378 0 39.5 0C61.2622 0 79 17.7122 79 39.5C79 61.2878 61.2878 79 39.5 79ZM39.5 2.56327C19.1476 2.56327 2.56327 19.122 2.56327 39.5C2.56327 59.878 19.122 76.4367 39.5 76.4367C59.878 76.4367 76.4367 59.878 76.4367 39.5C76.4367 19.122 59.878 2.56327 39.5 2.56327Z" fill="white"/>
<path fill-rule="evenodd" clip-rule="evenodd" d="M39.321 64.0078C38.7058 64.0078 38.1931 64.5205 38.1931 65.1357V66.9043C38.1931 67.5195 38.7058 68.0322 39.321 68.0322C39.9361 68.0322 40.4488 67.5195 40.4488 66.9043V65.1357C40.4488 64.4948 39.9361 64.0078 39.321 64.0078Z" fill="white"/>
<path fill-rule="evenodd" clip-rule="evenodd" d="M57.3407 55.8555L55.8027 54.984C55.2644 54.6764 54.5724 54.8558 54.2648 55.3941C53.9572 55.9324 54.1366 56.5989 54.6749 56.9321L56.2128 57.8036C56.7511 58.1112 57.4432 57.9318 57.7508 57.3935C58.0584 56.8295 57.879 56.1631 57.3407 55.8555Z" fill="white"/>
<path fill-rule="evenodd" clip-rule="evenodd" d="M23.9667 36.5762L22.4287 35.7047C21.8904 35.3971 21.1983 35.5765 20.8907 36.1148C20.5831 36.6531 20.7626 37.3196 21.3009 37.6528L22.8388 38.5499C23.3771 38.8575 24.0436 38.6781 24.3768 38.1398C24.6844 37.5503 24.4793 36.8838 23.9667 36.5762Z" fill="white"/>
<path fill-rule="evenodd" clip-rule="evenodd" d="M30.6823 61.6988C30.144 61.3912 29.4519 61.5707 29.1443 62.109L28.2472 63.6469C27.9396 64.1852 28.119 64.8517 28.6573 65.1849C29.1956 65.4925 29.8877 65.3131 30.1953 64.7748L31.0668 63.2368C31.4 62.6729 31.2206 62.0064 30.6823 61.6988Z" fill="white"/>
<path fill-rule="evenodd" clip-rule="evenodd" d="M48.4458 28.7105L47.5487 30.2485C47.2411 30.7868 47.4205 31.4532 47.9588 31.7864C48.4971 32.094 49.1892 31.9146 49.4968 31.3763L50.3939 29.8384C50.7015 29.3001 50.5221 28.608 49.9838 28.3004C49.4199 27.9928 48.7534 28.1722 48.4458 28.7105Z" fill="white"/>
<path fill-rule="evenodd" clip-rule="evenodd" d="M49.4968 62.109C49.1892 61.5707 48.4971 61.3912 47.9588 61.6988C47.4205 62.0064 47.2411 62.6985 47.5487 63.2368L48.4202 64.7748C48.7278 65.3131 49.4199 65.4925 49.9582 65.1849C50.4965 64.8773 50.6759 64.1852 50.3683 63.6469L49.4968 62.109Z" fill="white"/>
<path fill-rule="evenodd" clip-rule="evenodd" d="M29.1697 31.3763C29.4773 31.9146 30.1694 32.094 30.7077 31.7864C31.246 31.4789 31.4254 30.7868 31.1178 30.2485L30.2463 28.7105C29.9387 28.1722 29.2466 27.9928 28.7083 28.3004C28.17 28.608 27.9906 29.3001 28.2982 29.8384L29.1697 31.3763Z" fill="white"/>
<path fill-rule="evenodd" clip-rule="evenodd" d="M22.8388 54.9606L21.3009 55.8321C20.7626 56.1397 20.5831 56.8318 20.8907 57.37C21.1983 57.9083 21.8904 58.0878 22.4287 57.7802L23.9667 56.9087C24.5049 56.6011 24.6844 55.909 24.3768 55.3707C24.0436 54.8324 23.3771 54.653 22.8388 54.9606Z" fill="white"/>
<path fill-rule="evenodd" clip-rule="evenodd" d="M55.8027 38.5011L57.3407 37.604C57.879 37.2964 58.0584 36.6043 57.7508 36.066C57.4432 35.5277 56.7511 35.3483 56.2128 35.6559L54.6749 36.5274C54.1366 36.835 53.9572 37.5271 54.2648 38.0653C54.598 38.6293 55.2644 38.8087 55.8027 38.5011Z" fill="white"/>
<path fill-rule="evenodd" clip-rule="evenodd" d="M54.1876 42.1441C53.9057 41.5032 53.4699 40.9906 52.906 40.6317C52.3677 40.2729 51.7012 40.0934 50.9835 40.0934C50.7528 40.0934 50.5221 40.1447 50.2914 40.1703V37.3251C50.2914 36.7099 49.7788 36.1973 49.1636 36.1973H29.3751C28.76 36.1973 28.2473 36.7099 28.2473 37.3251V46.2453C28.2473 49.27 29.4777 52.0383 31.477 54.012C33.4764 56.0114 36.2191 57.2417 39.2437 57.2417C42.2684 57.2417 45.0367 56.0114 47.0105 54.012C48.0101 53.0123 48.8304 51.8076 49.3687 50.5003C49.5225 50.5003 49.6763 50.4747 49.8301 50.4234C51.1117 49.8851 52.2652 48.8855 53.0854 47.7064C53.9313 46.5016 54.4439 45.1175 54.4439 43.8102C54.5208 43.195 54.4183 42.6311 54.1876 42.1441ZM48.087 46.2453C48.087 48.6548 47.0874 50.8592 45.4981 52.4484C43.9089 54.0376 41.7045 55.0373 39.295 55.0373C36.8855 55.0373 34.6811 54.0633 33.0919 52.4484C31.5027 50.8592 30.503 48.6548 30.503 46.2453V38.4529H48.0358V46.2453H48.087ZM51.3424 46.4247C51.0092 46.8861 50.6247 47.2962 50.1889 47.6295C50.2402 47.1681 50.3427 46.7067 50.3427 46.2453V42.4773C50.5734 42.426 50.8297 42.3235 51.0348 42.3235C51.3167 42.3235 51.5731 42.3747 51.7525 42.5029C51.9319 42.6054 52.0601 42.7849 52.1626 43.0156C52.2652 43.2206 52.2908 43.5026 52.2908 43.8102C52.2908 44.6561 51.9319 45.6045 51.3424 46.4247Z" fill="white"/>
<path fill-rule="evenodd" clip-rule="evenodd" d="M59.468 45.6035H57.6994C57.0842 45.6035 56.5715 46.1162 56.5715 46.7314C56.5715 47.3465 57.0842 47.8592 57.6994 47.8592H59.468C60.0832 47.8592 60.5959 47.3465 60.5959 46.7314C60.5959 46.1162 60.1088 45.6035 59.468 45.6035Z" fill="white"/>
<path fill-rule="evenodd" clip-rule="evenodd" d="M22.0441 46.7314C22.0441 46.1162 21.5315 45.6035 20.9163 45.6035H19.1476C18.5324 45.6035 18.0198 46.1162 18.0198 46.7314C18.0198 47.3465 18.5324 47.8592 19.1476 47.8592H20.9163C21.5571 47.8592 22.0441 47.3465 22.0441 46.7314Z" fill="white"/>
<path fill-rule="evenodd" clip-rule="evenodd" d="M33.7838 47.7016H38.6028C38.7566 47.7016 38.8848 47.6759 39.0129 47.6247C39.1411 47.6759 39.2692 47.7016 39.423 47.7016C40.0382 47.7016 40.5509 47.1889 40.5509 46.5737V41.7548C40.5509 41.1396 40.0382 40.627 39.423 40.627C38.8079 40.627 38.2952 41.1396 38.2952 41.7548V45.4459H33.7582C33.143 45.4459 32.6304 45.9586 32.6304 46.5737C32.656 47.1889 33.1687 47.7016 33.7838 47.7016Z" fill="white"/>
<path fill-rule="evenodd" clip-rule="evenodd" d="M33.7587 32.3503C34.4252 33.1962 35.348 33.9139 36.3989 34.4522C36.9372 34.7341 37.6293 34.5291 37.9112 33.9652C38.1932 33.4269 37.9881 32.7348 37.4242 32.4528C36.6296 32.0427 35.9631 31.5301 35.5018 30.9405C35.1173 30.4535 34.8609 29.8896 34.8097 29.2744C34.7584 28.6336 34.8866 27.9158 35.2967 27.1212C35.8606 26.019 36.9116 24.7887 38.6033 23.4558C45.8317 17.7397 39.9106 11.3315 39.9106 11.3059C39.5005 10.8445 38.7827 10.8188 38.347 11.229C37.8856 11.6391 37.86 12.3568 38.2701 12.7925C38.2957 12.8182 42.5764 17.4577 37.2448 21.6871C35.2967 23.2251 34.0407 24.6861 33.3486 26.0703C32.7334 27.2494 32.5284 28.3772 32.6053 29.4282C32.6822 30.556 33.0923 31.5044 33.7587 32.3503Z" fill="white"/>
<path fill-rule="evenodd" clip-rule="evenodd" d="M41.2685 29.5051C41.3711 30.5816 41.7812 31.5301 42.4476 32.3503C43.1141 33.1962 44.0369 33.9139 45.0878 34.4522C45.6261 34.7341 46.3182 34.5291 46.6001 33.9652C46.8821 33.4269 46.677 32.7348 46.1131 32.4528C45.3185 32.0427 44.652 31.5301 44.1907 30.9405C43.8062 30.4535 43.5498 29.8896 43.4986 29.2744C43.4473 28.6336 43.6011 27.9158 43.9856 27.1212C44.5495 26.019 45.6261 24.7887 47.2922 23.4558C54.5206 17.7397 48.5995 11.3315 48.5995 11.3059C48.1894 10.8445 47.4716 10.8188 47.0359 11.229C46.5745 11.6391 46.5489 12.3568 46.959 12.7925C46.959 12.8182 51.2653 17.4577 45.9337 21.6871C43.9856 23.2251 42.7296 24.6861 42.0375 26.0703C41.3967 27.3263 41.1916 28.4541 41.2685 29.5051Z" fill="white"/>
</svg>
