<?xml version="1.0" encoding="utf-8"?>
<!-- Generator: Adobe Illustrator 28.0.0, SVG Export Plug-In . SVG Version: 6.00 Build 0)  -->
<svg version="1.1" id="Layer_1" xmlns="http://www.w3.org/2000/svg" xmlns:xlink="http://www.w3.org/1999/xlink" x="0px" y="0px"
	 width="162px" height="142px" viewBox="0 0 162 142" style="enable-background:new 0 0 162 142;" xml:space="preserve">
<style type="text/css">
	.st0{opacity:0.2;fill:#7BDB81;}
	.st1{fill:#143A69;}
	.st2{fill:#FEFEFE;stroke:#143A69;}
	.st3{fill:#E2E1E1;}
	.st4{fill:none;stroke:#E2E1E1;stroke-linecap:round;stroke-miterlimit:10;}
	.st5{fill:none;stroke:#7BDB81;stroke-linecap:round;stroke-miterlimit:10;}
	.st6{fill:none;stroke:#E2E1E1;stroke-width:0.5;stroke-linecap:round;stroke-miterlimit:10;}
	.st7{fill:#6DCF73;}
	.st8{fill:#4EA454;}
	.st9{fill:#455A64;}
	.st10{opacity:0.3;}
	.st11{opacity:0.3;fill:#222222;enable-background:new    ;}
	.st12{fill:#7BDB81;}
	.st13{fill:#FFFFFF;filter:url(#Adobe_OpacityMaskFilter);}
	.st14{mask:url(#path-38-inside-1_343_11045_00000030482294419094775750000014270481732407655070_);fill:#7BDB81;}
	.st15{fill:#7BDB81;stroke:#7BDB81;}
	.st16{fill:#FFBE9D;}
	.st17{fill:#EB996E;}
	.st18{fill:#E0E0E0;}
	.st19{fill:#FFFFFF;}
	.st20{opacity:0.6;}
	.st21{opacity:0.6;fill:#FFFFFF;enable-background:new    ;}
	.st22{fill:#F5F5F5;}
</style>
<path class="st0" d="M35.3,135.6c-18.7-8.5-33.8-26.5-35.2-46.9c-1.4-20.5,13.7-41.9,34-44.2c9.7-1.1,19.7,1.8,29.1-0.8
	c17.7-4.8,25.7-26.3,42.4-33.9c16-7.3,36.2,1.2,46.1,15.8c9.9,14.6,11.3,33.5,8.8,51c-3.7,25.6-17.4,52.3-42,60.8
	C97.7,144.5,55.9,142.9,35.3,135.6z"/>
<path class="st1" d="M35.4,126.3l-4.2,10.1l-3,0l1.3-10.1L35.4,126.3z"/>
<path class="st1" d="M51.6,126.3l-4.2,10l-3,0l1.3-10L51.6,126.3z"/>
<path class="st2" d="M78.9,14.6L78.9,14.6c-0.2,0-0.4,0.1-0.6,0.2c-0.2,0.2-0.2,0.4-0.2,0.6v0l0,0l-0.4,70.1v0
	c0,0.2,0.1,0.4,0.2,0.6c0.1,0.2,0.3,0.2,0.5,0.3l0,0c3.9,0.4,17,1.5,30.1,2.5c6.5,0.5,13.1,0.9,18.4,1.1c5.4,0.2,9.5,0.3,11.2,0
	c1.4-0.2,2.3-0.8,2.9-1.5c0.7-0.8,1.1-1.9,1.3-3.2c0.4-2.1,0.3-4.6,0.2-6.9c0-0.5,0-1-0.1-1.5 M78.9,14.6l63.7-0.2l-0.5,0
	c0,0,0,0,0,0c0.1,8.7,0.4,57.5,0.5,62.5 M78.9,14.6l62.4-1.1 M78.9,14.6l62.4-1.1 M142.6,76.9l0.5,0L142.6,76.9L142.6,76.9z
	 M141.3,13.6L141.3,13.6l0-0.5L141.3,13.6 M141.3,13.6C141.3,13.6,141.3,13.6,141.3,13.6 M141.3,13.6L141.3,13.6"/>
<path class="st1" d="M67.7,84.9c0,0-0.2,5.1,4.5,5.7c4.6,0.7,66.4,0,66.4,0s-5.3-1.1-6.8-6.4L67.7,84.9z"/>
<path class="st3" d="M88.9,35.9c2.4,0,4.4-2,4.4-4.4s-2-4.4-4.4-4.4c-2.4,0-4.4,2-4.4,4.4S86.5,35.9,88.9,35.9z"/>
<path class="st4" d="M96.5,28.6h37.7"/>
<path class="st4" d="M96.5,41.4h24.4"/>
<path class="st4" d="M96.5,56.5h24.4"/>
<path class="st4" d="M96.5,71.6h24.4"/>
<path class="st4" d="M96.5,31.1H121"/>
<path class="st4" d="M96.5,43.9h16"/>
<path class="st4" d="M96.5,46.7h10.4"/>
<path class="st4" d="M96.5,59h16"/>
<path class="st4" d="M96.5,61.8h10.4"/>
<path class="st4" d="M96.5,74.2h16"/>
<path class="st4" d="M96.5,77h10.4"/>
<path class="st5" d="M84.3,30.2l3.9,2.7l6.3-6.5"/>
<path class="st3" d="M92.5,39.4h-6.7c-0.9,0-1.5,0.7-1.5,1.5v6.7c0,0.9,0.7,1.5,1.5,1.5h6.7c0.9,0,1.5-0.7,1.5-1.5V41
	C94,40.1,93.3,39.4,92.5,39.4z"/>
<path class="st6" d="M134,39.4h-2.7c-0.3,0-0.6,0.3-0.6,0.7V43c0,0.4,0.3,0.7,0.6,0.7h2.7c0.3,0,0.6-0.3,0.6-0.7v-2.9
	C134.6,39.7,134.4,39.4,134,39.4z"/>
<path class="st3" d="M92.5,55.1h-6.7c-0.9,0-1.5,0.7-1.5,1.5v6.7c0,0.9,0.7,1.5,1.5,1.5h6.7c0.9,0,1.5-0.7,1.5-1.5v-6.7
	C94,55.8,93.3,55.1,92.5,55.1z"/>
<path class="st6" d="M134,55.1h-2.7c-0.3,0-0.6,0.3-0.6,0.6v2.7c0,0.3,0.3,0.6,0.6,0.6h2.7c0.3,0,0.6-0.3,0.6-0.6v-2.7
	C134.6,55.4,134.4,55.1,134,55.1z"/>
<path class="st3" d="M92.5,70.5h-6.7c-0.9,0-1.5,0.7-1.5,1.5v6.7c0,0.9,0.7,1.5,1.5,1.5h6.7c0.9,0,1.5-0.7,1.5-1.5v-6.7
	C94,71.2,93.3,70.5,92.5,70.5z"/>
<path class="st6" d="M134,70.5h-2.7c-0.3,0-0.6,0.3-0.6,0.6v2.7c0,0.3,0.3,0.6,0.6,0.6h2.7c0.3,0,0.6-0.3,0.6-0.6v-2.7
	C134.6,70.8,134.4,70.5,134,70.5z"/>
<path class="st7" d="M98.5,6.7l21.1-0.4c0.6,0,1.1,0.2,1.6,0.6c0.4,0.4,0.7,1,0.7,1.5l0.1,7.6l-25.5,0.5l-0.1-7.6
	c0-0.6,0.2-1.1,0.6-1.6C97.3,6.9,97.9,6.7,98.5,6.7L98.5,6.7z"/>
<path class="st7" d="M114.4,7.4c0.5-3-1.4-5.8-4.4-6.4c-3-0.5-5.8,1.4-6.4,4.4c-0.5,3,1.4,5.8,4.4,6.4
	C111,12.3,113.8,10.3,114.4,7.4z"/>
<path class="st8" d="M103.5,6.5C103.5,6.5,103.5,6.5,103.5,6.5l11-0.2c0,0,0,0,0-0.1c0-0.6-0.1-1.2-0.3-1.7l-10.4,0.2
	C103.6,5.3,103.5,5.9,103.5,6.5z"/>
<path class="st9" d="M28.4,65.9c1.6-2.5,34.1-2.8,35.5-0.3l11.8,22.5l17.8-0.8c0,0,2.4-0.1,4.7,2.1c1.2,1.1,1.1,8.1,0.8,10.8
	c-0.2,1.8-2.9,26.2-2.9,26.2l-67.1-0.1C28.9,126.3,26.7,68.3,28.4,65.9z"/>
<path class="st1" d="M48,126.9c0,0,0-0.1,0-0.2s0-0.4,0-0.6c0-0.6,0-1.4,0.1-2.4c0-2.1,0.1-5.1,0.2-8.8l-0.1,0.1l20.4,0.1l21.1,0.1
	l-0.1,0c0.5,2.7,0.6,5.5,0.4,8.2c-0.1,1-0.2,1.7-0.2,2.2c0,0.3-0.1,0.4-0.1,0.6c0,0.1,0,0.2,0,0.2c0.2-1,0.3-2,0.4-3
	c0.2-2.8,0.1-5.5-0.3-8.3v0h0l-21.1-0.2l-20.4-0.1h-0.1v0.1c-0.1,3.7-0.1,6.7-0.1,8.8c0,1,0,1.9,0,2.4c0,0.3,0,0.5,0,0.6
	C48,126.8,48,126.9,48,126.9z"/>
<path class="st1" d="M50,89.1h-0.1c-0.1,0-0.3,0-0.4,0c-0.5,0.1-1,0.2-1.5,0.5c-0.7,0.4-1.4,1-1.9,1.7c-0.7,0.9-1.1,2-1.3,3.1
	c-0.2,1.4-0.3,2.8-0.3,4.2c0,1.5,0.1,3.1,0.2,4.9c0.2,3.5,0.6,7.3,1.1,11.5v0.1h0.1l17,0.1l30.8,0.2h0v0c0.1-2,0-4.1-0.3-6.1
	c-0.3-1.8-0.8-3.3-1.6-4.3c-0.3-0.5-0.7-0.9-1.2-1.2l-0.1-0.1l-0.2-0.1l-0.3-0.1c-0.2-0.1-0.4-0.1-0.5-0.2l-0.4-0.1
	c-0.1,0-0.2,0-0.3,0h-0.3c0,0,0.1,0,0.3,0c0.1,0,0.2,0,0.3,0l0.4,0.1c0.2,0,0.3,0.1,0.5,0.2l0.3,0.2l0.2,0.1l0.1,0.1
	c0.5,0.3,0.9,0.7,1.2,1.2c0.7,1,1.3,2.5,1.6,4.3c0.3,2,0.4,4.1,0.3,6.1l0.1,0l-30.8-0.2l-17-0.1l0.1,0.1c-0.5-4.2-0.9-8-1.1-11.5
	c-0.1-1.7-0.2-3.3-0.2-4.9c0-1.4,0-2.8,0.3-4.1c0.2-1.1,0.6-2.2,1.2-3.1c0.5-0.7,1.1-1.2,1.8-1.6c0.5-0.3,1-0.4,1.5-0.5
	C49.8,89.1,50,89.1,50,89.1z"/>
<path class="st1" d="M95.1,126.4l1,9.9l-3,0l-3.7-9.9L95.1,126.4z"/>
<path class="st1" d="M89.5,103c-0.1,0-0.2,0-0.3,0l-0.8-0.1c-0.7-0.1-1.6-0.3-2.6-0.4c-0.9-0.1-1.8-0.1-2.7-0.1h-0.8
	c-0.1,0-0.2,0-0.3,0c0.1,0,0.2,0,0.3,0c0.2,0,0.5,0,0.8-0.1c0.9,0,1.8,0,2.7,0.1c1,0.1,2,0.3,2.7,0.4c0.3,0.1,0.6,0.1,0.8,0.2
	C89.3,102.9,89.4,102.9,89.5,103z"/>
<path class="st1" d="M94.2,87.3c0,0-0.2,0.1-0.6,0.3c-0.5,0.3-1,0.7-1.5,1.1c-0.7,0.6-1.2,1.3-1.7,2.1c-0.6,1-1,2-1.3,3.1
	c-0.6,2.3-0.5,4.5-0.5,6c0,0.8,0.1,1.4,0.1,1.8c0,0.2,0,0.4,0,0.5c0,0.1,0,0.1,0,0.2c0-0.1,0-0.1,0-0.2c0-0.1,0-0.3,0-0.5
	c0-0.4-0.1-1.1-0.1-1.8c0-0.8-0.1-1.7,0-2.7c0-1.1,0.2-2.2,0.5-3.3c0.3-1.1,0.7-2.1,1.3-3.1c0.5-0.8,1.1-1.5,1.7-2.1
	c0.5-0.4,1-0.8,1.5-1.1c0.2-0.1,0.4-0.2,0.5-0.2C94.1,87.4,94.2,87.4,94.2,87.3z"/>
<g class="st10">
	<path class="st11" d="M59.1,106c2,0.5,4.1,0.7,6.2,0.6c0.2,6.5,0.7,13,1.7,19.4c0.5,0.3,1.1,0.4,1.6,0.5c0.6,0,1.2-0.2,1.4-0.8
		c0.1-0.3,0.2-0.7,0.1-1c-0.3-6.5-0.9-12.9-2-19.3c-0.1-0.5-0.2-1-0.6-1.3c-0.4-0.3-0.9-0.2-1.3-0.1c-2.5,0.5-5,1-7.4,1.7"/>
</g>
<g class="st10">
	<path class="st11" d="M56.2,105.5l0.6,8.9c0,0,2.1-4.8,1.6-6.6c-0.1-0.5-0.4-1-0.8-1.4C57.2,105.9,56.7,105.6,56.2,105.5z"/>
</g>
<path class="st1" d="M55.6,70.2l-0.6-21L54.3,48c-0.6-0.5-1.6-0.4-2.2,0c-0.6,0.5-1,1.2-1.3,2c-1.2,3.6-0.3,7.6-0.5,11.4
	c-0.1,0.8-0.2,1.7-0.7,2.4c-0.7,0.9-1.9,1.4-2.4,2.4c-0.2,0.5-0.3,1-0.1,1.5c0.1,0.5,0.4,0.9,0.9,1.2c-0.6,0.4-1.2,0.7-1.6,1.3
	c-0.4,0.6-0.5,1.4-0.1,2c0.5,0.6,1.4,0.6,2.1,0.5c2.2-0.2,4.3-0.6,6.4-1.3c0.3-0.1,0.5-0.2,0.7-0.4C55.6,70.7,55.7,70.5,55.6,70.2z"
	/>
<path class="st9" d="M51.2,66.6c0.2-0.1,0.4-0.2,0.6-0.4c0.3-0.3,0.6-1,0.6-1.8c0.1-2.1,0.1-4.3,0-6.5c-0.1-1.3-0.2-2.5-0.4-3.5
	c-0.2-1.1-0.3-2.1,0-2.9c0.2-0.6,0.5-1.2,1.1-1.6c0.1-0.1,0.3-0.2,0.5-0.2c0.1,0,0.1,0,0.2,0c-0.4,0.1-0.8,0.4-1.1,0.7
	c-0.3,0.3-0.5,0.7-0.6,1.2c-0.2,0.8-0.1,1.8,0.1,2.9c0.2,1.1,0.3,2.3,0.4,3.5c0.2,2.2,0.2,4.3,0,6.5c-0.1,0.8-0.3,1.5-0.7,1.8
	c-0.1,0.1-0.3,0.2-0.4,0.3C51.3,66.6,51.2,66.6,51.2,66.6z"/>
<path class="st12" d="M55.9,49.1C55.9,49.4,56.1,48.9,55.9,49.1L55.9,49.1z"/>
<defs>
	<filter id="Adobe_OpacityMaskFilter" filterUnits="userSpaceOnUse" x="54.9" y="48.1" width="2.1" height="2.2">
		<feColorMatrix  type="matrix" values="1 0 0 0 0  0 1 0 0 0  0 0 1 0 0  0 0 0 1 0"/>
	</filter>
</defs>
<mask maskUnits="userSpaceOnUse" x="54.9" y="48.1" width="2.1" height="2.2" id="path-38-inside-1_343_11045_00000030482294419094775750000014270481732407655070_">
	<path class="st13" d="M55.9,49.1C55.9,49.4,56.1,48.9,55.9,49.1L55.9,49.1z"/>
</mask>
<path class="st14" d="M55,48.9C55,48.9,55,49,55,48.9c0,0.1,0,0.2,0,0.2c0,0,0,0.1,0,0.1c0,0,0,0.1,0,0.1c0,0,0,0.1,0.1,0.2
	c0,0.1,0.1,0.2,0.2,0.3c0.1,0.1,0.3,0.2,0.5,0.3c0.2,0,0.4,0,0.5,0c0.1,0,0.2-0.1,0.3-0.1c0.1,0,0.1-0.1,0.1-0.1
	c0,0,0.1-0.1,0.1-0.1c0,0,0.1-0.1,0.1-0.1c0,0,0.1-0.1,0.1-0.1c0-0.1,0-0.1,0.1-0.1c0,0,0-0.1,0-0.1c0,0,0-0.1,0-0.1
	c0,0,0-0.1,0-0.1c0,0,0-0.1,0-0.2c0-0.1,0-0.1-0.1-0.2c0-0.1-0.1-0.2-0.2-0.3c-0.1-0.1-0.3-0.2-0.5-0.3c-0.2,0-0.3,0-0.5,0
	c-0.1,0-0.2,0.1-0.3,0.1c-0.1,0-0.1,0.1-0.1,0.1c-0.1,0-0.1,0.1-0.1,0.1c0,0.1-0.1,0.1-0.1,0.1c0,0,0,0.1-0.1,0.1l1.7,1c0,0,0,0,0,0
	c0,0,0,0-0.1,0.1c0,0-0.1,0.1-0.1,0.1c0,0-0.1,0.1-0.1,0.1c-0.1,0-0.1,0.1-0.2,0.1c-0.1,0-0.3,0-0.5,0c-0.2,0-0.4-0.1-0.5-0.3
	c-0.1-0.1-0.2-0.2-0.2-0.3c0-0.1-0.1-0.2-0.1-0.2C55,49.1,55,49,55,48.9C55,49,55,48.9,55,48.9C55,48.9,55,48.8,55,48.9
	c0.1-0.1,0.1-0.1,0.1-0.1c0,0,0,0,0,0c0,0,0,0,0-0.1c0,0,0-0.1,0.1-0.1c0,0,0,0,0.1-0.1c0,0,0.1-0.1,0.1-0.1c0.1,0,0.2-0.1,0.3-0.1
	c0.1,0,0.3-0.1,0.5,0c0.2,0,0.4,0.1,0.5,0.3c0.1,0.1,0.2,0.2,0.2,0.3c0,0.1,0.1,0.1,0.1,0.2c0,0,0,0.1,0,0.1c0,0.1,0,0.1,0,0.1
	c0,0,0,0.1,0,0.1c0,0,0,0,0,0L55,48.9z"/>
<path class="st15" d="M55.3,48.3C55.3,48.3,55.3,48.3,55.3,48.3C55.4,48.3,55.4,48.3,55.3,48.3c0,0.1,0.1,0.2,0.1,0.3
	c0,0.2,0,0.3,0,0.4c-0.3,1-0.7,1.9-1.2,2.7l0,0l0,0c-0.1,0.2-0.2,0.3-0.3,0.4c0,0,0,0,0,0c0,0,0-0.1,0-0.2c0-0.1,0-0.3,0-0.5h0l0,0
	c0.1-0.6,0.2-1.3,0.4-1.9l0,0l0,0c0.2-0.5,0.5-0.9,0.9-1.3C55.2,48.3,55.3,48.3,55.3,48.3z"/>
<path class="st1" d="M53.7,53.2c0.5-2.3,1.5-4.6,3.4-6c1.7-1.2,4.1-1.7,6.2-1.5c1,0.1,2.2,0.6,3,1.1c1.2,0.7,1.7,2.2,2.2,3.4
	c1.1,2.6,0.8,6,0,7l-10.9,5.3c-1.9-1-3.9-2.5-4.3-4.5C53.1,56.5,53.4,54.6,53.7,53.2z"/>
<path class="st16" d="M57.9,49.2l6.8-1.8c2.2-0.2,3.6,2.4,3.8,4.6c0.2,2.4,0.3,5.4,0,7.2c-0.6,3.6-3.3,4.5-3.3,4.5s0,3.2,0,4.2
	l-3.2,9.6l-4.5-9.6l-0.7-17.5c0-0.3,0.1-0.6,0.3-0.9C57.2,49.3,57.5,49.2,57.9,49.2z"/>
<path class="st17" d="M65.1,63.7l0,0.9c-3.6,0.4-4.9-2.2-4.9-2.2C61.7,63.3,63.4,63.8,65.1,63.7z"/>
<path class="st16" d="M57.7,54.9c-0.1,0-2-0.7-2,1.4c0,2,2.1,1.6,2.1,1.5C57.7,57.7,57.7,54.9,57.7,54.9z"/>
<path class="st17" d="M57.1,57C57.1,57,57.1,57.1,57.1,57c-0.2,0.1-0.3,0.1-0.4,0.1c-0.1-0.1-0.2-0.2-0.3-0.3
	c-0.1-0.1-0.1-0.3-0.1-0.4c0-0.2,0-0.3,0.1-0.5c0-0.1,0.1-0.1,0.1-0.2c0,0,0.1-0.1,0.2-0.1c0,0,0.1,0,0.1,0c0,0,0.1,0,0.1,0.1
	c0,0.1,0,0.1,0,0.1c0,0,0,0,0-0.1c0,0,0-0.1-0.1-0.1c-0.1,0-0.1-0.1-0.2-0.1c-0.1,0-0.2,0.1-0.2,0.1c-0.1,0.1-0.1,0.1-0.1,0.2
	c-0.1,0.2-0.1,0.4-0.1,0.6c0,0.4,0.2,0.8,0.5,0.9c0.1,0,0.1,0,0.2,0c0.1,0,0.1,0,0.2-0.1C57.1,57.1,57.1,57,57.1,57z"/>
<path class="st18" d="M56.4,57.7c0,0-0.1,0.1-0.1,0.3c0,0.1,0,0.1,0,0.2c0,0,0.1,0.1,0.1,0.1c0.1,0,0.1,0.1,0.2,0.1
	c0.1,0,0.1,0,0.2,0c0.1,0,0.1-0.1,0.2-0.1c0,0,0.1-0.1,0.1-0.2c0-0.1,0-0.2-0.1-0.3c-0.1-0.2-0.2-0.2-0.2-0.2c0,0,0.1,0.1,0.2,0.2
	c0,0.1,0.1,0.2,0,0.3c0,0,0,0.1-0.1,0.1c0,0-0.1,0.1-0.1,0.1c0,0-0.1,0-0.2,0c-0.1,0-0.1,0-0.2,0c0,0-0.1-0.1-0.1-0.1
	c0,0,0-0.1,0-0.1C56.4,57.9,56.4,57.8,56.4,57.7z"/>
<path class="st1" d="M68.6,52.6c-0.3-0.6-0.8-1-1.4-1.3c-0.6-0.3-1.2-0.6-1.7-0.9c-1.3-0.8-2.3-2-2.7-3.4c0.5-0.2,1.1-0.4,1.6-0.4
	c0.6,0,1.1,0.1,1.6,0.4c1,0.5,1.8,1.4,2.2,2.4c0.4,1,0.7,2.2,0.6,3.3"/>
<path class="st1" d="M57.2,48.6c1.5-1.4,4.3-2.2,6.3-1.5c-0.3,1.7-1.6,3.6-2.7,4.9c-1.1,1.3-1.8,3.6-4.3,2.8c-0.2-0.1-0.4,0.1-0.5,0
	c-0.1-0.1-0.2-0.2-0.2-0.4c-0.3-1-0.3-2.1-0.1-3.1C55.9,50.3,56.5,49.3,57.2,48.6z"/>
<path class="st19" d="M56.4,48.3C56.4,48.3,56.4,48.3,56.4,48.3c0.1,0.1,0.1,0.2,0.2,0.3c0.2,0.2,0.4,0.4,0.6,0.6
	c0.3,0.3,0.7,0.5,1.1,0.6c0.5,0.2,1,0.2,1.5,0.2c0.5,0,1-0.2,1.5-0.4c0.4-0.2,0.7-0.4,1-0.7c0.2-0.2,0.4-0.4,0.5-0.6
	C62.9,48.1,63,48,63,48c0,0,0,0,0-0.1c-0.2,0.3-0.5,0.6-0.8,0.9c-0.3,0.3-0.7,0.5-1,0.7c-0.9,0.4-2,0.5-2.9,0.2
	c-0.4-0.1-0.8-0.3-1.1-0.6C56.9,48.8,56.6,48.6,56.4,48.3z"/>
<path class="st9" d="M55.4,51C55.4,51.1,55.4,51.1,55.4,51c0.1,0.1,0.2,0.2,0.3,0.2c0.3,0.2,0.6,0.4,0.9,0.5c0.5,0.2,1,0.2,1.5,0.2
	c0.6,0,1.2-0.2,1.8-0.5c0.6-0.3,1.1-0.7,1.5-1.1c0.4-0.4,0.7-0.7,1-1.2c0.2-0.3,0.4-0.6,0.5-0.9c0.1-0.1,0.1-0.2,0.1-0.2
	c0,0,0-0.1,0-0.1c0,0,0,0.1-0.1,0.1l-0.1,0.2c-0.1,0.2-0.3,0.5-0.5,0.9c-0.3,0.4-0.6,0.8-1,1.1c-0.4,0.4-0.9,0.8-1.5,1.1
	c-0.6,0.3-1.1,0.4-1.8,0.5c-0.5,0-1,0-1.5-0.2c-0.3-0.1-0.6-0.2-0.9-0.4C55.5,51.1,55.4,51,55.4,51z"/>
<path class="st9" d="M57.2,62.2c0,0,0,0-0.1,0c-0.1,0-0.2-0.1-0.3-0.2c-0.4-0.2-0.7-0.5-1-0.7c-0.5-0.4-0.9-0.9-1.3-1.4
	c-0.4-0.6-0.8-1.3-1-2.1c-0.4-1.3-0.4-2.7-0.1-4.1c0.1-0.4,0.2-0.8,0.4-1.2c0.1-0.1,0.1-0.2,0.1-0.3c0,0,0-0.1,0.1-0.1
	c0,0.1-0.1,0.3-0.2,0.4c-0.1,0.4-0.3,0.8-0.3,1.2c-0.3,1.3-0.2,2.7,0.1,4c0.2,0.7,0.5,1.4,0.9,2c0.3,0.5,0.8,1,1.2,1.4
	c0.3,0.3,0.6,0.5,1,0.8C56.9,62,57.1,62.1,57.2,62.2z"/>
<path class="st15" d="M86.6,114.1l3.1,5.7l0.2,0.3l0.4-0.1l-0.1-0.5l0.1,0.5h0h0l0,0l0,0l0.1,0c0.1,0,0.1,0,0.2-0.1
	c0.2,0,0.5-0.1,0.8-0.2c0.7-0.2,1.6-0.3,2.5-0.5c0.9-0.2,1.9-0.3,2.6-0.3c0.1,0,0.3,0,0.4,0l-10.1,6.6l-5.2-8.5L86.6,114.1z"/>
<g class="st20">
	<path class="st21" d="M86.2,121.2c-0.1,0.1-0.1,0.2-0.1,0.4c0,0.1,0.1,0.3,0.1,0.4c0.1,0.1,0.2,0.1,0.4,0.1c0.1,0,0.3-0.1,0.4-0.1
		c0.1-0.1,0.2-0.2,0.2-0.4c0-0.1-0.1-0.3-0.2-0.4c-0.1-0.1-0.3-0.1-0.4-0.1C86.4,121,86.3,121.1,86.2,121.2"/>
</g>
<g class="st20">
	<path class="st21" d="M86.6,126.2l-0.6-0.9l11.3-6.8c0.2,0,0.3,0,0.5,0.1c0.1,0.1,0.3,0.2,0.4,0.3L86.6,126.2z"/>
</g>
<path class="st1" d="M90.3,119.4c0,0.1-0.2,0.3-0.4,0.6c-0.2,0.3-0.2,0.7-0.2,0.7c-0.1,0-0.2-0.4,0-0.8
	C89.9,119.4,90.3,119.3,90.3,119.4z"/>
<path class="st1" d="M91.8,119.1c0,0-0.1,0.3-0.2,0.7c-0.1,0.4,0,0.6,0,0.7c0,0-0.3-0.3-0.2-0.7C91.5,119.3,91.8,119.1,91.8,119.1z"
	/>
<path class="st1" d="M93.4,120.2c0,0-0.3-0.2-0.3-0.6c0-0.4,0.2-0.7,0.2-0.7c0.1,0,0,0.3,0,0.6C93.4,119.9,93.5,120.1,93.4,120.2z"
	/>
<path class="st1" d="M89.4,118c0,0.1-0.3,0.1-0.6,0.4c-0.3,0.2-0.5,0.5-0.6,0.4c-0.1,0,0.1-0.4,0.4-0.6S89.4,118,89.4,118z"/>
<g class="st10">
	<path class="st11" d="M87.4,114.6l0.6,1.1l-5.8,3.4l-0.6-1L87.4,114.6z"/>
</g>
<path class="st1" d="M88.7,116.8c0,0-0.2,0.2-0.6,0.3c-0.2,0.1-0.5,0.1-0.7,0.2c-0.1,0-0.3,0-0.4,0c-0.1,0-0.2,0-0.3,0
	c-0.1,0-0.1-0.1-0.2-0.1c0-0.1-0.1-0.1-0.1-0.2c0-0.1,0-0.1,0.1-0.2c0,0,0.1-0.1,0.1-0.1c0.1,0,0.2-0.1,0.2-0.1
	c0.1,0,0.3-0.1,0.4-0.1c0.3,0,0.5,0,0.8,0C88.5,116.7,88.7,116.8,88.7,116.8c0,0.1-0.3,0-0.7-0.1c-0.2,0-0.5,0-0.7,0
	c-0.1,0-0.3,0.1-0.4,0.1c-0.1,0-0.3,0.1-0.2,0.2c0,0,0,0,0.1,0.1c0.1,0,0.1,0,0.2,0c0.1,0,0.3,0,0.4,0c0.2,0,0.5-0.1,0.7-0.1
	C88.2,116.9,88.5,116.9,88.7,116.8z"/>
<path class="st1" d="M88.6,116.9c0,0-0.3-0.1-0.5-0.5c-0.2-0.3-0.4-0.7-0.4-1.1c0-0.1,0-0.2,0-0.3c0-0.1,0.1-0.2,0.2-0.2
	c0.1,0,0.1,0,0.2,0c0.1,0,0.1,0,0.2,0.1c0.1,0.1,0.1,0.1,0.2,0.2c0.3,0.3,0.4,0.7,0.3,1.2c0,0.4-0.2,0.7-0.3,0.6
	c0-0.2,0.1-0.4,0.1-0.6c0-0.2,0-0.5-0.1-0.7c-0.1-0.1-0.1-0.2-0.2-0.3c-0.1-0.1-0.2-0.2-0.2-0.1c0,0-0.1,0.1-0.1,0.1
	c0,0.1,0,0.1,0,0.2c0,0.1,0,0.3,0,0.4c0,0.2,0.1,0.4,0.2,0.7C88.5,116.7,88.7,116.9,88.6,116.9z"/>
<path class="st15" d="M82.4,135.8l-12.4,0l0.1-10l5.8,0.1l-0.3,6.5l0,0.4l0.4,0.1l0,0h0h0l0,0l0,0l0.1,0c0.1,0,0.1,0,0.2,0.1
	c0.2,0.1,0.5,0.2,0.8,0.3c0.7,0.2,1.6,0.5,2.5,0.9c0.9,0.4,1.8,0.8,2.4,1.2C82.1,135.5,82.3,135.6,82.4,135.8z"/>
<g class="st20">
	<path class="st21" d="M71.8,131.7c-0.1,0-0.2,0.1-0.3,0.2c-0.1,0.1-0.1,0.3-0.1,0.4c0,0.1,0.1,0.2,0.2,0.3c0.1,0.1,0.3,0.1,0.4,0.1
		c0.1,0,0.3-0.1,0.3-0.3c0.1-0.1,0.1-0.3,0.1-0.4c0-0.1-0.1-0.2-0.3-0.3C72.1,131.7,71.9,131.7,71.8,131.7"/>
</g>
<g class="st20">
	<path class="st21" d="M69.5,136.2l0-1.1l13.1,0.1c0,0,0.6,0.5,0.6,1L69.5,136.2z"/>
</g>
<path class="st1" d="M76.3,132.3c0,0.1-0.3,0.1-0.7,0.3c-0.3,0.2-0.5,0.5-0.6,0.5c-0.1,0,0-0.4,0.4-0.7
	C75.9,132.2,76.3,132.2,76.3,132.3z"/>
<path class="st1" d="M77.7,132.9c0,0.1-0.3,0.2-0.5,0.5c-0.2,0.3-0.3,0.6-0.4,0.6c-0.1,0-0.1-0.4,0.2-0.7
	C77.3,132.9,77.7,132.8,77.7,132.9z"/>
<path class="st1" d="M78.5,134.6c-0.1,0-0.1-0.3,0-0.7c0.2-0.4,0.5-0.5,0.5-0.4c0,0.1-0.2,0.2-0.3,0.5
	C78.6,134.4,78.5,134.6,78.5,134.6z"/>
<path class="st1" d="M76.2,130.7c0,0.1-0.3,0-0.7,0c-0.4,0-0.7,0.1-0.7,0.1c0-0.1,0.3-0.3,0.7-0.3C75.9,130.4,76.2,130.6,76.2,130.7
	z"/>
<g class="st10">
	<path class="st11" d="M76.2,130.3l-0.1,1.4l-6.6-0.2l0-1.1L76.2,130.3z"/>
</g>
<path class="st1" d="M76.2,129.3c-0.2,0.1-0.5,0.1-0.7,0c-0.4-0.1-0.8-0.2-1.1-0.4c-0.1,0-0.1-0.1-0.2-0.2c0,0-0.1-0.1-0.1-0.2
	c0-0.1,0-0.1,0-0.2c0,0,0.1-0.1,0.1-0.1c0.1,0,0.1,0,0.2,0c0.1,0,0.2,0,0.3,0c0.1,0,0.3,0.1,0.4,0.2c0.2,0.1,0.4,0.2,0.6,0.4
	C76.1,129.1,76.2,129.3,76.2,129.3c0,0.1-0.2-0.1-0.5-0.4c-0.2-0.1-0.4-0.3-0.6-0.4c-0.1-0.1-0.3-0.1-0.4-0.1c-0.1,0-0.3,0-0.3,0
	c0,0.1,0,0,0,0.1c0,0,0.1,0.1,0.1,0.1c0.1,0.1,0.2,0.2,0.4,0.2c0.2,0.1,0.4,0.2,0.7,0.3C75.8,129.1,76,129.2,76.2,129.3z"/>
<path class="st1" d="M76.1,129.4c-0.1-0.2-0.2-0.4-0.2-0.7c0-0.3,0-0.5,0.1-0.7c0-0.1,0.1-0.3,0.2-0.4c0-0.1,0.1-0.2,0.2-0.2
	c0.1-0.1,0.2-0.1,0.3-0.1c0.1,0,0.1,0,0.2,0.1c0,0,0.1,0.1,0.1,0.1c0,0.1,0.1,0.2,0.1,0.2c0,0.2,0,0.3,0,0.5c0,0.3-0.1,0.5-0.3,0.7
	c-0.3,0.3-0.6,0.4-0.6,0.4c0,0,0.2-0.2,0.4-0.5c0.1-0.2,0.2-0.4,0.2-0.6c0-0.1,0-0.3,0-0.4c0-0.1-0.1-0.3-0.1-0.2
	c-0.1,0-0.2,0.1-0.2,0.2c-0.2,0.3-0.3,0.7-0.3,1C76.1,129.1,76.2,129.4,76.1,129.4z"/>
<path class="st22" d="M56.5,65.3l0.8-0.3c-0.2-0.4,1.6,3.2,4.1,3.2c3.4,0,3.7-3.4,3.7-3.4l0.2,0l5.6,5.8l0.7,16.3L71,89l-12,4.4
	L54.8,85l-0.4-5.1L56.5,65.3z"/>
<path class="st15" d="M60.1,92.6l-0.7-6.3l-0.8-5.9c-0.3-1.8-0.4-3.7-0.4-5.5c0-0.4,0-0.7,0-1.1c-0.1-2.2-0.2-4.2-0.9-6.2
	c0,0,0,0,0,0l-0.7-2c-0.2,0-0.4,0.1-0.6,0.2c-0.6,0.2-1.5,0.5-2.4,0.8c-0.9,0.4-1.8,0.8-2.6,1.3c-0.8,0.5-1.3,1.1-1.5,1.7l-0.5-0.2
	 M60.1,92.6l-11.3-0.8l0,0l0,0l0,0l0-0.1l0-0.1l-0.5,0c0.5,0,0.5,0,0.5,0v0v0l0,0l0,0l0-0.2c0-0.2,0-0.4,0-0.7c0-0.6,0-1.4,0-2.4
	c0-2,0.1-4.6,0.1-7.3c0.1-2.7,0.1-5.4,0.2-7.5c0-1.1,0.1-2,0.1-2.7c0-0.3,0.1-0.6,0.1-0.8c0-0.1,0-0.2,0-0.3c0-0.1,0-0.1,0-0.1
	c0,0,0,0,0,0l-0.5-0.2 M60.1,92.6c-0.1,0-0.2,0.1-0.2,0.1c-0.5,0.3-1.4,0.9-2.9,2.3l0,0c-1.7,1.6-2.8,3.9-3.4,5.8
	c-0.3,0.9-0.5,1.8-0.7,2.4c0,0.2-0.1,0.3-0.1,0.4 M60.1,92.6l-6.8,11.2c-0.2,0-0.3-0.1-0.5-0.1 M48.9,69.6c1.1-2.9,7.9-4.5,7.9-4.5
	L48.9,69.6z M48,97.5c0-1.9,0.2-3.3,0.4-4.3c0.1-0.5,0.2-0.8,0.3-1c0-0.1,0.1-0.2,0.1-0.2c0,0,0,0,0-0.1l0,0l-1.3,5.6 M48,97.5
	C48,97.5,48,97.5,48,97.5l-0.5,0 M48,97.5C48,97.5,48,97.5,48,97.5l-0.5,0 M48,97.5c0,3.3,2.1,5.5,4.7,6.3 M47.5,97.5
	c0.1,3.6,2.3,5.9,5.2,6.8l0,0c0,0,0-0.1,0-0.2c0-0.1,0-0.2,0.1-0.3"/>
<path class="st15" d="M69.8,76.2L69.8,76.2l1.6,12l3.9,0.9l-4.5-19.7L69.8,76.2z M69.8,76.2L69.8,76.2 M69.8,76.2L69.8,76.2
	 M69.8,76.1L66,65.5c0.2,0,0.5,0.1,0.8,0.1h0 M69.8,76.1l-3.1-10.6 M66.8,65.6c1,0.2,1.9,0.6,2.6,1.3 M66.8,65.6l2.6,1.3 M69.4,66.9
	c0.7,0.7,1.2,1.6,1.5,2.5L69.4,66.9z"/>
<g class="st10">
	<path class="st11" d="M48.3,95.2c0,0.1,0,0.2,0.1,0.4c0.1,0.1,0.1,0.2,0.2,0.3c0.2,0.1,0.4,0.2,0.7,0.3c1.2,0.2,2.3,0,3.5-0.4
		c1.3-0.4,2.5-1,3.7-1.6c1.8-0.9,2.3-1.3,4-2.3c-1.7,0.7-2.3,0.8-4.1,1.2C53.7,93.6,50.8,93.9,48.3,95.2"/>
</g>
<path class="st16" d="M58.4,87.4l3-0.7c0,0,3.5-2,4.3-2c0.7,0,3.5,1.3,4.1,1.5c0.1,0,0.1,0.1,0.1,0.1c0,0.1,0.1,0.1,0.1,0.2
	c0,0.1,0,0.1,0,0.2c0,0.1,0,0.1-0.1,0.2c0,0.1-0.1,0.1-0.2,0.1l-0.1,0l0,0.1c0,0.1,0.1,0.2,0.1,0.3c0,0.1,0,0.2-0.1,0.2
	c0,0.1-0.1,0.1-0.2,0.1s-0.2,0-0.2,0c-0.1,0-0.1-0.1-0.2-0.1l0.1,0.2c0.1,0.1,0.1,0.1,0.1,0.2l0,0.2c0,0.1,0,0.2,0,0.2
	s-0.1,0.1-0.2,0.2c-0.1,0-0.2,0.1-0.2,0c-0.1,0-0.2,0-0.2-0.1c-0.4-0.3-1.2-0.9-1.7-0.9c-0.5,0-1,0.1-1.5,0.2
	c-0.1,0-0.2,0.1-0.3,0.1c-0.1,0.1-0.1,0.2-0.2,0.3c0.3,0,2.4,0.7,3.1,0.9c0.1,0,0.2,0.1,0.3,0.2s0.1,0.2,0.2,0.3
	c0.1,0.2,0,0.5-0.5,0.4c-0.9-0.1-1.8-0.3-2.7-0.5c0,0-0.9-0.1-1.4,0.4c-0.7,0.7-1,0.9-1.7,0.8c-0.4-0.1-0.8-0.2-1.2-0.3l-1.1,0.2
	L58.4,87.4z"/>
<path class="st17" d="M64.8,86.9c0.2-0.1,0.5-0.2,0.7-0.2c0.6-0.1,1.1-0.1,1.7,0s1.1,0.4,1.5,0.8c0.3,0.3,0.5,0.5,0.5,0.5
	c0-0.1-0.1-0.1-0.1-0.2c-0.1-0.1-0.2-0.3-0.4-0.4c-0.4-0.4-1-0.7-1.5-0.8c-0.6-0.1-1.2-0.1-1.7,0c-0.2,0-0.3,0.1-0.5,0.2
	C64.9,86.8,64.8,86.8,64.8,86.9z"/>
<path class="st17" d="M65,85.9c0.2-0.1,0.5-0.2,0.7-0.2c0.6-0.1,1.2,0,1.8,0.2c0.6,0.2,1.1,0.6,1.6,0.9l0.4,0.3
	c0.1,0,0.1,0.1,0.2,0.1c0-0.1-0.1-0.1-0.1-0.1c-0.1-0.1-0.2-0.2-0.4-0.4c-0.5-0.4-1-0.7-1.6-1c-0.6-0.2-1.2-0.3-1.8-0.2
	c-0.2,0-0.4,0.1-0.5,0.2C65.1,85.8,65.1,85.9,65,85.9C65,85.9,65,85.9,65,85.9z"/>
<path class="st15" d="M49,70.4c0.2-0.5,0.5-0.9,0.7-1.1c0.1,0,0.2,0,0.3,0c0.3,0,0.7,0.1,1.1,0.2c0.4,0.1,0.8,0.2,1.1,0.4
	c0.3,0.1,0.4,0.3,0.5,0.4l-1.5,16.2l0.1,0l0,0.5l6.6,0.1l2.1,4.3c-0.2,0.1-0.6,0.3-1,0.4c-0.9,0.4-2.1,0.9-3.5,1.4
	c-1.4,0.5-2.8,0.9-4.2,1.1c-1.4,0.2-2.6,0.3-3.4,0c-1.1-0.3-1.7-0.9-2.2-1.5c-0.5-0.6-0.7-1.4-0.8-2.2c-0.1-0.8-0.1-1.6,0-2.3
	c0-0.3,0-0.6,0.1-0.8c0-0.4,0.1-0.8,0.1-1c0,0,0,0,0,0c0,0,0-0.1,0-0.1c0-0.1,0-0.3,0.1-0.5c0.1-0.4,0.2-1.1,0.3-1.8
	c0.3-1.5,0.7-3.5,1.2-5.5c0.5-2.1,1-4.2,1.6-5.9C48.4,71.8,48.7,71,49,70.4z"/>
<path class="st1" d="M53.3,74.8c0,0.1,0,0.3,0,0.4c0,0.3-0.1,0.7-0.2,1.2c-0.2,1-0.4,2.4-0.6,3.9c-0.2,1.5-0.4,2.9-0.6,3.9
	c-0.1,0.5-0.1,0.9-0.2,1.2c0,0.1,0,0.3-0.1,0.4c0-0.1,0-0.3,0-0.4c0-0.3,0.1-0.7,0.1-1.2c0.1-1,0.3-2.4,0.5-3.9
	c0.2-1.5,0.5-2.9,0.6-3.9c0.1-0.5,0.2-0.9,0.2-1.2C53.2,75.1,53.2,74.9,53.3,74.8z"/>
<path class="st1" d="M52.8,67.7c0,0,0.1,0.1,0.1,0.2c0.1,0.2,0.2,0.3,0.3,0.5c0.1,0.3,0.2,0.5,0.3,0.8c0.1,0.3,0.2,0.7,0.2,1.1
	c0.1,0.6,0.1,1.3,0,2c0,0.3-0.1,0.5-0.1,0.8c0-0.3,0-0.5,0-0.8c0-0.6,0-1.3-0.1-1.9c0-0.4-0.1-0.7-0.2-1c-0.1-0.3-0.2-0.6-0.3-0.8
	C52.9,68,52.7,67.8,52.8,67.7z"/>
<path class="st1" d="M47.6,94.9C47.6,94.9,47.6,94.9,47.6,94.9l0.3,0.1c0.3,0.1,0.5,0.1,0.8,0.1c0.9,0,1.9-0.1,2.8-0.3
	c0.6-0.1,1.2-0.3,1.9-0.4c0.7-0.2,1.4-0.4,2.1-0.7c1.5-0.6,3.1-1.2,4.8-1.9l0.2-0.1l0,0.1l-2.5-5l0.1,0c-1.1,0-2.1-0.1-3-0.1
	c-0.9,0-1.7-0.1-2.4,0c-0.7,0-1.2,0-1.5,0.1c-0.4,0-0.5,0.1-0.5,0.1c0,0,0.1,0,0.1,0c0.1,0,0.2,0,0.4-0.1c0.5-0.1,1-0.1,1.5-0.1
	c0.7,0,1.4,0,2.4,0c0.9,0,1.9,0.1,3,0.1h0l0,0c0.7,1.5,1.6,3.2,2.5,5l0,0.1l-0.1,0l-0.2,0.1c-1.7,0.7-3.3,1.4-4.8,1.9
	c-0.7,0.3-1.5,0.5-2.1,0.7c-0.7,0.2-1.3,0.3-1.9,0.4c-0.9,0.2-1.9,0.3-2.8,0.2C48.3,95.1,47.9,95.1,47.6,94.9z"/>
<path class="st1" d="M52.4,86.6c0,0-0.2-0.2-0.5-0.4c-0.4-0.2-0.9-0.4-1.3-0.5c-0.5-0.1-1-0.1-1.4,0c-0.2,0-0.4,0-0.6,0
	c0.2-0.1,0.4-0.1,0.6-0.1c0.5-0.1,1-0.1,1.5,0c0.5,0.1,1,0.2,1.4,0.5C52.1,86.3,52.3,86.5,52.4,86.6z"/>
<g class="st10">
	<path class="st11" d="M52.2,86.6c-1-0.1-2-0.1-2.9,0.2c-0.6,0.2-1.2,0.5-1.5,1c-0.1,0.2-0.2,0.4,0,0.5c0.1,0,0.2,0.1,0.2,0.1
		c0.1,0,0.2,0,0.2-0.1c0.3-0.2,0.6-0.4,0.9-0.6c0.5-0.4,1-0.7,1.5-0.9c0.5-0.2,1.1-0.3,1.7-0.2"/>
</g>
<g class="st10">
	<path class="st11" d="M51.9,86.3c-0.2-0.6-1-1.1-1.4-1.3c-1.1-0.4-2.4-0.5-3.4,0.1c-0.1,0-0.1,0.1-0.1,0.1c0,0.1-0.1,0.1-0.1,0.2
		c0,0.2,0.2,0.3,0.4,0.3c0.7,0.2,1.4,0.1,2.2,0c0.7-0.1,1.5-0.1,2.1,0.3"/>
</g>
<g class="st10">
	<path class="st11" d="M51.7,85.5c1.5-3.2,2-6.7,1.5-10.2L51.7,85.5z"/>
</g>
<path class="st1" d="M53.1,104.4c0,0,2.5,1.6,7.4,1.6s6-0.3,6-0.3l4.6-4.2l10.1,17.6c0,0,8-5,8-4.8c0.1,0.1-7.5-16.7-9.1-19.6
	c-0.6-1-1.2-1.9-1.9-2.7c-0.8-1.1-1.9-1.9-3.2-2.3c-1.3-0.5-2.6-0.6-4-0.3c-1.4,0.3-2.8,0.7-4.2,1.2c-3.7,1.3-6.8,2.2-9.4,4.6
	C54.5,97.9,52.6,103.1,53.1,104.4z"/>
<path class="st1" d="M70,99.5c0,0-3.6,2.5-3.5,4.5c0.1,1.7,2.3,26.5,2.3,26.5l8.9-0.1l0.6-16.2L70,99.5z"/>
<path class="st9" d="M79,115.3C79,115.3,79,115.3,79,115.3l-0.1-0.2c-0.1-0.2-0.2-0.4-0.4-0.7l-1.4-2.6l-4.7-8.6l-1.9-3.5l0.1,0
	c-0.7,0.1-1.3,0.3-1.8,0.7c-0.6,0.4-1,0.8-1.4,1.4c-0.3,0.5-0.5,1-0.6,1.6c-0.1,0.5-0.1,1-0.1,1.4c0,0.9,0.1,1.6,0.1,2.1
	c0,0.2,0,0.4,0,0.6c0,0.1,0,0.1,0,0.2c0-0.1,0-0.1,0-0.2c0-0.1,0-0.3,0-0.6c0-0.5-0.1-1.2-0.2-2.1c0-0.5,0-1,0.1-1.5
	c0.1-0.6,0.3-1.1,0.6-1.6c0.4-0.6,0.8-1.1,1.4-1.4c0.6-0.4,1.2-0.6,1.9-0.7h0l0,0c0.6,1.1,1.2,2.2,1.9,3.5l4.7,8.7
	c0.6,1.1,1.1,2,1.4,2.6l0.4,0.7L79,115.3C79,115.3,79,115.3,79,115.3z"/>
<path class="st9" d="M71.6,96.1c-0.4,0.5-0.8,1.1-1,1.7c-0.2,0.6-0.3,1.3-0.2,2c-0.1-0.2-0.1-0.4-0.1-0.6c-0.1-1,0.2-1.9,0.8-2.7
	C71.3,96.3,71.4,96.2,71.6,96.1z"/>
<path class="st9" d="M69.7,95.4c0,0,0,0.3-0.1,0.7c-0.1,0.5-0.1,1.1,0,1.6c0.1,0.5,0.3,1,0.5,1.5c0.2,0.4,0.4,0.6,0.3,0.6
	c-0.2-0.2-0.3-0.3-0.4-0.5c-0.6-0.9-0.8-2.1-0.6-3.2C69.5,95.8,69.6,95.6,69.7,95.4z"/>
<path class="st15" d="M79.6,89.6L79.6,89.6c-2.2,0.9-4.8-0.1-7.3-1.9c0,0,0,0,0,0l-0.2-0.1l-0.6-17.4c0.2,0.3,0.3,0.6,0.5,0.9
	c0.9,1.6,2.1,3.7,3.3,5.8c1.2,2.2,2.4,4.3,3.4,6.1c0.5,0.9,0.9,1.6,1.1,2.2c0.1,0.3,0.3,0.5,0.3,0.7c0,0.1,0.1,0.2,0.1,0.2
	c0,0,0,0.1,0,0.1c0,0,0,0,0,0c0.1,0.4,0,1.2-0.1,2c-0.1,0.4-0.2,0.8-0.3,1C79.8,89.5,79.7,89.6,79.6,89.6z"/>
<path class="st9" d="M28.4,65.9c0,0,1.5-0.9,1.9,1.6c0.3,2.5,2.8,20.4,2.8,20.4l15.5-0.1c0,0,3.3-0.1,5.5,6.5
	c1.6,4.7,3.1,20.5,3.1,20.5l-0.3,11.5h-28c0,0-0.8-24.1-1-34.8S27.5,69.2,28.4,65.9z"/>
<path class="st1" d="M29.8,65.7C29.8,65.7,29.8,65.7,29.8,65.7c0.2,0.1,0.2,0.2,0.3,0.3c0.3,0.3,0.4,0.7,0.5,1.2
	c0.1,1.1,0.3,2.7,0.6,4.7c0.5,4,1.2,9.6,2,16v0.1h0.1l3.2-0.1c3.5-0.1,6.8-0.1,9.8,0c0.8,0,1.5,0.1,2.2,0.1l0.5,0
	c0.2,0,0.3,0,0.5,0.1c0.3,0,0.7,0.2,0.9,0.4c0.5,0.4,1,0.9,1.3,1.4c0.3,0.5,0.7,1,0.9,1.6c0.9,1.6,1.6,3.3,2.1,5.1
	c0.2,0.5,0.3,1,0.4,1.5c0,0.1,0,0.3,0,0.4c0,0.1,0,0.1,0,0.1c0,0,0-0.1,0-0.1c0-0.1,0-0.3,0-0.4c-0.1-0.5-0.2-1-0.3-1.5
	c-0.2-0.6-0.4-1.4-0.8-2.3c-0.4-1-0.8-1.9-1.3-2.9c-0.3-0.5-0.6-1.1-0.9-1.6c-0.4-0.6-0.8-1.1-1.3-1.5l-0.2-0.1
	c-0.1,0-0.2-0.1-0.2-0.1c-0.1,0-0.2-0.1-0.3-0.1c-0.1,0-0.2,0-0.3,0c-0.2,0-0.3-0.1-0.5-0.1l-0.5,0c-0.7-0.1-1.5-0.1-2.2-0.1
	c-3-0.1-6.3-0.1-9.8,0l-3.2,0.1l0.1,0.1c-0.8-6.3-1.5-11.9-2-16c-0.3-2-0.5-3.6-0.6-4.7c0-0.4-0.2-0.8-0.5-1.2
	C30,65.9,29.9,65.8,29.8,65.7z"/>
<path class="st1" d="M50,89.1c0,0-0.1,0-0.1,0c-0.1,0-0.2,0-0.3,0.1c-0.4,0.1-0.7,0.2-1.1,0.3c-0.6,0.2-1.1,0.6-1.5,1
	c-0.3,0.2-0.6,0.5-0.8,0.8l-0.4,0.5L45.7,92l-0.1,0.1l-0.1,0.3c-0.1,0.1-0.1,0.2-0.2,0.3c-0.1,0.1-0.1,0.2-0.1,0.3
	c-0.1,0.2-0.2,0.4-0.2,0.7c-0.1,0.5-0.2,1-0.3,1.5c0,0.3-0.1,0.5-0.1,0.8c0,0.3,0,0.5,0,0.8c0,0.6,0,1.1,0,1.7
	c0.1,2.4,0.3,5,0.5,7.7c0.2,3.1,0.5,6,0.8,8.6l-0.1-0.1l8.2,0.1l2.3,0l0.6,0h0.2h0.1c0,0,0,0-0.1,0H57h-0.6h-2.3l-8.2,0h-0.1v-0.1
	c-0.3-2.6-0.5-5.5-0.8-8.6c-0.2-2.7-0.4-5.4-0.5-7.7c0-0.6-0.1-1.2,0-1.7c0-0.3,0-0.6,0-0.8c0-0.3,0.1-0.5,0.1-0.8
	c0.1-0.5,0.2-1,0.3-1.5c0.1-0.2,0.2-0.5,0.2-0.7c0-0.1,0.1-0.2,0.1-0.3l0.2-0.3l0.2-0.3l0.1-0.1c0,0,0.1-0.1,0.1-0.1l0.4-0.5
	c0.2-0.3,0.5-0.6,0.8-0.8c0.5-0.4,1-0.7,1.6-1c0.4-0.2,0.7-0.3,1.1-0.4c0.1,0,0.2,0,0.3,0C50,89.1,50,89.1,50,89.1z"/>
<path class="st1" d="M49.9,126.4c0,0-0.1-2.5-0.1-5.6c0-3.1,0-5.6,0.1-5.6s0.1,2.5,0.1,5.6C49.9,123.9,49.9,126.4,49.9,126.4z"/>
<path class="st18" d="M84.6,77.9l-15.7,1.4c-0.1,0-0.1,0-0.2,0.1c-0.1,0-0.1,0.1-0.1,0.2l-3.5,11.2c0,0.1,0,0.1-0.1,0.1
	c0,0-0.1,0.1-0.1,0.1l-6,1.6c-0.1,0-0.2,0.1-0.2,0.2c0,0.1-0.1,0.2,0,0.3c0,0.1,0.1,0.2,0.2,0.2c0.1,0,0.2,0.1,0.3,0l6.5-1.4
	l14.6-1.8c0.1,0,0.1,0,0.2-0.1c0.1,0,0.1-0.1,0.1-0.2L85,78.4c0-0.1,0-0.1,0-0.2c0-0.1,0-0.1-0.1-0.2c0,0-0.1-0.1-0.1-0.1
	C84.7,77.9,84.7,77.9,84.6,77.9z"/>
<path class="st1" d="M84.6,77.9c0,0,0.1,0,0.1,0c0.1,0,0.1,0.1,0.2,0.1c0,0.1,0.1,0.1,0.1,0.2c0,0.1,0,0.2-0.1,0.3
	c0,0.1-0.1,0.2-0.1,0.3l-0.3,0.9c-0.5,1.3-1.2,3.2-2.2,5.5l-1.5,3.9l-0.2,0.5l-0.1,0.3c0,0.1-0.1,0.2-0.2,0.3c0,0-0.1,0-0.2,0.1
	l-0.1,0l-0.3,0l-0.6,0.1l-2.5,0.3l-11.1,1.4l-3.4,0.7l-1.7,0.4l-0.9,0.2l-0.4,0.1c-0.1,0-0.2,0-0.3,0c-0.1,0-0.2-0.1-0.2-0.1
	c0-0.1-0.1-0.1-0.1-0.2c0-0.1,0-0.1,0-0.2c0-0.1,0.1-0.1,0.1-0.2c0-0.1,0.1-0.1,0.2-0.1l6.1-1.6c0,0,0.1,0,0.1-0.1
	c0,0,0.1-0.1,0.1-0.1l0.1-0.4l0.2-0.7c0.1-0.5,0.3-0.9,0.4-1.4c0.3-0.9,0.6-1.8,0.9-2.7c0.6-1.8,1.1-3.5,1.6-5.1
	c0.1-0.2,0.1-0.4,0.2-0.6c0-0.1,0.1-0.2,0.1-0.3c0-0.1,0.1-0.1,0.1-0.1c0.1,0,0.1-0.1,0.2-0.1l1.2-0.1l2.3-0.2l4.1-0.4l5.9-0.5
	l1.6-0.1l0.4,0L84.6,77.9l-0.1,0l-0.4,0l-1.6,0.2l-5.9,0.6l-4.1,0.4l-2.3,0.2l-1.2,0.1c0,0-0.1,0-0.1,0c0,0-0.1,0.1-0.1,0.1
	c0,0.1-0.1,0.2-0.1,0.3l-0.2,0.6c-0.5,1.6-1,3.3-1.6,5.1c-0.3,0.9-0.6,1.8-0.9,2.7c-0.1,0.5-0.3,0.9-0.4,1.4
	c-0.1,0.2-0.1,0.5-0.2,0.7l-0.1,0.4c0,0.1-0.1,0.1-0.1,0.2c0,0.1-0.1,0.1-0.2,0.1l-6,1.6c0,0-0.1,0-0.1,0.1c0,0-0.1,0.1-0.1,0.1
	c0,0,0,0.1,0,0.1c0,0,0,0.1,0.1,0.1c0,0,0.1,0.1,0.2,0.1c0.1,0,0.1,0,0.2,0l0.4-0.1l0.9-0.2l1.7-0.4l3.4-0.7l11.1-1.4l2.5-0.3
	l0.6-0.1l0.3,0c0.1,0,0.2,0,0.3-0.1c0.1,0,0.1-0.1,0.1-0.2l0.1-0.3l0.2-0.5c0.6-1.4,1.1-2.7,1.5-3.9c0.9-2.3,1.7-4.2,2.2-5.5
	c0.1-0.3,0.2-0.6,0.3-0.9l0.1-0.3c0-0.1,0.1-0.2,0.1-0.3c0-0.1,0-0.1-0.1-0.2c0-0.1-0.1-0.1-0.2-0.1C84.7,77.9,84.7,77.9,84.6,77.9z
	"/>
<path class="st1" d="M69.5,79.3c0,0,0,0.1,0,0.1c0,0.1-0.1,0.2-0.1,0.4c-0.1,0.3-0.2,0.8-0.4,1.4c-0.3,1.2-0.8,2.7-1.4,4.5
	c-0.6,1.8-1.1,3.3-1.4,4.5l-0.4,1.4l-0.1,0.4c0,0,0,0.1-0.1,0.1c0,0,0-0.1,0-0.1c0-0.1,0.1-0.2,0.1-0.4c0.1-0.3,0.2-0.8,0.4-1.4
	c0.3-1.2,0.8-2.7,1.4-4.5c0.6-1.8,1.1-3.3,1.4-4.5l0.4-1.4l0.1-0.4C69.4,79.3,69.4,79.3,69.5,79.3z"/>
<path class="st19" d="M75.5,83.8c-0.1,0-0.2,0-0.3,0.1C75.1,84,75,84,74.9,84.1c-0.1,0.1-0.1,0.2-0.2,0.3c0,0.1,0,0.2,0,0.3
	c0,0.1,0.1,0.1,0.2,0.2S75,85,75.1,85c0.2,0,0.3,0,0.5-0.1c0.1-0.1,0.2-0.1,0.3-0.2c0.1-0.1,0.1-0.2,0.1-0.3c0-0.1,0-0.3-0.1-0.3
	C75.8,83.9,75.6,83.9,75.5,83.8z"/>
<path class="st1" d="M73.6,78.8c-0.1-0.1-0.1-0.2-0.1-0.3l-0.3-0.9c-0.3-0.8-0.6-1.8-1.1-3c-0.4-1.2-0.9-2.2-1.2-2.9l-0.4-0.9
	c-0.1-0.1-0.1-0.2-0.1-0.3c0.1,0.1,0.1,0.2,0.2,0.3c0.1,0.2,0.3,0.5,0.4,0.9c0.3,0.7,0.8,1.8,1.2,2.9c0.4,1.2,0.8,2.2,1,3
	c0.1,0.4,0.2,0.7,0.3,0.9C73.6,78.6,73.6,78.7,73.6,78.8z"/>
<path class="st1" d="M138.9,136.3c0,0-25.9,0.1-57.8,0.1c-31.9,0-57.8,0-57.8-0.1c0,0,25.9-0.1,57.8-0.1
	C113,136.2,138.9,136.3,138.9,136.3z"/>
</svg>
