<svg xmlns="http://www.w3.org/2000/svg" xmlns:xlink="http://www.w3.org/1999/xlink" width="160" zoomAndPan="magnify" viewBox="0 0 120 30.000001" height="40" preserveAspectRatio="xMidYMid meet" version="1.0"><defs><g/><clipPath id="0439acebad"><path d="M 1.933594 0 L 118.0625 0 L 118.0625 29.03125 L 1.933594 29.03125 Z M 1.933594 0 " clip-rule="nonzero"/></clipPath><clipPath id="601570224d"><path d="M 10 10 L 24 10 L 24 28.203125 L 10 28.203125 Z M 10 10 " clip-rule="nonzero"/></clipPath><clipPath id="b972baa01a"><path d="M 3.28125 4 L 23 4 L 23 27 L 3.28125 27 Z M 3.28125 4 " clip-rule="nonzero"/></clipPath><clipPath id="414daa0ae4"><path d="M 20 0.621094 L 25 0.621094 L 25 5 L 20 5 Z M 20 0.621094 " clip-rule="nonzero"/></clipPath><clipPath id="0b37e09e92"><path d="M 21 6 L 26 6 L 26 9 L 21 9 Z M 21 6 " clip-rule="nonzero"/></clipPath><clipPath id="4512853910"><path d="M 22.054688 4.753906 L 26.222656 6.015625 L 24.960938 10.183594 L 20.792969 8.921875 Z M 22.054688 4.753906 " clip-rule="nonzero"/></clipPath><clipPath id="a2284c80ee"><path d="M 22.054688 4.753906 L 26.222656 6.015625 L 24.960938 10.183594 L 20.792969 8.921875 Z M 22.054688 4.753906 " clip-rule="nonzero"/></clipPath><clipPath id="f5c84695b3"><path d="M 23 2 L 27 2 L 27 5 L 23 5 Z M 23 2 " clip-rule="nonzero"/></clipPath><clipPath id="135706e777"><path d="M 23.011719 1.773438 L 26.640625 1.707031 L 26.722656 6.058594 L 23.09375 6.128906 Z M 23.011719 1.773438 " clip-rule="nonzero"/></clipPath><clipPath id="2351313b65"><path d="M 23.011719 1.773438 L 26.640625 1.707031 L 26.722656 6.058594 L 23.09375 6.128906 Z M 23.011719 1.773438 " clip-rule="nonzero"/></clipPath><clipPath id="ce1aa297ae"><path d="M 19 1 L 22 1 L 22 6 L 19 6 Z M 19 1 " clip-rule="nonzero"/></clipPath><clipPath id="90c9fca771"><path d="M 20.015625 0.621094 L 22.75 3.003906 L 19.890625 6.289062 L 17.152344 3.90625 Z M 20.015625 0.621094 " clip-rule="nonzero"/></clipPath><clipPath id="d3fb885791"><path d="M 23.007812 3.230469 L 20.269531 0.84375 L 17.410156 4.128906 L 20.148438 6.511719 Z M 23.007812 3.230469 " clip-rule="nonzero"/></clipPath><clipPath id="5295a9a891"><path d="M 25 18.757812 L 37.226562 18.757812 L 37.226562 20.210938 L 25 20.210938 Z M 25 18.757812 " clip-rule="nonzero"/></clipPath><clipPath id="4077c7cb42"><path d="M 25 19 L 27 19 L 27 20.210938 L 25 20.210938 Z M 25 19 " clip-rule="nonzero"/></clipPath><clipPath id="cd5bdfa092"><path d="M 102.40625 18.757812 L 114.746094 18.757812 L 114.746094 20.210938 L 102.40625 20.210938 Z M 102.40625 18.757812 " clip-rule="nonzero"/></clipPath><clipPath id="700a176d68"><path d="M 102.40625 19 L 106 19 L 106 20 L 102.40625 20 Z M 102.40625 19 " clip-rule="nonzero"/></clipPath><clipPath id="e42d5e3cc2"><path d="M 113 19 L 114.746094 19 L 114.746094 20.210938 L 113 20.210938 Z M 113 19 " clip-rule="nonzero"/></clipPath><clipPath id="ec183dd5d5"><path d="M 37.230469 23.007812 L 69.574219 23.007812 L 69.574219 28.8125 L 37.230469 28.8125 Z M 37.230469 23.007812 " clip-rule="nonzero"/></clipPath><clipPath id="8699af2883"><path d="M 69.578125 23.117188 L 102 23.117188 L 102 28.921875 L 69.578125 28.921875 Z M 69.578125 23.117188 " clip-rule="nonzero"/></clipPath></defs><g clip-path="url(#0439acebad)"><path fill="#ffffff" d="M 1.933594 0 L 118.066406 0 L 118.066406 29.03125 L 1.933594 29.03125 Z M 1.933594 0 " fill-opacity="1" fill-rule="nonzero"/><path fill="#104069" d="M 1.933594 0 L 118.066406 0 L 118.066406 29.03125 L 1.933594 29.03125 Z M 1.933594 0 " fill-opacity="1" fill-rule="nonzero"/></g><g clip-path="url(#601570224d)"><path fill="#e4094c" d="M 20.363281 10.648438 C 20.234375 11.207031 20.121094 11.746094 20.023438 12.242188 C 21.492188 13.8125 22.390625 15.921875 22.390625 18.242188 C 22.390625 23.09375 18.457031 27.03125 13.605469 27.03125 C 13.328125 27.03125 13.050781 27.015625 12.78125 26.988281 C 11.878906 27.515625 11.070312 27.785156 10.480469 27.917969 C 11.464844 28.238281 12.515625 28.410156 13.605469 28.410156 C 19.21875 28.410156 23.773438 23.859375 23.773438 18.242188 C 23.773438 15.222656 22.453125 12.511719 20.363281 10.648438 " fill-opacity="1" fill-rule="nonzero"/></g><g clip-path="url(#b972baa01a)"><path fill="#ffffff" d="M 19.960938 7.382812 C 19.574219 8.230469 18.105469 12.355469 17.226562 13.21875 C 16.46875 13.960938 15.949219 14.074219 14.832031 14.15625 C 12.074219 14.355469 8.414062 15.925781 6.59375 21.28125 C 6.59375 21.28125 9.546875 15.757812 13.65625 16.011719 C 14.933594 16.09375 15.453125 17.144531 15.433594 18.589844 C 15.332031 25.410156 5.136719 25.464844 4.828125 18.652344 C 4.820312 18.511719 4.816406 18.375 4.816406 18.234375 C 4.820312 13.523438 8.609375 9.613281 13.316406 9.460938 C 15.105469 9.402344 16.78125 9.882812 18.195312 10.75 C 18.382812 10.324219 18.566406 9.882812 18.738281 9.46875 C 17.152344 8.539062 15.296875 8.023438 13.316406 8.078125 C 7.875 8.230469 3.585938 12.71875 3.433594 18.15625 C 3.300781 23.003906 6.535156 25.253906 8.675781 25.855469 C 13.441406 27.191406 18.871094 24.183594 19.214844 14.777344 C 19.242188 14.046875 19.742188 11.324219 20.523438 8.597656 C 20.855469 7.433594 21.214844 5.554688 22.789062 4.917969 C 22.789062 4.917969 21.035156 5.054688 19.960938 7.382812 " fill-opacity="1" fill-rule="nonzero"/></g><path fill="#ffffff" d="M 16.949219 11.867188 C 16.949219 12.785156 16.203125 13.53125 15.285156 13.53125 C 14.367188 13.53125 13.621094 12.785156 13.621094 11.867188 C 13.621094 10.949219 14.367188 10.203125 15.285156 10.203125 C 16.203125 10.203125 16.949219 10.949219 16.949219 11.867188 " fill-opacity="1" fill-rule="nonzero"/><g clip-path="url(#414daa0ae4)"><path fill="#ffde59" d="M 24.933594 0.625 C 23 2.710938 23 2.832031 24.933594 4.917969 C 22.847656 2.984375 22.726562 2.984375 20.640625 4.917969 C 22.574219 2.832031 22.574219 2.710938 20.640625 0.625 C 22.726562 2.558594 22.847656 2.558594 24.933594 0.625 " fill-opacity="1" fill-rule="nonzero"/></g><path fill="#ffde59" d="M 20.324219 3.230469 C 19.203125 4.4375 19.203125 4.507812 20.324219 5.714844 C 19.117188 4.597656 19.046875 4.597656 17.839844 5.714844 C 18.957031 4.507812 18.957031 4.4375 17.839844 3.230469 C 19.046875 4.351562 19.117188 4.351562 20.324219 3.230469 " fill-opacity="1" fill-rule="nonzero"/><g clip-path="url(#0b37e09e92)"><g clip-path="url(#4512853910)"><g clip-path="url(#a2284c80ee)"><path fill="#e4094c" d="M 21.226562 7.496094 C 21.226562 7.496094 22.296875 6.4375 24.117188 7 C 24.054688 6.980469 22.835938 6.644531 21.375 7.683594 C 23.28125 9.898438 25.785156 6.859375 25.785156 6.859375 C 22.058594 4.753906 21.226562 7.496094 21.226562 7.496094 " fill-opacity="1" fill-rule="nonzero"/></g></g></g><g clip-path="url(#f5c84695b3)"><g clip-path="url(#135706e777)"><g clip-path="url(#2351313b65)"><path fill="#e4094c" d="M 23.066406 4.386719 C 23.066406 4.386719 23.695312 3.167969 25.425781 3.144531 C 25.425781 3.144531 25.429688 3.144531 25.429688 3.144531 C 25.425781 3.144531 25.425781 3.144531 25.425781 3.144531 C 25.367188 3.144531 24.21875 3.195312 23.246094 4.503906 C 25.519531 5.890625 26.832031 2.554688 26.832031 2.554688 C 23.015625 1.773438 23.066406 4.386719 23.066406 4.386719 " fill-opacity="1" fill-rule="nonzero"/></g></g></g><g clip-path="url(#ce1aa297ae)"><g clip-path="url(#90c9fca771)"><g clip-path="url(#d3fb885791)"><path fill="#e4094c" d="M 21.21875 5.273438 C 21.21875 5.273438 21.53125 3.882812 20.164062 2.703125 C 20.210938 2.742188 21.09375 3.554688 20.996094 5.25 C 18.253906 4.835938 19.433594 1.292969 19.433594 1.292969 C 23.003906 3.226562 21.21875 5.273438 21.21875 5.273438 " fill-opacity="1" fill-rule="nonzero"/></g></g></g><g fill="#ffffff" fill-opacity="1"><g transform="translate(25.833611, 16.934193)"><g><path d="M 3.734375 -6.46875 C 4.828125 -6.46875 5.691406 -6.175781 6.328125 -5.59375 C 6.960938 -5.019531 7.28125 -4.234375 7.28125 -3.234375 C 7.28125 -2.234375 6.960938 -1.441406 6.328125 -0.859375 C 5.691406 -0.285156 4.828125 0 3.734375 0 L 0.390625 0 L 0.390625 -0.09375 L 0.515625 -0.09375 C 0.671875 -0.09375 0.804688 -0.148438 0.921875 -0.265625 C 1.035156 -0.378906 1.09375 -0.515625 1.09375 -0.671875 L 1.09375 -5.84375 C 1.09375 -5.988281 1.03125 -6.113281 0.90625 -6.21875 C 0.789062 -6.320312 0.660156 -6.375 0.515625 -6.375 L 0.390625 -6.375 L 0.390625 -6.46875 Z M 3.625 -0.390625 C 4.0625 -0.390625 4.441406 -0.503906 4.765625 -0.734375 C 5.085938 -0.960938 5.332031 -1.289062 5.5 -1.71875 C 5.675781 -2.144531 5.765625 -2.609375 5.765625 -3.109375 C 5.765625 -3.617188 5.710938 -4.050781 5.609375 -4.40625 C 5.515625 -4.757812 5.375 -5.0625 5.1875 -5.3125 C 4.8125 -5.820312 4.289062 -6.078125 3.625 -6.078125 L 2.484375 -6.078125 L 2.484375 -0.390625 Z M 3.625 -0.390625 "/></g></g></g><g fill="#ffffff" fill-opacity="1"><g transform="translate(33.477127, 16.934193)"><g><path d="M 1.4375 -5.6875 C 2.09375 -6.289062 2.972656 -6.59375 4.078125 -6.59375 C 5.191406 -6.59375 6.078125 -6.289062 6.734375 -5.6875 C 7.390625 -5.082031 7.71875 -4.265625 7.71875 -3.234375 C 7.71875 -2.203125 7.390625 -1.382812 6.734375 -0.78125 C 6.078125 -0.175781 5.191406 0.125 4.078125 0.125 C 2.972656 0.125 2.09375 -0.175781 1.4375 -0.78125 C 0.78125 -1.382812 0.453125 -2.203125 0.453125 -3.234375 C 0.453125 -4.265625 0.78125 -5.082031 1.4375 -5.6875 Z M 2.53125 -1.0625 C 2.914062 -0.53125 3.429688 -0.265625 4.078125 -0.265625 C 4.734375 -0.265625 5.25 -0.53125 5.625 -1.0625 C 6.007812 -1.59375 6.203125 -2.316406 6.203125 -3.234375 C 6.203125 -4.148438 6.007812 -4.875 5.625 -5.40625 C 5.25 -5.9375 4.734375 -6.203125 4.078125 -6.203125 C 3.429688 -6.203125 2.914062 -5.9375 2.53125 -5.40625 C 2.15625 -4.875 1.96875 -4.148438 1.96875 -3.234375 C 1.96875 -2.316406 2.15625 -1.59375 2.53125 -1.0625 Z M 2.53125 -1.0625 "/></g></g></g><g fill="#ffffff" fill-opacity="1"><g transform="translate(41.582202, 16.934193)"><g><path d="M 4.234375 0.125 C 3.046875 0.125 2.113281 -0.171875 1.4375 -0.765625 C 0.757812 -1.367188 0.421875 -2.191406 0.421875 -3.234375 C 0.421875 -4.273438 0.753906 -5.09375 1.421875 -5.6875 C 2.085938 -6.289062 3.007812 -6.59375 4.1875 -6.59375 C 5.070312 -6.59375 5.835938 -6.425781 6.484375 -6.09375 L 6.5 -4.5 L 6.421875 -4.5 C 6.109375 -5.632812 5.394531 -6.203125 4.28125 -6.203125 C 3.550781 -6.203125 2.972656 -5.9375 2.546875 -5.40625 C 2.128906 -4.882812 1.921875 -4.164062 1.921875 -3.25 C 1.921875 -2.34375 2.117188 -1.617188 2.515625 -1.078125 C 2.921875 -0.546875 3.472656 -0.273438 4.171875 -0.265625 C 4.878906 -0.265625 5.421875 -0.441406 5.796875 -0.796875 C 6.179688 -1.160156 6.445312 -1.796875 6.59375 -2.703125 L 6.671875 -2.703125 L 6.765625 -1.109375 C 6.265625 -0.285156 5.421875 0.125 4.234375 0.125 Z M 4.234375 0.125 "/></g></g></g><g fill="#ffffff" fill-opacity="1"><g transform="translate(48.78261, 16.934193)"><g><path d="M 3.78125 -6.078125 L 3.78125 -0.671875 C 3.78125 -0.503906 3.835938 -0.363281 3.953125 -0.25 C 4.066406 -0.144531 4.207031 -0.09375 4.375 -0.09375 L 4.484375 -0.09375 L 4.484375 0 L 1.6875 0 L 1.6875 -0.09375 L 1.796875 -0.09375 C 1.953125 -0.09375 2.085938 -0.144531 2.203125 -0.25 C 2.316406 -0.363281 2.378906 -0.5 2.390625 -0.65625 L 2.390625 -6.078125 L 1.140625 -6.078125 C 0.859375 -6.078125 0.632812 -5.988281 0.46875 -5.8125 C 0.300781 -5.644531 0.21875 -5.421875 0.21875 -5.140625 L 0.21875 -5.03125 L 0.125 -5.03125 L 0.125 -6.640625 C 0.382812 -6.535156 0.75 -6.476562 1.21875 -6.46875 L 4.9375 -6.46875 C 5.132812 -6.46875 5.34375 -6.484375 5.5625 -6.515625 C 5.789062 -6.554688 5.945312 -6.597656 6.03125 -6.640625 L 6.03125 -5.03125 L 5.9375 -5.03125 L 5.9375 -5.140625 C 5.9375 -5.523438 5.789062 -5.796875 5.5 -5.953125 C 5.363281 -6.035156 5.203125 -6.078125 5.015625 -6.078125 Z M 3.78125 -6.078125 "/></g></g></g><g fill="#ffffff" fill-opacity="1"><g transform="translate(54.930657, 16.934193)"><g><path d="M 1.4375 -5.6875 C 2.09375 -6.289062 2.972656 -6.59375 4.078125 -6.59375 C 5.191406 -6.59375 6.078125 -6.289062 6.734375 -5.6875 C 7.390625 -5.082031 7.71875 -4.265625 7.71875 -3.234375 C 7.71875 -2.203125 7.390625 -1.382812 6.734375 -0.78125 C 6.078125 -0.175781 5.191406 0.125 4.078125 0.125 C 2.972656 0.125 2.09375 -0.175781 1.4375 -0.78125 C 0.78125 -1.382812 0.453125 -2.203125 0.453125 -3.234375 C 0.453125 -4.265625 0.78125 -5.082031 1.4375 -5.6875 Z M 2.53125 -1.0625 C 2.914062 -0.53125 3.429688 -0.265625 4.078125 -0.265625 C 4.734375 -0.265625 5.25 -0.53125 5.625 -1.0625 C 6.007812 -1.59375 6.203125 -2.316406 6.203125 -3.234375 C 6.203125 -4.148438 6.007812 -4.875 5.625 -5.40625 C 5.25 -5.9375 4.734375 -6.203125 4.078125 -6.203125 C 3.429688 -6.203125 2.914062 -5.9375 2.53125 -5.40625 C 2.15625 -4.875 1.96875 -4.148438 1.96875 -3.234375 C 1.96875 -2.316406 2.15625 -1.59375 2.53125 -1.0625 Z M 2.53125 -1.0625 "/></g></g></g><g fill="#ffffff" fill-opacity="1"><g transform="translate(63.035732, 16.934193)"><g><path d="M 2.9375 -6.0625 L 2.546875 -6.0625 C 2.523438 -6.0625 2.515625 -6.0625 2.515625 -6.0625 L 2.515625 -0.671875 C 2.515625 -0.515625 2.570312 -0.378906 2.6875 -0.265625 C 2.800781 -0.148438 2.941406 -0.09375 3.109375 -0.09375 L 3.21875 -0.09375 L 3.21875 0 L 0.421875 0 L 0.421875 -0.09375 L 0.53125 -0.09375 C 0.757812 -0.09375 0.929688 -0.1875 1.046875 -0.375 C 1.097656 -0.46875 1.125 -0.566406 1.125 -0.671875 L 1.125 -5.796875 C 1.125 -5.953125 1.066406 -6.085938 0.953125 -6.203125 C 0.835938 -6.316406 0.695312 -6.375 0.53125 -6.375 L 0.421875 -6.375 L 0.421875 -6.46875 L 3.578125 -6.46875 C 4.179688 -6.46875 4.6875 -6.335938 5.09375 -6.078125 C 5.300781 -5.941406 5.46875 -5.757812 5.59375 -5.53125 C 5.71875 -5.300781 5.78125 -5 5.78125 -4.625 C 5.78125 -4.257812 5.648438 -3.898438 5.390625 -3.546875 C 5.128906 -3.203125 4.753906 -3.007812 4.265625 -2.96875 C 4.617188 -2.84375 4.929688 -2.570312 5.203125 -2.15625 C 5.867188 -1.082031 6.363281 -0.445312 6.6875 -0.25 C 6.84375 -0.15625 7.039062 -0.101562 7.28125 -0.09375 L 7.28125 0 L 6.375 0 C 5.84375 0 5.398438 -0.0664062 5.046875 -0.203125 C 4.691406 -0.347656 4.410156 -0.597656 4.203125 -0.953125 C 4.085938 -1.160156 3.832031 -1.691406 3.4375 -2.546875 C 3.269531 -2.921875 3.0625 -3.125 2.8125 -3.15625 L 2.8125 -3.25 L 3.109375 -3.25 C 3.378906 -3.25 3.617188 -3.332031 3.828125 -3.5 C 4.046875 -3.664062 4.191406 -3.9375 4.265625 -4.3125 C 4.285156 -4.4375 4.296875 -4.539062 4.296875 -4.625 C 4.296875 -5.125 4.191406 -5.484375 3.984375 -5.703125 C 3.785156 -5.929688 3.53125 -6.050781 3.21875 -6.0625 C 3.15625 -6.0625 3.0625 -6.0625 2.9375 -6.0625 Z M 2.9375 -6.0625 "/></g></g></g><g fill="#ffffff" fill-opacity="1"><g transform="translate(69.931513, 16.934193)"><g><path d="M 0.421875 -5.3125 C 0.703125 -5.414062 0.84375 -5.609375 0.84375 -5.890625 C 0.84375 -6.054688 0.769531 -6.21875 0.625 -6.375 C 0.488281 -6.539062 0.421875 -6.722656 0.421875 -6.921875 C 0.421875 -7.117188 0.476562 -7.273438 0.59375 -7.390625 C 0.71875 -7.515625 0.863281 -7.578125 1.03125 -7.578125 C 1.363281 -7.578125 1.597656 -7.429688 1.734375 -7.140625 C 1.816406 -6.953125 1.859375 -6.796875 1.859375 -6.671875 C 1.859375 -6.328125 1.785156 -6.039062 1.640625 -5.8125 C 1.367188 -5.394531 1.019531 -5.1875 0.59375 -5.1875 C 0.539062 -5.1875 0.488281 -5.191406 0.4375 -5.203125 Z M 0.421875 -5.3125 "/></g></g></g><g fill="#ffffff" fill-opacity="1"><g transform="translate(72.156256, 16.934193)"><g><path d="M 0.46875 -0.859375 C 0.46875 -1.304688 0.5625 -1.6875 0.75 -2 L 0.828125 -2 C 0.828125 -1.945312 0.828125 -1.894531 0.828125 -1.84375 C 0.828125 -1.414062 0.976562 -1.046875 1.28125 -0.734375 C 1.582031 -0.421875 2 -0.265625 2.53125 -0.265625 C 2.945312 -0.265625 3.269531 -0.359375 3.5 -0.546875 C 3.726562 -0.742188 3.84375 -0.992188 3.84375 -1.296875 C 3.84375 -1.472656 3.785156 -1.632812 3.671875 -1.78125 C 3.554688 -1.925781 3.367188 -2.082031 3.109375 -2.25 L 1.5 -3.3125 C 0.894531 -3.71875 0.59375 -4.210938 0.59375 -4.796875 C 0.59375 -4.859375 0.601562 -4.921875 0.625 -4.984375 C 0.65625 -5.460938 0.84375 -5.847656 1.1875 -6.140625 C 1.53125 -6.441406 1.988281 -6.59375 2.5625 -6.59375 C 2.894531 -6.59375 3.3125 -6.5625 3.8125 -6.5 L 4.390625 -6.5 L 4.28125 -5.140625 L 4.1875 -5.140625 C 4.1875 -5.460938 4.066406 -5.71875 3.828125 -5.90625 C 3.585938 -6.101562 3.269531 -6.203125 2.875 -6.203125 C 2.394531 -6.203125 2.050781 -6.054688 1.84375 -5.765625 C 1.726562 -5.617188 1.671875 -5.472656 1.671875 -5.328125 C 1.671875 -5.191406 1.695312 -5.078125 1.75 -4.984375 C 1.84375 -4.816406 2.03125 -4.640625 2.3125 -4.453125 L 4.078125 -3.3125 C 4.628906 -2.945312 4.90625 -2.472656 4.90625 -1.890625 C 4.90625 -1.242188 4.679688 -0.742188 4.234375 -0.390625 C 3.796875 -0.046875 3.207031 0.125 2.46875 0.125 C 2.050781 0.125 1.664062 0.078125 1.3125 -0.015625 C 0.957031 -0.117188 0.695312 -0.257812 0.53125 -0.4375 C 0.488281 -0.550781 0.46875 -0.691406 0.46875 -0.859375 Z M 0.46875 -0.859375 "/></g></g></g><g fill="#000000" fill-opacity="1"><g transform="translate(77.501957, 16.934193)"><g/></g></g><g fill="#000000" fill-opacity="1"><g transform="translate(79.809784, 16.934193)"><g/></g></g><g fill="#e4094c" fill-opacity="1"><g transform="translate(82.117632, 16.934193)"><g><path d="M 3.734375 -6.46875 C 4.828125 -6.46875 5.691406 -6.175781 6.328125 -5.59375 C 6.960938 -5.019531 7.28125 -4.234375 7.28125 -3.234375 C 7.28125 -2.234375 6.960938 -1.441406 6.328125 -0.859375 C 5.691406 -0.285156 4.828125 0 3.734375 0 L 0.390625 0 L 0.390625 -0.09375 L 0.515625 -0.09375 C 0.671875 -0.09375 0.804688 -0.148438 0.921875 -0.265625 C 1.035156 -0.378906 1.09375 -0.515625 1.09375 -0.671875 L 1.09375 -5.84375 C 1.09375 -5.988281 1.03125 -6.113281 0.90625 -6.21875 C 0.789062 -6.320312 0.660156 -6.375 0.515625 -6.375 L 0.390625 -6.375 L 0.390625 -6.46875 Z M 3.625 -0.390625 C 4.0625 -0.390625 4.441406 -0.503906 4.765625 -0.734375 C 5.085938 -0.960938 5.332031 -1.289062 5.5 -1.71875 C 5.675781 -2.144531 5.765625 -2.609375 5.765625 -3.109375 C 5.765625 -3.617188 5.710938 -4.050781 5.609375 -4.40625 C 5.515625 -4.757812 5.375 -5.0625 5.1875 -5.3125 C 4.8125 -5.820312 4.289062 -6.078125 3.625 -6.078125 L 2.484375 -6.078125 L 2.484375 -0.390625 Z M 3.625 -0.390625 "/></g></g></g><g fill="#e4094c" fill-opacity="1"><g transform="translate(89.761149, 16.934193)"><g><path d="M 0.515625 -0.09375 C 0.671875 -0.09375 0.804688 -0.148438 0.921875 -0.265625 C 1.035156 -0.378906 1.09375 -0.515625 1.09375 -0.671875 L 1.09375 -5.796875 C 1.09375 -5.960938 1.035156 -6.097656 0.921875 -6.203125 C 0.804688 -6.316406 0.671875 -6.375 0.515625 -6.375 L 0.390625 -6.375 L 0.390625 -6.46875 L 3.1875 -6.46875 L 3.1875 -6.375 L 3.078125 -6.375 C 2.910156 -6.375 2.769531 -6.316406 2.65625 -6.203125 C 2.539062 -6.097656 2.484375 -5.960938 2.484375 -5.796875 L 2.484375 -0.671875 C 2.484375 -0.515625 2.539062 -0.378906 2.65625 -0.265625 C 2.769531 -0.148438 2.910156 -0.09375 3.078125 -0.09375 L 3.1875 -0.09375 L 3.1875 0 L 0.390625 0 L 0.390625 -0.09375 Z M 0.515625 -0.09375 "/></g></g></g><g fill="#e4094c" fill-opacity="1"><g transform="translate(93.324429, 16.934193)"><g><path d="M 6.828125 -0.09375 L 6.90625 -0.09375 L 6.90625 0 L 3.953125 0 L 3.953125 -0.09375 L 4.046875 -0.09375 C 4.179688 -0.09375 4.28125 -0.132812 4.34375 -0.21875 C 4.40625 -0.300781 4.4375 -0.378906 4.4375 -0.453125 C 4.4375 -0.523438 4.421875 -0.597656 4.390625 -0.671875 L 3.9375 -1.8125 L 1.78125 -1.8125 L 1.296875 -0.671875 C 1.265625 -0.585938 1.25 -0.507812 1.25 -0.4375 C 1.25 -0.375 1.28125 -0.300781 1.34375 -0.21875 C 1.414062 -0.132812 1.519531 -0.09375 1.65625 -0.09375 L 1.734375 -0.09375 L 1.734375 0 L -0.25 0 L -0.25 -0.09375 L -0.15625 -0.09375 C -0.0195312 -0.09375 0.117188 -0.132812 0.265625 -0.21875 C 0.410156 -0.300781 0.523438 -0.429688 0.609375 -0.609375 L 2.75 -5.4375 C 3.039062 -6.050781 3.191406 -6.457031 3.203125 -6.65625 L 3.296875 -6.65625 L 6.03125 -0.625 C 6.125 -0.445312 6.238281 -0.3125 6.375 -0.21875 C 6.519531 -0.132812 6.671875 -0.09375 6.828125 -0.09375 Z M 1.9375 -2.203125 L 3.78125 -2.203125 L 2.890625 -4.46875 Z M 1.9375 -2.203125 "/></g></g></g><g fill="#e4094c" fill-opacity="1"><g transform="translate(99.934034, 16.934193)"><g><path d="M 2.9375 -6.0625 L 2.546875 -6.0625 C 2.523438 -6.0625 2.515625 -6.0625 2.515625 -6.0625 L 2.515625 -0.671875 C 2.515625 -0.515625 2.570312 -0.378906 2.6875 -0.265625 C 2.800781 -0.148438 2.941406 -0.09375 3.109375 -0.09375 L 3.21875 -0.09375 L 3.21875 0 L 0.421875 0 L 0.421875 -0.09375 L 0.53125 -0.09375 C 0.757812 -0.09375 0.929688 -0.1875 1.046875 -0.375 C 1.097656 -0.46875 1.125 -0.566406 1.125 -0.671875 L 1.125 -5.796875 C 1.125 -5.953125 1.066406 -6.085938 0.953125 -6.203125 C 0.835938 -6.316406 0.695312 -6.375 0.53125 -6.375 L 0.421875 -6.375 L 0.421875 -6.46875 L 3.578125 -6.46875 C 4.179688 -6.46875 4.6875 -6.335938 5.09375 -6.078125 C 5.300781 -5.941406 5.46875 -5.757812 5.59375 -5.53125 C 5.71875 -5.300781 5.78125 -5 5.78125 -4.625 C 5.78125 -4.257812 5.648438 -3.898438 5.390625 -3.546875 C 5.128906 -3.203125 4.753906 -3.007812 4.265625 -2.96875 C 4.617188 -2.84375 4.929688 -2.570312 5.203125 -2.15625 C 5.867188 -1.082031 6.363281 -0.445312 6.6875 -0.25 C 6.84375 -0.15625 7.039062 -0.101562 7.28125 -0.09375 L 7.28125 0 L 6.375 0 C 5.84375 0 5.398438 -0.0664062 5.046875 -0.203125 C 4.691406 -0.347656 4.410156 -0.597656 4.203125 -0.953125 C 4.085938 -1.160156 3.832031 -1.691406 3.4375 -2.546875 C 3.269531 -2.921875 3.0625 -3.125 2.8125 -3.15625 L 2.8125 -3.25 L 3.109375 -3.25 C 3.378906 -3.25 3.617188 -3.332031 3.828125 -3.5 C 4.046875 -3.664062 4.191406 -3.9375 4.265625 -4.3125 C 4.285156 -4.4375 4.296875 -4.539062 4.296875 -4.625 C 4.296875 -5.125 4.191406 -5.484375 3.984375 -5.703125 C 3.785156 -5.929688 3.53125 -6.050781 3.21875 -6.0625 C 3.15625 -6.0625 3.0625 -6.0625 2.9375 -6.0625 Z M 2.9375 -6.0625 "/></g></g></g><g fill="#e4094c" fill-opacity="1"><g transform="translate(106.829816, 16.934193)"><g><path d="M 6.796875 -6.375 L 6.671875 -6.375 C 6.484375 -6.375 6.304688 -6.320312 6.140625 -6.21875 C 5.972656 -6.113281 5.835938 -5.988281 5.734375 -5.84375 L 3.921875 -2.9375 L 3.921875 -0.671875 C 3.921875 -0.515625 3.976562 -0.378906 4.09375 -0.265625 C 4.207031 -0.148438 4.347656 -0.09375 4.515625 -0.09375 L 4.625 -0.09375 L 4.640625 0 L 1.828125 0 L 1.828125 -0.09375 L 1.953125 -0.09375 C 2.109375 -0.09375 2.242188 -0.144531 2.359375 -0.25 C 2.472656 -0.363281 2.53125 -0.503906 2.53125 -0.671875 L 2.53125 -2.953125 L 0.765625 -5.84375 C 0.679688 -5.988281 0.550781 -6.113281 0.375 -6.21875 C 0.207031 -6.320312 0.0351562 -6.375 -0.140625 -6.375 L -0.265625 -6.375 L -0.265625 -6.46875 L 2.78125 -6.46875 L 2.78125 -6.375 L 2.671875 -6.375 C 2.535156 -6.375 2.429688 -6.3125 2.359375 -6.1875 C 2.316406 -6.113281 2.296875 -6.046875 2.296875 -5.984375 C 2.296875 -5.921875 2.3125 -5.859375 2.34375 -5.796875 L 3.65625 -3.390625 L 5.046875 -5.796875 C 5.066406 -5.859375 5.078125 -5.921875 5.078125 -5.984375 C 5.078125 -6.046875 5.054688 -6.109375 5.015625 -6.171875 C 4.941406 -6.304688 4.835938 -6.375 4.703125 -6.375 L 4.59375 -6.375 L 4.59375 -6.46875 L 6.796875 -6.46875 Z M 6.796875 -6.375 "/></g></g></g><g clip-path="url(#5295a9a891)"><path fill="#e4094c" d="M 37.078125 20.484375 C 36.355469 20.113281 35.507812 20.027344 34.707031 20.003906 C 33.84375 19.984375 32.980469 20.039062 32.121094 20.117188 C 31.253906 20.199219 30.386719 20.300781 29.515625 20.363281 C 29.082031 20.390625 28.644531 20.410156 28.210938 20.410156 C 27.800781 20.414062 27.386719 20.417969 26.980469 20.367188 C 26.566406 20.320312 26.15625 20.203125 25.839844 19.917969 C 25.566406 19.671875 25.367188 19.292969 25.441406 18.914062 C 25.472656 18.757812 25.722656 18.792969 25.722656 18.953125 C 25.71875 19.285156 25.847656 19.570312 26.105469 19.78125 C 26.398438 20.019531 26.785156 20.105469 27.148438 20.148438 C 27.972656 20.246094 28.808594 20.210938 29.632812 20.15625 C 31.308594 20.039062 32.976562 19.765625 34.65625 19.824219 C 35.515625 19.851562 36.378906 19.949219 37.125 20.402344 C 37.179688 20.433594 37.132812 20.515625 37.078125 20.484375 Z M 37.078125 20.484375 " fill-opacity="1" fill-rule="nonzero"/></g><path fill="#e4094c" d="M 36.753906 19.9375 C 36.019531 19.671875 35.261719 19.605469 34.484375 19.601562 C 34.441406 19.601562 34.429688 19.53125 34.476562 19.527344 C 35.25 19.410156 36.058594 19.59375 36.769531 19.90625 C 36.785156 19.914062 36.773438 19.945312 36.753906 19.9375 Z M 36.753906 19.9375 " fill-opacity="1" fill-rule="nonzero"/><g clip-path="url(#4077c7cb42)"><path fill="#e4094c" d="M 26.128906 20.371094 C 25.847656 20.332031 25.585938 20.195312 25.386719 19.992188 C 25.289062 19.886719 25.203125 19.769531 25.140625 19.640625 C 25.09375 19.535156 25 19.351562 25.074219 19.246094 C 25.109375 19.195312 25.167969 19.1875 25.214844 19.226562 C 25.296875 19.300781 25.285156 19.460938 25.320312 19.566406 C 25.359375 19.683594 25.414062 19.792969 25.488281 19.894531 C 25.648438 20.113281 25.875 20.273438 26.136719 20.34375 C 26.152344 20.347656 26.148438 20.371094 26.128906 20.371094 Z M 26.128906 20.371094 " fill-opacity="1" fill-rule="nonzero"/></g><g clip-path="url(#cd5bdfa092)"><path fill="#e4094c" d="M 102.554688 20.484375 C 103.28125 20.113281 104.125 20.027344 104.925781 20.003906 C 105.789062 19.984375 106.652344 20.039062 107.511719 20.117188 C 108.378906 20.199219 109.246094 20.300781 110.117188 20.363281 C 110.550781 20.390625 110.988281 20.410156 111.421875 20.410156 C 111.832031 20.414062 112.246094 20.417969 112.65625 20.367188 C 113.066406 20.320312 113.476562 20.203125 113.792969 19.917969 C 114.066406 19.671875 114.265625 19.292969 114.191406 18.914062 C 114.160156 18.757812 113.914062 18.792969 113.914062 18.953125 C 113.914062 19.285156 113.785156 19.570312 113.527344 19.78125 C 113.234375 20.019531 112.847656 20.105469 112.484375 20.148438 C 111.664062 20.246094 110.824219 20.210938 110 20.15625 C 108.328125 20.039062 106.65625 19.765625 104.976562 19.824219 C 104.121094 19.851562 103.253906 19.949219 102.507812 20.402344 C 102.453125 20.433594 102.5 20.515625 102.554688 20.484375 Z M 102.554688 20.484375 " fill-opacity="1" fill-rule="nonzero"/></g><g clip-path="url(#700a176d68)"><path fill="#e4094c" d="M 102.878906 19.9375 C 103.613281 19.671875 104.371094 19.605469 105.148438 19.601562 C 105.191406 19.601562 105.203125 19.53125 105.15625 19.527344 C 104.382812 19.410156 103.574219 19.59375 102.863281 19.90625 C 102.847656 19.914062 102.859375 19.945312 102.878906 19.9375 Z M 102.878906 19.9375 " fill-opacity="1" fill-rule="nonzero"/></g><g clip-path="url(#e42d5e3cc2)"><path fill="#e4094c" d="M 113.503906 20.371094 C 113.789062 20.332031 114.046875 20.195312 114.246094 19.992188 C 114.347656 19.886719 114.433594 19.769531 114.492188 19.640625 C 114.539062 19.535156 114.632812 19.351562 114.558594 19.246094 C 114.523438 19.195312 114.464844 19.1875 114.417969 19.226562 C 114.335938 19.300781 114.347656 19.460938 114.3125 19.566406 C 114.273438 19.683594 114.21875 19.792969 114.148438 19.894531 C 113.988281 20.113281 113.757812 20.273438 113.496094 20.34375 C 113.480469 20.347656 113.488281 20.371094 113.503906 20.371094 Z M 113.503906 20.371094 " fill-opacity="1" fill-rule="nonzero"/></g><g clip-path="url(#ec183dd5d5)"><path fill="#ffffff" d="M 37.328125 28.8125 C 38.492188 28.296875 39.542969 27.53125 40.375 26.566406 C 40.425781 26.507812 40.472656 26.449219 40.523438 26.390625 C 40.3125 26.273438 40.113281 26.140625 39.921875 26.003906 C 39.109375 25.414062 38.4375 24.628906 38.082031 23.683594 C 38.011719 23.5 37.976562 23.285156 38.15625 23.152344 C 38.304688 23.042969 38.519531 23.058594 38.6875 23.101562 C 38.914062 23.164062 39.109375 23.316406 39.292969 23.457031 C 39.523438 23.632812 39.738281 23.828125 39.933594 24.042969 C 40.070312 24.195312 40.195312 24.359375 40.308594 24.527344 C 40.417969 23.929688 40.8125 23.386719 41.382812 23.136719 C 41.65625 23.011719 42.011719 23.011719 42.128906 23.339844 C 42.234375 23.632812 42.101562 23.957031 41.996094 24.226562 C 41.714844 24.972656 41.328125 25.671875 40.855469 26.304688 C 42.738281 27.28125 44.945312 27.277344 47.019531 26.964844 C 48.304688 26.769531 49.574219 26.480469 50.851562 26.230469 C 52.082031 25.992188 53.316406 25.773438 54.554688 25.59375 C 57.015625 25.246094 59.511719 25.074219 61.988281 25.324219 C 64.363281 25.558594 66.8125 26.179688 68.847656 27.476562 C 69.089844 27.628906 69.320312 27.796875 69.546875 27.972656 C 69.574219 27.996094 69.535156 28.046875 69.507812 28.023438 C 68.480469 27.265625 67.328125 26.75 66.117188 26.367188 C 64.878906 25.976562 63.597656 25.726562 62.308594 25.589844 C 59.710938 25.316406 57.085938 25.507812 54.511719 25.882812 C 53.210938 26.070312 51.921875 26.308594 50.632812 26.5625 C 49.308594 26.828125 47.992188 27.121094 46.652344 27.292969 C 45.363281 27.453125 44.035156 27.5 42.753906 27.230469 C 42.046875 27.082031 41.347656 26.835938 40.707031 26.488281 C 40.34375 26.941406 39.9375 27.355469 39.492188 27.730469 C 38.855469 28.253906 38.160156 28.675781 37.402344 28.980469 C 37.304688 29.027344 37.230469 28.859375 37.328125 28.8125 Z M 41.453125 24.996094 C 41.605469 24.710938 41.738281 24.417969 41.851562 24.117188 C 41.933594 23.894531 42.121094 23.449219 41.867188 23.269531 C 41.6875 23.144531 41.421875 23.296875 41.261719 23.394531 C 41.117188 23.484375 40.988281 23.597656 40.871094 23.722656 C 40.621094 24 40.464844 24.359375 40.429688 24.730469 C 40.421875 24.800781 40.332031 24.832031 40.292969 24.765625 C 39.980469 24.277344 39.550781 23.847656 39.070312 23.519531 C 38.886719 23.390625 38.691406 23.261719 38.457031 23.265625 C 38.378906 23.265625 38.273438 23.277344 38.234375 23.355469 C 38.179688 23.476562 38.304688 23.683594 38.355469 23.792969 C 38.773438 24.703125 39.46875 25.445312 40.304688 25.988281 C 40.421875 26.0625 40.542969 26.136719 40.664062 26.207031 C 40.960938 25.828125 41.226562 25.421875 41.453125 24.996094 Z M 41.453125 24.996094 " fill-opacity="1" fill-rule="nonzero"/></g><g fill="#e4094c" fill-opacity="1"><g transform="translate(48.555466, 23.914865)"><g><path d="M 0.015625 0 L 0.515625 -1.34375 L 0.859375 -1.34375 L 1.375 0 L 1.03125 0 L 0.953125 -0.234375 L 0.4375 -0.234375 L 0.359375 0 Z M 0.515625 -0.5 L 0.859375 -0.5 L 0.6875 -1 Z M 0.515625 -0.5 "/></g></g></g><g fill="#e4094c" fill-opacity="1"><g transform="translate(50.40098, 23.914865)"><g><path d="M 0.09375 0 L 0.09375 -1.34375 L 0.40625 -1.34375 L 0.40625 -0.28125 L 1.046875 -0.28125 L 1.046875 0 Z M 0.09375 0 "/></g></g></g><g fill="#e4094c" fill-opacity="1"><g transform="translate(51.941235, 23.914865)"><g><path d="M 0.34375 0 L 0.015625 -1.34375 L 0.34375 -1.34375 L 0.515625 -0.40625 L 0.71875 -1.34375 L 1.046875 -1.34375 L 1.25 -0.40625 L 1.4375 -1.34375 L 1.75 -1.34375 L 1.421875 0 L 1.09375 0 L 0.875 -0.9375 L 0.6875 0 Z M 0.34375 0 "/></g></g></g><g fill="#e4094c" fill-opacity="1"><g transform="translate(54.171812, 23.914865)"><g><path d="M 0.015625 0 L 0.515625 -1.34375 L 0.859375 -1.34375 L 1.375 0 L 1.03125 0 L 0.953125 -0.234375 L 0.4375 -0.234375 L 0.359375 0 Z M 0.515625 -0.5 L 0.859375 -0.5 L 0.6875 -1 Z M 0.515625 -0.5 "/></g></g></g><g fill="#e4094c" fill-opacity="1"><g transform="translate(56.017326, 23.914865)"><g><path d="M 0.53125 0 L 0.53125 -0.515625 L 0.015625 -1.34375 L 0.390625 -1.34375 L 0.6875 -0.828125 L 0.984375 -1.34375 L 1.359375 -1.34375 L 0.84375 -0.515625 L 0.84375 0 Z M 0.53125 0 "/></g></g></g><g fill="#e4094c" fill-opacity="1"><g transform="translate(57.856855, 23.914865)"><g><path d="M 0.625 0.03125 C 0.476562 0.03125 0.351562 0 0.25 -0.0625 C 0.15625 -0.125 0.0859375 -0.207031 0.046875 -0.3125 L 0.34375 -0.421875 C 0.351562 -0.359375 0.382812 -0.3125 0.4375 -0.28125 C 0.488281 -0.25 0.550781 -0.234375 0.625 -0.234375 C 0.664062 -0.234375 0.703125 -0.234375 0.734375 -0.234375 C 0.773438 -0.242188 0.804688 -0.257812 0.828125 -0.28125 C 0.859375 -0.300781 0.875 -0.332031 0.875 -0.375 C 0.875 -0.414062 0.847656 -0.445312 0.796875 -0.46875 C 0.753906 -0.5 0.695312 -0.519531 0.625 -0.53125 L 0.46875 -0.5625 C 0.394531 -0.582031 0.328125 -0.609375 0.265625 -0.640625 C 0.203125 -0.671875 0.148438 -0.707031 0.109375 -0.75 C 0.078125 -0.800781 0.0625 -0.867188 0.0625 -0.953125 C 0.0625 -1.015625 0.078125 -1.070312 0.109375 -1.125 C 0.140625 -1.175781 0.179688 -1.21875 0.234375 -1.25 C 0.296875 -1.289062 0.359375 -1.316406 0.421875 -1.328125 C 0.484375 -1.347656 0.550781 -1.359375 0.625 -1.359375 C 0.695312 -1.359375 0.765625 -1.347656 0.828125 -1.328125 C 0.898438 -1.304688 0.960938 -1.273438 1.015625 -1.234375 C 1.066406 -1.191406 1.109375 -1.132812 1.140625 -1.0625 L 0.84375 -0.96875 C 0.832031 -1.007812 0.800781 -1.039062 0.75 -1.0625 C 0.707031 -1.09375 0.65625 -1.109375 0.59375 -1.109375 C 0.53125 -1.109375 0.476562 -1.097656 0.4375 -1.078125 C 0.394531 -1.054688 0.375 -1.023438 0.375 -0.984375 C 0.375 -0.941406 0.390625 -0.910156 0.421875 -0.890625 C 0.453125 -0.867188 0.488281 -0.851562 0.53125 -0.84375 L 0.71875 -0.8125 C 0.769531 -0.800781 0.820312 -0.785156 0.875 -0.765625 C 0.9375 -0.742188 0.988281 -0.71875 1.03125 -0.6875 C 1.082031 -0.664062 1.117188 -0.628906 1.140625 -0.578125 C 1.171875 -0.535156 1.1875 -0.484375 1.1875 -0.421875 C 1.1875 -0.347656 1.171875 -0.28125 1.140625 -0.21875 C 1.109375 -0.164062 1.066406 -0.117188 1.015625 -0.078125 C 0.960938 -0.046875 0.898438 -0.0195312 0.828125 0 C 0.765625 0.0195312 0.695312 0.03125 0.625 0.03125 Z M 0.625 0.03125 "/></g></g></g><g fill="#ff66c4" fill-opacity="1"><g transform="translate(59.562505, 23.914865)"><g/></g></g><g fill="#ff66c4" fill-opacity="1"><g transform="translate(60.669811, 23.914865)"><g/></g></g><g fill="#ffffff" fill-opacity="1"><g transform="translate(61.778459, 23.914865)"><g><path d="M 0.09375 0 L 0.09375 -1.34375 L 0.53125 -1.34375 C 0.632812 -1.34375 0.734375 -1.328125 0.828125 -1.296875 C 0.921875 -1.273438 1.003906 -1.238281 1.078125 -1.1875 C 1.148438 -1.132812 1.203125 -1.066406 1.234375 -0.984375 C 1.273438 -0.898438 1.296875 -0.796875 1.296875 -0.671875 C 1.296875 -0.535156 1.273438 -0.425781 1.234375 -0.34375 C 1.203125 -0.257812 1.148438 -0.191406 1.078125 -0.140625 C 1.003906 -0.0859375 0.921875 -0.0507812 0.828125 -0.03125 C 0.734375 -0.0078125 0.632812 0 0.53125 0 Z M 0.40625 -0.265625 L 0.53125 -0.265625 C 0.59375 -0.265625 0.648438 -0.269531 0.703125 -0.28125 C 0.753906 -0.289062 0.800781 -0.304688 0.84375 -0.328125 C 0.882812 -0.359375 0.914062 -0.398438 0.9375 -0.453125 C 0.957031 -0.503906 0.96875 -0.578125 0.96875 -0.671875 C 0.96875 -0.753906 0.957031 -0.820312 0.9375 -0.875 C 0.914062 -0.9375 0.882812 -0.976562 0.84375 -1 C 0.800781 -1.03125 0.753906 -1.050781 0.703125 -1.0625 C 0.648438 -1.070312 0.59375 -1.078125 0.53125 -1.078125 L 0.40625 -1.078125 Z M 0.40625 -0.265625 "/></g></g></g><g fill="#ffffff" fill-opacity="1"><g transform="translate(63.615992, 23.914865)"><g><path d="M 0.09375 0 L 0.09375 -1.34375 L 0.609375 -1.34375 C 0.722656 -1.34375 0.820312 -1.328125 0.90625 -1.296875 C 1 -1.273438 1.070312 -1.234375 1.125 -1.171875 C 1.175781 -1.117188 1.203125 -1.035156 1.203125 -0.921875 C 1.203125 -0.867188 1.191406 -0.816406 1.171875 -0.765625 C 1.160156 -0.722656 1.128906 -0.679688 1.078125 -0.640625 C 1.035156 -0.597656 0.972656 -0.5625 0.890625 -0.53125 L 1.28125 0 L 0.90625 0 L 0.546875 -0.5 L 0.40625 -0.5 L 0.40625 0 Z M 0.40625 -0.765625 L 0.609375 -0.765625 C 0.679688 -0.765625 0.742188 -0.773438 0.796875 -0.796875 C 0.847656 -0.816406 0.875 -0.859375 0.875 -0.921875 C 0.875 -0.984375 0.847656 -1.019531 0.796875 -1.03125 C 0.742188 -1.050781 0.679688 -1.0625 0.609375 -1.0625 L 0.40625 -1.0625 Z M 0.40625 -0.765625 "/></g></g></g><g fill="#ffffff" fill-opacity="1"><g transform="translate(65.389679, 23.914865)"><g><path d="M 0.109375 0 L 0.109375 -0.25 L 0.296875 -0.25 L 0.296875 -1.09375 L 0.109375 -1.09375 L 0.109375 -1.34375 L 0.796875 -1.34375 L 0.796875 -1.09375 L 0.625 -1.09375 L 0.625 -0.25 L 0.796875 -0.25 L 0.796875 0 Z M 0.109375 0 "/></g></g></g><g fill="#ffffff" fill-opacity="1"><g transform="translate(66.772316, 23.914865)"><g><path d="M 0.09375 0 L 0.09375 -1.34375 L 0.484375 -1.34375 L 1 -0.390625 L 1 -1.34375 L 1.3125 -1.34375 L 1.3125 0 L 0.90625 0 L 0.390625 -0.953125 L 0.390625 0 Z M 0.09375 0 "/></g></g></g><g fill="#ffffff" fill-opacity="1"><g transform="translate(68.63778, 23.914865)"><g><path d="M 0.09375 0 L 0.09375 -1.34375 L 0.40625 -1.34375 L 0.40625 -0.8125 L 0.890625 -1.34375 L 1.265625 -1.34375 L 0.75 -0.765625 L 1.296875 0 L 0.9375 0 L 0.546875 -0.546875 L 0.40625 -0.390625 L 0.40625 0 Z M 0.09375 0 "/></g></g></g><g fill="#ffffff" fill-opacity="1"><g transform="translate(70.421465, 23.914865)"><g/></g></g><g fill="#ffffff" fill-opacity="1"><g transform="translate(71.528772, 23.914865)"><g/></g></g><g fill="#e4094c" fill-opacity="1"><g transform="translate(72.63742, 23.914865)"><g><path d="M 0.34375 0 L 0.015625 -1.34375 L 0.34375 -1.34375 L 0.515625 -0.40625 L 0.71875 -1.34375 L 1.046875 -1.34375 L 1.25 -0.40625 L 1.4375 -1.34375 L 1.75 -1.34375 L 1.421875 0 L 1.09375 0 L 0.875 -0.9375 L 0.6875 0 Z M 0.34375 0 "/></g></g></g><g fill="#e4094c" fill-opacity="1"><g transform="translate(74.867997, 23.914865)"><g><path d="M 0.015625 0 L 0.515625 -1.34375 L 0.859375 -1.34375 L 1.375 0 L 1.03125 0 L 0.953125 -0.234375 L 0.4375 -0.234375 L 0.359375 0 Z M 0.515625 -0.5 L 0.859375 -0.5 L 0.6875 -1 Z M 0.515625 -0.5 "/></g></g></g><g fill="#e4094c" fill-opacity="1"><g transform="translate(76.713511, 23.914865)"><g><path d="M 0.09375 0 L 0.09375 -1.34375 L 0.609375 -1.34375 C 0.722656 -1.34375 0.820312 -1.328125 0.90625 -1.296875 C 1 -1.273438 1.070312 -1.234375 1.125 -1.171875 C 1.175781 -1.117188 1.203125 -1.035156 1.203125 -0.921875 C 1.203125 -0.867188 1.191406 -0.816406 1.171875 -0.765625 C 1.160156 -0.722656 1.128906 -0.679688 1.078125 -0.640625 C 1.035156 -0.597656 0.972656 -0.5625 0.890625 -0.53125 L 1.28125 0 L 0.90625 0 L 0.546875 -0.5 L 0.40625 -0.5 L 0.40625 0 Z M 0.40625 -0.765625 L 0.609375 -0.765625 C 0.679688 -0.765625 0.742188 -0.773438 0.796875 -0.796875 C 0.847656 -0.816406 0.875 -0.859375 0.875 -0.921875 C 0.875 -0.984375 0.847656 -1.019531 0.796875 -1.03125 C 0.742188 -1.050781 0.679688 -1.0625 0.609375 -1.0625 L 0.40625 -1.0625 Z M 0.40625 -0.765625 "/></g></g></g><g fill="#e4094c" fill-opacity="1"><g transform="translate(78.487198, 23.914865)"><g><path d="M 0.09375 0 L 0.09375 -1.34375 L 0.5625 -1.34375 L 0.84375 -0.375 L 1.125 -1.34375 L 1.59375 -1.34375 L 1.59375 0 L 1.28125 0 L 1.28125 -1.046875 L 0.96875 0 L 0.703125 0 L 0.390625 -1.046875 L 0.390625 0 Z M 0.09375 0 "/></g></g></g><g fill="#ffffff" fill-opacity="1"><g transform="translate(80.636163, 23.914865)"><g/></g></g><g fill="#ffffff" fill-opacity="1"><g transform="translate(81.743469, 23.914865)"><g/></g></g><g fill="#ffffff" fill-opacity="1"><g transform="translate(82.852117, 23.914865)"><g><path d="M 0.34375 0 L 0.015625 -1.34375 L 0.34375 -1.34375 L 0.515625 -0.40625 L 0.71875 -1.34375 L 1.046875 -1.34375 L 1.25 -0.40625 L 1.4375 -1.34375 L 1.75 -1.34375 L 1.421875 0 L 1.09375 0 L 0.875 -0.9375 L 0.6875 0 Z M 0.34375 0 "/></g></g></g><g fill="#ffffff" fill-opacity="1"><g transform="translate(85.082694, 23.914865)"><g><path d="M 0.015625 0 L 0.515625 -1.34375 L 0.859375 -1.34375 L 1.375 0 L 1.03125 0 L 0.953125 -0.234375 L 0.4375 -0.234375 L 0.359375 0 Z M 0.515625 -0.5 L 0.859375 -0.5 L 0.6875 -1 Z M 0.515625 -0.5 "/></g></g></g><g fill="#ffffff" fill-opacity="1"><g transform="translate(86.928208, 23.914865)"><g><path d="M 0.453125 0 L 0.453125 -1.0625 L 0.03125 -1.0625 L 0.03125 -1.34375 L 1.203125 -1.34375 L 1.203125 -1.0625 L 0.78125 -1.0625 L 0.78125 0 Z M 0.453125 0 "/></g></g></g><g fill="#ffffff" fill-opacity="1"><g transform="translate(88.628075, 23.914865)"><g><path d="M 0.09375 0 L 0.09375 -1.34375 L 1.109375 -1.34375 L 1.109375 -1.0625 L 0.40625 -1.0625 L 0.40625 -0.828125 L 0.84375 -0.828125 L 0.84375 -0.546875 L 0.40625 -0.546875 L 0.40625 -0.28125 L 1.109375 -0.28125 L 1.109375 0 Z M 0.09375 0 "/></g></g></g><g fill="#ffffff" fill-opacity="1"><g transform="translate(90.254122, 23.914865)"><g><path d="M 0.09375 0 L 0.09375 -1.34375 L 0.609375 -1.34375 C 0.722656 -1.34375 0.820312 -1.328125 0.90625 -1.296875 C 1 -1.273438 1.070312 -1.234375 1.125 -1.171875 C 1.175781 -1.117188 1.203125 -1.035156 1.203125 -0.921875 C 1.203125 -0.867188 1.191406 -0.816406 1.171875 -0.765625 C 1.160156 -0.722656 1.128906 -0.679688 1.078125 -0.640625 C 1.035156 -0.597656 0.972656 -0.5625 0.890625 -0.53125 L 1.28125 0 L 0.90625 0 L 0.546875 -0.5 L 0.40625 -0.5 L 0.40625 0 Z M 0.40625 -0.765625 L 0.609375 -0.765625 C 0.679688 -0.765625 0.742188 -0.773438 0.796875 -0.796875 C 0.847656 -0.816406 0.875 -0.859375 0.875 -0.921875 C 0.875 -0.984375 0.847656 -1.019531 0.796875 -1.03125 C 0.742188 -1.050781 0.679688 -1.0625 0.609375 -1.0625 L 0.40625 -1.0625 Z M 0.40625 -0.765625 "/></g></g></g><g fill="#e4094c" fill-opacity="1"><g transform="translate(37.798732, 20.364945)"><g><path d="M 0.125 0 L 0.125 -1.9375 L 0.59375 -1.9375 L 0.59375 -1.203125 L 1.390625 -1.203125 L 1.390625 -1.9375 L 1.84375 -1.9375 L 1.84375 0 L 1.390625 0 L 1.390625 -0.796875 L 0.59375 -0.796875 L 0.59375 0 Z M 0.125 0 "/></g></g></g><g fill="#e4094c" fill-opacity="1"><g transform="translate(40.452294, 20.364945)"><g><path d="M 0.859375 0.03125 C 0.703125 0.03125 0.5625 0.00390625 0.4375 -0.046875 C 0.320312 -0.109375 0.226562 -0.195312 0.15625 -0.3125 C 0.09375 -0.425781 0.0625 -0.566406 0.0625 -0.734375 C 0.0625 -0.878906 0.0976562 -1.007812 0.171875 -1.125 C 0.242188 -1.238281 0.335938 -1.328125 0.453125 -1.390625 C 0.578125 -1.453125 0.707031 -1.484375 0.84375 -1.484375 C 1 -1.484375 1.132812 -1.445312 1.25 -1.375 C 1.363281 -1.300781 1.445312 -1.195312 1.5 -1.0625 C 1.5625 -0.925781 1.585938 -0.773438 1.578125 -0.609375 L 0.515625 -0.609375 C 0.523438 -0.503906 0.5625 -0.425781 0.625 -0.375 C 0.695312 -0.332031 0.769531 -0.3125 0.84375 -0.3125 C 0.914062 -0.3125 0.972656 -0.320312 1.015625 -0.34375 C 1.066406 -0.363281 1.109375 -0.390625 1.140625 -0.421875 L 1.484375 -0.28125 C 1.410156 -0.175781 1.316406 -0.0976562 1.203125 -0.046875 C 1.085938 0.00390625 0.972656 0.03125 0.859375 0.03125 Z M 0.515625 -0.875 L 1.171875 -0.875 C 1.171875 -0.96875 1.140625 -1.035156 1.078125 -1.078125 C 1.015625 -1.128906 0.941406 -1.15625 0.859375 -1.15625 C 0.773438 -1.15625 0.695312 -1.128906 0.625 -1.078125 C 0.5625 -1.035156 0.523438 -0.96875 0.515625 -0.875 Z M 0.515625 -0.875 "/></g></g></g><g fill="#e4094c" fill-opacity="1"><g transform="translate(42.777791, 20.364945)"><g><path d="M 0.5625 0.03125 C 0.476562 0.03125 0.394531 0.015625 0.3125 -0.015625 C 0.238281 -0.046875 0.175781 -0.09375 0.125 -0.15625 C 0.0820312 -0.226562 0.0625 -0.304688 0.0625 -0.390625 C 0.0625 -0.503906 0.101562 -0.597656 0.1875 -0.671875 C 0.269531 -0.742188 0.382812 -0.796875 0.53125 -0.828125 C 0.675781 -0.859375 0.84375 -0.882812 1.03125 -0.90625 C 1.03125 -1.007812 1.007812 -1.082031 0.96875 -1.125 C 0.9375 -1.164062 0.875 -1.1875 0.78125 -1.1875 C 0.71875 -1.1875 0.664062 -1.171875 0.625 -1.140625 C 0.582031 -1.109375 0.550781 -1.066406 0.53125 -1.015625 L 0.15625 -1.140625 C 0.207031 -1.242188 0.289062 -1.328125 0.40625 -1.390625 C 0.519531 -1.453125 0.660156 -1.484375 0.828125 -1.484375 C 1.023438 -1.484375 1.179688 -1.4375 1.296875 -1.34375 C 1.410156 -1.25 1.46875 -1.09375 1.46875 -0.875 L 1.46875 -0.5625 C 1.46875 -0.5 1.46875 -0.429688 1.46875 -0.359375 C 1.46875 -0.285156 1.472656 -0.21875 1.484375 -0.15625 C 1.492188 -0.09375 1.503906 -0.0390625 1.515625 0 L 1.09375 0 L 1.046875 -0.171875 C 0.992188 -0.0976562 0.925781 -0.046875 0.84375 -0.015625 C 0.757812 0.015625 0.664062 0.03125 0.5625 0.03125 Z M 0.734375 -0.265625 C 0.816406 -0.265625 0.882812 -0.285156 0.9375 -0.328125 C 1 -0.378906 1.03125 -0.472656 1.03125 -0.609375 L 1.03125 -0.640625 C 0.882812 -0.628906 0.765625 -0.609375 0.671875 -0.578125 C 0.578125 -0.546875 0.53125 -0.492188 0.53125 -0.421875 C 0.53125 -0.378906 0.546875 -0.34375 0.578125 -0.3125 C 0.617188 -0.28125 0.671875 -0.265625 0.734375 -0.265625 Z M 0.734375 -0.265625 "/></g></g></g><g fill="#e4094c" fill-opacity="1"><g transform="translate(45.065545, 20.364945)"><g><path d="M 0.625 0 C 0.5 0 0.398438 -0.0078125 0.328125 -0.03125 C 0.265625 -0.0507812 0.21875 -0.0859375 0.1875 -0.140625 C 0.15625 -0.203125 0.140625 -0.289062 0.140625 -0.40625 L 0.140625 -1.9375 L 0.59375 -1.9375 L 0.59375 -0.515625 C 0.59375 -0.453125 0.601562 -0.410156 0.625 -0.390625 C 0.65625 -0.367188 0.707031 -0.359375 0.78125 -0.359375 L 0.90625 -0.359375 L 0.90625 0 Z M 0.625 0 "/></g></g></g><g fill="#e4094c" fill-opacity="1"><g transform="translate(46.659421, 20.364945)"><g><path d="M 0.75 0 C 0.632812 0 0.539062 -0.0078125 0.46875 -0.03125 C 0.394531 -0.0507812 0.34375 -0.0859375 0.3125 -0.140625 C 0.289062 -0.203125 0.28125 -0.289062 0.28125 -0.40625 L 0.28125 -1.109375 L 0.03125 -1.109375 L 0.03125 -1.4375 L 0.28125 -1.4375 L 0.28125 -1.796875 L 0.71875 -1.796875 L 0.71875 -1.4375 L 1.03125 -1.4375 L 1.03125 -1.109375 L 0.71875 -1.109375 L 0.71875 -0.515625 C 0.71875 -0.453125 0.726562 -0.410156 0.75 -0.390625 C 0.78125 -0.367188 0.832031 -0.359375 0.90625 -0.359375 L 1.03125 -0.359375 L 1.03125 0 Z M 0.75 0 "/></g></g></g><g fill="#e4094c" fill-opacity="1"><g transform="translate(48.442011, 20.364945)"><g><path d="M 0.140625 0 L 0.140625 -1.9375 L 0.59375 -1.9375 L 0.59375 -1.25 C 0.625 -1.300781 0.675781 -1.351562 0.75 -1.40625 C 0.820312 -1.457031 0.914062 -1.484375 1.03125 -1.484375 C 1.21875 -1.484375 1.34375 -1.429688 1.40625 -1.328125 C 1.476562 -1.222656 1.515625 -1.070312 1.515625 -0.875 L 1.515625 0 L 1.078125 0 L 1.078125 -0.765625 C 1.078125 -0.835938 1.070312 -0.898438 1.0625 -0.953125 C 1.050781 -1.003906 1.03125 -1.046875 1 -1.078125 C 0.976562 -1.117188 0.929688 -1.140625 0.859375 -1.140625 C 0.765625 -1.140625 0.695312 -1.101562 0.65625 -1.03125 C 0.613281 -0.96875 0.59375 -0.867188 0.59375 -0.734375 L 0.59375 0 Z M 0.140625 0 "/></g></g></g><g fill="#e4094c" fill-opacity="1"><g transform="translate(50.784925, 20.364945)"><g><path d="M 0.8125 0.03125 C 0.644531 0.03125 0.503906 0 0.390625 -0.0625 C 0.285156 -0.125 0.203125 -0.210938 0.140625 -0.328125 C 0.0859375 -0.441406 0.0625 -0.578125 0.0625 -0.734375 C 0.0625 -0.878906 0.09375 -1.007812 0.15625 -1.125 C 0.21875 -1.238281 0.304688 -1.328125 0.421875 -1.390625 C 0.535156 -1.453125 0.664062 -1.484375 0.8125 -1.484375 C 0.894531 -1.484375 0.976562 -1.46875 1.0625 -1.4375 C 1.144531 -1.414062 1.21875 -1.378906 1.28125 -1.328125 C 1.351562 -1.273438 1.410156 -1.203125 1.453125 -1.109375 L 1.09375 -0.96875 C 1.070312 -1.03125 1.035156 -1.070312 0.984375 -1.09375 C 0.941406 -1.125 0.890625 -1.140625 0.828125 -1.140625 C 0.773438 -1.140625 0.722656 -1.125 0.671875 -1.09375 C 0.628906 -1.070312 0.59375 -1.03125 0.5625 -0.96875 C 0.53125 -0.90625 0.515625 -0.828125 0.515625 -0.734375 C 0.515625 -0.617188 0.53125 -0.53125 0.5625 -0.46875 C 0.59375 -0.414062 0.628906 -0.375 0.671875 -0.34375 C 0.722656 -0.320312 0.773438 -0.3125 0.828125 -0.3125 C 0.890625 -0.3125 0.941406 -0.320312 0.984375 -0.34375 C 1.035156 -0.363281 1.070312 -0.394531 1.09375 -0.4375 L 1.453125 -0.3125 C 1.398438 -0.226562 1.335938 -0.160156 1.265625 -0.109375 C 1.203125 -0.0546875 1.128906 -0.0195312 1.046875 0 C 0.960938 0.0195312 0.882812 0.03125 0.8125 0.03125 Z M 0.8125 0.03125 "/></g></g></g><g fill="#e4094c" fill-opacity="1"><g transform="translate(52.976873, 20.364945)"><g><path d="M 0.5625 0.03125 C 0.476562 0.03125 0.394531 0.015625 0.3125 -0.015625 C 0.238281 -0.046875 0.175781 -0.09375 0.125 -0.15625 C 0.0820312 -0.226562 0.0625 -0.304688 0.0625 -0.390625 C 0.0625 -0.503906 0.101562 -0.597656 0.1875 -0.671875 C 0.269531 -0.742188 0.382812 -0.796875 0.53125 -0.828125 C 0.675781 -0.859375 0.84375 -0.882812 1.03125 -0.90625 C 1.03125 -1.007812 1.007812 -1.082031 0.96875 -1.125 C 0.9375 -1.164062 0.875 -1.1875 0.78125 -1.1875 C 0.71875 -1.1875 0.664062 -1.171875 0.625 -1.140625 C 0.582031 -1.109375 0.550781 -1.066406 0.53125 -1.015625 L 0.15625 -1.140625 C 0.207031 -1.242188 0.289062 -1.328125 0.40625 -1.390625 C 0.519531 -1.453125 0.660156 -1.484375 0.828125 -1.484375 C 1.023438 -1.484375 1.179688 -1.4375 1.296875 -1.34375 C 1.410156 -1.25 1.46875 -1.09375 1.46875 -0.875 L 1.46875 -0.5625 C 1.46875 -0.5 1.46875 -0.429688 1.46875 -0.359375 C 1.46875 -0.285156 1.472656 -0.21875 1.484375 -0.15625 C 1.492188 -0.09375 1.503906 -0.0390625 1.515625 0 L 1.09375 0 L 1.046875 -0.171875 C 0.992188 -0.0976562 0.925781 -0.046875 0.84375 -0.015625 C 0.757812 0.015625 0.664062 0.03125 0.5625 0.03125 Z M 0.734375 -0.265625 C 0.816406 -0.265625 0.882812 -0.285156 0.9375 -0.328125 C 1 -0.378906 1.03125 -0.472656 1.03125 -0.609375 L 1.03125 -0.640625 C 0.882812 -0.628906 0.765625 -0.609375 0.671875 -0.578125 C 0.578125 -0.546875 0.53125 -0.492188 0.53125 -0.421875 C 0.53125 -0.378906 0.546875 -0.34375 0.578125 -0.3125 C 0.617188 -0.28125 0.671875 -0.265625 0.734375 -0.265625 Z M 0.734375 -0.265625 "/></g></g></g><g fill="#e4094c" fill-opacity="1"><g transform="translate(55.264627, 20.364945)"><g><path d="M 0.140625 0 L 0.140625 -1.4375 L 0.5 -1.4375 L 0.578125 -1.171875 C 0.617188 -1.285156 0.675781 -1.363281 0.75 -1.40625 C 0.832031 -1.457031 0.925781 -1.484375 1.03125 -1.484375 L 1.03125 -1.046875 C 1.007812 -1.046875 0.988281 -1.046875 0.96875 -1.046875 C 0.957031 -1.046875 0.941406 -1.046875 0.921875 -1.046875 C 0.816406 -1.046875 0.734375 -1.019531 0.671875 -0.96875 C 0.617188 -0.914062 0.59375 -0.835938 0.59375 -0.734375 L 0.59375 0 Z M 0.140625 0 "/></g></g></g><g fill="#e4094c" fill-opacity="1"><g transform="translate(57.026894, 20.364945)"><g><path d="M 0.859375 0.03125 C 0.703125 0.03125 0.5625 0.00390625 0.4375 -0.046875 C 0.320312 -0.109375 0.226562 -0.195312 0.15625 -0.3125 C 0.09375 -0.425781 0.0625 -0.566406 0.0625 -0.734375 C 0.0625 -0.878906 0.0976562 -1.007812 0.171875 -1.125 C 0.242188 -1.238281 0.335938 -1.328125 0.453125 -1.390625 C 0.578125 -1.453125 0.707031 -1.484375 0.84375 -1.484375 C 1 -1.484375 1.132812 -1.445312 1.25 -1.375 C 1.363281 -1.300781 1.445312 -1.195312 1.5 -1.0625 C 1.5625 -0.925781 1.585938 -0.773438 1.578125 -0.609375 L 0.515625 -0.609375 C 0.523438 -0.503906 0.5625 -0.425781 0.625 -0.375 C 0.695312 -0.332031 0.769531 -0.3125 0.84375 -0.3125 C 0.914062 -0.3125 0.972656 -0.320312 1.015625 -0.34375 C 1.066406 -0.363281 1.109375 -0.390625 1.140625 -0.421875 L 1.484375 -0.28125 C 1.410156 -0.175781 1.316406 -0.0976562 1.203125 -0.046875 C 1.085938 0.00390625 0.972656 0.03125 0.859375 0.03125 Z M 0.515625 -0.875 L 1.171875 -0.875 C 1.171875 -0.96875 1.140625 -1.035156 1.078125 -1.078125 C 1.015625 -1.128906 0.941406 -1.15625 0.859375 -1.15625 C 0.773438 -1.15625 0.695312 -1.128906 0.625 -1.078125 C 0.5625 -1.035156 0.523438 -0.96875 0.515625 -0.875 Z M 0.515625 -0.875 "/></g></g></g><g fill="#ff66c4" fill-opacity="1"><g transform="translate(59.353676, 20.364945)"><g/></g></g><g fill="#ffffff" fill-opacity="1"><g transform="translate(60.967839, 20.364945)"><g><path d="M 0.671875 0 L 0.671875 -1.53125 L 0.046875 -1.53125 L 0.046875 -1.9375 L 1.75 -1.9375 L 1.75 -1.53125 L 1.125 -1.53125 L 1.125 0 Z M 0.671875 0 "/></g></g></g><g fill="#ffffff" fill-opacity="1"><g transform="translate(63.441401, 20.364945)"><g><path d="M 0.859375 0.03125 C 0.703125 0.03125 0.5625 0.00390625 0.4375 -0.046875 C 0.320312 -0.109375 0.226562 -0.195312 0.15625 -0.3125 C 0.09375 -0.425781 0.0625 -0.566406 0.0625 -0.734375 C 0.0625 -0.878906 0.0976562 -1.007812 0.171875 -1.125 C 0.242188 -1.238281 0.335938 -1.328125 0.453125 -1.390625 C 0.578125 -1.453125 0.707031 -1.484375 0.84375 -1.484375 C 1 -1.484375 1.132812 -1.445312 1.25 -1.375 C 1.363281 -1.300781 1.445312 -1.195312 1.5 -1.0625 C 1.5625 -0.925781 1.585938 -0.773438 1.578125 -0.609375 L 0.515625 -0.609375 C 0.523438 -0.503906 0.5625 -0.425781 0.625 -0.375 C 0.695312 -0.332031 0.769531 -0.3125 0.84375 -0.3125 C 0.914062 -0.3125 0.972656 -0.320312 1.015625 -0.34375 C 1.066406 -0.363281 1.109375 -0.390625 1.140625 -0.421875 L 1.484375 -0.28125 C 1.410156 -0.175781 1.316406 -0.0976562 1.203125 -0.046875 C 1.085938 0.00390625 0.972656 0.03125 0.859375 0.03125 Z M 0.515625 -0.875 L 1.171875 -0.875 C 1.171875 -0.96875 1.140625 -1.035156 1.078125 -1.078125 C 1.015625 -1.128906 0.941406 -1.15625 0.859375 -1.15625 C 0.773438 -1.15625 0.695312 -1.128906 0.625 -1.078125 C 0.5625 -1.035156 0.523438 -0.96875 0.515625 -0.875 Z M 0.515625 -0.875 "/></g></g></g><g fill="#ffffff" fill-opacity="1"><g transform="translate(65.766898, 20.364945)"><g><path d="M 0.8125 0.03125 C 0.644531 0.03125 0.503906 0 0.390625 -0.0625 C 0.285156 -0.125 0.203125 -0.210938 0.140625 -0.328125 C 0.0859375 -0.441406 0.0625 -0.578125 0.0625 -0.734375 C 0.0625 -0.878906 0.09375 -1.007812 0.15625 -1.125 C 0.21875 -1.238281 0.304688 -1.328125 0.421875 -1.390625 C 0.535156 -1.453125 0.664062 -1.484375 0.8125 -1.484375 C 0.894531 -1.484375 0.976562 -1.46875 1.0625 -1.4375 C 1.144531 -1.414062 1.21875 -1.378906 1.28125 -1.328125 C 1.351562 -1.273438 1.410156 -1.203125 1.453125 -1.109375 L 1.09375 -0.96875 C 1.070312 -1.03125 1.035156 -1.070312 0.984375 -1.09375 C 0.941406 -1.125 0.890625 -1.140625 0.828125 -1.140625 C 0.773438 -1.140625 0.722656 -1.125 0.671875 -1.09375 C 0.628906 -1.070312 0.59375 -1.03125 0.5625 -0.96875 C 0.53125 -0.90625 0.515625 -0.828125 0.515625 -0.734375 C 0.515625 -0.617188 0.53125 -0.53125 0.5625 -0.46875 C 0.59375 -0.414062 0.628906 -0.375 0.671875 -0.34375 C 0.722656 -0.320312 0.773438 -0.3125 0.828125 -0.3125 C 0.890625 -0.3125 0.941406 -0.320312 0.984375 -0.34375 C 1.035156 -0.363281 1.070312 -0.394531 1.09375 -0.4375 L 1.453125 -0.3125 C 1.398438 -0.226562 1.335938 -0.160156 1.265625 -0.109375 C 1.203125 -0.0546875 1.128906 -0.0195312 1.046875 0 C 0.960938 0.0195312 0.882812 0.03125 0.8125 0.03125 Z M 0.8125 0.03125 "/></g></g></g><g fill="#ffffff" fill-opacity="1"><g transform="translate(67.958846, 20.364945)"><g><path d="M 0.140625 0 L 0.140625 -1.9375 L 0.59375 -1.9375 L 0.59375 -1.25 C 0.625 -1.300781 0.675781 -1.351562 0.75 -1.40625 C 0.820312 -1.457031 0.914062 -1.484375 1.03125 -1.484375 C 1.21875 -1.484375 1.34375 -1.429688 1.40625 -1.328125 C 1.476562 -1.222656 1.515625 -1.070312 1.515625 -0.875 L 1.515625 0 L 1.078125 0 L 1.078125 -0.765625 C 1.078125 -0.835938 1.070312 -0.898438 1.0625 -0.953125 C 1.050781 -1.003906 1.03125 -1.046875 1 -1.078125 C 0.976562 -1.117188 0.929688 -1.140625 0.859375 -1.140625 C 0.765625 -1.140625 0.695312 -1.101562 0.65625 -1.03125 C 0.613281 -0.96875 0.59375 -0.867188 0.59375 -0.734375 L 0.59375 0 Z M 0.140625 0 "/></g></g></g><g fill="#ffffff" fill-opacity="1"><g transform="translate(70.30176, 20.364945)"><g><path d="M 0.828125 0.03125 C 0.703125 0.03125 0.578125 0.00390625 0.453125 -0.046875 C 0.335938 -0.0976562 0.242188 -0.179688 0.171875 -0.296875 C 0.0976562 -0.410156 0.0625 -0.554688 0.0625 -0.734375 C 0.0625 -0.898438 0.0976562 -1.039062 0.171875 -1.15625 C 0.242188 -1.269531 0.335938 -1.351562 0.453125 -1.40625 C 0.578125 -1.457031 0.703125 -1.484375 0.828125 -1.484375 C 0.960938 -1.484375 1.085938 -1.457031 1.203125 -1.40625 C 1.316406 -1.351562 1.410156 -1.269531 1.484375 -1.15625 C 1.554688 -1.039062 1.59375 -0.898438 1.59375 -0.734375 C 1.59375 -0.554688 1.554688 -0.410156 1.484375 -0.296875 C 1.410156 -0.179688 1.316406 -0.0976562 1.203125 -0.046875 C 1.085938 0.00390625 0.960938 0.03125 0.828125 0.03125 Z M 0.828125 -0.3125 C 0.921875 -0.3125 0.992188 -0.34375 1.046875 -0.40625 C 1.109375 -0.46875 1.140625 -0.578125 1.140625 -0.734375 C 1.140625 -0.878906 1.109375 -0.984375 1.046875 -1.046875 C 0.992188 -1.109375 0.921875 -1.140625 0.828125 -1.140625 C 0.742188 -1.140625 0.671875 -1.109375 0.609375 -1.046875 C 0.546875 -0.984375 0.515625 -0.878906 0.515625 -0.734375 C 0.515625 -0.578125 0.546875 -0.46875 0.609375 -0.40625 C 0.671875 -0.34375 0.742188 -0.3125 0.828125 -0.3125 Z M 0.828125 -0.3125 "/></g></g></g><g fill="#ffffff" fill-opacity="1"><g transform="translate(72.64758, 20.364945)"><g><path d="M 0.625 0 C 0.5 0 0.398438 -0.0078125 0.328125 -0.03125 C 0.265625 -0.0507812 0.21875 -0.0859375 0.1875 -0.140625 C 0.15625 -0.203125 0.140625 -0.289062 0.140625 -0.40625 L 0.140625 -1.9375 L 0.59375 -1.9375 L 0.59375 -0.515625 C 0.59375 -0.453125 0.601562 -0.410156 0.625 -0.390625 C 0.65625 -0.367188 0.707031 -0.359375 0.78125 -0.359375 L 0.90625 -0.359375 L 0.90625 0 Z M 0.625 0 "/></g></g></g><g fill="#ffffff" fill-opacity="1"><g transform="translate(74.241456, 20.364945)"><g><path d="M 0.828125 0.03125 C 0.703125 0.03125 0.578125 0.00390625 0.453125 -0.046875 C 0.335938 -0.0976562 0.242188 -0.179688 0.171875 -0.296875 C 0.0976562 -0.410156 0.0625 -0.554688 0.0625 -0.734375 C 0.0625 -0.898438 0.0976562 -1.039062 0.171875 -1.15625 C 0.242188 -1.269531 0.335938 -1.351562 0.453125 -1.40625 C 0.578125 -1.457031 0.703125 -1.484375 0.828125 -1.484375 C 0.960938 -1.484375 1.085938 -1.457031 1.203125 -1.40625 C 1.316406 -1.351562 1.410156 -1.269531 1.484375 -1.15625 C 1.554688 -1.039062 1.59375 -0.898438 1.59375 -0.734375 C 1.59375 -0.554688 1.554688 -0.410156 1.484375 -0.296875 C 1.410156 -0.179688 1.316406 -0.0976562 1.203125 -0.046875 C 1.085938 0.00390625 0.960938 0.03125 0.828125 0.03125 Z M 0.828125 -0.3125 C 0.921875 -0.3125 0.992188 -0.34375 1.046875 -0.40625 C 1.109375 -0.46875 1.140625 -0.578125 1.140625 -0.734375 C 1.140625 -0.878906 1.109375 -0.984375 1.046875 -1.046875 C 0.992188 -1.109375 0.921875 -1.140625 0.828125 -1.140625 C 0.742188 -1.140625 0.671875 -1.109375 0.609375 -1.046875 C 0.546875 -0.984375 0.515625 -0.878906 0.515625 -0.734375 C 0.515625 -0.578125 0.546875 -0.46875 0.609375 -0.40625 C 0.671875 -0.34375 0.742188 -0.3125 0.828125 -0.3125 Z M 0.828125 -0.3125 "/></g></g></g><g fill="#ffffff" fill-opacity="1"><g transform="translate(76.587276, 20.364945)"><g><path d="M 0.140625 0 L 0.140625 -1.4375 L 0.53125 -1.4375 L 0.59375 -1.25 C 0.625 -1.300781 0.675781 -1.351562 0.75 -1.40625 C 0.820312 -1.457031 0.914062 -1.484375 1.03125 -1.484375 C 1.21875 -1.484375 1.34375 -1.429688 1.40625 -1.328125 C 1.476562 -1.222656 1.515625 -1.070312 1.515625 -0.875 L 1.515625 0 L 1.078125 0 L 1.078125 -0.765625 C 1.078125 -0.835938 1.070312 -0.898438 1.0625 -0.953125 C 1.050781 -1.003906 1.03125 -1.046875 1 -1.078125 C 0.976562 -1.117188 0.929688 -1.140625 0.859375 -1.140625 C 0.765625 -1.140625 0.695312 -1.101562 0.65625 -1.03125 C 0.613281 -0.96875 0.59375 -0.867188 0.59375 -0.734375 L 0.59375 0 Z M 0.140625 0 "/></g></g></g><g fill="#ffffff" fill-opacity="1"><g transform="translate(78.93019, 20.364945)"><g><path d="M 0.828125 0.03125 C 0.703125 0.03125 0.578125 0.00390625 0.453125 -0.046875 C 0.335938 -0.0976562 0.242188 -0.179688 0.171875 -0.296875 C 0.0976562 -0.410156 0.0625 -0.554688 0.0625 -0.734375 C 0.0625 -0.898438 0.0976562 -1.039062 0.171875 -1.15625 C 0.242188 -1.269531 0.335938 -1.351562 0.453125 -1.40625 C 0.578125 -1.457031 0.703125 -1.484375 0.828125 -1.484375 C 0.960938 -1.484375 1.085938 -1.457031 1.203125 -1.40625 C 1.316406 -1.351562 1.410156 -1.269531 1.484375 -1.15625 C 1.554688 -1.039062 1.59375 -0.898438 1.59375 -0.734375 C 1.59375 -0.554688 1.554688 -0.410156 1.484375 -0.296875 C 1.410156 -0.179688 1.316406 -0.0976562 1.203125 -0.046875 C 1.085938 0.00390625 0.960938 0.03125 0.828125 0.03125 Z M 0.828125 -0.3125 C 0.921875 -0.3125 0.992188 -0.34375 1.046875 -0.40625 C 1.109375 -0.46875 1.140625 -0.578125 1.140625 -0.734375 C 1.140625 -0.878906 1.109375 -0.984375 1.046875 -1.046875 C 0.992188 -1.109375 0.921875 -1.140625 0.828125 -1.140625 C 0.742188 -1.140625 0.671875 -1.109375 0.609375 -1.046875 C 0.546875 -0.984375 0.515625 -0.878906 0.515625 -0.734375 C 0.515625 -0.578125 0.546875 -0.46875 0.609375 -0.40625 C 0.671875 -0.34375 0.742188 -0.3125 0.828125 -0.3125 Z M 0.828125 -0.3125 "/></g></g></g><g fill="#ffffff" fill-opacity="1"><g transform="translate(81.27601, 20.364945)"><g><path d="M 0.84375 0.59375 C 0.769531 0.59375 0.691406 0.582031 0.609375 0.5625 C 0.523438 0.539062 0.445312 0.503906 0.375 0.453125 C 0.3125 0.398438 0.257812 0.332031 0.21875 0.25 L 0.578125 0.109375 C 0.597656 0.160156 0.632812 0.195312 0.6875 0.21875 C 0.738281 0.238281 0.789062 0.25 0.84375 0.25 C 0.9375 0.25 1.007812 0.226562 1.0625 0.1875 C 1.113281 0.144531 1.140625 0.078125 1.140625 -0.015625 L 1.140625 -0.28125 C 1.085938 -0.195312 1.019531 -0.132812 0.9375 -0.09375 C 0.851562 -0.0625 0.769531 -0.046875 0.6875 -0.046875 C 0.582031 -0.046875 0.484375 -0.0703125 0.390625 -0.125 C 0.296875 -0.1875 0.21875 -0.269531 0.15625 -0.375 C 0.09375 -0.476562 0.0625 -0.601562 0.0625 -0.75 C 0.0625 -0.914062 0.09375 -1.050781 0.15625 -1.15625 C 0.21875 -1.269531 0.296875 -1.351562 0.390625 -1.40625 C 0.484375 -1.457031 0.578125 -1.484375 0.671875 -1.484375 C 0.765625 -1.484375 0.851562 -1.460938 0.9375 -1.421875 C 1.019531 -1.378906 1.085938 -1.320312 1.140625 -1.25 L 1.203125 -1.4375 L 1.59375 -1.4375 L 1.59375 -0.109375 C 1.59375 0.128906 1.523438 0.304688 1.390625 0.421875 C 1.265625 0.535156 1.082031 0.59375 0.84375 0.59375 Z M 0.84375 -0.390625 C 0.90625 -0.390625 0.957031 -0.398438 1 -0.421875 C 1.050781 -0.453125 1.09375 -0.492188 1.125 -0.546875 C 1.15625 -0.597656 1.171875 -0.671875 1.171875 -0.765625 C 1.171875 -0.898438 1.132812 -0.992188 1.0625 -1.046875 C 1 -1.109375 0.925781 -1.140625 0.84375 -1.140625 C 0.757812 -1.140625 0.6875 -1.109375 0.625 -1.046875 C 0.5625 -0.992188 0.53125 -0.90625 0.53125 -0.78125 C 0.53125 -0.644531 0.5625 -0.546875 0.625 -0.484375 C 0.6875 -0.421875 0.757812 -0.390625 0.84375 -0.390625 Z M 0.84375 -0.390625 "/></g></g></g><g fill="#ffffff" fill-opacity="1"><g transform="translate(83.691505, 20.364945)"><g><path d="M 0.1875 0.46875 L 0.1875 0.140625 L 0.28125 0.140625 C 0.34375 0.140625 0.390625 0.132812 0.421875 0.125 C 0.453125 0.125 0.476562 0.113281 0.5 0.09375 C 0.519531 0.0703125 0.535156 0.0351562 0.546875 -0.015625 L 0 -1.4375 L 0.46875 -1.4375 L 0.75 -0.546875 L 1.03125 -1.4375 L 1.5 -1.4375 L 0.953125 0 C 0.910156 0.125 0.863281 0.21875 0.8125 0.28125 C 0.757812 0.351562 0.695312 0.398438 0.625 0.421875 C 0.550781 0.453125 0.453125 0.46875 0.328125 0.46875 Z M 0.1875 0.46875 "/></g></g></g><g fill="#ff66c4" fill-opacity="1"><g transform="translate(85.879639, 20.364945)"><g/></g></g><g fill="#e4094c" fill-opacity="1"><g transform="translate(87.493802, 20.364945)"><g><path d="M 0.125 0 L 0.125 -1.9375 L 0.875 -1.9375 C 1.039062 -1.9375 1.191406 -1.921875 1.328125 -1.890625 C 1.460938 -1.859375 1.566406 -1.796875 1.640625 -1.703125 C 1.710938 -1.609375 1.75 -1.476562 1.75 -1.3125 C 1.75 -1.144531 1.710938 -1.015625 1.640625 -0.921875 C 1.566406 -0.828125 1.460938 -0.757812 1.328125 -0.71875 C 1.191406 -0.6875 1.039062 -0.671875 0.875 -0.671875 L 0.59375 -0.671875 L 0.59375 0 Z M 0.59375 -1.0625 L 0.890625 -1.0625 C 0.960938 -1.0625 1.023438 -1.066406 1.078125 -1.078125 C 1.140625 -1.085938 1.1875 -1.109375 1.21875 -1.140625 C 1.25 -1.179688 1.265625 -1.238281 1.265625 -1.3125 C 1.265625 -1.375 1.25 -1.421875 1.21875 -1.453125 C 1.1875 -1.492188 1.140625 -1.519531 1.078125 -1.53125 C 1.023438 -1.550781 0.960938 -1.5625 0.890625 -1.5625 L 0.59375 -1.5625 Z M 0.59375 -1.0625 "/></g></g></g><g fill="#e4094c" fill-opacity="1"><g transform="translate(89.993493, 20.364945)"><g><path d="M 0.515625 0 L 0 -1.4375 L 0.453125 -1.4375 L 0.765625 -0.453125 L 1.078125 -1.4375 L 1.53125 -1.4375 L 1.015625 0 Z M 0.515625 0 "/></g></g></g><g fill="#e4094c" fill-opacity="1"><g transform="translate(92.202858, 20.364945)"><g><path d="M 0.75 0 C 0.632812 0 0.539062 -0.0078125 0.46875 -0.03125 C 0.394531 -0.0507812 0.34375 -0.0859375 0.3125 -0.140625 C 0.289062 -0.203125 0.28125 -0.289062 0.28125 -0.40625 L 0.28125 -1.109375 L 0.03125 -1.109375 L 0.03125 -1.4375 L 0.28125 -1.4375 L 0.28125 -1.796875 L 0.71875 -1.796875 L 0.71875 -1.4375 L 1.03125 -1.4375 L 1.03125 -1.109375 L 0.71875 -1.109375 L 0.71875 -0.515625 C 0.71875 -0.453125 0.726562 -0.410156 0.75 -0.390625 C 0.78125 -0.367188 0.832031 -0.359375 0.90625 -0.359375 L 1.03125 -0.359375 L 1.03125 0 Z M 0.75 0 "/></g></g></g><g fill="#ff66c4" fill-opacity="1"><g transform="translate(93.988259, 20.364945)"><g/></g></g><g fill="#ffffff" fill-opacity="1"><g transform="translate(95.602423, 20.364945)"><g><path d="M 0.125 0 L 0.125 -1.9375 L 0.59375 -1.9375 L 0.59375 -0.40625 L 1.515625 -0.40625 L 1.515625 0 Z M 0.125 0 "/></g></g></g><g fill="#ffffff" fill-opacity="1"><g transform="translate(97.843725, 20.364945)"><g><path d="M 0.75 0 C 0.632812 0 0.539062 -0.0078125 0.46875 -0.03125 C 0.394531 -0.0507812 0.34375 -0.0859375 0.3125 -0.140625 C 0.289062 -0.203125 0.28125 -0.289062 0.28125 -0.40625 L 0.28125 -1.109375 L 0.03125 -1.109375 L 0.03125 -1.4375 L 0.28125 -1.4375 L 0.28125 -1.796875 L 0.71875 -1.796875 L 0.71875 -1.4375 L 1.03125 -1.4375 L 1.03125 -1.109375 L 0.71875 -1.109375 L 0.71875 -0.515625 C 0.71875 -0.453125 0.726562 -0.410156 0.75 -0.390625 C 0.78125 -0.367188 0.832031 -0.359375 0.90625 -0.359375 L 1.03125 -0.359375 L 1.03125 0 Z M 0.75 0 "/></g></g></g><g fill="#ffffff" fill-opacity="1"><g transform="translate(99.626315, 20.364945)"><g><path d="M 0.703125 0.03125 C 0.578125 0.03125 0.46875 0 0.375 -0.0625 C 0.28125 -0.125 0.203125 -0.210938 0.140625 -0.328125 C 0.0859375 -0.441406 0.0625 -0.578125 0.0625 -0.734375 C 0.0625 -0.890625 0.0859375 -1.019531 0.140625 -1.125 C 0.203125 -1.238281 0.28125 -1.328125 0.375 -1.390625 C 0.46875 -1.453125 0.578125 -1.484375 0.703125 -1.484375 C 0.785156 -1.484375 0.867188 -1.460938 0.953125 -1.421875 C 1.035156 -1.378906 1.097656 -1.320312 1.140625 -1.25 L 1.140625 -1.9375 L 1.59375 -1.9375 L 1.59375 -0.5625 C 1.59375 -0.488281 1.59375 -0.398438 1.59375 -0.296875 C 1.601562 -0.203125 1.617188 -0.101562 1.640625 0 L 1.21875 0 L 1.15625 -0.1875 C 1.09375 -0.101562 1.019531 -0.046875 0.9375 -0.015625 C 0.863281 0.015625 0.785156 0.03125 0.703125 0.03125 Z M 0.84375 -0.3125 C 0.925781 -0.3125 1 -0.34375 1.0625 -0.40625 C 1.132812 -0.46875 1.171875 -0.570312 1.171875 -0.71875 C 1.171875 -0.863281 1.132812 -0.96875 1.0625 -1.03125 C 1 -1.101562 0.925781 -1.140625 0.84375 -1.140625 C 0.757812 -1.140625 0.6875 -1.101562 0.625 -1.03125 C 0.5625 -0.96875 0.53125 -0.867188 0.53125 -0.734375 C 0.53125 -0.597656 0.5625 -0.492188 0.625 -0.421875 C 0.6875 -0.347656 0.757812 -0.3125 0.84375 -0.3125 Z M 0.84375 -0.3125 "/></g></g></g><g clip-path="url(#8699af2883)"><path fill="#ffffff" d="M 101.824219 28.921875 C 100.664062 28.40625 99.613281 27.640625 98.777344 26.675781 C 98.730469 26.617188 98.679688 26.558594 98.632812 26.5 C 98.839844 26.382812 99.039062 26.25 99.230469 26.113281 C 100.042969 25.523438 100.71875 24.738281 101.070312 23.792969 C 101.140625 23.609375 101.175781 23.394531 100.996094 23.261719 C 100.847656 23.152344 100.636719 23.167969 100.464844 23.210938 C 100.238281 23.273438 100.042969 23.421875 99.859375 23.566406 C 99.628906 23.738281 99.414062 23.9375 99.21875 24.152344 C 99.082031 24.304688 98.960938 24.46875 98.84375 24.636719 C 98.734375 24.039062 98.339844 23.496094 97.769531 23.246094 C 97.5 23.121094 97.140625 23.121094 97.023438 23.449219 C 96.921875 23.738281 97.050781 24.066406 97.15625 24.335938 C 97.441406 25.082031 97.824219 25.78125 98.300781 26.414062 C 96.414062 27.390625 94.207031 27.386719 92.136719 27.074219 C 90.847656 26.878906 89.578125 26.589844 88.300781 26.339844 C 87.070312 26.101562 85.839844 25.882812 84.597656 25.703125 C 82.140625 25.355469 79.640625 25.183594 77.164062 25.429688 C 74.789062 25.667969 72.339844 26.289062 70.308594 27.585938 C 70.066406 27.738281 69.832031 27.90625 69.609375 28.082031 C 69.578125 28.105469 69.617188 28.15625 69.644531 28.132812 C 70.671875 27.375 71.824219 26.859375 73.039062 26.476562 C 74.273438 26.085938 75.554688 25.835938 76.847656 25.699219 C 79.441406 25.425781 82.066406 25.617188 84.644531 25.992188 C 85.941406 26.179688 87.230469 26.417969 88.519531 26.671875 C 89.84375 26.9375 91.164062 27.230469 92.503906 27.402344 C 93.792969 27.5625 95.117188 27.605469 96.398438 27.339844 C 97.109375 27.191406 97.804688 26.945312 98.449219 26.597656 C 98.808594 27.050781 99.214844 27.464844 99.664062 27.839844 C 100.296875 28.363281 100.992188 28.785156 101.753906 29.089844 C 101.851562 29.132812 101.921875 28.96875 101.824219 28.921875 Z M 97.699219 25.105469 C 97.546875 24.820312 97.417969 24.527344 97.300781 24.222656 C 97.21875 24.003906 97.03125 23.558594 97.285156 23.378906 C 97.464844 23.253906 97.734375 23.40625 97.890625 23.503906 C 98.035156 23.59375 98.167969 23.707031 98.28125 23.832031 C 98.53125 24.109375 98.6875 24.464844 98.726562 24.839844 C 98.730469 24.910156 98.820312 24.941406 98.863281 24.875 C 99.171875 24.386719 99.605469 23.957031 100.082031 23.628906 C 100.265625 23.5 100.460938 23.371094 100.695312 23.375 C 100.773438 23.375 100.882812 23.386719 100.917969 23.464844 C 100.976562 23.582031 100.847656 23.792969 100.800781 23.902344 C 100.382812 24.8125 99.6875 25.554688 98.851562 26.097656 C 98.734375 26.171875 98.613281 26.246094 98.492188 26.3125 C 98.191406 25.9375 97.925781 25.53125 97.699219 25.105469 Z M 97.699219 25.105469 " fill-opacity="1" fill-rule="nonzero"/></g></svg>