<svg xmlns="http://www.w3.org/2000/svg" xmlns:xlink="http://www.w3.org/1999/xlink" width="500" zoomAndPan="magnify" viewBox="0 0 375 374.999991" height="500" preserveAspectRatio="xMidYMid meet" version="1.0"><defs><g/><clipPath id="f3f4e70f67"><path d="M 146 93 L 264 93 L 264 249 L 146 249 Z M 146 93 " clip-rule="nonzero"/></clipPath><clipPath id="41cb7f8897"><path d="M 235 6 L 273.574219 6 L 273.574219 44 L 235 44 Z M 235 6 " clip-rule="nonzero"/></clipPath><clipPath id="37d15fef05"><path d="M 240 53 L 281 53 L 281 75 L 240 75 Z M 240 53 " clip-rule="nonzero"/></clipPath><clipPath id="c7098f87f5"><path d="M 248.097656 42.148438 L 283.273438 52.789062 L 271.761719 90.835938 L 236.585938 80.191406 Z M 248.097656 42.148438 " clip-rule="nonzero"/></clipPath><clipPath id="064ecf4ee7"><path d="M 248.097656 42.148438 L 283.273438 52.789062 L 271.761719 90.835938 L 236.585938 80.191406 Z M 248.097656 42.148438 " clip-rule="nonzero"/></clipPath><clipPath id="52ce59e49f"><path d="M 256 21 L 290 21 L 290 43 L 256 43 Z M 256 21 " clip-rule="nonzero"/></clipPath><clipPath id="e9f5cd8887"><path d="M 256.464844 16.089844 L 289.457031 15.457031 L 290.164062 52.199219 L 257.171875 52.832031 Z M 256.464844 16.089844 " clip-rule="nonzero"/></clipPath><clipPath id="5470b0e376"><path d="M 256.464844 16.089844 L 289.457031 15.457031 L 290.164062 52.199219 L 257.171875 52.832031 Z M 256.464844 16.089844 " clip-rule="nonzero"/></clipPath><clipPath id="19160ef647"><path d="M 222 11 L 245 11 L 245 47 L 222 47 Z M 222 11 " clip-rule="nonzero"/></clipPath><clipPath id="9d3b34dcf1"><path d="M 230.261719 6.003906 L 256.277344 28.664062 L 231.152344 57.503906 L 205.140625 34.84375 Z M 230.261719 6.003906 " clip-rule="nonzero"/></clipPath><clipPath id="e8afcfbf75"><path d="M 256.453125 28.816406 L 230.4375 6.15625 L 205.316406 35 L 231.328125 57.660156 Z M 256.453125 28.816406 " clip-rule="nonzero"/></clipPath><clipPath id="3a100e2f65"><path d="M 322.644531 299 L 370 299 L 370 305.574219 L 322.644531 305.574219 Z M 322.644531 299 " clip-rule="nonzero"/></clipPath><clipPath id="156d4273cf"><path d="M 367 300 L 372 300 L 372 305.574219 L 367 305.574219 Z M 367 300 " clip-rule="nonzero"/></clipPath><clipPath id="8d45882f6c"><path d="M 12 299 L 59.855469 299 L 59.855469 305.574219 L 12 305.574219 Z M 12 299 " clip-rule="nonzero"/></clipPath><clipPath id="0162f1a3e9"><path d="M 11 300 L 16 300 L 16 305.574219 L 11 305.574219 Z M 11 300 " clip-rule="nonzero"/></clipPath><clipPath id="829ed02e49"><path d="M 42 323 L 192 323 L 192 350.621094 L 42 350.621094 Z M 42 323 " clip-rule="nonzero"/></clipPath><clipPath id="ab0dead68c"><path d="M 192 323 L 342 323 L 342 350.621094 L 192 350.621094 Z M 192 323 " clip-rule="nonzero"/></clipPath></defs><g clip-path="url(#f3f4e70f67)"><path fill="#e4094c" d="M 233.296875 93.734375 C 232.164062 98.644531 231.175781 103.363281 230.324219 107.703125 C 243.175781 121.445312 251.058594 139.898438 251.058594 160.199219 C 251.058594 202.671875 216.632812 237.101562 174.160156 237.101562 C 171.730469 237.101562 169.328125 236.972656 166.953125 236.75 C 159.050781 241.363281 151.980469 243.699219 146.808594 244.878906 C 155.429688 247.664062 164.617188 249.183594 174.160156 249.183594 C 223.304688 249.183594 263.140625 209.34375 263.140625 160.199219 C 263.140625 133.765625 251.601562 110.035156 233.296875 93.734375 " fill-opacity="1" fill-rule="nonzero"/></g><path fill="#104069" d="M 229.804688 65.171875 C 226.398438 72.582031 213.535156 108.683594 205.847656 116.242188 C 199.242188 122.734375 194.695312 123.71875 184.917969 124.433594 C 160.757812 126.195312 128.75 139.914062 112.800781 186.785156 C 112.800781 186.785156 138.65625 138.445312 174.628906 140.695312 C 185.800781 141.390625 190.335938 150.597656 190.152344 163.234375 C 189.28125 222.9375 100.074219 223.417969 97.347656 163.773438 C 97.292969 162.566406 97.261719 161.351562 97.265625 160.132812 C 97.300781 118.910156 130.429688 84.671875 171.628906 83.34375 C 187.3125 82.84375 201.976562 87.042969 214.339844 94.632812 C 215.980469 90.902344 217.59375 87.042969 219.082031 83.402344 C 205.222656 75.277344 188.980469 70.777344 171.644531 71.257812 C 124.03125 72.578125 86.488281 111.847656 85.160156 159.457031 C 83.980469 201.886719 112.308594 221.570312 131.015625 226.8125 C 172.746094 238.503906 220.242188 212.195312 223.253906 129.878906 C 223.488281 123.492188 227.886719 99.652344 234.699219 75.78125 C 237.605469 65.609375 240.757812 49.179688 254.523438 43.609375 C 254.523438 43.609375 239.183594 44.789062 229.804688 65.171875 " fill-opacity="1" fill-rule="nonzero"/><path fill="#104069" d="M 203.421875 104.414062 C 203.421875 112.453125 196.902344 118.972656 188.863281 118.972656 C 180.820312 118.972656 174.304688 112.453125 174.304688 104.414062 C 174.304688 96.371094 180.820312 89.855469 188.863281 89.855469 C 196.902344 89.855469 203.421875 96.371094 203.421875 104.414062 " fill-opacity="1" fill-rule="nonzero"/><g clip-path="url(#41cb7f8897)"><path fill="#ffde59" d="M 273.320312 6.015625 C 256.386719 24.277344 256.386719 25.351562 273.320312 43.609375 C 255.058594 26.675781 253.984375 26.675781 235.726562 43.609375 C 252.660156 25.351562 252.660156 24.277344 235.726562 6.015625 C 253.984375 22.949219 255.058594 22.949219 273.320312 6.015625 " fill-opacity="1" fill-rule="nonzero"/></g><path fill="#ffde59" d="M 232.949219 28.835938 C 223.160156 39.394531 223.160156 40.015625 232.949219 50.570312 C 222.394531 40.78125 221.773438 40.78125 211.21875 50.570312 C 221.007812 40.015625 221.007812 39.394531 211.21875 28.835938 C 221.773438 38.628906 222.394531 38.628906 232.949219 28.835938 " fill-opacity="1" fill-rule="nonzero"/><g clip-path="url(#37d15fef05)"><g clip-path="url(#c7098f87f5)"><g clip-path="url(#064ecf4ee7)"><path fill="#e4094c" d="M 240.855469 66.179688 C 240.855469 66.179688 250.222656 56.90625 266.136719 61.808594 C 266.148438 61.8125 266.15625 61.816406 266.15625 61.816406 C 266.148438 61.8125 266.144531 61.8125 266.136719 61.808594 C 265.605469 61.652344 254.933594 58.703125 242.152344 67.796875 C 258.839844 87.210938 280.75 60.597656 280.75 60.597656 C 248.121094 42.152344 240.855469 66.179688 240.855469 66.179688 " fill-opacity="1" fill-rule="nonzero"/></g></g></g><g clip-path="url(#52ce59e49f)"><g clip-path="url(#e9f5cd8887)"><g clip-path="url(#5470b0e376)"><path fill="#e4094c" d="M 256.929688 38.945312 C 256.929688 38.945312 262.445312 28.28125 277.609375 28.066406 C 277.621094 28.066406 277.628906 28.066406 277.628906 28.066406 C 277.621094 28.066406 277.613281 28.066406 277.609375 28.066406 C 277.105469 28.082031 267.03125 28.515625 258.507812 39.980469 C 278.410156 52.121094 289.929688 22.917969 289.929688 22.917969 C 256.488281 16.089844 256.929688 38.945312 256.929688 38.945312 " fill-opacity="1" fill-rule="nonzero"/></g></g></g><g clip-path="url(#19160ef647)"><g clip-path="url(#9d3b34dcf1)"><g clip-path="url(#e8afcfbf75)"><path fill="#e4094c" d="M 240.796875 46.761719 C 240.796875 46.761719 243.523438 34.554688 231.558594 24.238281 C 231.550781 24.230469 231.542969 24.226562 231.542969 24.226562 C 231.550781 24.230469 231.554688 24.234375 231.558594 24.238281 C 231.953125 24.585938 239.707031 31.675781 238.839844 46.53125 C 214.824219 42.910156 225.164062 11.882812 225.164062 11.882812 C 256.441406 28.804688 240.796875 46.761719 240.796875 46.761719 " fill-opacity="1" fill-rule="nonzero"/></g></g></g><g clip-path="url(#3a100e2f65)"><path fill="#e4094c" d="M 323.199219 305.757812 C 326.105469 304.257812 329.492188 303.910156 332.714844 303.832031 C 336.183594 303.742188 339.640625 303.972656 343.089844 304.289062 C 346.578125 304.613281 350.054688 305.019531 353.550781 305.265625 C 355.292969 305.382812 357.039062 305.453125 358.789062 305.464844 C 360.429688 305.472656 362.089844 305.484375 363.730469 305.285156 C 365.378906 305.085938 367.03125 304.625 368.292969 303.488281 C 369.402344 302.488281 370.203125 300.96875 369.894531 299.457031 C 369.765625 298.824219 368.777344 298.972656 368.777344 299.605469 C 368.789062 300.949219 368.265625 302.082031 367.226562 302.933594 C 366.0625 303.890625 364.5 304.226562 363.046875 304.40625 C 359.746094 304.792969 356.386719 304.664062 353.078125 304.433594 C 346.359375 303.960938 339.660156 302.863281 332.914062 303.101562 C 329.472656 303.210938 325.996094 303.605469 323.003906 305.421875 C 322.785156 305.550781 322.972656 305.878906 323.199219 305.757812 Z M 323.199219 305.757812 " fill-opacity="1" fill-rule="nonzero"/></g><path fill="#e4094c" d="M 324.503906 303.566406 C 327.449219 302.488281 330.492188 302.230469 333.605469 302.210938 C 333.773438 302.210938 333.832031 301.925781 333.644531 301.90625 C 330.53125 301.441406 327.289062 302.183594 324.433594 303.4375 C 324.375 303.46875 324.425781 303.59375 324.503906 303.566406 Z M 324.503906 303.566406 " fill-opacity="1" fill-rule="nonzero"/><g clip-path="url(#156d4273cf)"><path fill="#e4094c" d="M 367.136719 305.296875 C 368.273438 305.136719 369.320312 304.59375 370.113281 303.773438 C 370.515625 303.359375 370.863281 302.882812 371.101562 302.359375 C 371.296875 301.945312 371.664062 301.203125 371.367188 300.78125 C 371.230469 300.582031 370.992188 300.550781 370.8125 300.710938 C 370.476562 300.996094 370.527344 301.648438 370.390625 302.0625 C 370.230469 302.539062 370.003906 302.984375 369.71875 303.386719 C 369.074219 304.265625 368.15625 304.910156 367.109375 305.195312 C 367.039062 305.207031 367.070312 305.304688 367.136719 305.296875 Z M 367.136719 305.296875 " fill-opacity="1" fill-rule="nonzero"/></g><g fill="#e4094c" fill-opacity="1"><g transform="translate(61.176585, 309.634403)"><g><path d="M 0.515625 0 L 0.515625 -7.9375 L 2.40625 -7.9375 L 2.40625 -4.90625 L 5.671875 -4.90625 L 5.671875 -7.9375 L 7.546875 -7.9375 L 7.546875 0 L 5.671875 0 L 5.671875 -3.265625 L 2.40625 -3.265625 L 2.40625 0 Z M 0.515625 0 "/></g></g></g><g fill="#e4094c" fill-opacity="1"><g transform="translate(72.038755, 309.634403)"><g><path d="M 3.515625 0.140625 C 2.878906 0.140625 2.316406 0.015625 1.828125 -0.234375 C 1.347656 -0.484375 0.96875 -0.84375 0.6875 -1.3125 C 0.414062 -1.78125 0.28125 -2.335938 0.28125 -2.984375 C 0.28125 -3.609375 0.425781 -4.148438 0.71875 -4.609375 C 1.007812 -5.066406 1.394531 -5.421875 1.875 -5.671875 C 2.351562 -5.929688 2.878906 -6.0625 3.453125 -6.0625 C 4.097656 -6.0625 4.648438 -5.910156 5.109375 -5.609375 C 5.578125 -5.304688 5.929688 -4.882812 6.171875 -4.34375 C 6.410156 -3.8125 6.507812 -3.195312 6.46875 -2.5 L 2.109375 -2.5 C 2.140625 -2.082031 2.289062 -1.769531 2.5625 -1.5625 C 2.832031 -1.363281 3.132812 -1.265625 3.46875 -1.265625 C 3.75 -1.265625 3.988281 -1.304688 4.1875 -1.390625 C 4.394531 -1.472656 4.550781 -1.578125 4.65625 -1.703125 L 6.09375 -1.171875 C 5.789062 -0.722656 5.40625 -0.390625 4.9375 -0.171875 C 4.476562 0.0351562 4.003906 0.140625 3.515625 0.140625 Z M 2.109375 -3.5625 L 4.796875 -3.5625 C 4.785156 -3.945312 4.648438 -4.234375 4.390625 -4.421875 C 4.140625 -4.617188 3.84375 -4.71875 3.5 -4.71875 C 3.15625 -4.71875 2.847656 -4.625 2.578125 -4.4375 C 2.316406 -4.257812 2.160156 -3.96875 2.109375 -3.5625 Z M 2.109375 -3.5625 "/></g></g></g><g fill="#e4094c" fill-opacity="1"><g transform="translate(81.558168, 309.634403)"><g><path d="M 2.3125 0.140625 C 1.945312 0.140625 1.609375 0.0703125 1.296875 -0.0625 C 0.984375 -0.207031 0.734375 -0.410156 0.546875 -0.671875 C 0.367188 -0.929688 0.28125 -1.238281 0.28125 -1.59375 C 0.28125 -2.070312 0.445312 -2.453125 0.78125 -2.734375 C 1.125 -3.023438 1.585938 -3.242188 2.171875 -3.390625 C 2.765625 -3.535156 3.441406 -3.632812 4.203125 -3.6875 C 4.203125 -4.101562 4.132812 -4.398438 4 -4.578125 C 3.863281 -4.753906 3.597656 -4.84375 3.203125 -4.84375 C 2.960938 -4.84375 2.75 -4.785156 2.5625 -4.671875 C 2.375 -4.554688 2.25 -4.378906 2.1875 -4.140625 L 0.671875 -4.6875 C 0.867188 -5.082031 1.195312 -5.410156 1.65625 -5.671875 C 2.125 -5.929688 2.691406 -6.0625 3.359375 -6.0625 C 4.203125 -6.0625 4.847656 -5.875 5.296875 -5.5 C 5.753906 -5.132812 5.984375 -4.503906 5.984375 -3.609375 L 5.984375 -2.3125 C 5.984375 -2.050781 5.988281 -1.773438 6 -1.484375 C 6.019531 -1.191406 6.046875 -0.914062 6.078125 -0.65625 C 6.109375 -0.394531 6.144531 -0.175781 6.1875 0 L 4.5 0 L 4.296875 -0.71875 C 4.066406 -0.40625 3.785156 -0.179688 3.453125 -0.046875 C 3.117188 0.078125 2.738281 0.140625 2.3125 0.140625 Z M 2.984375 -1.09375 C 3.335938 -1.09375 3.632812 -1.1875 3.875 -1.375 C 4.113281 -1.570312 4.234375 -1.9375 4.234375 -2.46875 L 4.234375 -2.609375 C 3.609375 -2.554688 3.101562 -2.472656 2.71875 -2.359375 C 2.34375 -2.242188 2.15625 -2.03125 2.15625 -1.71875 C 2.15625 -1.53125 2.234375 -1.378906 2.390625 -1.265625 C 2.546875 -1.148438 2.742188 -1.09375 2.984375 -1.09375 Z M 2.984375 -1.09375 "/></g></g></g><g fill="#e4094c" fill-opacity="1"><g transform="translate(90.923096, 309.634403)"><g><path d="M 2.546875 0 C 2.054688 0 1.671875 -0.0390625 1.390625 -0.125 C 1.109375 -0.207031 0.90625 -0.367188 0.78125 -0.609375 C 0.65625 -0.847656 0.59375 -1.203125 0.59375 -1.671875 L 0.59375 -7.9375 L 2.40625 -7.9375 L 2.40625 -2.140625 C 2.40625 -1.859375 2.457031 -1.675781 2.5625 -1.59375 C 2.675781 -1.507812 2.882812 -1.46875 3.1875 -1.46875 L 3.703125 -1.46875 L 3.703125 0 Z M 2.546875 0 "/></g></g></g><g fill="#e4094c" fill-opacity="1"><g transform="translate(97.448014, 309.634403)"><g><path d="M 3.078125 0 C 2.597656 0 2.210938 -0.0390625 1.921875 -0.125 C 1.640625 -0.207031 1.4375 -0.367188 1.3125 -0.609375 C 1.1875 -0.847656 1.125 -1.203125 1.125 -1.671875 L 1.125 -4.515625 L 0.15625 -4.515625 L 0.15625 -5.890625 L 1.125 -5.890625 L 1.125 -7.375 L 2.9375 -7.375 L 2.9375 -5.890625 L 4.21875 -5.890625 L 4.21875 -4.515625 L 2.9375 -4.515625 L 2.9375 -2.140625 C 2.9375 -1.859375 2.988281 -1.675781 3.09375 -1.59375 C 3.207031 -1.507812 3.410156 -1.46875 3.703125 -1.46875 L 4.21875 -1.46875 L 4.21875 0 Z M 3.078125 0 "/></g></g></g><g fill="#e4094c" fill-opacity="1"><g transform="translate(104.745315, 309.634403)"><g><path d="M 0.59375 0 L 0.59375 -7.9375 L 2.40625 -7.9375 L 2.40625 -5.109375 C 2.539062 -5.335938 2.765625 -5.550781 3.078125 -5.75 C 3.390625 -5.957031 3.769531 -6.0625 4.21875 -6.0625 C 4.976562 -6.0625 5.5 -5.847656 5.78125 -5.421875 C 6.0625 -5.003906 6.203125 -4.394531 6.203125 -3.59375 L 6.203125 0 L 4.40625 0 L 4.40625 -3.140625 C 4.40625 -3.421875 4.382812 -3.675781 4.34375 -3.90625 C 4.3125 -4.132812 4.234375 -4.316406 4.109375 -4.453125 C 3.992188 -4.585938 3.789062 -4.65625 3.5 -4.65625 C 3.113281 -4.65625 2.832031 -4.519531 2.65625 -4.25 C 2.488281 -3.976562 2.40625 -3.570312 2.40625 -3.03125 L 2.40625 0 Z M 0.59375 0 "/></g></g></g><g fill="#e4094c" fill-opacity="1"><g transform="translate(114.336024, 309.634403)"><g><path d="M 3.3125 0.140625 C 2.65625 0.140625 2.101562 0.0078125 1.65625 -0.25 C 1.207031 -0.507812 0.863281 -0.875 0.625 -1.34375 C 0.394531 -1.820312 0.28125 -2.367188 0.28125 -2.984375 C 0.28125 -3.597656 0.40625 -4.132812 0.65625 -4.59375 C 0.914062 -5.0625 1.269531 -5.421875 1.71875 -5.671875 C 2.175781 -5.929688 2.707031 -6.0625 3.3125 -6.0625 C 3.644531 -6.0625 3.976562 -6.015625 4.3125 -5.921875 C 4.65625 -5.828125 4.972656 -5.664062 5.265625 -5.4375 C 5.554688 -5.207031 5.789062 -4.898438 5.96875 -4.515625 L 4.453125 -3.96875 C 4.359375 -4.226562 4.21875 -4.40625 4.03125 -4.5 C 3.84375 -4.601562 3.632812 -4.65625 3.40625 -4.65625 C 3.195312 -4.65625 2.992188 -4.601562 2.796875 -4.5 C 2.597656 -4.394531 2.4375 -4.21875 2.3125 -3.96875 C 2.1875 -3.726562 2.125 -3.394531 2.125 -2.96875 C 2.125 -2.539062 2.1875 -2.203125 2.3125 -1.953125 C 2.445312 -1.703125 2.609375 -1.523438 2.796875 -1.421875 C 2.992188 -1.316406 3.195312 -1.265625 3.40625 -1.265625 C 3.664062 -1.265625 3.878906 -1.3125 4.046875 -1.40625 C 4.222656 -1.507812 4.363281 -1.644531 4.46875 -1.8125 L 5.953125 -1.28125 C 5.742188 -0.925781 5.492188 -0.644531 5.203125 -0.4375 C 4.910156 -0.226562 4.597656 -0.0820312 4.265625 0 C 3.941406 0.09375 3.625 0.140625 3.3125 0.140625 Z M 3.3125 0.140625 "/></g></g></g><g fill="#e4094c" fill-opacity="1"><g transform="translate(123.308821, 309.634403)"><g><path d="M 2.3125 0.140625 C 1.945312 0.140625 1.609375 0.0703125 1.296875 -0.0625 C 0.984375 -0.207031 0.734375 -0.410156 0.546875 -0.671875 C 0.367188 -0.929688 0.28125 -1.238281 0.28125 -1.59375 C 0.28125 -2.070312 0.445312 -2.453125 0.78125 -2.734375 C 1.125 -3.023438 1.585938 -3.242188 2.171875 -3.390625 C 2.765625 -3.535156 3.441406 -3.632812 4.203125 -3.6875 C 4.203125 -4.101562 4.132812 -4.398438 4 -4.578125 C 3.863281 -4.753906 3.597656 -4.84375 3.203125 -4.84375 C 2.960938 -4.84375 2.75 -4.785156 2.5625 -4.671875 C 2.375 -4.554688 2.25 -4.378906 2.1875 -4.140625 L 0.671875 -4.6875 C 0.867188 -5.082031 1.195312 -5.410156 1.65625 -5.671875 C 2.125 -5.929688 2.691406 -6.0625 3.359375 -6.0625 C 4.203125 -6.0625 4.847656 -5.875 5.296875 -5.5 C 5.753906 -5.132812 5.984375 -4.503906 5.984375 -3.609375 L 5.984375 -2.3125 C 5.984375 -2.050781 5.988281 -1.773438 6 -1.484375 C 6.019531 -1.191406 6.046875 -0.914062 6.078125 -0.65625 C 6.109375 -0.394531 6.144531 -0.175781 6.1875 0 L 4.5 0 L 4.296875 -0.71875 C 4.066406 -0.40625 3.785156 -0.179688 3.453125 -0.046875 C 3.117188 0.078125 2.738281 0.140625 2.3125 0.140625 Z M 2.984375 -1.09375 C 3.335938 -1.09375 3.632812 -1.1875 3.875 -1.375 C 4.113281 -1.570312 4.234375 -1.9375 4.234375 -2.46875 L 4.234375 -2.609375 C 3.609375 -2.554688 3.101562 -2.472656 2.71875 -2.359375 C 2.34375 -2.242188 2.15625 -2.03125 2.15625 -1.71875 C 2.15625 -1.53125 2.234375 -1.378906 2.390625 -1.265625 C 2.546875 -1.148438 2.742188 -1.09375 2.984375 -1.09375 Z M 2.984375 -1.09375 "/></g></g></g><g fill="#e4094c" fill-opacity="1"><g transform="translate(132.67375, 309.634403)"><g><path d="M 0.59375 0 L 0.59375 -5.890625 L 2.015625 -5.890625 L 2.34375 -4.8125 C 2.519531 -5.289062 2.765625 -5.625 3.078125 -5.8125 C 3.398438 -6 3.789062 -6.082031 4.25 -6.0625 L 4.25 -4.25 C 4.15625 -4.269531 4.070312 -4.28125 4 -4.28125 C 3.925781 -4.289062 3.84375 -4.296875 3.75 -4.296875 C 3.320312 -4.296875 2.988281 -4.191406 2.75 -3.984375 C 2.519531 -3.773438 2.40625 -3.4375 2.40625 -2.96875 L 2.40625 0 Z M 0.59375 0 "/></g></g></g><g fill="#e4094c" fill-opacity="1"><g transform="translate(139.887876, 309.634403)"><g><path d="M 3.515625 0.140625 C 2.878906 0.140625 2.316406 0.015625 1.828125 -0.234375 C 1.347656 -0.484375 0.96875 -0.84375 0.6875 -1.3125 C 0.414062 -1.78125 0.28125 -2.335938 0.28125 -2.984375 C 0.28125 -3.609375 0.425781 -4.148438 0.71875 -4.609375 C 1.007812 -5.066406 1.394531 -5.421875 1.875 -5.671875 C 2.351562 -5.929688 2.878906 -6.0625 3.453125 -6.0625 C 4.097656 -6.0625 4.648438 -5.910156 5.109375 -5.609375 C 5.578125 -5.304688 5.929688 -4.882812 6.171875 -4.34375 C 6.410156 -3.8125 6.507812 -3.195312 6.46875 -2.5 L 2.109375 -2.5 C 2.140625 -2.082031 2.289062 -1.769531 2.5625 -1.5625 C 2.832031 -1.363281 3.132812 -1.265625 3.46875 -1.265625 C 3.75 -1.265625 3.988281 -1.304688 4.1875 -1.390625 C 4.394531 -1.472656 4.550781 -1.578125 4.65625 -1.703125 L 6.09375 -1.171875 C 5.789062 -0.722656 5.40625 -0.390625 4.9375 -0.171875 C 4.476562 0.0351562 4.003906 0.140625 3.515625 0.140625 Z M 2.109375 -3.5625 L 4.796875 -3.5625 C 4.785156 -3.945312 4.648438 -4.234375 4.390625 -4.421875 C 4.140625 -4.617188 3.84375 -4.71875 3.5 -4.71875 C 3.15625 -4.71875 2.847656 -4.625 2.578125 -4.4375 C 2.316406 -4.257812 2.160156 -3.96875 2.109375 -3.5625 Z M 2.109375 -3.5625 "/></g></g></g><g fill="#e4094c" fill-opacity="1"><g transform="translate(149.407288, 309.634403)"><g/></g></g><g fill="#104069" fill-opacity="1"><g transform="translate(156.004704, 309.634403)"><g><path d="M 2.734375 0 L 2.734375 -6.296875 L 0.171875 -6.296875 L 0.171875 -7.9375 L 7.15625 -7.9375 L 7.15625 -6.296875 L 4.609375 -6.296875 L 4.609375 0 Z M 2.734375 0 "/></g></g></g><g fill="#104069" fill-opacity="1"><g transform="translate(166.130138, 309.634403)"><g><path d="M 3.515625 0.140625 C 2.878906 0.140625 2.316406 0.015625 1.828125 -0.234375 C 1.347656 -0.484375 0.96875 -0.84375 0.6875 -1.3125 C 0.414062 -1.78125 0.28125 -2.335938 0.28125 -2.984375 C 0.28125 -3.609375 0.425781 -4.148438 0.71875 -4.609375 C 1.007812 -5.066406 1.394531 -5.421875 1.875 -5.671875 C 2.351562 -5.929688 2.878906 -6.0625 3.453125 -6.0625 C 4.097656 -6.0625 4.648438 -5.910156 5.109375 -5.609375 C 5.578125 -5.304688 5.929688 -4.882812 6.171875 -4.34375 C 6.410156 -3.8125 6.507812 -3.195312 6.46875 -2.5 L 2.109375 -2.5 C 2.140625 -2.082031 2.289062 -1.769531 2.5625 -1.5625 C 2.832031 -1.363281 3.132812 -1.265625 3.46875 -1.265625 C 3.75 -1.265625 3.988281 -1.304688 4.1875 -1.390625 C 4.394531 -1.472656 4.550781 -1.578125 4.65625 -1.703125 L 6.09375 -1.171875 C 5.789062 -0.722656 5.40625 -0.390625 4.9375 -0.171875 C 4.476562 0.0351562 4.003906 0.140625 3.515625 0.140625 Z M 2.109375 -3.5625 L 4.796875 -3.5625 C 4.785156 -3.945312 4.648438 -4.234375 4.390625 -4.421875 C 4.140625 -4.617188 3.84375 -4.71875 3.5 -4.71875 C 3.15625 -4.71875 2.847656 -4.625 2.578125 -4.4375 C 2.316406 -4.257812 2.160156 -3.96875 2.109375 -3.5625 Z M 2.109375 -3.5625 "/></g></g></g><g fill="#104069" fill-opacity="1"><g transform="translate(175.64955, 309.634403)"><g><path d="M 3.3125 0.140625 C 2.65625 0.140625 2.101562 0.0078125 1.65625 -0.25 C 1.207031 -0.507812 0.863281 -0.875 0.625 -1.34375 C 0.394531 -1.820312 0.28125 -2.367188 0.28125 -2.984375 C 0.28125 -3.597656 0.40625 -4.132812 0.65625 -4.59375 C 0.914062 -5.0625 1.269531 -5.421875 1.71875 -5.671875 C 2.175781 -5.929688 2.707031 -6.0625 3.3125 -6.0625 C 3.644531 -6.0625 3.976562 -6.015625 4.3125 -5.921875 C 4.65625 -5.828125 4.972656 -5.664062 5.265625 -5.4375 C 5.554688 -5.207031 5.789062 -4.898438 5.96875 -4.515625 L 4.453125 -3.96875 C 4.359375 -4.226562 4.21875 -4.40625 4.03125 -4.5 C 3.84375 -4.601562 3.632812 -4.65625 3.40625 -4.65625 C 3.195312 -4.65625 2.992188 -4.601562 2.796875 -4.5 C 2.597656 -4.394531 2.4375 -4.21875 2.3125 -3.96875 C 2.1875 -3.726562 2.125 -3.394531 2.125 -2.96875 C 2.125 -2.539062 2.1875 -2.203125 2.3125 -1.953125 C 2.445312 -1.703125 2.609375 -1.523438 2.796875 -1.421875 C 2.992188 -1.316406 3.195312 -1.265625 3.40625 -1.265625 C 3.664062 -1.265625 3.878906 -1.3125 4.046875 -1.40625 C 4.222656 -1.507812 4.363281 -1.644531 4.46875 -1.8125 L 5.953125 -1.28125 C 5.742188 -0.925781 5.492188 -0.644531 5.203125 -0.4375 C 4.910156 -0.226562 4.597656 -0.0820312 4.265625 0 C 3.941406 0.09375 3.625 0.140625 3.3125 0.140625 Z M 3.3125 0.140625 "/></g></g></g><g fill="#104069" fill-opacity="1"><g transform="translate(184.622347, 309.634403)"><g><path d="M 0.59375 0 L 0.59375 -7.9375 L 2.40625 -7.9375 L 2.40625 -5.109375 C 2.539062 -5.335938 2.765625 -5.550781 3.078125 -5.75 C 3.390625 -5.957031 3.769531 -6.0625 4.21875 -6.0625 C 4.976562 -6.0625 5.5 -5.847656 5.78125 -5.421875 C 6.0625 -5.003906 6.203125 -4.394531 6.203125 -3.59375 L 6.203125 0 L 4.40625 0 L 4.40625 -3.140625 C 4.40625 -3.421875 4.382812 -3.675781 4.34375 -3.90625 C 4.3125 -4.132812 4.234375 -4.316406 4.109375 -4.453125 C 3.992188 -4.585938 3.789062 -4.65625 3.5 -4.65625 C 3.113281 -4.65625 2.832031 -4.519531 2.65625 -4.25 C 2.488281 -3.976562 2.40625 -3.570312 2.40625 -3.03125 L 2.40625 0 Z M 0.59375 0 "/></g></g></g><g fill="#104069" fill-opacity="1"><g transform="translate(194.213056, 309.634403)"><g><path d="M 3.40625 0.140625 C 2.863281 0.140625 2.351562 0.03125 1.875 -0.1875 C 1.40625 -0.40625 1.019531 -0.75 0.71875 -1.21875 C 0.425781 -1.6875 0.28125 -2.269531 0.28125 -2.96875 C 0.28125 -3.6875 0.425781 -4.269531 0.71875 -4.71875 C 1.019531 -5.175781 1.40625 -5.515625 1.875 -5.734375 C 2.351562 -5.953125 2.863281 -6.0625 3.40625 -6.0625 C 3.945312 -6.0625 4.453125 -5.953125 4.921875 -5.734375 C 5.398438 -5.515625 5.785156 -5.175781 6.078125 -4.71875 C 6.378906 -4.269531 6.53125 -3.6875 6.53125 -2.96875 C 6.53125 -2.269531 6.378906 -1.6875 6.078125 -1.21875 C 5.785156 -0.75 5.398438 -0.40625 4.921875 -0.1875 C 4.453125 0.03125 3.945312 0.140625 3.40625 0.140625 Z M 3.40625 -1.265625 C 3.769531 -1.265625 4.070312 -1.394531 4.3125 -1.65625 C 4.5625 -1.914062 4.6875 -2.351562 4.6875 -2.96875 C 4.6875 -3.59375 4.5625 -4.03125 4.3125 -4.28125 C 4.0625 -4.53125 3.757812 -4.65625 3.40625 -4.65625 C 3.050781 -4.65625 2.75 -4.53125 2.5 -4.28125 C 2.25 -4.03125 2.125 -3.59375 2.125 -2.96875 C 2.125 -2.351562 2.242188 -1.914062 2.484375 -1.65625 C 2.734375 -1.394531 3.039062 -1.265625 3.40625 -1.265625 Z M 3.40625 -1.265625 "/></g></g></g><g fill="#104069" fill-opacity="1"><g transform="translate(203.815644, 309.634403)"><g><path d="M 0.59375 0 L 0.59375 -5.890625 L 2.171875 -5.890625 L 2.40625 -5.109375 C 2.539062 -5.335938 2.765625 -5.550781 3.078125 -5.75 C 3.390625 -5.957031 3.769531 -6.0625 4.21875 -6.0625 C 4.976562 -6.0625 5.5 -5.847656 5.78125 -5.421875 C 6.0625 -5.003906 6.203125 -4.394531 6.203125 -3.59375 L 6.203125 0 L 4.40625 0 L 4.40625 -3.140625 C 4.40625 -3.421875 4.382812 -3.675781 4.34375 -3.90625 C 4.3125 -4.132812 4.234375 -4.316406 4.109375 -4.453125 C 3.992188 -4.585938 3.789062 -4.65625 3.5 -4.65625 C 3.113281 -4.65625 2.832031 -4.519531 2.65625 -4.25 C 2.488281 -3.976562 2.40625 -3.570312 2.40625 -3.03125 L 2.40625 0 Z M 0.59375 0 "/></g></g></g><g fill="#104069" fill-opacity="1"><g transform="translate(213.406353, 309.634403)"><g><path d="M 3.40625 0.140625 C 2.863281 0.140625 2.351562 0.03125 1.875 -0.1875 C 1.40625 -0.40625 1.019531 -0.75 0.71875 -1.21875 C 0.425781 -1.6875 0.28125 -2.269531 0.28125 -2.96875 C 0.28125 -3.6875 0.425781 -4.269531 0.71875 -4.71875 C 1.019531 -5.175781 1.40625 -5.515625 1.875 -5.734375 C 2.351562 -5.953125 2.863281 -6.0625 3.40625 -6.0625 C 3.945312 -6.0625 4.453125 -5.953125 4.921875 -5.734375 C 5.398438 -5.515625 5.785156 -5.175781 6.078125 -4.71875 C 6.378906 -4.269531 6.53125 -3.6875 6.53125 -2.96875 C 6.53125 -2.269531 6.378906 -1.6875 6.078125 -1.21875 C 5.785156 -0.75 5.398438 -0.40625 4.921875 -0.1875 C 4.453125 0.03125 3.945312 0.140625 3.40625 0.140625 Z M 3.40625 -1.265625 C 3.769531 -1.265625 4.070312 -1.394531 4.3125 -1.65625 C 4.5625 -1.914062 4.6875 -2.351562 4.6875 -2.96875 C 4.6875 -3.59375 4.5625 -4.03125 4.3125 -4.28125 C 4.0625 -4.53125 3.757812 -4.65625 3.40625 -4.65625 C 3.050781 -4.65625 2.75 -4.53125 2.5 -4.28125 C 2.25 -4.03125 2.125 -3.59375 2.125 -2.96875 C 2.125 -2.351562 2.242188 -1.914062 2.484375 -1.65625 C 2.734375 -1.394531 3.039062 -1.265625 3.40625 -1.265625 Z M 3.40625 -1.265625 "/></g></g></g><g fill="#104069" fill-opacity="1"><g transform="translate(223.008941, 309.634403)"><g><path d="M 2.546875 0 C 2.054688 0 1.671875 -0.0390625 1.390625 -0.125 C 1.109375 -0.207031 0.90625 -0.367188 0.78125 -0.609375 C 0.65625 -0.847656 0.59375 -1.203125 0.59375 -1.671875 L 0.59375 -7.9375 L 2.40625 -7.9375 L 2.40625 -2.140625 C 2.40625 -1.859375 2.457031 -1.675781 2.5625 -1.59375 C 2.675781 -1.507812 2.882812 -1.46875 3.1875 -1.46875 L 3.703125 -1.46875 L 3.703125 0 Z M 2.546875 0 "/></g></g></g><g fill="#104069" fill-opacity="1"><g transform="translate(229.533858, 309.634403)"><g><path d="M 3.40625 0.140625 C 2.863281 0.140625 2.351562 0.03125 1.875 -0.1875 C 1.40625 -0.40625 1.019531 -0.75 0.71875 -1.21875 C 0.425781 -1.6875 0.28125 -2.269531 0.28125 -2.96875 C 0.28125 -3.6875 0.425781 -4.269531 0.71875 -4.71875 C 1.019531 -5.175781 1.40625 -5.515625 1.875 -5.734375 C 2.351562 -5.953125 2.863281 -6.0625 3.40625 -6.0625 C 3.945312 -6.0625 4.453125 -5.953125 4.921875 -5.734375 C 5.398438 -5.515625 5.785156 -5.175781 6.078125 -4.71875 C 6.378906 -4.269531 6.53125 -3.6875 6.53125 -2.96875 C 6.53125 -2.269531 6.378906 -1.6875 6.078125 -1.21875 C 5.785156 -0.75 5.398438 -0.40625 4.921875 -0.1875 C 4.453125 0.03125 3.945312 0.140625 3.40625 0.140625 Z M 3.40625 -1.265625 C 3.769531 -1.265625 4.070312 -1.394531 4.3125 -1.65625 C 4.5625 -1.914062 4.6875 -2.351562 4.6875 -2.96875 C 4.6875 -3.59375 4.5625 -4.03125 4.3125 -4.28125 C 4.0625 -4.53125 3.757812 -4.65625 3.40625 -4.65625 C 3.050781 -4.65625 2.75 -4.53125 2.5 -4.28125 C 2.25 -4.03125 2.125 -3.59375 2.125 -2.96875 C 2.125 -2.351562 2.242188 -1.914062 2.484375 -1.65625 C 2.734375 -1.394531 3.039062 -1.265625 3.40625 -1.265625 Z M 3.40625 -1.265625 "/></g></g></g><g fill="#104069" fill-opacity="1"><g transform="translate(239.136446, 309.634403)"><g><path d="M 3.484375 2.40625 C 3.160156 2.40625 2.832031 2.363281 2.5 2.28125 C 2.164062 2.207031 1.851562 2.066406 1.5625 1.859375 C 1.28125 1.648438 1.050781 1.367188 0.875 1.015625 L 2.34375 0.46875 C 2.457031 0.6875 2.613281 0.832031 2.8125 0.90625 C 3.019531 0.988281 3.226562 1.03125 3.4375 1.03125 C 3.8125 1.03125 4.113281 0.941406 4.34375 0.765625 C 4.582031 0.585938 4.703125 0.304688 4.703125 -0.078125 L 4.703125 -1.140625 C 4.441406 -0.828125 4.144531 -0.59375 3.8125 -0.4375 C 3.488281 -0.289062 3.160156 -0.21875 2.828125 -0.21875 C 2.398438 -0.21875 1.988281 -0.332031 1.59375 -0.5625 C 1.207031 -0.789062 0.890625 -1.117188 0.640625 -1.546875 C 0.398438 -1.972656 0.28125 -2.484375 0.28125 -3.078125 C 0.28125 -3.765625 0.398438 -4.328125 0.640625 -4.765625 C 0.890625 -5.210938 1.207031 -5.539062 1.59375 -5.75 C 1.976562 -5.96875 2.367188 -6.078125 2.765625 -6.078125 C 3.140625 -6.078125 3.5 -5.992188 3.84375 -5.828125 C 4.1875 -5.660156 4.472656 -5.414062 4.703125 -5.09375 L 4.9375 -5.890625 L 6.5 -5.890625 L 6.5 -0.4375 C 6.5 0.539062 6.234375 1.257812 5.703125 1.71875 C 5.171875 2.175781 4.429688 2.40625 3.484375 2.40625 Z M 3.46875 -1.609375 C 3.707031 -1.609375 3.921875 -1.65625 4.109375 -1.75 C 4.304688 -1.84375 4.460938 -2 4.578125 -2.21875 C 4.703125 -2.445312 4.765625 -2.75 4.765625 -3.125 C 4.765625 -3.707031 4.632812 -4.109375 4.375 -4.328125 C 4.125 -4.546875 3.820312 -4.65625 3.46875 -4.65625 C 3.113281 -4.65625 2.804688 -4.535156 2.546875 -4.296875 C 2.296875 -4.066406 2.171875 -3.691406 2.171875 -3.171875 C 2.171875 -2.648438 2.296875 -2.257812 2.546875 -2 C 2.804688 -1.738281 3.113281 -1.609375 3.46875 -1.609375 Z M 3.46875 -1.609375 "/></g></g></g><g fill="#104069" fill-opacity="1"><g transform="translate(249.024221, 309.634403)"><g><path d="M 0.765625 1.921875 L 0.765625 0.609375 L 1.125 0.609375 C 1.394531 0.609375 1.597656 0.59375 1.734375 0.5625 C 1.867188 0.539062 1.972656 0.484375 2.046875 0.390625 C 2.128906 0.304688 2.203125 0.164062 2.265625 -0.03125 L 0 -5.890625 L 1.9375 -5.890625 L 3.09375 -2.21875 L 4.21875 -5.890625 L 6.15625 -5.890625 L 3.90625 0 C 3.707031 0.5 3.507812 0.882812 3.3125 1.15625 C 3.125 1.4375 2.878906 1.632812 2.578125 1.75 C 2.273438 1.863281 1.867188 1.921875 1.359375 1.921875 Z M 0.765625 1.921875 "/></g></g></g><g fill="#e4094c" fill-opacity="1"><g transform="translate(257.981263, 309.634403)"><g/></g></g><g fill="#e4094c" fill-opacity="1"><g transform="translate(264.577477, 309.634403)"><g><path d="M 0.515625 0 L 0.515625 -7.9375 L 3.578125 -7.9375 C 4.265625 -7.9375 4.878906 -7.863281 5.421875 -7.71875 C 5.972656 -7.582031 6.40625 -7.328125 6.71875 -6.953125 C 7.03125 -6.578125 7.1875 -6.039062 7.1875 -5.34375 C 7.1875 -4.65625 7.03125 -4.125 6.71875 -3.75 C 6.40625 -3.375 5.972656 -3.113281 5.421875 -2.96875 C 4.878906 -2.832031 4.265625 -2.765625 3.578125 -2.765625 L 2.40625 -2.765625 L 2.40625 0 Z M 2.40625 -4.3125 L 3.640625 -4.3125 C 3.929688 -4.3125 4.191406 -4.335938 4.421875 -4.390625 C 4.660156 -4.453125 4.847656 -4.554688 4.984375 -4.703125 C 5.128906 -4.859375 5.203125 -5.070312 5.203125 -5.34375 C 5.203125 -5.625 5.128906 -5.835938 4.984375 -5.984375 C 4.847656 -6.128906 4.660156 -6.226562 4.421875 -6.28125 C 4.191406 -6.332031 3.929688 -6.359375 3.640625 -6.359375 L 2.40625 -6.359375 Z M 2.40625 -4.3125 "/></g></g></g><g fill="#e4094c" fill-opacity="1"><g transform="translate(274.809856, 309.634403)"><g><path d="M 2.109375 0 L 0 -5.890625 L 1.859375 -5.890625 L 3.125 -1.875 L 4.390625 -5.890625 L 6.25 -5.890625 L 4.140625 0 Z M 2.109375 0 "/></g></g></g><g fill="#e4094c" fill-opacity="1"><g transform="translate(283.85395, 309.634403)"><g><path d="M 3.078125 0 C 2.597656 0 2.210938 -0.0390625 1.921875 -0.125 C 1.640625 -0.207031 1.4375 -0.367188 1.3125 -0.609375 C 1.1875 -0.847656 1.125 -1.203125 1.125 -1.671875 L 1.125 -4.515625 L 0.15625 -4.515625 L 0.15625 -5.890625 L 1.125 -5.890625 L 1.125 -7.375 L 2.9375 -7.375 L 2.9375 -5.890625 L 4.21875 -5.890625 L 4.21875 -4.515625 L 2.9375 -4.515625 L 2.9375 -2.140625 C 2.9375 -1.859375 2.988281 -1.675781 3.09375 -1.59375 C 3.207031 -1.507812 3.410156 -1.46875 3.703125 -1.46875 L 4.21875 -1.46875 L 4.21875 0 Z M 3.078125 0 "/></g></g></g><g fill="#e4094c" fill-opacity="1"><g transform="translate(291.151252, 309.634403)"><g/></g></g><g fill="#104069" fill-opacity="1"><g transform="translate(297.754698, 309.634403)"><g><path d="M 0.515625 0 L 0.515625 -7.9375 L 2.40625 -7.9375 L 2.40625 -1.65625 L 6.203125 -1.65625 L 6.203125 0 Z M 0.515625 0 "/></g></g></g><g fill="#104069" fill-opacity="1"><g transform="translate(306.929506, 309.634403)"><g><path d="M 3.078125 0 C 2.597656 0 2.210938 -0.0390625 1.921875 -0.125 C 1.640625 -0.207031 1.4375 -0.367188 1.3125 -0.609375 C 1.1875 -0.847656 1.125 -1.203125 1.125 -1.671875 L 1.125 -4.515625 L 0.15625 -4.515625 L 0.15625 -5.890625 L 1.125 -5.890625 L 1.125 -7.375 L 2.9375 -7.375 L 2.9375 -5.890625 L 4.21875 -5.890625 L 4.21875 -4.515625 L 2.9375 -4.515625 L 2.9375 -2.140625 C 2.9375 -1.859375 2.988281 -1.675781 3.09375 -1.59375 C 3.207031 -1.507812 3.410156 -1.46875 3.703125 -1.46875 L 4.21875 -1.46875 L 4.21875 0 Z M 3.078125 0 "/></g></g></g><g fill="#104069" fill-opacity="1"><g transform="translate(314.226808, 309.634403)"><g><path d="M 2.890625 0.140625 C 2.378906 0.140625 1.925781 0.015625 1.53125 -0.234375 C 1.144531 -0.492188 0.835938 -0.859375 0.609375 -1.328125 C 0.390625 -1.796875 0.28125 -2.351562 0.28125 -3 C 0.28125 -3.632812 0.390625 -4.179688 0.609375 -4.640625 C 0.835938 -5.097656 1.144531 -5.445312 1.53125 -5.6875 C 1.925781 -5.9375 2.378906 -6.0625 2.890625 -6.0625 C 3.210938 -6.0625 3.546875 -5.976562 3.890625 -5.8125 C 4.234375 -5.65625 4.5 -5.414062 4.6875 -5.09375 L 4.6875 -7.9375 L 6.5 -7.9375 L 6.5 -2.3125 C 6.5 -2.007812 6.507812 -1.65625 6.53125 -1.25 C 6.5625 -0.851562 6.613281 -0.4375 6.6875 0 L 4.96875 0 L 4.734375 -0.796875 C 4.484375 -0.453125 4.191406 -0.207031 3.859375 -0.0625 C 3.535156 0.0703125 3.210938 0.140625 2.890625 0.140625 Z M 3.46875 -1.265625 C 3.820312 -1.265625 4.125 -1.394531 4.375 -1.65625 C 4.632812 -1.914062 4.765625 -2.347656 4.765625 -2.953125 C 4.765625 -3.554688 4.632812 -3.988281 4.375 -4.25 C 4.125 -4.519531 3.820312 -4.65625 3.46875 -4.65625 C 3.113281 -4.65625 2.804688 -4.515625 2.546875 -4.234375 C 2.296875 -3.953125 2.171875 -3.539062 2.171875 -3 C 2.171875 -2.445312 2.296875 -2.019531 2.546875 -1.71875 C 2.804688 -1.414062 3.113281 -1.265625 3.46875 -1.265625 Z M 3.46875 -1.265625 "/></g></g></g><g clip-path="url(#8d45882f6c)"><path fill="#104069" d="M 59.300781 305.757812 C 56.394531 304.257812 53.007812 303.910156 49.785156 303.832031 C 46.316406 303.742188 42.859375 303.972656 39.410156 304.289062 C 35.921875 304.613281 32.445312 305.019531 28.949219 305.265625 C 27.207031 305.382812 25.460938 305.453125 23.710938 305.464844 C 22.070312 305.472656 20.410156 305.484375 18.769531 305.285156 C 17.121094 305.085938 15.46875 304.625 14.207031 303.488281 C 13.097656 302.488281 12.296875 300.96875 12.605469 299.457031 C 12.734375 298.824219 13.722656 298.972656 13.722656 299.605469 C 13.710938 300.949219 14.234375 302.082031 15.273438 302.933594 C 16.4375 303.890625 18 304.226562 19.453125 304.40625 C 22.753906 304.792969 26.113281 304.664062 29.421875 304.433594 C 36.140625 303.960938 42.839844 302.863281 49.585938 303.101562 C 53.027344 303.210938 56.503906 303.605469 59.496094 305.421875 C 59.714844 305.550781 59.527344 305.878906 59.300781 305.757812 Z M 59.300781 305.757812 " fill-opacity="1" fill-rule="nonzero"/></g><path fill="#104069" d="M 57.996094 303.566406 C 55.050781 302.488281 52.007812 302.230469 48.894531 302.210938 C 48.726562 302.210938 48.667969 301.925781 48.855469 301.90625 C 51.96875 301.441406 55.210938 302.183594 58.066406 303.4375 C 58.125 303.46875 58.074219 303.59375 57.996094 303.566406 Z M 57.996094 303.566406 " fill-opacity="1" fill-rule="nonzero"/><g clip-path="url(#0162f1a3e9)"><path fill="#104069" d="M 15.363281 305.296875 C 14.226562 305.136719 13.179688 304.59375 12.386719 303.773438 C 11.984375 303.359375 11.636719 302.882812 11.398438 302.359375 C 11.203125 301.945312 10.835938 301.203125 11.132812 300.78125 C 11.269531 300.582031 11.507812 300.550781 11.6875 300.710938 C 12.023438 300.996094 11.972656 301.648438 12.109375 302.0625 C 12.269531 302.539062 12.496094 302.984375 12.78125 303.386719 C 13.425781 304.265625 14.34375 304.910156 15.390625 305.195312 C 15.460938 305.207031 15.429688 305.304688 15.363281 305.296875 Z M 15.363281 305.296875 " fill-opacity="1" fill-rule="nonzero"/></g><g clip-path="url(#829ed02e49)"><path fill="#000000" d="M 42.515625 349.644531 C 47.90625 347.261719 52.773438 343.722656 56.636719 339.269531 C 56.867188 339.007812 57.09375 338.734375 57.316406 338.460938 C 56.351562 337.917969 55.425781 337.316406 54.53125 336.675781 C 50.777344 333.957031 47.648438 330.339844 46.007812 325.976562 C 45.6875 325.132812 45.519531 324.128906 46.351562 323.523438 C 47.039062 323.011719 48.03125 323.082031 48.816406 323.292969 C 49.867188 323.582031 50.769531 324.269531 51.625 324.921875 C 52.695312 325.730469 53.683594 326.636719 54.585938 327.628906 C 55.222656 328.335938 55.796875 329.089844 56.335938 329.875 C 56.839844 327.101562 58.667969 324.605469 61.300781 323.441406 C 62.566406 322.878906 64.226562 322.871094 64.765625 324.382812 C 65.242188 325.730469 64.632812 327.234375 64.15625 328.484375 C 62.839844 331.925781 61.054688 335.144531 58.855469 338.066406 C 67.582031 342.578125 77.816406 342.554688 87.417969 341.109375 C 93.375 340.210938 99.257812 338.875 105.179688 337.730469 C 110.878906 336.621094 116.59375 335.609375 122.34375 334.792969 C 133.734375 333.183594 145.308594 332.390625 156.785156 333.535156 C 167.796875 334.625 179.140625 337.492188 188.558594 343.46875 C 189.679688 344.179688 190.757812 344.945312 191.800781 345.765625 C 191.933594 345.871094 191.757812 346.097656 191.625 345.992188 C 186.871094 342.5 181.527344 340.125 175.90625 338.355469 C 170.171875 336.550781 164.242188 335.398438 158.261719 334.765625 C 146.238281 333.5 134.070312 334.398438 122.132812 336.121094 C 116.117188 336.992188 110.136719 338.082031 104.160156 339.261719 C 98.03125 340.476562 91.925781 341.839844 85.714844 342.625 C 79.742188 343.371094 73.589844 343.574219 67.664062 342.332031 C 64.375 341.648438 61.140625 340.511719 58.164062 338.917969 C 56.496094 341.003906 54.613281 342.921875 52.535156 344.636719 C 49.601562 347.058594 46.378906 349 42.851562 350.417969 C 42.402344 350.621094 42.066406 349.847656 42.515625 349.644531 Z M 61.628906 332.03125 C 62.335938 330.71875 62.945312 329.355469 63.472656 327.964844 C 63.855469 326.953125 64.730469 324.886719 63.554688 324.066406 C 62.722656 323.488281 61.476562 324.191406 60.746094 324.640625 C 60.074219 325.054688 59.472656 325.570312 58.941406 326.152344 C 57.777344 327.4375 57.050781 329.082031 56.882812 330.808594 C 56.855469 331.132812 56.441406 331.273438 56.246094 330.972656 C 54.816406 328.714844 52.808594 326.722656 50.59375 325.210938 C 49.734375 324.621094 48.835938 324.03125 47.746094 324.042969 C 47.394531 324.042969 46.890625 324.09375 46.722656 324.453125 C 46.457031 325.007812 47.039062 325.976562 47.269531 326.476562 C 49.207031 330.675781 52.429688 334.105469 56.300781 336.605469 C 56.847656 336.957031 57.40625 337.292969 57.96875 337.609375 C 59.355469 335.867188 60.585938 333.992188 61.628906 332.03125 Z M 61.628906 332.03125 " fill-opacity="1" fill-rule="nonzero"/></g><g fill="#104069" fill-opacity="1"><g transform="translate(27.878909, 286.538273)"><g><path d="M 14.03125 -24.265625 C 18.125 -24.265625 21.359375 -23.175781 23.734375 -21 C 26.117188 -18.832031 27.3125 -15.875 27.3125 -12.125 C 27.3125 -8.382812 26.117188 -5.425781 23.734375 -3.25 C 21.359375 -1.082031 18.125 0 14.03125 0 L 1.453125 0 L 1.453125 -0.34375 L 1.90625 -0.34375 C 2.507812 -0.34375 3.023438 -0.554688 3.453125 -0.984375 C 3.878906 -1.410156 4.101562 -1.925781 4.125 -2.53125 L 4.125 -21.9375 C 4.125 -22.488281 3.894531 -22.953125 3.4375 -23.328125 C 2.988281 -23.710938 2.476562 -23.90625 1.90625 -23.90625 L 1.453125 -23.90625 L 1.453125 -24.265625 Z M 13.578125 -1.484375 C 15.242188 -1.484375 16.679688 -1.910156 17.890625 -2.765625 C 19.109375 -3.628906 20.039062 -4.863281 20.6875 -6.46875 C 21.332031 -8.070312 21.65625 -9.820312 21.65625 -11.71875 C 21.65625 -13.613281 21.460938 -15.222656 21.078125 -16.546875 C 20.703125 -17.878906 20.171875 -19.003906 19.484375 -19.921875 C 18.046875 -21.835938 16.078125 -22.796875 13.578125 -22.796875 L 9.328125 -22.796875 L 9.328125 -1.484375 Z M 13.578125 -1.484375 "/></g></g></g><g fill="#104069" fill-opacity="1"><g transform="translate(56.56128, 286.538273)"><g><path d="M 5.390625 -21.34375 C 7.847656 -23.613281 11.160156 -24.75 15.328125 -24.75 C 19.503906 -24.75 22.820312 -23.613281 25.28125 -21.34375 C 27.738281 -19.082031 28.96875 -16.007812 28.96875 -12.125 C 28.96875 -8.25 27.738281 -5.175781 25.28125 -2.90625 C 22.820312 -0.644531 19.503906 0.484375 15.328125 0.484375 C 11.160156 0.484375 7.847656 -0.644531 5.390625 -2.90625 C 2.929688 -5.175781 1.703125 -8.25 1.703125 -12.125 C 1.703125 -16.007812 2.929688 -19.082031 5.390625 -21.34375 Z M 9.5 -3.96875 C 10.925781 -1.96875 12.863281 -0.96875 15.3125 -0.96875 C 17.757812 -0.96875 19.695312 -1.96875 21.125 -3.96875 C 22.5625 -5.96875 23.28125 -8.6875 23.28125 -12.125 C 23.28125 -15.570312 22.5625 -18.289062 21.125 -20.28125 C 19.695312 -22.28125 17.757812 -23.28125 15.3125 -23.28125 C 12.863281 -23.28125 10.925781 -22.28125 9.5 -20.28125 C 8.082031 -18.289062 7.375 -15.570312 7.375 -12.125 C 7.375 -8.6875 8.082031 -5.96875 9.5 -3.96875 Z M 9.5 -3.96875 "/></g></g></g><g fill="#104069" fill-opacity="1"><g transform="translate(86.97568, 286.538273)"><g><path d="M 15.875 0.46875 C 11.414062 0.457031 7.914062 -0.664062 5.375 -2.90625 C 2.832031 -5.144531 1.5625 -8.21875 1.5625 -12.125 C 1.5625 -16.03125 2.816406 -19.109375 5.328125 -21.359375 C 7.847656 -23.617188 11.304688 -24.75 15.703125 -24.75 C 19.046875 -24.75 21.921875 -24.125 24.328125 -22.875 L 24.390625 -16.90625 L 24.125 -16.90625 C 22.945312 -21.15625 20.253906 -23.28125 16.046875 -23.28125 C 13.316406 -23.28125 11.160156 -22.289062 9.578125 -20.3125 C 7.992188 -18.34375 7.203125 -15.648438 7.203125 -12.234375 C 7.203125 -8.816406 7.957031 -6.101562 9.46875 -4.09375 C 10.988281 -2.082031 13.039062 -1.039062 15.625 -0.96875 C 18.3125 -0.96875 20.359375 -1.640625 21.765625 -2.984375 C 23.191406 -4.367188 24.1875 -6.75 24.75 -10.125 L 25.015625 -10.125 L 25.375 -4.15625 C 23.5 -1.0625 20.332031 0.476562 15.875 0.46875 Z M 15.875 0.46875 "/></g></g></g><g fill="#104069" fill-opacity="1"><g transform="translate(113.995305, 286.538273)"><g><path d="M 14.171875 -22.84375 L 14.171875 -2.5 C 14.191406 -1.894531 14.414062 -1.382812 14.84375 -0.96875 C 15.269531 -0.550781 15.785156 -0.34375 16.390625 -0.34375 L 16.8125 -0.34375 L 16.84375 0 L 6.3125 0 L 6.3125 -0.34375 L 6.765625 -0.34375 C 7.335938 -0.34375 7.835938 -0.550781 8.265625 -0.96875 C 8.691406 -1.382812 8.925781 -1.878906 8.96875 -2.453125 L 8.96875 -22.84375 L 4.296875 -22.84375 C 3.234375 -22.8125 2.390625 -22.472656 1.765625 -21.828125 C 1.140625 -21.179688 0.828125 -20.335938 0.828125 -19.296875 L 0.828125 -18.890625 L 0.484375 -18.890625 L 0.484375 -24.921875 C 1.429688 -24.523438 2.796875 -24.316406 4.578125 -24.296875 L 18.546875 -24.296875 C 19.253906 -24.296875 20.03125 -24.363281 20.875 -24.5 C 21.71875 -24.632812 22.300781 -24.773438 22.625 -24.921875 L 22.625 -18.890625 L 22.28125 -18.890625 L 22.28125 -19.296875 C 22.28125 -20.734375 21.738281 -21.753906 20.65625 -22.359375 C 20.144531 -22.648438 19.53125 -22.8125 18.8125 -22.84375 Z M 14.171875 -22.84375 "/></g></g></g><g fill="#104069" fill-opacity="1"><g transform="translate(137.065906, 286.538273)"><g><path d="M 5.390625 -21.34375 C 7.847656 -23.613281 11.160156 -24.75 15.328125 -24.75 C 19.503906 -24.75 22.820312 -23.613281 25.28125 -21.34375 C 27.738281 -19.082031 28.96875 -16.007812 28.96875 -12.125 C 28.96875 -8.25 27.738281 -5.175781 25.28125 -2.90625 C 22.820312 -0.644531 19.503906 0.484375 15.328125 0.484375 C 11.160156 0.484375 7.847656 -0.644531 5.390625 -2.90625 C 2.929688 -5.175781 1.703125 -8.25 1.703125 -12.125 C 1.703125 -16.007812 2.929688 -19.082031 5.390625 -21.34375 Z M 9.5 -3.96875 C 10.925781 -1.96875 12.863281 -0.96875 15.3125 -0.96875 C 17.757812 -0.96875 19.695312 -1.96875 21.125 -3.96875 C 22.5625 -5.96875 23.28125 -8.6875 23.28125 -12.125 C 23.28125 -15.570312 22.5625 -18.289062 21.125 -20.28125 C 19.695312 -22.28125 17.757812 -23.28125 15.3125 -23.28125 C 12.863281 -23.28125 10.925781 -22.28125 9.5 -20.28125 C 8.082031 -18.289062 7.375 -15.570312 7.375 -12.125 C 7.375 -8.6875 8.082031 -5.96875 9.5 -3.96875 Z M 9.5 -3.96875 "/></g></g></g><g fill="#104069" fill-opacity="1"><g transform="translate(167.480306, 286.538273)"><g><path d="M 11.015625 -22.734375 L 9.53125 -22.734375 C 9.488281 -22.734375 9.453125 -22.734375 9.421875 -22.734375 L 9.421875 -2.53125 C 9.453125 -1.925781 9.679688 -1.410156 10.109375 -0.984375 C 10.535156 -0.554688 11.046875 -0.34375 11.640625 -0.34375 L 12.09375 -0.34375 L 12.09375 0 L 1.5625 0 L 1.5625 -0.34375 L 2.015625 -0.34375 C 2.835938 -0.34375 3.472656 -0.703125 3.921875 -1.421875 C 4.097656 -1.742188 4.203125 -2.101562 4.234375 -2.5 L 4.234375 -21.734375 C 4.203125 -22.328125 3.972656 -22.835938 3.546875 -23.265625 C 3.117188 -23.691406 2.609375 -23.90625 2.015625 -23.90625 L 1.5625 -23.90625 L 1.5625 -24.265625 L 13.453125 -24.265625 C 15.691406 -24.265625 17.582031 -23.773438 19.125 -22.796875 C 19.914062 -22.316406 20.539062 -21.644531 21 -20.78125 C 21.457031 -19.914062 21.6875 -18.78125 21.6875 -17.375 C 21.6875 -15.976562 21.203125 -14.632812 20.234375 -13.34375 C 19.265625 -12.050781 17.859375 -11.3125 16.015625 -11.125 C 17.347656 -10.6875 18.523438 -9.671875 19.546875 -8.078125 C 22.035156 -4.078125 23.882812 -1.695312 25.09375 -0.9375 C 25.695312 -0.5625 26.445312 -0.363281 27.34375 -0.34375 L 27.34375 0 L 23.953125 0 C 21.941406 0 20.269531 -0.265625 18.9375 -0.796875 C 17.613281 -1.328125 16.566406 -2.265625 15.796875 -3.609375 C 15.359375 -4.367188 14.398438 -6.34375 12.921875 -9.53125 C 12.273438 -10.9375 11.488281 -11.710938 10.5625 -11.859375 L 10.5625 -12.203125 L 11.640625 -12.203125 C 12.679688 -12.203125 13.597656 -12.515625 14.390625 -13.140625 C 15.191406 -13.765625 15.734375 -14.78125 16.015625 -16.1875 C 16.109375 -16.664062 16.15625 -17.046875 16.15625 -17.328125 C 16.15625 -19.222656 15.769531 -20.59375 15 -21.4375 C 14.238281 -22.28125 13.257812 -22.710938 12.0625 -22.734375 C 11.832031 -22.734375 11.484375 -22.734375 11.015625 -22.734375 Z M 11.015625 -22.734375 "/></g></g></g><g fill="#104069" fill-opacity="1"><g transform="translate(193.356792, 286.538273)"><g><path d="M 1.5625 -19.921875 C 2.644531 -20.335938 3.1875 -21.066406 3.1875 -22.109375 C 3.1875 -22.734375 2.921875 -23.351562 2.390625 -23.96875 C 1.859375 -24.582031 1.59375 -25.253906 1.59375 -25.984375 C 1.59375 -26.722656 1.8125 -27.316406 2.25 -27.765625 C 2.6875 -28.222656 3.21875 -28.453125 3.84375 -28.453125 C 5.113281 -28.453125 5.992188 -27.898438 6.484375 -26.796875 C 6.804688 -26.097656 6.96875 -25.519531 6.96875 -25.0625 C 6.96875 -23.738281 6.691406 -22.648438 6.140625 -21.796875 C 5.140625 -20.253906 3.84375 -19.484375 2.25 -19.484375 C 2.039062 -19.484375 1.84375 -19.503906 1.65625 -19.546875 Z M 1.5625 -19.921875 "/></g></g></g><g fill="#104069" fill-opacity="1"><g transform="translate(201.705165, 286.538273)"><g><path d="M 1.734375 -3.21875 C 1.734375 -4.882812 2.09375 -6.304688 2.8125 -7.484375 L 3.125 -7.484375 C 3.09375 -7.296875 3.078125 -7.113281 3.078125 -6.9375 C 3.078125 -5.34375 3.648438 -3.945312 4.796875 -2.75 C 5.941406 -1.5625 7.507812 -0.96875 9.5 -0.96875 C 11.039062 -0.96875 12.242188 -1.335938 13.109375 -2.078125 C 13.984375 -2.816406 14.421875 -3.753906 14.421875 -4.890625 C 14.421875 -5.554688 14.207031 -6.15625 13.78125 -6.6875 C 13.351562 -7.21875 12.640625 -7.804688 11.640625 -8.453125 L 5.609375 -12.4375 C 3.367188 -13.9375 2.25 -15.785156 2.25 -17.984375 C 2.25 -18.210938 2.273438 -18.445312 2.328125 -18.6875 C 2.460938 -20.507812 3.171875 -21.972656 4.453125 -23.078125 C 5.734375 -24.191406 7.445312 -24.75 9.59375 -24.75 C 10.863281 -24.75 12.4375 -24.628906 14.3125 -24.390625 L 16.5 -24.390625 L 16.046875 -19.296875 L 15.703125 -19.296875 C 15.703125 -20.503906 15.253906 -21.46875 14.359375 -22.1875 C 13.472656 -22.914062 12.289062 -23.28125 10.8125 -23.28125 C 9.007812 -23.28125 7.703125 -22.726562 6.890625 -21.625 C 6.472656 -21.09375 6.265625 -20.5625 6.265625 -20.03125 C 6.265625 -19.5 6.367188 -19.050781 6.578125 -18.6875 C 6.898438 -18.082031 7.609375 -17.429688 8.703125 -16.734375 L 15.3125 -12.4375 C 17.394531 -11.070312 18.4375 -9.296875 18.4375 -7.109375 C 18.4375 -4.660156 17.597656 -2.78125 15.921875 -1.46875 C 14.242188 -0.164062 12.019531 0.484375 9.25 0.484375 C 7.675781 0.484375 6.222656 0.296875 4.890625 -0.078125 C 3.566406 -0.460938 2.59375 -0.976562 1.96875 -1.625 C 1.8125 -2.0625 1.734375 -2.59375 1.734375 -3.21875 Z M 1.734375 -3.21875 "/></g></g></g><g fill="#000000" fill-opacity="1"><g transform="translate(221.730462, 286.538273)"><g/></g></g><g fill="#000000" fill-opacity="1"><g transform="translate(230.390595, 286.538273)"><g/></g></g><g fill="#e4094c" fill-opacity="1"><g transform="translate(239.050774, 286.538273)"><g><path d="M 14.03125 -24.265625 C 18.125 -24.265625 21.359375 -23.175781 23.734375 -21 C 26.117188 -18.832031 27.3125 -15.875 27.3125 -12.125 C 27.3125 -8.382812 26.117188 -5.425781 23.734375 -3.25 C 21.359375 -1.082031 18.125 0 14.03125 0 L 1.453125 0 L 1.453125 -0.34375 L 1.90625 -0.34375 C 2.507812 -0.34375 3.023438 -0.554688 3.453125 -0.984375 C 3.878906 -1.410156 4.101562 -1.925781 4.125 -2.53125 L 4.125 -21.9375 C 4.125 -22.488281 3.894531 -22.953125 3.4375 -23.328125 C 2.988281 -23.710938 2.476562 -23.90625 1.90625 -23.90625 L 1.453125 -23.90625 L 1.453125 -24.265625 Z M 13.578125 -1.484375 C 15.242188 -1.484375 16.679688 -1.910156 17.890625 -2.765625 C 19.109375 -3.628906 20.039062 -4.863281 20.6875 -6.46875 C 21.332031 -8.070312 21.65625 -9.820312 21.65625 -11.71875 C 21.65625 -13.613281 21.460938 -15.222656 21.078125 -16.546875 C 20.703125 -17.878906 20.171875 -19.003906 19.484375 -19.921875 C 18.046875 -21.835938 16.078125 -22.796875 13.578125 -22.796875 L 9.328125 -22.796875 L 9.328125 -1.484375 Z M 13.578125 -1.484375 "/></g></g></g><g fill="#e4094c" fill-opacity="1"><g transform="translate(267.733145, 286.538273)"><g><path d="M 1.90625 -0.34375 C 2.507812 -0.34375 3.023438 -0.554688 3.453125 -0.984375 C 3.878906 -1.410156 4.101562 -1.925781 4.125 -2.53125 L 4.125 -21.765625 C 4.101562 -22.367188 3.878906 -22.875 3.453125 -23.28125 C 3.023438 -23.695312 2.507812 -23.90625 1.90625 -23.90625 L 1.453125 -23.90625 L 1.453125 -24.265625 L 11.984375 -24.265625 L 11.953125 -23.90625 L 11.546875 -23.90625 C 10.941406 -23.90625 10.421875 -23.695312 9.984375 -23.28125 C 9.546875 -22.875 9.328125 -22.367188 9.328125 -21.765625 L 9.328125 -2.53125 C 9.328125 -1.925781 9.546875 -1.410156 9.984375 -0.984375 C 10.421875 -0.554688 10.941406 -0.34375 11.546875 -0.34375 L 11.953125 -0.34375 L 11.984375 0 L 1.453125 0 L 1.453125 -0.34375 Z M 1.90625 -0.34375 "/></g></g></g><g fill="#e4094c" fill-opacity="1"><g transform="translate(281.104398, 286.538273)"><g><path d="M 25.578125 -0.34375 L 25.890625 -0.34375 L 25.890625 0 L 14.828125 0 L 14.828125 -0.34375 L 15.140625 -0.34375 C 15.648438 -0.34375 16.023438 -0.5 16.265625 -0.8125 C 16.503906 -1.125 16.625 -1.414062 16.625 -1.6875 C 16.625 -1.96875 16.566406 -2.25 16.453125 -2.53125 L 14.765625 -6.796875 L 6.65625 -6.796875 L 4.84375 -2.53125 C 4.726562 -2.226562 4.671875 -1.941406 4.671875 -1.671875 C 4.671875 -1.410156 4.796875 -1.125 5.046875 -0.8125 C 5.304688 -0.5 5.691406 -0.34375 6.203125 -0.34375 L 6.484375 -0.34375 L 6.484375 0 L -0.9375 0 L -0.9375 -0.34375 L -0.625 -0.34375 C -0.09375 -0.34375 0.4375 -0.503906 0.96875 -0.828125 C 1.5 -1.148438 1.9375 -1.632812 2.28125 -2.28125 L 10.296875 -20.40625 C 11.378906 -22.695312 11.953125 -24.210938 12.015625 -24.953125 L 12.328125 -24.953125 L 22.625 -2.359375 C 22.96875 -1.691406 23.40625 -1.1875 23.9375 -0.84375 C 24.46875 -0.507812 25.015625 -0.34375 25.578125 -0.34375 Z M 7.234375 -8.25 L 14.171875 -8.25 L 10.8125 -16.78125 Z M 7.234375 -8.25 "/></g></g></g><g fill="#e4094c" fill-opacity="1"><g transform="translate(305.907028, 286.538273)"><g><path d="M 11.015625 -22.734375 L 9.53125 -22.734375 C 9.488281 -22.734375 9.453125 -22.734375 9.421875 -22.734375 L 9.421875 -2.53125 C 9.453125 -1.925781 9.679688 -1.410156 10.109375 -0.984375 C 10.535156 -0.554688 11.046875 -0.34375 11.640625 -0.34375 L 12.09375 -0.34375 L 12.09375 0 L 1.5625 0 L 1.5625 -0.34375 L 2.015625 -0.34375 C 2.835938 -0.34375 3.472656 -0.703125 3.921875 -1.421875 C 4.097656 -1.742188 4.203125 -2.101562 4.234375 -2.5 L 4.234375 -21.734375 C 4.203125 -22.328125 3.972656 -22.835938 3.546875 -23.265625 C 3.117188 -23.691406 2.609375 -23.90625 2.015625 -23.90625 L 1.5625 -23.90625 L 1.5625 -24.265625 L 13.453125 -24.265625 C 15.691406 -24.265625 17.582031 -23.773438 19.125 -22.796875 C 19.914062 -22.316406 20.539062 -21.644531 21 -20.78125 C 21.457031 -19.914062 21.6875 -18.78125 21.6875 -17.375 C 21.6875 -15.976562 21.203125 -14.632812 20.234375 -13.34375 C 19.265625 -12.050781 17.859375 -11.3125 16.015625 -11.125 C 17.347656 -10.6875 18.523438 -9.671875 19.546875 -8.078125 C 22.035156 -4.078125 23.882812 -1.695312 25.09375 -0.9375 C 25.695312 -0.5625 26.445312 -0.363281 27.34375 -0.34375 L 27.34375 0 L 23.953125 0 C 21.941406 0 20.269531 -0.265625 18.9375 -0.796875 C 17.613281 -1.328125 16.566406 -2.265625 15.796875 -3.609375 C 15.359375 -4.367188 14.398438 -6.34375 12.921875 -9.53125 C 12.273438 -10.9375 11.488281 -11.710938 10.5625 -11.859375 L 10.5625 -12.203125 L 11.640625 -12.203125 C 12.679688 -12.203125 13.597656 -12.515625 14.390625 -13.140625 C 15.191406 -13.765625 15.734375 -14.78125 16.015625 -16.1875 C 16.109375 -16.664062 16.15625 -17.046875 16.15625 -17.328125 C 16.15625 -19.222656 15.769531 -20.59375 15 -21.4375 C 14.238281 -22.28125 13.257812 -22.710938 12.0625 -22.734375 C 11.832031 -22.734375 11.484375 -22.734375 11.015625 -22.734375 Z M 11.015625 -22.734375 "/></g></g></g><g fill="#e4094c" fill-opacity="1"><g transform="translate(331.783514, 286.538273)"><g><path d="M 25.46875 -23.90625 L 24.984375 -23.90625 C 24.285156 -23.90625 23.625 -23.707031 23 -23.3125 C 22.382812 -22.925781 21.890625 -22.457031 21.515625 -21.90625 L 14.6875 -11.015625 L 14.6875 -2.53125 C 14.6875 -1.925781 14.90625 -1.410156 15.34375 -0.984375 C 15.78125 -0.554688 16.300781 -0.34375 16.90625 -0.34375 L 17.328125 -0.34375 L 17.359375 0 L 6.828125 0 L 6.828125 -0.34375 L 7.28125 -0.34375 C 7.875 -0.34375 8.382812 -0.550781 8.8125 -0.96875 C 9.238281 -1.382812 9.46875 -1.894531 9.5 -2.5 L 9.5 -11.0625 L 2.875 -21.9375 C 2.53125 -22.488281 2.039062 -22.953125 1.40625 -23.328125 C 0.769531 -23.710938 0.113281 -23.90625 -0.5625 -23.90625 L -1.046875 -23.90625 L -1.046875 -24.265625 L 10.421875 -24.265625 L 10.421875 -23.90625 L 9.984375 -23.90625 C 9.472656 -23.90625 9.078125 -23.675781 8.796875 -23.21875 C 8.660156 -22.96875 8.59375 -22.71875 8.59375 -22.46875 C 8.59375 -22.226562 8.648438 -21.992188 8.765625 -21.765625 L 13.71875 -12.75 L 18.890625 -21.765625 C 19.003906 -21.992188 19.0625 -22.226562 19.0625 -22.46875 C 19.0625 -22.71875 18.976562 -22.957031 18.8125 -23.1875 C 18.539062 -23.664062 18.148438 -23.90625 17.640625 -23.90625 L 17.21875 -23.90625 L 17.21875 -24.265625 L 25.46875 -24.265625 Z M 25.46875 -23.90625 "/></g></g></g><g fill="#e4094c" fill-opacity="1"><g transform="translate(92.981157, 325.870848)"><g><path d="M 0.046875 0 L 2.546875 -6.609375 L 4.265625 -6.609375 L 6.78125 0 L 5.078125 0 L 4.671875 -1.171875 L 2.140625 -1.171875 L 1.75 0 Z M 2.578125 -2.4375 L 4.25 -2.4375 L 3.40625 -4.953125 Z M 2.578125 -2.4375 "/></g></g></g><g fill="#e4094c" fill-opacity="1"><g transform="translate(102.121339, 325.870848)"><g><path d="M 0.4375 0 L 0.4375 -6.609375 L 2 -6.609375 L 2 -1.375 L 5.15625 -1.375 L 5.15625 0 Z M 0.4375 0 "/></g></g></g><g fill="#e4094c" fill-opacity="1"><g transform="translate(109.750043, 325.870848)"><g><path d="M 1.6875 0 L 0.09375 -6.609375 L 1.65625 -6.609375 L 2.578125 -2.03125 L 3.546875 -6.609375 L 5.171875 -6.609375 L 6.15625 -2.03125 L 7.078125 -6.609375 L 8.640625 -6.609375 L 7.046875 0 L 5.375 0 L 4.359375 -4.65625 L 3.359375 0 Z M 1.6875 0 "/></g></g></g><g fill="#e4094c" fill-opacity="1"><g transform="translate(120.796856, 325.870848)"><g><path d="M 0.046875 0 L 2.546875 -6.609375 L 4.265625 -6.609375 L 6.78125 0 L 5.078125 0 L 4.671875 -1.171875 L 2.140625 -1.171875 L 1.75 0 Z M 2.578125 -2.4375 L 4.25 -2.4375 L 3.40625 -4.953125 Z M 2.578125 -2.4375 "/></g></g></g><g fill="#e4094c" fill-opacity="1"><g transform="translate(129.93704, 325.870848)"><g><path d="M 2.625 0 L 2.625 -2.578125 L 0.09375 -6.609375 L 1.921875 -6.609375 L 3.390625 -4.0625 L 4.859375 -6.609375 L 6.703125 -6.609375 L 4.171875 -2.578125 L 4.171875 0 Z M 2.625 0 "/></g></g></g><g fill="#e4094c" fill-opacity="1"><g transform="translate(139.047583, 325.870848)"><g><path d="M 3.109375 0.125 C 2.390625 0.125 1.78125 -0.0195312 1.28125 -0.3125 C 0.789062 -0.613281 0.445312 -1.023438 0.25 -1.546875 L 1.671875 -2.0625 C 1.765625 -1.75 1.9375 -1.515625 2.1875 -1.359375 C 2.445312 -1.210938 2.753906 -1.140625 3.109375 -1.140625 C 3.304688 -1.140625 3.492188 -1.160156 3.671875 -1.203125 C 3.847656 -1.242188 3.992188 -1.316406 4.109375 -1.421875 C 4.234375 -1.523438 4.296875 -1.660156 4.296875 -1.828125 C 4.296875 -2.054688 4.179688 -2.234375 3.953125 -2.359375 C 3.734375 -2.492188 3.441406 -2.59375 3.078125 -2.65625 L 2.28125 -2.8125 C 1.925781 -2.882812 1.59375 -2.992188 1.28125 -3.140625 C 0.976562 -3.296875 0.734375 -3.492188 0.546875 -3.734375 C 0.367188 -3.984375 0.28125 -4.296875 0.28125 -4.671875 C 0.28125 -5.035156 0.359375 -5.34375 0.515625 -5.59375 C 0.679688 -5.851562 0.898438 -6.066406 1.171875 -6.234375 C 1.453125 -6.398438 1.753906 -6.519531 2.078125 -6.59375 C 2.410156 -6.675781 2.742188 -6.71875 3.078125 -6.71875 C 3.429688 -6.71875 3.773438 -6.664062 4.109375 -6.5625 C 4.441406 -6.46875 4.738281 -6.316406 5 -6.109375 C 5.269531 -5.910156 5.472656 -5.640625 5.609375 -5.296875 L 4.1875 -4.78125 C 4.101562 -5 3.953125 -5.164062 3.734375 -5.28125 C 3.515625 -5.40625 3.25 -5.46875 2.9375 -5.46875 C 2.632812 -5.46875 2.378906 -5.410156 2.171875 -5.296875 C 1.972656 -5.191406 1.875 -5.039062 1.875 -4.84375 C 1.875 -4.675781 1.941406 -4.53125 2.078125 -4.40625 C 2.222656 -4.289062 2.40625 -4.207031 2.625 -4.15625 L 3.515625 -3.984375 C 3.785156 -3.929688 4.054688 -3.863281 4.328125 -3.78125 C 4.609375 -3.695312 4.863281 -3.585938 5.09375 -3.453125 C 5.332031 -3.316406 5.523438 -3.132812 5.671875 -2.90625 C 5.816406 -2.6875 5.890625 -2.40625 5.890625 -2.0625 C 5.890625 -1.71875 5.804688 -1.40625 5.640625 -1.125 C 5.484375 -0.851562 5.269531 -0.625 5 -0.4375 C 4.738281 -0.257812 4.441406 -0.117188 4.109375 -0.015625 C 3.785156 0.078125 3.453125 0.125 3.109375 0.125 Z M 3.109375 0.125 "/></g></g></g><g fill="#ff66c4" fill-opacity="1"><g transform="translate(147.496778, 325.870848)"><g/></g></g><g fill="#ff66c4" fill-opacity="1"><g transform="translate(152.981752, 325.870848)"><g/></g></g><g fill="#104069" fill-opacity="1"><g transform="translate(158.477246, 325.870848)"><g><path d="M 0.4375 0 L 0.4375 -6.609375 L 2.609375 -6.609375 C 3.148438 -6.609375 3.648438 -6.550781 4.109375 -6.4375 C 4.578125 -6.332031 4.984375 -6.148438 5.328125 -5.890625 C 5.679688 -5.640625 5.953125 -5.300781 6.140625 -4.875 C 6.335938 -4.457031 6.4375 -3.929688 6.4375 -3.296875 C 6.4375 -2.671875 6.335938 -2.144531 6.140625 -1.71875 C 5.953125 -1.300781 5.679688 -0.960938 5.328125 -0.703125 C 4.984375 -0.453125 4.578125 -0.269531 4.109375 -0.15625 C 3.648438 -0.0507812 3.148438 0 2.609375 0 Z M 2 -1.3125 L 2.640625 -1.3125 C 2.921875 -1.3125 3.191406 -1.332031 3.453125 -1.375 C 3.710938 -1.425781 3.945312 -1.519531 4.15625 -1.65625 C 4.363281 -1.789062 4.523438 -1.988281 4.640625 -2.25 C 4.765625 -2.519531 4.828125 -2.867188 4.828125 -3.296875 C 4.828125 -3.734375 4.765625 -4.082031 4.640625 -4.34375 C 4.523438 -4.613281 4.363281 -4.816406 4.15625 -4.953125 C 3.945312 -5.085938 3.710938 -5.179688 3.453125 -5.234375 C 3.191406 -5.285156 2.921875 -5.3125 2.640625 -5.3125 L 2 -5.3125 Z M 2 -1.3125 "/></g></g></g><g fill="#104069" fill-opacity="1"><g transform="translate(167.577912, 325.870848)"><g><path d="M 0.4375 0 L 0.4375 -6.609375 L 2.984375 -6.609375 C 3.554688 -6.609375 4.066406 -6.550781 4.515625 -6.4375 C 4.960938 -6.320312 5.316406 -6.113281 5.578125 -5.8125 C 5.835938 -5.519531 5.96875 -5.101562 5.96875 -4.5625 C 5.96875 -4.3125 5.921875 -4.0625 5.828125 -3.8125 C 5.742188 -3.5625 5.585938 -3.332031 5.359375 -3.125 C 5.128906 -2.925781 4.800781 -2.769531 4.375 -2.65625 L 6.296875 0 L 4.484375 0 L 2.703125 -2.5 L 2 -2.5 L 2 0 Z M 2 -3.796875 L 3.03125 -3.796875 C 3.394531 -3.796875 3.703125 -3.84375 3.953125 -3.9375 C 4.203125 -4.03125 4.328125 -4.234375 4.328125 -4.546875 C 4.328125 -4.847656 4.203125 -5.046875 3.953125 -5.140625 C 3.703125 -5.242188 3.394531 -5.296875 3.03125 -5.296875 L 2 -5.296875 Z M 2 -3.796875 "/></g></g></g><g fill="#104069" fill-opacity="1"><g transform="translate(176.362447, 325.870848)"><g><path d="M 0.5625 0 L 0.5625 -1.21875 L 1.5 -1.21875 L 1.5 -5.375 L 0.5625 -5.375 L 0.5625 -6.609375 L 3.96875 -6.609375 L 3.96875 -5.375 L 3.0625 -5.375 L 3.0625 -1.21875 L 3.96875 -1.21875 L 3.96875 0 Z M 0.5625 0 "/></g></g></g><g fill="#104069" fill-opacity="1"><g transform="translate(183.210708, 325.870848)"><g><path d="M 0.4375 0 L 0.4375 -6.609375 L 2.421875 -6.609375 L 4.96875 -1.90625 L 4.96875 -6.609375 L 6.484375 -6.609375 L 6.484375 0 L 4.484375 0 L 1.9375 -4.703125 L 1.9375 0 Z M 0.4375 0 "/></g></g></g><g fill="#104069" fill-opacity="1"><g transform="translate(192.449677, 325.870848)"><g><path d="M 0.4375 0 L 0.4375 -6.609375 L 2 -6.609375 L 2 -3.984375 L 4.375 -6.609375 L 6.296875 -6.609375 L 3.671875 -3.78125 L 6.421875 0 L 4.609375 0 L 2.671875 -2.6875 L 2 -1.953125 L 2 0 Z M 0.4375 0 "/></g></g></g><g fill="#ffffff" fill-opacity="1"><g transform="translate(201.285841, 325.870848)"><g/></g></g><g fill="#ff66c4" fill-opacity="1"><g transform="translate(206.781931, 325.870848)"><g/></g></g><g fill="#e4094c" fill-opacity="1"><g transform="translate(212.278028, 325.870848)"><g><path d="M 1.6875 0 L 0.09375 -6.609375 L 1.65625 -6.609375 L 2.578125 -2.03125 L 3.546875 -6.609375 L 5.171875 -6.609375 L 6.15625 -2.03125 L 7.078125 -6.609375 L 8.640625 -6.609375 L 7.046875 0 L 5.375 0 L 4.359375 -4.65625 L 3.359375 0 Z M 1.6875 0 "/></g></g></g><g fill="#e4094c" fill-opacity="1"><g transform="translate(223.324842, 325.870848)"><g><path d="M 0.046875 0 L 2.546875 -6.609375 L 4.265625 -6.609375 L 6.78125 0 L 5.078125 0 L 4.671875 -1.171875 L 2.140625 -1.171875 L 1.75 0 Z M 2.578125 -2.4375 L 4.25 -2.4375 L 3.40625 -4.953125 Z M 2.578125 -2.4375 "/></g></g></g><g fill="#e4094c" fill-opacity="1"><g transform="translate(232.465024, 325.870848)"><g><path d="M 0.4375 0 L 0.4375 -6.609375 L 2.984375 -6.609375 C 3.554688 -6.609375 4.066406 -6.550781 4.515625 -6.4375 C 4.960938 -6.320312 5.316406 -6.113281 5.578125 -5.8125 C 5.835938 -5.519531 5.96875 -5.101562 5.96875 -4.5625 C 5.96875 -4.3125 5.921875 -4.0625 5.828125 -3.8125 C 5.742188 -3.5625 5.585938 -3.332031 5.359375 -3.125 C 5.128906 -2.925781 4.800781 -2.769531 4.375 -2.65625 L 6.296875 0 L 4.484375 0 L 2.703125 -2.5 L 2 -2.5 L 2 0 Z M 2 -3.796875 L 3.03125 -3.796875 C 3.394531 -3.796875 3.703125 -3.84375 3.953125 -3.9375 C 4.203125 -4.03125 4.328125 -4.234375 4.328125 -4.546875 C 4.328125 -4.847656 4.203125 -5.046875 3.953125 -5.140625 C 3.703125 -5.242188 3.394531 -5.296875 3.03125 -5.296875 L 2 -5.296875 Z M 2 -3.796875 "/></g></g></g><g fill="#e4094c" fill-opacity="1"><g transform="translate(241.249557, 325.870848)"><g><path d="M 0.4375 0 L 0.4375 -6.609375 L 2.78125 -6.609375 L 4.15625 -1.875 L 5.546875 -6.609375 L 7.890625 -6.609375 L 7.890625 0 L 6.375 0 L 6.375 -5.1875 L 4.796875 0 L 3.515625 0 L 1.953125 -5.1875 L 1.953125 0 Z M 0.4375 0 "/></g></g></g><g fill="#ffffff" fill-opacity="1"><g transform="translate(251.899115, 325.870848)"><g/></g></g><g fill="#104069" fill-opacity="1"><g transform="translate(257.395212, 325.870848)"><g><path d="M 1.6875 0 L 0.09375 -6.609375 L 1.65625 -6.609375 L 2.578125 -2.03125 L 3.546875 -6.609375 L 5.171875 -6.609375 L 6.15625 -2.03125 L 7.078125 -6.609375 L 8.640625 -6.609375 L 7.046875 0 L 5.375 0 L 4.359375 -4.65625 L 3.359375 0 Z M 1.6875 0 "/></g></g></g><g fill="#104069" fill-opacity="1"><g transform="translate(268.442026, 325.870848)"><g><path d="M 0.046875 0 L 2.546875 -6.609375 L 4.265625 -6.609375 L 6.78125 0 L 5.078125 0 L 4.671875 -1.171875 L 2.140625 -1.171875 L 1.75 0 Z M 2.578125 -2.4375 L 4.25 -2.4375 L 3.40625 -4.953125 Z M 2.578125 -2.4375 "/></g></g></g><g fill="#104069" fill-opacity="1"><g transform="translate(277.582209, 325.870848)"><g><path d="M 2.28125 0 L 2.28125 -5.234375 L 0.140625 -5.234375 L 0.140625 -6.609375 L 5.953125 -6.609375 L 5.953125 -5.234375 L 3.828125 -5.234375 L 3.828125 0 Z M 2.28125 0 "/></g></g></g><g fill="#104069" fill-opacity="1"><g transform="translate(286.001229, 325.870848)"><g><path d="M 0.4375 0 L 0.4375 -6.609375 L 5.515625 -6.609375 L 5.515625 -5.234375 L 2 -5.234375 L 2 -4.078125 L 4.140625 -4.078125 L 4.140625 -2.703125 L 2 -2.703125 L 2 -1.375 L 5.515625 -1.375 L 5.515625 0 Z M 0.4375 0 "/></g></g></g><g fill="#104069" fill-opacity="1"><g transform="translate(294.054727, 325.870848)"><g><path d="M 0.4375 0 L 0.4375 -6.609375 L 2.984375 -6.609375 C 3.554688 -6.609375 4.066406 -6.550781 4.515625 -6.4375 C 4.960938 -6.320312 5.316406 -6.113281 5.578125 -5.8125 C 5.835938 -5.519531 5.96875 -5.101562 5.96875 -4.5625 C 5.96875 -4.3125 5.921875 -4.0625 5.828125 -3.8125 C 5.742188 -3.5625 5.585938 -3.332031 5.359375 -3.125 C 5.128906 -2.925781 4.800781 -2.769531 4.375 -2.65625 L 6.296875 0 L 4.484375 0 L 2.703125 -2.5 L 2 -2.5 L 2 0 Z M 2 -3.796875 L 3.03125 -3.796875 C 3.394531 -3.796875 3.703125 -3.84375 3.953125 -3.9375 C 4.203125 -4.03125 4.328125 -4.234375 4.328125 -4.546875 C 4.328125 -4.847656 4.203125 -5.046875 3.953125 -5.140625 C 3.703125 -5.242188 3.394531 -5.296875 3.03125 -5.296875 L 2 -5.296875 Z M 2 -3.796875 "/></g></g></g><g clip-path="url(#ab0dead68c)"><path fill="#000000" d="M 341.484375 349.644531 C 336.09375 347.261719 331.226562 343.722656 327.363281 339.269531 C 327.132812 339.007812 326.90625 338.734375 326.683594 338.460938 C 327.648438 337.917969 328.574219 337.316406 329.46875 336.675781 C 333.222656 333.957031 336.351562 330.339844 337.992188 325.976562 C 338.3125 325.132812 338.480469 324.128906 337.648438 323.523438 C 336.960938 323.011719 335.96875 323.082031 335.183594 323.292969 C 334.132812 323.582031 333.230469 324.269531 332.375 324.921875 C 331.304688 325.730469 330.316406 326.636719 329.414062 327.628906 C 328.777344 328.335938 328.203125 329.089844 327.664062 329.875 C 327.160156 327.101562 325.332031 324.605469 322.699219 323.441406 C 321.433594 322.878906 319.773438 322.871094 319.234375 324.382812 C 318.757812 325.730469 319.367188 327.234375 319.84375 328.484375 C 321.160156 331.925781 322.945312 335.144531 325.144531 338.066406 C 316.417969 342.578125 306.183594 342.554688 296.582031 341.109375 C 290.625 340.210938 284.742188 338.875 278.820312 337.730469 C 273.121094 336.621094 267.40625 335.609375 261.65625 334.792969 C 250.265625 333.183594 238.691406 332.390625 227.214844 333.535156 C 216.203125 334.625 204.859375 337.492188 195.441406 343.46875 C 194.320312 344.179688 193.242188 344.945312 192.199219 345.765625 C 192.066406 345.871094 192.242188 346.097656 192.375 345.992188 C 197.128906 342.5 202.472656 340.125 208.09375 338.355469 C 213.828125 336.550781 219.757812 335.398438 225.738281 334.765625 C 237.761719 333.5 249.929688 334.398438 261.867188 336.121094 C 267.882812 336.992188 273.863281 338.082031 279.839844 339.261719 C 285.96875 340.476562 292.074219 341.839844 298.285156 342.625 C 304.257812 343.371094 310.410156 343.574219 316.335938 342.332031 C 319.625 341.648438 322.859375 340.511719 325.835938 338.917969 C 327.503906 341.003906 329.386719 342.921875 331.464844 344.636719 C 334.398438 347.058594 337.621094 349 341.148438 350.417969 C 341.597656 350.621094 341.933594 349.847656 341.484375 349.644531 Z M 322.371094 332.03125 C 321.664062 330.71875 321.054688 329.355469 320.527344 327.964844 C 320.144531 326.953125 319.269531 324.886719 320.445312 324.066406 C 321.277344 323.488281 322.523438 324.191406 323.253906 324.640625 C 323.925781 325.054688 324.527344 325.570312 325.058594 326.152344 C 326.222656 327.4375 326.949219 329.082031 327.117188 330.808594 C 327.144531 331.132812 327.558594 331.273438 327.753906 330.972656 C 329.183594 328.714844 331.191406 326.722656 333.40625 325.210938 C 334.265625 324.621094 335.164062 324.03125 336.253906 324.042969 C 336.605469 324.042969 337.109375 324.09375 337.277344 324.453125 C 337.542969 325.007812 336.960938 325.976562 336.730469 326.476562 C 334.792969 330.675781 331.570312 334.105469 327.699219 336.605469 C 327.152344 336.957031 326.59375 337.292969 326.03125 337.609375 C 324.644531 335.867188 323.414062 333.992188 322.371094 332.03125 Z M 322.371094 332.03125 " fill-opacity="1" fill-rule="nonzero"/></g></svg>