<svg xmlns="http://www.w3.org/2000/svg" xmlns:xlink="http://www.w3.org/1999/xlink" width="160" zoomAndPan="magnify" viewBox="0 0 120 30.000001" height="40" preserveAspectRatio="xMidYMid meet" version="1.0"><defs><g/><clipPath id="00b9e07d22"><path d="M 1.933594 0 L 118.0625 0 L 118.0625 29.03125 L 1.933594 29.03125 Z M 1.933594 0 " clip-rule="nonzero"/></clipPath><clipPath id="71d64b3fd8"><path d="M 10 10 L 24 10 L 24 28.203125 L 10 28.203125 Z M 10 10 " clip-rule="nonzero"/></clipPath><clipPath id="6815bafd5e"><path d="M 3.28125 4 L 23 4 L 23 27 L 3.28125 27 Z M 3.28125 4 " clip-rule="nonzero"/></clipPath><clipPath id="d466cbe7f8"><path d="M 20 0.621094 L 25 0.621094 L 25 5 L 20 5 Z M 20 0.621094 " clip-rule="nonzero"/></clipPath><clipPath id="751daed04a"><path d="M 21 6 L 26 6 L 26 9 L 21 9 Z M 21 6 " clip-rule="nonzero"/></clipPath><clipPath id="0f7dbde5b4"><path d="M 22.054688 4.753906 L 26.222656 6.015625 L 24.960938 10.183594 L 20.792969 8.921875 Z M 22.054688 4.753906 " clip-rule="nonzero"/></clipPath><clipPath id="9de913c3a1"><path d="M 22.054688 4.753906 L 26.222656 6.015625 L 24.960938 10.183594 L 20.792969 8.921875 Z M 22.054688 4.753906 " clip-rule="nonzero"/></clipPath><clipPath id="799df80528"><path d="M 23 2 L 27 2 L 27 5 L 23 5 Z M 23 2 " clip-rule="nonzero"/></clipPath><clipPath id="6130e778e3"><path d="M 23.011719 1.773438 L 26.640625 1.707031 L 26.722656 6.058594 L 23.09375 6.128906 Z M 23.011719 1.773438 " clip-rule="nonzero"/></clipPath><clipPath id="25adcefec8"><path d="M 23.011719 1.773438 L 26.640625 1.707031 L 26.722656 6.058594 L 23.09375 6.128906 Z M 23.011719 1.773438 " clip-rule="nonzero"/></clipPath><clipPath id="4c565c759d"><path d="M 19 1 L 22 1 L 22 6 L 19 6 Z M 19 1 " clip-rule="nonzero"/></clipPath><clipPath id="023a735e3a"><path d="M 20.015625 0.621094 L 22.75 3.003906 L 19.890625 6.289062 L 17.152344 3.90625 Z M 20.015625 0.621094 " clip-rule="nonzero"/></clipPath><clipPath id="a781d27c6f"><path d="M 23.007812 3.230469 L 20.269531 0.84375 L 17.410156 4.128906 L 20.148438 6.511719 Z M 23.007812 3.230469 " clip-rule="nonzero"/></clipPath></defs><g clip-path="url(#00b9e07d22)"><path fill="#ffffff" d="M 1.933594 0 L 118.066406 0 L 118.066406 29.03125 L 1.933594 29.03125 Z M 1.933594 0 " fill-opacity="1" fill-rule="nonzero"/><path fill="#ffffff" d="M 1.933594 0 L 118.066406 0 L 118.066406 29.03125 L 1.933594 29.03125 Z M 1.933594 0 " fill-opacity="1" fill-rule="nonzero"/></g><g clip-path="url(#71d64b3fd8)"><path fill="#e4094c" d="M 20.363281 10.648438 C 20.234375 11.207031 20.121094 11.746094 20.023438 12.242188 C 21.492188 13.8125 22.390625 15.921875 22.390625 18.242188 C 22.390625 23.09375 18.457031 27.03125 13.605469 27.03125 C 13.328125 27.03125 13.050781 27.015625 12.78125 26.988281 C 11.878906 27.515625 11.070312 27.785156 10.480469 27.917969 C 11.464844 28.238281 12.515625 28.410156 13.605469 28.410156 C 19.21875 28.410156 23.773438 23.859375 23.773438 18.242188 C 23.773438 15.222656 22.453125 12.511719 20.363281 10.648438 " fill-opacity="1" fill-rule="nonzero"/></g><g clip-path="url(#6815bafd5e)"><path fill="#104069" d="M 19.960938 7.382812 C 19.574219 8.230469 18.105469 12.355469 17.226562 13.21875 C 16.46875 13.960938 15.949219 14.074219 14.832031 14.15625 C 12.074219 14.355469 8.414062 15.925781 6.59375 21.28125 C 6.59375 21.28125 9.546875 15.757812 13.65625 16.011719 C 14.933594 16.09375 15.453125 17.144531 15.433594 18.589844 C 15.332031 25.410156 5.136719 25.464844 4.828125 18.652344 C 4.820312 18.511719 4.816406 18.375 4.816406 18.234375 C 4.820312 13.523438 8.609375 9.613281 13.316406 9.460938 C 15.105469 9.402344 16.78125 9.882812 18.195312 10.75 C 18.382812 10.324219 18.566406 9.882812 18.738281 9.46875 C 17.152344 8.539062 15.296875 8.023438 13.316406 8.078125 C 7.875 8.230469 3.585938 12.71875 3.433594 18.15625 C 3.300781 23.003906 6.535156 25.253906 8.675781 25.855469 C 13.441406 27.191406 18.871094 24.183594 19.214844 14.777344 C 19.242188 14.046875 19.742188 11.324219 20.523438 8.597656 C 20.855469 7.433594 21.214844 5.554688 22.789062 4.917969 C 22.789062 4.917969 21.035156 5.054688 19.960938 7.382812 " fill-opacity="1" fill-rule="nonzero"/></g><path fill="#104069" d="M 16.949219 11.867188 C 16.949219 12.785156 16.203125 13.53125 15.285156 13.53125 C 14.367188 13.53125 13.621094 12.785156 13.621094 11.867188 C 13.621094 10.949219 14.367188 10.203125 15.285156 10.203125 C 16.203125 10.203125 16.949219 10.949219 16.949219 11.867188 " fill-opacity="1" fill-rule="nonzero"/><g clip-path="url(#d466cbe7f8)"><path fill="#ffde59" d="M 24.933594 0.625 C 23 2.710938 23 2.832031 24.933594 4.917969 C 22.847656 2.984375 22.726562 2.984375 20.640625 4.917969 C 22.574219 2.832031 22.574219 2.710938 20.640625 0.625 C 22.726562 2.558594 22.847656 2.558594 24.933594 0.625 " fill-opacity="1" fill-rule="nonzero"/></g><path fill="#ffde59" d="M 20.324219 3.230469 C 19.203125 4.4375 19.203125 4.507812 20.324219 5.714844 C 19.117188 4.597656 19.046875 4.597656 17.839844 5.714844 C 18.957031 4.507812 18.957031 4.4375 17.839844 3.230469 C 19.046875 4.351562 19.117188 4.351562 20.324219 3.230469 " fill-opacity="1" fill-rule="nonzero"/><g clip-path="url(#751daed04a)"><g clip-path="url(#0f7dbde5b4)"><g clip-path="url(#9de913c3a1)"><path fill="#e4094c" d="M 21.226562 7.496094 C 21.226562 7.496094 22.296875 6.4375 24.117188 7 C 24.054688 6.980469 22.835938 6.644531 21.375 7.683594 C 23.28125 9.898438 25.785156 6.859375 25.785156 6.859375 C 22.058594 4.753906 21.226562 7.496094 21.226562 7.496094 " fill-opacity="1" fill-rule="nonzero"/></g></g></g><g clip-path="url(#799df80528)"><g clip-path="url(#6130e778e3)"><g clip-path="url(#25adcefec8)"><path fill="#e4094c" d="M 23.066406 4.386719 C 23.066406 4.386719 23.695312 3.167969 25.425781 3.144531 C 25.425781 3.144531 25.429688 3.144531 25.429688 3.144531 C 25.425781 3.144531 25.425781 3.144531 25.425781 3.144531 C 25.367188 3.144531 24.21875 3.195312 23.246094 4.503906 C 25.519531 5.890625 26.832031 2.554688 26.832031 2.554688 C 23.015625 1.773438 23.066406 4.386719 23.066406 4.386719 " fill-opacity="1" fill-rule="nonzero"/></g></g></g><g clip-path="url(#4c565c759d)"><g clip-path="url(#023a735e3a)"><g clip-path="url(#a781d27c6f)"><path fill="#e4094c" d="M 21.21875 5.273438 C 21.21875 5.273438 21.53125 3.882812 20.164062 2.703125 C 20.210938 2.742188 21.09375 3.554688 20.996094 5.25 C 18.253906 4.835938 19.433594 1.292969 19.433594 1.292969 C 23.003906 3.226562 21.21875 5.273438 21.21875 5.273438 " fill-opacity="1" fill-rule="nonzero"/></g></g></g><g fill="#104069" fill-opacity="1"><g transform="translate(26.559417, 18.128934)"><g><path d="M 3.734375 -6.46875 C 4.828125 -6.46875 5.691406 -6.175781 6.328125 -5.59375 C 6.960938 -5.019531 7.28125 -4.234375 7.28125 -3.234375 C 7.28125 -2.234375 6.960938 -1.441406 6.328125 -0.859375 C 5.691406 -0.285156 4.828125 0 3.734375 0 L 0.390625 0 L 0.390625 -0.09375 L 0.515625 -0.09375 C 0.671875 -0.09375 0.804688 -0.148438 0.921875 -0.265625 C 1.035156 -0.378906 1.09375 -0.515625 1.09375 -0.671875 L 1.09375 -5.84375 C 1.09375 -5.988281 1.03125 -6.113281 0.90625 -6.21875 C 0.789062 -6.320312 0.660156 -6.375 0.515625 -6.375 L 0.390625 -6.375 L 0.390625 -6.46875 Z M 3.625 -0.390625 C 4.0625 -0.390625 4.441406 -0.503906 4.765625 -0.734375 C 5.085938 -0.960938 5.332031 -1.289062 5.5 -1.71875 C 5.675781 -2.144531 5.765625 -2.609375 5.765625 -3.109375 C 5.765625 -3.617188 5.710938 -4.050781 5.609375 -4.40625 C 5.515625 -4.757812 5.375 -5.0625 5.1875 -5.3125 C 4.8125 -5.820312 4.289062 -6.078125 3.625 -6.078125 L 2.484375 -6.078125 L 2.484375 -0.390625 Z M 3.625 -0.390625 "/></g></g></g><g fill="#104069" fill-opacity="1"><g transform="translate(34.202933, 18.128934)"><g><path d="M 1.4375 -5.6875 C 2.09375 -6.289062 2.972656 -6.59375 4.078125 -6.59375 C 5.191406 -6.59375 6.078125 -6.289062 6.734375 -5.6875 C 7.390625 -5.082031 7.71875 -4.265625 7.71875 -3.234375 C 7.71875 -2.203125 7.390625 -1.382812 6.734375 -0.78125 C 6.078125 -0.175781 5.191406 0.125 4.078125 0.125 C 2.972656 0.125 2.09375 -0.175781 1.4375 -0.78125 C 0.78125 -1.382812 0.453125 -2.203125 0.453125 -3.234375 C 0.453125 -4.265625 0.78125 -5.082031 1.4375 -5.6875 Z M 2.53125 -1.0625 C 2.914062 -0.53125 3.429688 -0.265625 4.078125 -0.265625 C 4.734375 -0.265625 5.25 -0.53125 5.625 -1.0625 C 6.007812 -1.59375 6.203125 -2.316406 6.203125 -3.234375 C 6.203125 -4.148438 6.007812 -4.875 5.625 -5.40625 C 5.25 -5.9375 4.734375 -6.203125 4.078125 -6.203125 C 3.429688 -6.203125 2.914062 -5.9375 2.53125 -5.40625 C 2.15625 -4.875 1.96875 -4.148438 1.96875 -3.234375 C 1.96875 -2.316406 2.15625 -1.59375 2.53125 -1.0625 Z M 2.53125 -1.0625 "/></g></g></g><g fill="#104069" fill-opacity="1"><g transform="translate(42.308008, 18.128934)"><g><path d="M 4.234375 0.125 C 3.046875 0.125 2.113281 -0.171875 1.4375 -0.765625 C 0.757812 -1.367188 0.421875 -2.191406 0.421875 -3.234375 C 0.421875 -4.273438 0.753906 -5.09375 1.421875 -5.6875 C 2.085938 -6.289062 3.007812 -6.59375 4.1875 -6.59375 C 5.070312 -6.59375 5.835938 -6.425781 6.484375 -6.09375 L 6.5 -4.5 L 6.421875 -4.5 C 6.109375 -5.632812 5.394531 -6.203125 4.28125 -6.203125 C 3.550781 -6.203125 2.972656 -5.9375 2.546875 -5.40625 C 2.128906 -4.882812 1.921875 -4.164062 1.921875 -3.25 C 1.921875 -2.34375 2.117188 -1.617188 2.515625 -1.078125 C 2.921875 -0.546875 3.472656 -0.273438 4.171875 -0.265625 C 4.878906 -0.265625 5.421875 -0.441406 5.796875 -0.796875 C 6.179688 -1.160156 6.445312 -1.796875 6.59375 -2.703125 L 6.671875 -2.703125 L 6.765625 -1.109375 C 6.265625 -0.285156 5.421875 0.125 4.234375 0.125 Z M 4.234375 0.125 "/></g></g></g><g fill="#104069" fill-opacity="1"><g transform="translate(49.508417, 18.128934)"><g><path d="M 3.78125 -6.078125 L 3.78125 -0.671875 C 3.78125 -0.503906 3.835938 -0.363281 3.953125 -0.25 C 4.066406 -0.144531 4.207031 -0.09375 4.375 -0.09375 L 4.484375 -0.09375 L 4.484375 0 L 1.6875 0 L 1.6875 -0.09375 L 1.796875 -0.09375 C 1.953125 -0.09375 2.085938 -0.144531 2.203125 -0.25 C 2.316406 -0.363281 2.378906 -0.5 2.390625 -0.65625 L 2.390625 -6.078125 L 1.140625 -6.078125 C 0.859375 -6.078125 0.632812 -5.988281 0.46875 -5.8125 C 0.300781 -5.644531 0.21875 -5.421875 0.21875 -5.140625 L 0.21875 -5.03125 L 0.125 -5.03125 L 0.125 -6.640625 C 0.382812 -6.535156 0.75 -6.476562 1.21875 -6.46875 L 4.9375 -6.46875 C 5.132812 -6.46875 5.34375 -6.484375 5.5625 -6.515625 C 5.789062 -6.554688 5.945312 -6.597656 6.03125 -6.640625 L 6.03125 -5.03125 L 5.9375 -5.03125 L 5.9375 -5.140625 C 5.9375 -5.523438 5.789062 -5.796875 5.5 -5.953125 C 5.363281 -6.035156 5.203125 -6.078125 5.015625 -6.078125 Z M 3.78125 -6.078125 "/></g></g></g><g fill="#104069" fill-opacity="1"><g transform="translate(55.656463, 18.128934)"><g><path d="M 1.4375 -5.6875 C 2.09375 -6.289062 2.972656 -6.59375 4.078125 -6.59375 C 5.191406 -6.59375 6.078125 -6.289062 6.734375 -5.6875 C 7.390625 -5.082031 7.71875 -4.265625 7.71875 -3.234375 C 7.71875 -2.203125 7.390625 -1.382812 6.734375 -0.78125 C 6.078125 -0.175781 5.191406 0.125 4.078125 0.125 C 2.972656 0.125 2.09375 -0.175781 1.4375 -0.78125 C 0.78125 -1.382812 0.453125 -2.203125 0.453125 -3.234375 C 0.453125 -4.265625 0.78125 -5.082031 1.4375 -5.6875 Z M 2.53125 -1.0625 C 2.914062 -0.53125 3.429688 -0.265625 4.078125 -0.265625 C 4.734375 -0.265625 5.25 -0.53125 5.625 -1.0625 C 6.007812 -1.59375 6.203125 -2.316406 6.203125 -3.234375 C 6.203125 -4.148438 6.007812 -4.875 5.625 -5.40625 C 5.25 -5.9375 4.734375 -6.203125 4.078125 -6.203125 C 3.429688 -6.203125 2.914062 -5.9375 2.53125 -5.40625 C 2.15625 -4.875 1.96875 -4.148438 1.96875 -3.234375 C 1.96875 -2.316406 2.15625 -1.59375 2.53125 -1.0625 Z M 2.53125 -1.0625 "/></g></g></g><g fill="#104069" fill-opacity="1"><g transform="translate(63.761538, 18.128934)"><g><path d="M 2.9375 -6.0625 L 2.546875 -6.0625 C 2.523438 -6.0625 2.515625 -6.0625 2.515625 -6.0625 L 2.515625 -0.671875 C 2.515625 -0.515625 2.570312 -0.378906 2.6875 -0.265625 C 2.800781 -0.148438 2.941406 -0.09375 3.109375 -0.09375 L 3.21875 -0.09375 L 3.21875 0 L 0.421875 0 L 0.421875 -0.09375 L 0.53125 -0.09375 C 0.757812 -0.09375 0.929688 -0.1875 1.046875 -0.375 C 1.097656 -0.46875 1.125 -0.566406 1.125 -0.671875 L 1.125 -5.796875 C 1.125 -5.953125 1.066406 -6.085938 0.953125 -6.203125 C 0.835938 -6.316406 0.695312 -6.375 0.53125 -6.375 L 0.421875 -6.375 L 0.421875 -6.46875 L 3.578125 -6.46875 C 4.179688 -6.46875 4.6875 -6.335938 5.09375 -6.078125 C 5.300781 -5.941406 5.46875 -5.757812 5.59375 -5.53125 C 5.71875 -5.300781 5.78125 -5 5.78125 -4.625 C 5.78125 -4.257812 5.648438 -3.898438 5.390625 -3.546875 C 5.128906 -3.203125 4.753906 -3.007812 4.265625 -2.96875 C 4.617188 -2.84375 4.929688 -2.570312 5.203125 -2.15625 C 5.867188 -1.082031 6.363281 -0.445312 6.6875 -0.25 C 6.84375 -0.15625 7.039062 -0.101562 7.28125 -0.09375 L 7.28125 0 L 6.375 0 C 5.84375 0 5.398438 -0.0664062 5.046875 -0.203125 C 4.691406 -0.347656 4.410156 -0.597656 4.203125 -0.953125 C 4.085938 -1.160156 3.832031 -1.691406 3.4375 -2.546875 C 3.269531 -2.921875 3.0625 -3.125 2.8125 -3.15625 L 2.8125 -3.25 L 3.109375 -3.25 C 3.378906 -3.25 3.617188 -3.332031 3.828125 -3.5 C 4.046875 -3.664062 4.191406 -3.9375 4.265625 -4.3125 C 4.285156 -4.4375 4.296875 -4.539062 4.296875 -4.625 C 4.296875 -5.125 4.191406 -5.484375 3.984375 -5.703125 C 3.785156 -5.929688 3.53125 -6.050781 3.21875 -6.0625 C 3.15625 -6.0625 3.0625 -6.0625 2.9375 -6.0625 Z M 2.9375 -6.0625 "/></g></g></g><g fill="#104069" fill-opacity="1"><g transform="translate(70.65732, 18.128934)"><g><path d="M 0.421875 -5.3125 C 0.703125 -5.414062 0.84375 -5.609375 0.84375 -5.890625 C 0.84375 -6.054688 0.769531 -6.21875 0.625 -6.375 C 0.488281 -6.539062 0.421875 -6.722656 0.421875 -6.921875 C 0.421875 -7.117188 0.476562 -7.273438 0.59375 -7.390625 C 0.71875 -7.515625 0.863281 -7.578125 1.03125 -7.578125 C 1.363281 -7.578125 1.597656 -7.429688 1.734375 -7.140625 C 1.816406 -6.953125 1.859375 -6.796875 1.859375 -6.671875 C 1.859375 -6.328125 1.785156 -6.039062 1.640625 -5.8125 C 1.367188 -5.394531 1.019531 -5.1875 0.59375 -5.1875 C 0.539062 -5.1875 0.488281 -5.191406 0.4375 -5.203125 Z M 0.421875 -5.3125 "/></g></g></g><g fill="#104069" fill-opacity="1"><g transform="translate(72.882062, 18.128934)"><g><path d="M 0.46875 -0.859375 C 0.46875 -1.304688 0.5625 -1.6875 0.75 -2 L 0.828125 -2 C 0.828125 -1.945312 0.828125 -1.894531 0.828125 -1.84375 C 0.828125 -1.414062 0.976562 -1.046875 1.28125 -0.734375 C 1.582031 -0.421875 2 -0.265625 2.53125 -0.265625 C 2.945312 -0.265625 3.269531 -0.359375 3.5 -0.546875 C 3.726562 -0.742188 3.84375 -0.992188 3.84375 -1.296875 C 3.84375 -1.472656 3.785156 -1.632812 3.671875 -1.78125 C 3.554688 -1.925781 3.367188 -2.082031 3.109375 -2.25 L 1.5 -3.3125 C 0.894531 -3.71875 0.59375 -4.210938 0.59375 -4.796875 C 0.59375 -4.859375 0.601562 -4.921875 0.625 -4.984375 C 0.65625 -5.460938 0.84375 -5.847656 1.1875 -6.140625 C 1.53125 -6.441406 1.988281 -6.59375 2.5625 -6.59375 C 2.894531 -6.59375 3.3125 -6.5625 3.8125 -6.5 L 4.390625 -6.5 L 4.28125 -5.140625 L 4.1875 -5.140625 C 4.1875 -5.460938 4.066406 -5.71875 3.828125 -5.90625 C 3.585938 -6.101562 3.269531 -6.203125 2.875 -6.203125 C 2.394531 -6.203125 2.050781 -6.054688 1.84375 -5.765625 C 1.726562 -5.617188 1.671875 -5.472656 1.671875 -5.328125 C 1.671875 -5.191406 1.695312 -5.078125 1.75 -4.984375 C 1.84375 -4.816406 2.03125 -4.640625 2.3125 -4.453125 L 4.078125 -3.3125 C 4.628906 -2.945312 4.90625 -2.472656 4.90625 -1.890625 C 4.90625 -1.242188 4.679688 -0.742188 4.234375 -0.390625 C 3.796875 -0.046875 3.207031 0.125 2.46875 0.125 C 2.050781 0.125 1.664062 0.078125 1.3125 -0.015625 C 0.957031 -0.117188 0.695312 -0.257812 0.53125 -0.4375 C 0.488281 -0.550781 0.46875 -0.691406 0.46875 -0.859375 Z M 0.46875 -0.859375 "/></g></g></g><g fill="#000000" fill-opacity="1"><g transform="translate(78.227764, 18.128934)"><g/></g></g><g fill="#000000" fill-opacity="1"><g transform="translate(80.53559, 18.128934)"><g/></g></g><g fill="#e4094c" fill-opacity="1"><g transform="translate(82.843439, 18.128934)"><g><path d="M 3.734375 -6.46875 C 4.828125 -6.46875 5.691406 -6.175781 6.328125 -5.59375 C 6.960938 -5.019531 7.28125 -4.234375 7.28125 -3.234375 C 7.28125 -2.234375 6.960938 -1.441406 6.328125 -0.859375 C 5.691406 -0.285156 4.828125 0 3.734375 0 L 0.390625 0 L 0.390625 -0.09375 L 0.515625 -0.09375 C 0.671875 -0.09375 0.804688 -0.148438 0.921875 -0.265625 C 1.035156 -0.378906 1.09375 -0.515625 1.09375 -0.671875 L 1.09375 -5.84375 C 1.09375 -5.988281 1.03125 -6.113281 0.90625 -6.21875 C 0.789062 -6.320312 0.660156 -6.375 0.515625 -6.375 L 0.390625 -6.375 L 0.390625 -6.46875 Z M 3.625 -0.390625 C 4.0625 -0.390625 4.441406 -0.503906 4.765625 -0.734375 C 5.085938 -0.960938 5.332031 -1.289062 5.5 -1.71875 C 5.675781 -2.144531 5.765625 -2.609375 5.765625 -3.109375 C 5.765625 -3.617188 5.710938 -4.050781 5.609375 -4.40625 C 5.515625 -4.757812 5.375 -5.0625 5.1875 -5.3125 C 4.8125 -5.820312 4.289062 -6.078125 3.625 -6.078125 L 2.484375 -6.078125 L 2.484375 -0.390625 Z M 3.625 -0.390625 "/></g></g></g><g fill="#e4094c" fill-opacity="1"><g transform="translate(90.486955, 18.128934)"><g><path d="M 0.515625 -0.09375 C 0.671875 -0.09375 0.804688 -0.148438 0.921875 -0.265625 C 1.035156 -0.378906 1.09375 -0.515625 1.09375 -0.671875 L 1.09375 -5.796875 C 1.09375 -5.960938 1.035156 -6.097656 0.921875 -6.203125 C 0.804688 -6.316406 0.671875 -6.375 0.515625 -6.375 L 0.390625 -6.375 L 0.390625 -6.46875 L 3.1875 -6.46875 L 3.1875 -6.375 L 3.078125 -6.375 C 2.910156 -6.375 2.769531 -6.316406 2.65625 -6.203125 C 2.539062 -6.097656 2.484375 -5.960938 2.484375 -5.796875 L 2.484375 -0.671875 C 2.484375 -0.515625 2.539062 -0.378906 2.65625 -0.265625 C 2.769531 -0.148438 2.910156 -0.09375 3.078125 -0.09375 L 3.1875 -0.09375 L 3.1875 0 L 0.390625 0 L 0.390625 -0.09375 Z M 0.515625 -0.09375 "/></g></g></g><g fill="#e4094c" fill-opacity="1"><g transform="translate(94.050236, 18.128934)"><g><path d="M 6.828125 -0.09375 L 6.90625 -0.09375 L 6.90625 0 L 3.953125 0 L 3.953125 -0.09375 L 4.046875 -0.09375 C 4.179688 -0.09375 4.28125 -0.132812 4.34375 -0.21875 C 4.40625 -0.300781 4.4375 -0.378906 4.4375 -0.453125 C 4.4375 -0.523438 4.421875 -0.597656 4.390625 -0.671875 L 3.9375 -1.8125 L 1.78125 -1.8125 L 1.296875 -0.671875 C 1.265625 -0.585938 1.25 -0.507812 1.25 -0.4375 C 1.25 -0.375 1.28125 -0.300781 1.34375 -0.21875 C 1.414062 -0.132812 1.519531 -0.09375 1.65625 -0.09375 L 1.734375 -0.09375 L 1.734375 0 L -0.25 0 L -0.25 -0.09375 L -0.15625 -0.09375 C -0.0195312 -0.09375 0.117188 -0.132812 0.265625 -0.21875 C 0.410156 -0.300781 0.523438 -0.429688 0.609375 -0.609375 L 2.75 -5.4375 C 3.039062 -6.050781 3.191406 -6.457031 3.203125 -6.65625 L 3.296875 -6.65625 L 6.03125 -0.625 C 6.125 -0.445312 6.238281 -0.3125 6.375 -0.21875 C 6.519531 -0.132812 6.671875 -0.09375 6.828125 -0.09375 Z M 1.9375 -2.203125 L 3.78125 -2.203125 L 2.890625 -4.46875 Z M 1.9375 -2.203125 "/></g></g></g><g fill="#e4094c" fill-opacity="1"><g transform="translate(100.659841, 18.128934)"><g><path d="M 2.9375 -6.0625 L 2.546875 -6.0625 C 2.523438 -6.0625 2.515625 -6.0625 2.515625 -6.0625 L 2.515625 -0.671875 C 2.515625 -0.515625 2.570312 -0.378906 2.6875 -0.265625 C 2.800781 -0.148438 2.941406 -0.09375 3.109375 -0.09375 L 3.21875 -0.09375 L 3.21875 0 L 0.421875 0 L 0.421875 -0.09375 L 0.53125 -0.09375 C 0.757812 -0.09375 0.929688 -0.1875 1.046875 -0.375 C 1.097656 -0.46875 1.125 -0.566406 1.125 -0.671875 L 1.125 -5.796875 C 1.125 -5.953125 1.066406 -6.085938 0.953125 -6.203125 C 0.835938 -6.316406 0.695312 -6.375 0.53125 -6.375 L 0.421875 -6.375 L 0.421875 -6.46875 L 3.578125 -6.46875 C 4.179688 -6.46875 4.6875 -6.335938 5.09375 -6.078125 C 5.300781 -5.941406 5.46875 -5.757812 5.59375 -5.53125 C 5.71875 -5.300781 5.78125 -5 5.78125 -4.625 C 5.78125 -4.257812 5.648438 -3.898438 5.390625 -3.546875 C 5.128906 -3.203125 4.753906 -3.007812 4.265625 -2.96875 C 4.617188 -2.84375 4.929688 -2.570312 5.203125 -2.15625 C 5.867188 -1.082031 6.363281 -0.445312 6.6875 -0.25 C 6.84375 -0.15625 7.039062 -0.101562 7.28125 -0.09375 L 7.28125 0 L 6.375 0 C 5.84375 0 5.398438 -0.0664062 5.046875 -0.203125 C 4.691406 -0.347656 4.410156 -0.597656 4.203125 -0.953125 C 4.085938 -1.160156 3.832031 -1.691406 3.4375 -2.546875 C 3.269531 -2.921875 3.0625 -3.125 2.8125 -3.15625 L 2.8125 -3.25 L 3.109375 -3.25 C 3.378906 -3.25 3.617188 -3.332031 3.828125 -3.5 C 4.046875 -3.664062 4.191406 -3.9375 4.265625 -4.3125 C 4.285156 -4.4375 4.296875 -4.539062 4.296875 -4.625 C 4.296875 -5.125 4.191406 -5.484375 3.984375 -5.703125 C 3.785156 -5.929688 3.53125 -6.050781 3.21875 -6.0625 C 3.15625 -6.0625 3.0625 -6.0625 2.9375 -6.0625 Z M 2.9375 -6.0625 "/></g></g></g><g fill="#e4094c" fill-opacity="1"><g transform="translate(107.555622, 18.128934)"><g><path d="M 6.796875 -6.375 L 6.671875 -6.375 C 6.484375 -6.375 6.304688 -6.320312 6.140625 -6.21875 C 5.972656 -6.113281 5.835938 -5.988281 5.734375 -5.84375 L 3.921875 -2.9375 L 3.921875 -0.671875 C 3.921875 -0.515625 3.976562 -0.378906 4.09375 -0.265625 C 4.207031 -0.148438 4.347656 -0.09375 4.515625 -0.09375 L 4.625 -0.09375 L 4.640625 0 L 1.828125 0 L 1.828125 -0.09375 L 1.953125 -0.09375 C 2.109375 -0.09375 2.242188 -0.144531 2.359375 -0.25 C 2.472656 -0.363281 2.53125 -0.503906 2.53125 -0.671875 L 2.53125 -2.953125 L 0.765625 -5.84375 C 0.679688 -5.988281 0.550781 -6.113281 0.375 -6.21875 C 0.207031 -6.320312 0.0351562 -6.375 -0.140625 -6.375 L -0.265625 -6.375 L -0.265625 -6.46875 L 2.78125 -6.46875 L 2.78125 -6.375 L 2.671875 -6.375 C 2.535156 -6.375 2.429688 -6.3125 2.359375 -6.1875 C 2.316406 -6.113281 2.296875 -6.046875 2.296875 -5.984375 C 2.296875 -5.921875 2.3125 -5.859375 2.34375 -5.796875 L 3.65625 -3.390625 L 5.046875 -5.796875 C 5.066406 -5.859375 5.078125 -5.921875 5.078125 -5.984375 C 5.078125 -6.046875 5.054688 -6.109375 5.015625 -6.171875 C 4.941406 -6.304688 4.835938 -6.375 4.703125 -6.375 L 4.59375 -6.375 L 4.59375 -6.46875 L 6.796875 -6.46875 Z M 6.796875 -6.375 "/></g></g></g><g fill="#e4094c" fill-opacity="1"><g transform="translate(26.07304, 24.043892)"><g><path d="M 2.90625 -0.046875 L 2.9375 -0.046875 L 2.9375 0 L 1.6875 0 L 1.6875 -0.046875 L 1.71875 -0.046875 C 1.769531 -0.046875 1.8125 -0.0625 1.84375 -0.09375 C 1.875 -0.125 1.890625 -0.15625 1.890625 -0.1875 C 1.890625 -0.21875 1.878906 -0.25 1.859375 -0.28125 L 1.671875 -0.765625 L 0.75 -0.765625 L 0.546875 -0.28125 C 0.535156 -0.25 0.53125 -0.21875 0.53125 -0.1875 C 0.53125 -0.15625 0.539062 -0.125 0.5625 -0.09375 C 0.59375 -0.0625 0.640625 -0.046875 0.703125 -0.046875 L 0.734375 -0.046875 L 0.734375 0 L -0.109375 0 L -0.109375 -0.046875 L -0.078125 -0.046875 C -0.015625 -0.046875 0.046875 -0.0625 0.109375 -0.09375 C 0.171875 -0.132812 0.21875 -0.191406 0.25 -0.265625 L 1.171875 -2.3125 C 1.285156 -2.570312 1.347656 -2.742188 1.359375 -2.828125 L 1.390625 -2.828125 L 2.5625 -0.265625 C 2.601562 -0.191406 2.65625 -0.132812 2.71875 -0.09375 C 2.78125 -0.0625 2.84375 -0.046875 2.90625 -0.046875 Z M 0.8125 -0.9375 L 1.609375 -0.9375 L 1.21875 -1.90625 Z M 0.8125 -0.9375 "/></g></g></g><g fill="#e4094c" fill-opacity="1"><g transform="translate(29.81108, 24.043892)"><g><path d="M 0.21875 -0.046875 C 0.28125 -0.046875 0.335938 -0.0664062 0.390625 -0.109375 C 0.441406 -0.160156 0.46875 -0.21875 0.46875 -0.28125 L 0.46875 -2.46875 C 0.46875 -2.539062 0.441406 -2.597656 0.390625 -2.640625 C 0.335938 -2.691406 0.28125 -2.71875 0.21875 -2.71875 L 0.171875 -2.71875 L 0.171875 -2.75 L 1.359375 -2.75 L 1.359375 -2.71875 L 1.3125 -2.71875 C 1.238281 -2.71875 1.175781 -2.691406 1.125 -2.640625 C 1.082031 -2.597656 1.0625 -2.539062 1.0625 -2.46875 L 1.0625 -0.171875 L 1.578125 -0.171875 C 1.765625 -0.171875 1.921875 -0.222656 2.046875 -0.328125 C 2.179688 -0.441406 2.28125 -0.597656 2.34375 -0.796875 L 2.390625 -0.796875 L 2.203125 0 L 0.171875 0 L 0.171875 -0.046875 Z M 0.21875 -0.046875 "/></g></g></g><g fill="#e4094c" fill-opacity="1"><g transform="translate(33.156059, 24.043892)"><g><path d="M 3.9375 -2.71875 L 3.90625 -2.71875 C 3.832031 -2.71875 3.765625 -2.695312 3.703125 -2.65625 C 3.640625 -2.613281 3.59375 -2.554688 3.5625 -2.484375 L 2.890625 -0.359375 C 2.847656 -0.222656 2.828125 -0.09375 2.828125 0.03125 C 2.828125 0.0507812 2.828125 0.0664062 2.828125 0.078125 L 2.796875 0.078125 L 1.9375 -1.828125 L 1.3125 -0.359375 C 1.25 -0.210938 1.21875 -0.0664062 1.21875 0.078125 L 1.171875 0.078125 L 0.234375 -2.484375 C 0.203125 -2.566406 0.15625 -2.625 0.09375 -2.65625 C 0.03125 -2.695312 -0.0351562 -2.71875 -0.109375 -2.71875 L -0.140625 -2.71875 L -0.140625 -2.75 L 1.0625 -2.75 L 1.0625 -2.71875 L 1.03125 -2.71875 C 0.976562 -2.71875 0.9375 -2.695312 0.90625 -2.65625 C 0.875 -2.625 0.859375 -2.59375 0.859375 -2.5625 C 0.859375 -2.53125 0.863281 -2.5 0.875 -2.46875 L 1.359375 -1.109375 L 2.078125 -2.8125 L 2.109375 -2.8125 L 2.890625 -1.09375 L 3.296875 -2.46875 C 3.296875 -2.5 3.296875 -2.53125 3.296875 -2.5625 C 3.296875 -2.59375 3.285156 -2.625 3.265625 -2.65625 C 3.242188 -2.695312 3.203125 -2.71875 3.140625 -2.71875 L 3.109375 -2.71875 L 3.109375 -2.75 L 3.9375 -2.75 Z M 3.9375 -2.71875 "/></g></g></g><g fill="#e4094c" fill-opacity="1"><g transform="translate(37.896417, 24.043892)"><g><path d="M 2.90625 -0.046875 L 2.9375 -0.046875 L 2.9375 0 L 1.6875 0 L 1.6875 -0.046875 L 1.71875 -0.046875 C 1.769531 -0.046875 1.8125 -0.0625 1.84375 -0.09375 C 1.875 -0.125 1.890625 -0.15625 1.890625 -0.1875 C 1.890625 -0.21875 1.878906 -0.25 1.859375 -0.28125 L 1.671875 -0.765625 L 0.75 -0.765625 L 0.546875 -0.28125 C 0.535156 -0.25 0.53125 -0.21875 0.53125 -0.1875 C 0.53125 -0.15625 0.539062 -0.125 0.5625 -0.09375 C 0.59375 -0.0625 0.640625 -0.046875 0.703125 -0.046875 L 0.734375 -0.046875 L 0.734375 0 L -0.109375 0 L -0.109375 -0.046875 L -0.078125 -0.046875 C -0.015625 -0.046875 0.046875 -0.0625 0.109375 -0.09375 C 0.171875 -0.132812 0.21875 -0.191406 0.25 -0.265625 L 1.171875 -2.3125 C 1.285156 -2.570312 1.347656 -2.742188 1.359375 -2.828125 L 1.390625 -2.828125 L 2.5625 -0.265625 C 2.601562 -0.191406 2.65625 -0.132812 2.71875 -0.09375 C 2.78125 -0.0625 2.84375 -0.046875 2.90625 -0.046875 Z M 0.8125 -0.9375 L 1.609375 -0.9375 L 1.21875 -1.90625 Z M 0.8125 -0.9375 "/></g></g></g><g fill="#e4094c" fill-opacity="1"><g transform="translate(41.634457, 24.043892)"><g><path d="M 2.890625 -2.71875 L 2.828125 -2.71875 C 2.753906 -2.71875 2.679688 -2.691406 2.609375 -2.640625 C 2.535156 -2.597656 2.476562 -2.546875 2.4375 -2.484375 L 1.671875 -1.25 L 1.671875 -0.28125 C 1.671875 -0.21875 1.691406 -0.160156 1.734375 -0.109375 C 1.785156 -0.0664062 1.847656 -0.046875 1.921875 -0.046875 L 1.96875 -0.046875 L 1.96875 0 L 0.765625 0 L 0.765625 -0.046875 L 0.828125 -0.046875 C 0.890625 -0.046875 0.945312 -0.0664062 1 -0.109375 C 1.050781 -0.160156 1.078125 -0.21875 1.078125 -0.28125 L 1.078125 -1.25 L 0.328125 -2.5 C 0.285156 -2.5625 0.226562 -2.613281 0.15625 -2.65625 C 0.0820312 -2.695312 0.0078125 -2.71875 -0.0625 -2.71875 L -0.125 -2.71875 L -0.125 -2.75 L 1.1875 -2.75 L 1.1875 -2.71875 L 1.125 -2.71875 C 1.070312 -2.71875 1.03125 -2.691406 1 -2.640625 C 0.976562 -2.609375 0.96875 -2.578125 0.96875 -2.546875 C 0.96875 -2.523438 0.976562 -2.5 1 -2.46875 L 1.5625 -1.453125 L 2.140625 -2.46875 C 2.148438 -2.5 2.15625 -2.523438 2.15625 -2.546875 C 2.15625 -2.578125 2.148438 -2.609375 2.140625 -2.640625 C 2.109375 -2.691406 2.0625 -2.71875 2 -2.71875 L 1.953125 -2.71875 L 1.953125 -2.75 L 2.890625 -2.75 Z M 2.890625 -2.71875 "/></g></g></g><g fill="#e4094c" fill-opacity="1"><g transform="translate(45.317469, 24.043892)"><g><path d="M 0.203125 -0.359375 C 0.203125 -0.554688 0.238281 -0.71875 0.3125 -0.84375 L 0.359375 -0.84375 C 0.347656 -0.820312 0.34375 -0.800781 0.34375 -0.78125 C 0.34375 -0.601562 0.40625 -0.445312 0.53125 -0.3125 C 0.664062 -0.175781 0.847656 -0.109375 1.078125 -0.109375 C 1.253906 -0.109375 1.390625 -0.148438 1.484375 -0.234375 C 1.585938 -0.316406 1.640625 -0.425781 1.640625 -0.5625 C 1.640625 -0.632812 1.613281 -0.695312 1.5625 -0.75 C 1.519531 -0.8125 1.441406 -0.878906 1.328125 -0.953125 L 0.640625 -1.40625 C 0.378906 -1.582031 0.25 -1.796875 0.25 -2.046875 C 0.25 -2.066406 0.253906 -2.09375 0.265625 -2.125 C 0.273438 -2.332031 0.351562 -2.5 0.5 -2.625 C 0.644531 -2.75 0.84375 -2.8125 1.09375 -2.8125 C 1.238281 -2.8125 1.414062 -2.796875 1.625 -2.765625 L 1.875 -2.765625 L 1.828125 -2.1875 L 1.78125 -2.1875 C 1.78125 -2.320312 1.726562 -2.429688 1.625 -2.515625 C 1.53125 -2.597656 1.398438 -2.640625 1.234375 -2.640625 C 1.023438 -2.640625 0.875 -2.578125 0.78125 -2.453125 C 0.738281 -2.390625 0.71875 -2.328125 0.71875 -2.265625 C 0.71875 -2.210938 0.726562 -2.164062 0.75 -2.125 C 0.78125 -2.050781 0.859375 -1.976562 0.984375 -1.90625 L 1.734375 -1.40625 C 1.972656 -1.257812 2.09375 -1.0625 2.09375 -0.8125 C 2.09375 -0.53125 2 -0.3125 1.8125 -0.15625 C 1.625 -0.0078125 1.367188 0.0625 1.046875 0.0625 C 0.867188 0.0625 0.703125 0.0390625 0.546875 0 C 0.398438 -0.0507812 0.289062 -0.113281 0.21875 -0.1875 C 0.207031 -0.238281 0.203125 -0.296875 0.203125 -0.359375 Z M 0.203125 -0.359375 "/></g></g></g><g fill="#ff66c4" fill-opacity="1"><g transform="translate(48.51546, 24.043892)"><g/></g></g><g fill="#ff66c4" fill-opacity="1"><g transform="translate(50.421817, 24.043892)"><g/></g></g><g fill="#104069" fill-opacity="1"><g transform="translate(52.328368, 24.043892)"><g><path d="M 1.59375 -2.75 C 2.0625 -2.75 2.429688 -2.625 2.703125 -2.375 C 2.972656 -2.132812 3.109375 -1.800781 3.109375 -1.375 C 3.109375 -0.945312 2.972656 -0.609375 2.703125 -0.359375 C 2.429688 -0.117188 2.0625 0 1.59375 0 L 0.171875 0 L 0.171875 -0.046875 L 0.21875 -0.046875 C 0.28125 -0.046875 0.335938 -0.0664062 0.390625 -0.109375 C 0.441406 -0.160156 0.46875 -0.21875 0.46875 -0.28125 L 0.46875 -2.5 C 0.46875 -2.5625 0.441406 -2.613281 0.390625 -2.65625 C 0.335938 -2.695312 0.28125 -2.71875 0.21875 -2.71875 L 0.171875 -2.71875 L 0.171875 -2.75 Z M 1.546875 -0.171875 C 1.734375 -0.171875 1.894531 -0.21875 2.03125 -0.3125 C 2.164062 -0.40625 2.269531 -0.546875 2.34375 -0.734375 C 2.414062 -0.921875 2.453125 -1.117188 2.453125 -1.328125 C 2.453125 -1.546875 2.429688 -1.726562 2.390625 -1.875 C 2.347656 -2.03125 2.289062 -2.160156 2.21875 -2.265625 C 2.050781 -2.484375 1.828125 -2.59375 1.546875 -2.59375 L 1.0625 -2.59375 L 1.0625 -0.171875 Z M 1.546875 -0.171875 "/></g></g></g><g fill="#104069" fill-opacity="1"><g transform="translate(56.506641, 24.043892)"><g><path d="M 1.25 -2.578125 L 1.078125 -2.578125 L 1.078125 -0.28125 C 1.078125 -0.21875 1.097656 -0.160156 1.140625 -0.109375 C 1.191406 -0.0664062 1.253906 -0.046875 1.328125 -0.046875 L 1.375 -0.046875 L 1.375 0 L 0.171875 0 L 0.171875 -0.046875 L 0.234375 -0.046875 C 0.328125 -0.046875 0.394531 -0.0820312 0.4375 -0.15625 C 0.457031 -0.195312 0.472656 -0.238281 0.484375 -0.28125 L 0.484375 -2.46875 C 0.472656 -2.539062 0.441406 -2.597656 0.390625 -2.640625 C 0.347656 -2.691406 0.296875 -2.71875 0.234375 -2.71875 L 0.171875 -2.71875 L 0.171875 -2.75 L 1.53125 -2.75 C 1.78125 -2.75 1.992188 -2.695312 2.171875 -2.59375 C 2.265625 -2.539062 2.335938 -2.460938 2.390625 -2.359375 C 2.441406 -2.265625 2.46875 -2.132812 2.46875 -1.96875 C 2.46875 -1.8125 2.410156 -1.660156 2.296875 -1.515625 C 2.191406 -1.367188 2.03125 -1.285156 1.8125 -1.265625 C 1.96875 -1.210938 2.101562 -1.097656 2.21875 -0.921875 C 2.5 -0.460938 2.707031 -0.191406 2.84375 -0.109375 C 2.914062 -0.0664062 3.003906 -0.046875 3.109375 -0.046875 L 3.109375 0 L 2.71875 0 C 2.488281 0 2.296875 -0.03125 2.140625 -0.09375 C 1.992188 -0.15625 1.878906 -0.257812 1.796875 -0.40625 C 1.742188 -0.5 1.632812 -0.722656 1.46875 -1.078125 C 1.394531 -1.242188 1.304688 -1.332031 1.203125 -1.34375 L 1.203125 -1.390625 L 1.328125 -1.390625 C 1.441406 -1.390625 1.539062 -1.421875 1.625 -1.484375 C 1.71875 -1.554688 1.78125 -1.675781 1.8125 -1.84375 C 1.820312 -1.894531 1.828125 -1.9375 1.828125 -1.96875 C 1.828125 -2.1875 1.785156 -2.34375 1.703125 -2.4375 C 1.617188 -2.53125 1.507812 -2.578125 1.375 -2.578125 C 1.34375 -2.578125 1.300781 -2.578125 1.25 -2.578125 Z M 1.25 -2.578125 "/></g></g></g><g fill="#104069" fill-opacity="1"><g transform="translate(60.366534, 24.043892)"><g><path d="M 0.21875 -0.046875 C 0.28125 -0.046875 0.335938 -0.0664062 0.390625 -0.109375 C 0.441406 -0.160156 0.46875 -0.21875 0.46875 -0.28125 L 0.46875 -2.46875 C 0.46875 -2.539062 0.441406 -2.597656 0.390625 -2.640625 C 0.335938 -2.691406 0.28125 -2.71875 0.21875 -2.71875 L 0.171875 -2.71875 L 0.171875 -2.75 L 1.359375 -2.75 L 1.359375 -2.71875 L 1.3125 -2.71875 C 1.238281 -2.71875 1.175781 -2.691406 1.125 -2.640625 C 1.082031 -2.597656 1.0625 -2.539062 1.0625 -2.46875 L 1.0625 -0.28125 C 1.0625 -0.21875 1.082031 -0.160156 1.125 -0.109375 C 1.175781 -0.0664062 1.238281 -0.046875 1.3125 -0.046875 L 1.359375 -0.046875 L 1.359375 0 L 0.171875 0 L 0.171875 -0.046875 Z M 0.21875 -0.046875 "/></g></g></g><g fill="#104069" fill-opacity="1"><g transform="translate(62.807461, 24.043892)"><g><path d="M 3.21875 -2.71875 C 3.125 -2.71875 3.054688 -2.675781 3.015625 -2.59375 C 2.992188 -2.5625 2.976562 -2.523438 2.96875 -2.484375 L 2.96875 -0.453125 C 2.96875 -0.273438 2.984375 -0.125 3.015625 0 L 3.015625 0.0625 L 2.984375 0.0625 L 1 -1.84375 L 1 -0.28125 C 1 -0.207031 1.019531 -0.148438 1.0625 -0.109375 C 1.113281 -0.0664062 1.171875 -0.046875 1.234375 -0.046875 L 1.3125 -0.046875 L 1.3125 0 L 0.125 0 L 0.125 -0.046875 L 0.1875 -0.046875 C 0.257812 -0.046875 0.316406 -0.0664062 0.359375 -0.109375 C 0.410156 -0.148438 0.4375 -0.207031 0.4375 -0.28125 L 0.4375 -2.328125 C 0.4375 -2.492188 0.421875 -2.632812 0.390625 -2.75 L 0.390625 -2.8125 L 0.421875 -2.8125 L 2.40625 -0.921875 L 2.40625 -2.484375 C 2.40625 -2.546875 2.378906 -2.597656 2.328125 -2.640625 C 2.285156 -2.691406 2.234375 -2.71875 2.171875 -2.71875 L 2.09375 -2.71875 L 2.09375 -2.75 L 3.296875 -2.75 L 3.296875 -2.71875 Z M 3.21875 -2.71875 "/></g></g></g><g fill="#104069" fill-opacity="1"><g transform="translate(67.131167, 24.043892)"><g><path d="M 0.21875 -0.046875 C 0.28125 -0.046875 0.335938 -0.0664062 0.390625 -0.109375 C 0.441406 -0.160156 0.46875 -0.21875 0.46875 -0.28125 L 0.46875 -2.46875 C 0.46875 -2.5625 0.425781 -2.632812 0.34375 -2.6875 C 0.300781 -2.707031 0.257812 -2.71875 0.21875 -2.71875 L 0.171875 -2.71875 L 0.171875 -2.75 L 1.359375 -2.75 L 1.359375 -2.71875 L 1.3125 -2.71875 C 1.21875 -2.71875 1.144531 -2.675781 1.09375 -2.59375 C 1.070312 -2.5625 1.0625 -2.519531 1.0625 -2.46875 L 1.0625 -0.28125 C 1.0625 -0.21875 1.082031 -0.160156 1.125 -0.109375 C 1.175781 -0.0664062 1.238281 -0.046875 1.3125 -0.046875 L 1.359375 -0.046875 L 1.359375 0 L 0.171875 0 L 0.171875 -0.046875 Z M 3.0625 0 L 2.734375 0 C 2.335938 0 2.054688 -0.109375 1.890625 -0.328125 C 1.421875 -0.960938 1.1875 -1.285156 1.1875 -1.296875 L 2.125 -2.53125 C 2.144531 -2.5625 2.15625 -2.585938 2.15625 -2.609375 C 2.15625 -2.628906 2.148438 -2.644531 2.140625 -2.65625 C 2.117188 -2.695312 2.082031 -2.71875 2.03125 -2.71875 L 1.984375 -2.71875 L 1.984375 -2.75 L 2.890625 -2.75 L 2.890625 -2.71875 L 2.875 -2.71875 C 2.695312 -2.71875 2.550781 -2.65625 2.4375 -2.53125 L 1.671875 -1.625 L 2.65625 -0.28125 C 2.78125 -0.125 2.914062 -0.046875 3.0625 -0.046875 Z M 3.0625 0 "/></g></g></g><g fill="#fda58d" fill-opacity="1"><g transform="translate(71.03465, 24.043892)"><g/></g></g><g fill="#ff66c4" fill-opacity="1"><g transform="translate(72.943664, 24.043892)"><g/></g></g><g fill="#e4094c" fill-opacity="1"><g transform="translate(74.852677, 24.043892)"><g><path d="M 3.9375 -2.71875 L 3.90625 -2.71875 C 3.832031 -2.71875 3.765625 -2.695312 3.703125 -2.65625 C 3.640625 -2.613281 3.59375 -2.554688 3.5625 -2.484375 L 2.890625 -0.359375 C 2.847656 -0.222656 2.828125 -0.09375 2.828125 0.03125 C 2.828125 0.0507812 2.828125 0.0664062 2.828125 0.078125 L 2.796875 0.078125 L 1.9375 -1.828125 L 1.3125 -0.359375 C 1.25 -0.210938 1.21875 -0.0664062 1.21875 0.078125 L 1.171875 0.078125 L 0.234375 -2.484375 C 0.203125 -2.566406 0.15625 -2.625 0.09375 -2.65625 C 0.03125 -2.695312 -0.0351562 -2.71875 -0.109375 -2.71875 L -0.140625 -2.71875 L -0.140625 -2.75 L 1.0625 -2.75 L 1.0625 -2.71875 L 1.03125 -2.71875 C 0.976562 -2.71875 0.9375 -2.695312 0.90625 -2.65625 C 0.875 -2.625 0.859375 -2.59375 0.859375 -2.5625 C 0.859375 -2.53125 0.863281 -2.5 0.875 -2.46875 L 1.359375 -1.109375 L 2.078125 -2.8125 L 2.109375 -2.8125 L 2.890625 -1.09375 L 3.296875 -2.46875 C 3.296875 -2.5 3.296875 -2.53125 3.296875 -2.5625 C 3.296875 -2.59375 3.285156 -2.625 3.265625 -2.65625 C 3.242188 -2.695312 3.203125 -2.71875 3.140625 -2.71875 L 3.109375 -2.71875 L 3.109375 -2.75 L 3.9375 -2.75 Z M 3.9375 -2.71875 "/></g></g></g><g fill="#e4094c" fill-opacity="1"><g transform="translate(79.593035, 24.043892)"><g><path d="M 2.90625 -0.046875 L 2.9375 -0.046875 L 2.9375 0 L 1.6875 0 L 1.6875 -0.046875 L 1.71875 -0.046875 C 1.769531 -0.046875 1.8125 -0.0625 1.84375 -0.09375 C 1.875 -0.125 1.890625 -0.15625 1.890625 -0.1875 C 1.890625 -0.21875 1.878906 -0.25 1.859375 -0.28125 L 1.671875 -0.765625 L 0.75 -0.765625 L 0.546875 -0.28125 C 0.535156 -0.25 0.53125 -0.21875 0.53125 -0.1875 C 0.53125 -0.15625 0.539062 -0.125 0.5625 -0.09375 C 0.59375 -0.0625 0.640625 -0.046875 0.703125 -0.046875 L 0.734375 -0.046875 L 0.734375 0 L -0.109375 0 L -0.109375 -0.046875 L -0.078125 -0.046875 C -0.015625 -0.046875 0.046875 -0.0625 0.109375 -0.09375 C 0.171875 -0.132812 0.21875 -0.191406 0.25 -0.265625 L 1.171875 -2.3125 C 1.285156 -2.570312 1.347656 -2.742188 1.359375 -2.828125 L 1.390625 -2.828125 L 2.5625 -0.265625 C 2.601562 -0.191406 2.65625 -0.132812 2.71875 -0.09375 C 2.78125 -0.0625 2.84375 -0.046875 2.90625 -0.046875 Z M 0.8125 -0.9375 L 1.609375 -0.9375 L 1.21875 -1.90625 Z M 0.8125 -0.9375 "/></g></g></g><g fill="#e4094c" fill-opacity="1"><g transform="translate(83.331075, 24.043892)"><g><path d="M 1.25 -2.578125 L 1.078125 -2.578125 L 1.078125 -0.28125 C 1.078125 -0.21875 1.097656 -0.160156 1.140625 -0.109375 C 1.191406 -0.0664062 1.253906 -0.046875 1.328125 -0.046875 L 1.375 -0.046875 L 1.375 0 L 0.171875 0 L 0.171875 -0.046875 L 0.234375 -0.046875 C 0.328125 -0.046875 0.394531 -0.0820312 0.4375 -0.15625 C 0.457031 -0.195312 0.472656 -0.238281 0.484375 -0.28125 L 0.484375 -2.46875 C 0.472656 -2.539062 0.441406 -2.597656 0.390625 -2.640625 C 0.347656 -2.691406 0.296875 -2.71875 0.234375 -2.71875 L 0.171875 -2.71875 L 0.171875 -2.75 L 1.53125 -2.75 C 1.78125 -2.75 1.992188 -2.695312 2.171875 -2.59375 C 2.265625 -2.539062 2.335938 -2.460938 2.390625 -2.359375 C 2.441406 -2.265625 2.46875 -2.132812 2.46875 -1.96875 C 2.46875 -1.8125 2.410156 -1.660156 2.296875 -1.515625 C 2.191406 -1.367188 2.03125 -1.285156 1.8125 -1.265625 C 1.96875 -1.210938 2.101562 -1.097656 2.21875 -0.921875 C 2.5 -0.460938 2.707031 -0.191406 2.84375 -0.109375 C 2.914062 -0.0664062 3.003906 -0.046875 3.109375 -0.046875 L 3.109375 0 L 2.71875 0 C 2.488281 0 2.296875 -0.03125 2.140625 -0.09375 C 1.992188 -0.15625 1.878906 -0.257812 1.796875 -0.40625 C 1.742188 -0.5 1.632812 -0.722656 1.46875 -1.078125 C 1.394531 -1.242188 1.304688 -1.332031 1.203125 -1.34375 L 1.203125 -1.390625 L 1.328125 -1.390625 C 1.441406 -1.390625 1.539062 -1.421875 1.625 -1.484375 C 1.71875 -1.554688 1.78125 -1.675781 1.8125 -1.84375 C 1.820312 -1.894531 1.828125 -1.9375 1.828125 -1.96875 C 1.828125 -2.1875 1.785156 -2.34375 1.703125 -2.4375 C 1.617188 -2.53125 1.507812 -2.578125 1.375 -2.578125 C 1.34375 -2.578125 1.300781 -2.578125 1.25 -2.578125 Z M 1.25 -2.578125 "/></g></g></g><g fill="#e4094c" fill-opacity="1"><g transform="translate(87.190967, 24.043892)"><g><path d="M 3.734375 -0.046875 L 3.796875 -0.046875 L 3.796875 0 L 2.609375 0 L 2.609375 -0.03125 L 2.671875 -0.03125 C 2.710938 -0.0390625 2.75 -0.0625 2.78125 -0.09375 C 2.8125 -0.125 2.828125 -0.160156 2.828125 -0.203125 L 2.671875 -1.640625 L 1.921875 -0.359375 C 1.828125 -0.191406 1.78125 -0.046875 1.78125 0.078125 L 1.734375 0.078125 L 0.734375 -1.625 L 0.578125 -0.203125 C 0.566406 -0.160156 0.578125 -0.117188 0.609375 -0.078125 C 0.640625 -0.046875 0.679688 -0.03125 0.734375 -0.03125 L 0.78125 -0.03125 L 0.78125 0 L -0.03125 0 L -0.03125 -0.046875 L 0.03125 -0.046875 C 0.101562 -0.046875 0.164062 -0.0664062 0.21875 -0.109375 C 0.269531 -0.148438 0.300781 -0.207031 0.3125 -0.28125 L 0.640625 -2.8125 L 0.671875 -2.8125 L 1.890625 -0.796875 L 3.078125 -2.8125 L 3.109375 -2.8125 L 3.4375 -0.28125 C 3.457031 -0.207031 3.492188 -0.148438 3.546875 -0.109375 C 3.597656 -0.0664062 3.660156 -0.046875 3.734375 -0.046875 Z M 3.734375 -0.046875 "/></g></g></g><g fill="#e4094c" fill-opacity="1"><g transform="translate(91.864903, 24.043892)"><g/></g></g><g fill="#e4094c" fill-opacity="1"><g transform="translate(93.77126, 24.043892)"><g/></g></g><g fill="#104069" fill-opacity="1"><g transform="translate(95.67781, 24.043892)"><g><path d="M 3.9375 -2.71875 L 3.90625 -2.71875 C 3.832031 -2.71875 3.765625 -2.695312 3.703125 -2.65625 C 3.640625 -2.613281 3.59375 -2.554688 3.5625 -2.484375 L 2.890625 -0.359375 C 2.847656 -0.222656 2.828125 -0.09375 2.828125 0.03125 C 2.828125 0.0507812 2.828125 0.0664062 2.828125 0.078125 L 2.796875 0.078125 L 1.9375 -1.828125 L 1.3125 -0.359375 C 1.25 -0.210938 1.21875 -0.0664062 1.21875 0.078125 L 1.171875 0.078125 L 0.234375 -2.484375 C 0.203125 -2.566406 0.15625 -2.625 0.09375 -2.65625 C 0.03125 -2.695312 -0.0351562 -2.71875 -0.109375 -2.71875 L -0.140625 -2.71875 L -0.140625 -2.75 L 1.0625 -2.75 L 1.0625 -2.71875 L 1.03125 -2.71875 C 0.976562 -2.71875 0.9375 -2.695312 0.90625 -2.65625 C 0.875 -2.625 0.859375 -2.59375 0.859375 -2.5625 C 0.859375 -2.53125 0.863281 -2.5 0.875 -2.46875 L 1.359375 -1.109375 L 2.078125 -2.8125 L 2.109375 -2.8125 L 2.890625 -1.09375 L 3.296875 -2.46875 C 3.296875 -2.5 3.296875 -2.53125 3.296875 -2.5625 C 3.296875 -2.59375 3.285156 -2.625 3.265625 -2.65625 C 3.242188 -2.695312 3.203125 -2.71875 3.140625 -2.71875 L 3.109375 -2.71875 L 3.109375 -2.75 L 3.9375 -2.75 Z M 3.9375 -2.71875 "/></g></g></g><g fill="#104069" fill-opacity="1"><g transform="translate(100.418168, 24.043892)"><g><path d="M 2.90625 -0.046875 L 2.9375 -0.046875 L 2.9375 0 L 1.6875 0 L 1.6875 -0.046875 L 1.71875 -0.046875 C 1.769531 -0.046875 1.8125 -0.0625 1.84375 -0.09375 C 1.875 -0.125 1.890625 -0.15625 1.890625 -0.1875 C 1.890625 -0.21875 1.878906 -0.25 1.859375 -0.28125 L 1.671875 -0.765625 L 0.75 -0.765625 L 0.546875 -0.28125 C 0.535156 -0.25 0.53125 -0.21875 0.53125 -0.1875 C 0.53125 -0.15625 0.539062 -0.125 0.5625 -0.09375 C 0.59375 -0.0625 0.640625 -0.046875 0.703125 -0.046875 L 0.734375 -0.046875 L 0.734375 0 L -0.109375 0 L -0.109375 -0.046875 L -0.078125 -0.046875 C -0.015625 -0.046875 0.046875 -0.0625 0.109375 -0.09375 C 0.171875 -0.132812 0.21875 -0.191406 0.25 -0.265625 L 1.171875 -2.3125 C 1.285156 -2.570312 1.347656 -2.742188 1.359375 -2.828125 L 1.390625 -2.828125 L 2.5625 -0.265625 C 2.601562 -0.191406 2.65625 -0.132812 2.71875 -0.09375 C 2.78125 -0.0625 2.84375 -0.046875 2.90625 -0.046875 Z M 0.8125 -0.9375 L 1.609375 -0.9375 L 1.21875 -1.90625 Z M 0.8125 -0.9375 "/></g></g></g><g fill="#104069" fill-opacity="1"><g transform="translate(104.156208, 24.043892)"><g><path d="M 1.609375 -2.59375 L 1.609375 -0.28125 C 1.609375 -0.21875 1.632812 -0.160156 1.6875 -0.109375 C 1.738281 -0.0664062 1.796875 -0.046875 1.859375 -0.046875 L 1.90625 -0.046875 L 1.90625 0 L 0.71875 0 L 0.71875 -0.046875 L 0.765625 -0.046875 C 0.828125 -0.046875 0.882812 -0.0664062 0.9375 -0.109375 C 0.988281 -0.160156 1.015625 -0.21875 1.015625 -0.28125 L 1.015625 -2.59375 L 0.484375 -2.59375 C 0.367188 -2.59375 0.273438 -2.554688 0.203125 -2.484375 C 0.128906 -2.410156 0.09375 -2.3125 0.09375 -2.1875 L 0.09375 -2.140625 L 0.0625 -2.140625 L 0.0625 -2.828125 C 0.164062 -2.785156 0.316406 -2.765625 0.515625 -2.765625 L 2.109375 -2.765625 C 2.191406 -2.765625 2.28125 -2.769531 2.375 -2.78125 C 2.46875 -2.800781 2.535156 -2.816406 2.578125 -2.828125 L 2.578125 -2.140625 L 2.53125 -2.140625 L 2.53125 -2.1875 C 2.53125 -2.351562 2.46875 -2.472656 2.34375 -2.546875 C 2.289062 -2.578125 2.222656 -2.59375 2.140625 -2.59375 Z M 1.609375 -2.59375 "/></g></g></g><g fill="#104069" fill-opacity="1"><g transform="translate(107.697715, 24.043892)"><g><path d="M 0.21875 -0.046875 C 0.28125 -0.046875 0.335938 -0.0664062 0.390625 -0.109375 C 0.441406 -0.160156 0.46875 -0.21875 0.46875 -0.28125 L 0.46875 -2.484375 C 0.457031 -2.546875 0.4375 -2.59375 0.40625 -2.625 C 0.34375 -2.6875 0.28125 -2.71875 0.21875 -2.71875 L 0.171875 -2.71875 L 0.171875 -2.75 L 1.671875 -2.75 C 1.796875 -2.75 1.898438 -2.757812 1.984375 -2.78125 C 2.078125 -2.800781 2.128906 -2.816406 2.140625 -2.828125 L 2.140625 -2.140625 L 2.109375 -2.140625 L 2.109375 -2.1875 C 2.109375 -2.34375 2.046875 -2.457031 1.921875 -2.53125 C 1.867188 -2.5625 1.800781 -2.582031 1.71875 -2.59375 L 1.0625 -2.59375 L 1.0625 -1.4375 L 1.578125 -1.4375 C 1.671875 -1.4375 1.75 -1.46875 1.8125 -1.53125 C 1.875 -1.601562 1.90625 -1.6875 1.90625 -1.78125 L 1.90625 -1.8125 L 1.953125 -1.8125 L 1.953125 -0.90625 L 1.90625 -0.90625 L 1.90625 -0.9375 C 1.90625 -1.03125 1.875 -1.109375 1.8125 -1.171875 C 1.757812 -1.234375 1.6875 -1.269531 1.59375 -1.28125 L 1.0625 -1.28125 L 1.0625 -0.171875 L 1.578125 -0.171875 C 1.765625 -0.171875 1.921875 -0.222656 2.046875 -0.328125 C 2.179688 -0.441406 2.28125 -0.597656 2.34375 -0.796875 L 2.390625 -0.796875 L 2.203125 0 L 0.171875 0 L 0.171875 -0.046875 Z M 0.21875 -0.046875 "/></g></g></g><g fill="#104069" fill-opacity="1"><g transform="translate(111.101651, 24.043892)"><g><path d="M 1.25 -2.578125 L 1.078125 -2.578125 L 1.078125 -0.28125 C 1.078125 -0.21875 1.097656 -0.160156 1.140625 -0.109375 C 1.191406 -0.0664062 1.253906 -0.046875 1.328125 -0.046875 L 1.375 -0.046875 L 1.375 0 L 0.171875 0 L 0.171875 -0.046875 L 0.234375 -0.046875 C 0.328125 -0.046875 0.394531 -0.0820312 0.4375 -0.15625 C 0.457031 -0.195312 0.472656 -0.238281 0.484375 -0.28125 L 0.484375 -2.46875 C 0.472656 -2.539062 0.441406 -2.597656 0.390625 -2.640625 C 0.347656 -2.691406 0.296875 -2.71875 0.234375 -2.71875 L 0.171875 -2.71875 L 0.171875 -2.75 L 1.53125 -2.75 C 1.78125 -2.75 1.992188 -2.695312 2.171875 -2.59375 C 2.265625 -2.539062 2.335938 -2.460938 2.390625 -2.359375 C 2.441406 -2.265625 2.46875 -2.132812 2.46875 -1.96875 C 2.46875 -1.8125 2.410156 -1.660156 2.296875 -1.515625 C 2.191406 -1.367188 2.03125 -1.285156 1.8125 -1.265625 C 1.96875 -1.210938 2.101562 -1.097656 2.21875 -0.921875 C 2.5 -0.460938 2.707031 -0.191406 2.84375 -0.109375 C 2.914062 -0.0664062 3.003906 -0.046875 3.109375 -0.046875 L 3.109375 0 L 2.71875 0 C 2.488281 0 2.296875 -0.03125 2.140625 -0.09375 C 1.992188 -0.15625 1.878906 -0.257812 1.796875 -0.40625 C 1.742188 -0.5 1.632812 -0.722656 1.46875 -1.078125 C 1.394531 -1.242188 1.304688 -1.332031 1.203125 -1.34375 L 1.203125 -1.390625 L 1.328125 -1.390625 C 1.441406 -1.390625 1.539062 -1.421875 1.625 -1.484375 C 1.71875 -1.554688 1.78125 -1.675781 1.8125 -1.84375 C 1.820312 -1.894531 1.828125 -1.9375 1.828125 -1.96875 C 1.828125 -2.1875 1.785156 -2.34375 1.703125 -2.4375 C 1.617188 -2.53125 1.507812 -2.578125 1.375 -2.578125 C 1.34375 -2.578125 1.300781 -2.578125 1.25 -2.578125 Z M 1.25 -2.578125 "/></g></g></g></svg>