<?xml version="1.0" encoding="utf-8"?>
<!-- Generator: Adobe Illustrator 28.0.0, SVG Export Plug-In . SVG Version: 6.00 Build 0)  -->
<svg version="1.1" id="Layer_1" xmlns="http://www.w3.org/2000/svg" xmlns:xlink="http://www.w3.org/1999/xlink" x="0px" y="0px"
	 width="162px" height="135px" viewBox="0 0 162 135" style="enable-background:new 0 0 162 135;" xml:space="preserve">
<style type="text/css">
	.st0{clip-path:url(#SVGID_00000033330636461035795510000014413740515254756029_);}
	.st1{fill:#FFFFFF;}
	.st2{opacity:0.2;fill:#7BDB81;enable-background:new    ;}
	.st3{fill-rule:evenodd;clip-rule:evenodd;fill:#222222;}
	.st4{fill:#F6F3F3;}
	.st5{fill-rule:evenodd;clip-rule:evenodd;fill:#0A2342;}
	.st6{fill-rule:evenodd;clip-rule:evenodd;fill:#143A69;}
	.st7{fill-rule:evenodd;clip-rule:evenodd;fill:#FD9A7D;}
	.st8{fill-rule:evenodd;clip-rule:evenodd;fill:#DE7D60;}
	.st9{fill-rule:evenodd;clip-rule:evenodd;fill:#143660;}
	.st10{fill-rule:evenodd;clip-rule:evenodd;fill:#0D2F59;}
	.st11{fill-rule:evenodd;clip-rule:evenodd;fill:#12396A;}
	.st12{display:none;fill-rule:evenodd;clip-rule:evenodd;fill:#FFFFFF;}
	.st13{fill-rule:evenodd;clip-rule:evenodd;}
	.st14{fill-rule:evenodd;clip-rule:evenodd;fill:#4375B1;}
	.st15{fill-rule:evenodd;clip-rule:evenodd;fill:#355B8B;}
	.st16{fill-rule:evenodd;clip-rule:evenodd;fill:#27548C;}
	.st17{fill:#12396A;}
	.st18{fill:#7BDB81;}
	.st19{fill-rule:evenodd;clip-rule:evenodd;fill:#A64630;}
	.st20{fill:#DE7D60;}
	.st21{fill:#D4795D;}
	.st22{fill:#F5F7FF;}
	.st23{fill-rule:evenodd;clip-rule:evenodd;fill:#E4F0F7;}
	.st24{fill-rule:evenodd;clip-rule:evenodd;fill:#D7E8F2;}
	.st25{fill:#BBD6E6;}
	.st26{opacity:0.4;enable-background:new    ;}
	.st27{display:none;fill:#143A69;}
	.st28{fill:#143A69;}
	.st29{fill:none;stroke:#143A69;stroke-width:0.4148;}
	.st30{fill:#143660;}
	.st31{fill-rule:evenodd;clip-rule:evenodd;fill:#FFFFFF;}
	.st32{opacity:0.4;}
</style>
<g>
	<g>
		<g>
			<g>
				<defs>
					<rect id="SVGID_1_" width="161.6" height="135"/>
				</defs>
				<clipPath id="SVGID_00000072984759287280296530000012647254570794632375_">
					<use xlink:href="#SVGID_1_"  style="overflow:visible;"/>
				</clipPath>
				<g style="clip-path:url(#SVGID_00000072984759287280296530000012647254570794632375_);">
					<rect class="st1" width="161.6" height="135"/>
					<path class="st2" d="M35.3,128.6c-18.7-8.5-33.8-26.5-35.2-46.9c-1.4-20.5,13.7-41.9,34-44.2c9.7-1.1,19.7,1.8,29.1-0.8
						c17.7-4.8,25.7-26.3,42.4-33.9c16-7.3,36.2,1.2,46.1,15.8s11.3,33.5,8.8,51c-3.7,25.6-17.4,52.3-42,60.8
						C97.7,137.5,55.8,135.9,35.3,128.6z"/>
					<path class="st3" d="M36.3,118.8h46.6c0,0,0.3,3.6,0.7,10.4c0,0-14.6,3.8-24.1,3.8c-9.4,0-23.8-3.8-23.8-3.8
						C35.8,124.5,36,122,36.3,118.8z"/>
					<path class="st4" d="M58.1,131.7c0.8-0.9,2.2-0.9,3,0l1.1,1.3H57L58.1,131.7z"/>
					<path class="st5" d="M36.3,118.8h46.6c0,0,0.1,2.4,0.4,6.1c-3.1,0.6-6.3,1-9.5,1.3c-10.9,0.9-19.6-2.6-27.1-2
						c-3.6,0.3-7.2,0.3-10.8,0C36,122.2,36.1,120.4,36.3,118.8L36.3,118.8z"/>
					<path class="st6" d="M52,37.1c-1.1,1,0.8,3.8,0.8,3.8s17.1,1.4,17,1.7s-0.6-5.4-1.1-6.1C67.6,35,53.1,36.1,52,37.1L52,37.1z"/>
					<path class="st7" d="M61.8,52.1L47.2,47c0,0,4.3-2,6-7.9s0.7-11,0.7-11s5.4,0.5,6.5,0.6c1.1-0.1,6.5-0.6,6.5-0.6s-1,5.1,0.7,11
						s6,7.9,6,7.9L61.8,52.1L61.8,52.1z"/>
					<path class="st8" d="M27,64.5c-0.2,0-6.8,8.3-6.8,8.3l16,2.5v-7.1C36.2,68.2,26.9,64.5,27,64.5L27,64.5z"/>
					<path class="st6" d="M71.5,40.9c0,0,14.1,3.9,15.9,5c6.1,3.5,11,26,12.8,31.6c-3.6,4-12.3,5.3-13.9,4.4c0,0-1.5-7.1-2.8-7.8
						c-0.3,15.4,0.9,31.4,0.9,46c0,1.2-22.6,2.7-31.7,0.7s-14.4,1.6-16.4,0.4c-2.1-1.2,0-15.5,0-15.5c0,1.9,1.4-26-0.4-35.9
						c-5.9,3.8-14.2-1.6-14.2-1.6c0.2-2.2,9.4-21,13.3-23.5c3.6-2.8,14.4-3.9,16.2-3.9l3.9,3.6l3.7-1l2.7,7
						C64.4,47.6,66.2,43.5,71.5,40.9L71.5,40.9z"/>
					<path class="st9" d="M84.1,106.2c0.1,4.2,0.2,8.4,0.3,12.4c-3.8,0.2-9,0.4-11.5-0.4c-4.2-1.3-7.1-1.1-20-0.9
						c-5.9,0.1-11.8-0.2-17.6-0.7c0-1.9,0.2-4.1,0.3-6c8.1-4,22.4-7.7,22.4-7.7L84.1,106.2L84.1,106.2z"/>
					<path class="st9" d="M36.2,72.2c-0.1-0.8-0.2-1.6-0.3-2.3c-0.4,0.3-0.9,0.5-1.3,0.7c-1.4-1.6-2-3-1.3-4
						c2.3-3.3-1.1-6.1-0.7-7.6c0.4-1.5,3.1,2.7,3.1,0.8s-1.6-4.7-0.6-6.1c1-1.4,2.7,6.5,2.9,5c0.3-1.5-1.7-11.5-1.7-12.3
						s2.9,2.1,4.4,9.6s-0.3,6.8,0,7.7c0.3,0.9,15.6-11.1,15.6-11.1s7.7,3.5,7.7,6.2s-3.5,3.4-5.6,3.8c-2.1,0.3-3.8,1.1-6.5,3.4
						s-2.3,3-2.3,2.6s8.8-0.6,13.6-0.8c4.8-0.1,6.6,0.3,10.5,0.9s4.9-0.3,6.6-1c1.6-0.7,1.2-3.2,1.1-7.3s3.7-11.9,3.7-11.9
						c1.8-1.6-0.2,3.4-1.7,9.5c-1.6,6.1,3.5-5.5,3.5-5.5s-3,9.5-2.7,11.2s0.3,2.4,2.1,0c1.8-2.4,4.7-3.4,5.5-3.4s-1.2,1.1-3.6,4
						c-2.4,2.9-3.1,8.2-4.5,9.4c-1.4,1.2-2.2,1.3-2.2,1.3S63.7,81,53,79.5C46.6,78.5,40,75.3,36.2,72.2L36.2,72.2z"/>
					<path class="st10" d="M71.7,43.3l0.1,7.3l-6.5-2.2l-3.3,3l-0.5-0.6l3.8-4.7l5,1.3L71.7,43.3z"/>
					<path class="st10" d="M55.6,44.4l3.3-0.9l0.1,0.2c-1.3,2.2-4,7.1-4.2,7.1c-0.3,0-1.7-2.6-1.7-2.6
						C53.8,46.5,54.7,45.3,55.6,44.4L55.6,44.4z"/>
					<path class="st11" d="M80,52.2c0,0-7.1,14.1-28.2,16.1l-0.1-0.7C72.5,65.7,79.4,52,79.4,51.9L80,52.2L80,52.2z M40.5,117.6
						c0,0,5.9-1.8,19.1-0.5l-0.1,0.7c-13-1.3-18.8,0.5-18.8,0.5L40.5,117.6L40.5,117.6z M30.1,56.8c0,0,1,2.3,3.3,10.1l-0.7,0.2
						C30.4,59.3,29.4,57,29.4,57L30.1,56.8z M33.2,53.5c0,0,3.7,2.9,2,12.2l-0.7-0.1c1.6-9-1.7-11.6-1.7-11.6L33.2,53.5z M36.1,71.8
						c0-0.2,0-0.3-0.1-0.5c6.8-16.8,0-25.2,0-25.2l0.5-0.4c0,0,7.1,8.8,0,26.3L36.1,71.8L36.1,71.8z"/>
					<path class="st8" d="M50.5,17.3c0,0-0.8-2-2.6-1.5s0.1,7.2,2.2,7.1C52.3,22.8,50.5,17.3,50.5,17.3z"/>
					<path class="st8" d="M70.1,17.3c0,0,0.8-2,2.6-1.5c1.8,0.5-0.1,7.2-2.2,7.1S70.1,17.3,70.1,17.3z"/>
					<path class="st8" d="M54.1,33.3c0.1-3-0.3-5.1-0.3-5.1s5.4,0.5,6.5,0.6c1.1-0.1,6.5-0.6,6.5-0.6s-0.4,2.1-0.3,5.1
						C63.8,35.5,56.8,35.5,54.1,33.3L54.1,33.3z"/>
					<path class="st7" d="M60.5,7.7c7.1,0.1,9.9,4.9,9.9,4.9c0.2,2.1,0.2,4.2,0,6.3c-0.3,3.5-1.6,8.8-3.5,10.9
						c-2.5,2.7-10.6,2.7-13.1,0c-1.9-2.1-3.3-7.3-3.5-10.9c-0.2-2.1-0.2-4.2,0-6.3c0,0,2.9-4.8,9.9-4.9L60.5,7.7L60.5,7.7z"/>
					<path class="st8" d="M60.5,7.7c7.1,0.1,9.9,4.9,9.9,4.9s0,0.3,0.1,0.8c-8.1-2.5-15.6-1.4-20.3-0.3c0-0.4,0-0.6,0-0.6
						s2.9-4.8,9.9-4.9L60.5,7.7L60.5,7.7z"/>
					<path class="st12" d="M55.7,23.5l9.5,0.1C65.1,23.6,60.4,29.5,55.7,23.5z"/>
					<path class="st13" d="M51.7,11l-1.5,7.5l-1.6-3.7C48.6,14.7,49.2,12.7,51.7,11L51.7,11z"/>
					<path class="st13" d="M68.8,11l1.6,7.5l1.6-3.7C72,14.8,71.4,12.7,68.8,11L68.8,11z"/>
					<path class="st14" d="M49.8,5.3c-2,6.2-1.2,9.5-1.2,9.5c4.1-9.6,19.3-9.6,23.4,0c0,0-0.2-6.4-1.4-9.5
						C67.4-2.6,51.7-0.9,49.8,5.3z"/>
					<path class="st15" d="M72,14.7c-4.9-9.2-18.6-9.2-23.4,0C51.4,1,70.1,1.2,72,14.7z"/>
					<path class="st6" d="M72,14.7c-4.9-8.6-18.3-8.4-23.4,0C52.3,2.9,69.2,3,72,14.7z"/>
					<path class="st16" d="M52,37.1c0.7,4.8,3.2,5.6,6.8,6.4c0,0-5.2,5.6-6,5.9c-0.8,0.3-2.8-1.7-3.4-5.7C48.8,39.7,52,37.1,52,37.1
						L52,37.1z"/>
					<path class="st16" d="M68.6,36.5c0,0,3,3.3,3.7,4.7s0,8.6,0,8.6l-6.8-3.1l-5.2,5.8c0,0,1.1-2.7,4.5-6.7
						C68.1,41.9,69.6,40.9,68.6,36.5L68.6,36.5z"/>
					<path class="st17" d="M93.5,62.1c0,0-6.5,4.8-6.5,11.5h-0.7c0-7,6.7-12.1,6.7-12.1L93.5,62.1L93.5,62.1z M86.9,47.1
						c0,0-6.1,14.3-3.1,25.2l-0.7,0.2c-3-11.2,3.1-25.6,3.1-25.7L86.9,47.1L86.9,47.1z M88.4,53.9c0,0-3.7,10.6-2.6,15.9L85.1,70
						c-1.2-5.5,2.6-16.2,2.6-16.3L88.4,53.9L88.4,53.9z"/>
					<path class="st18" d="M87.9,85.7V74.4c0-5.4-4.5-9.9-10-9.9H47.3c-5.5,0-10,4.4-10,9.9v11.3c-0.3,0.4-0.5,0.9-0.5,1.4v3.6
						c0,1.4,1.1,2.5,2.5,2.5h0.6v19.3c0,1.9,1.6,3.5,3.5,3.5h38.2c1.9,0,3.5-1.6,3.5-3.5V93.3h0.6c1.4,0,2.5-1.1,2.5-2.5v-3.6
						C88.4,86.6,88.2,86.1,87.9,85.7L87.9,85.7z M40.1,92.5h-0.6c-0.9,0-1.7-0.8-1.7-1.7v-3.6c0-0.4,0.1-0.7,0.4-1
						c0.3-0.4,0.8-0.7,1.4-0.7h0.6v7C40.2,92.5,40.1,92.5,40.1,92.5z M68.1,84.7c0,0.5-0.4,0.9-0.9,0.9h-9.1c-0.5,0-0.9-0.4-0.9-0.9
						v-1.9h11L68.1,84.7z M40.9,82.1c0.2-3.5,3.2-6.4,6.8-6.4h30c3.6,0,6.6,2.8,6.8,6.4H40.9z M84.4,79.1c-1.3-2.5-3.8-4.2-6.8-4.2
						h-30c-3,0-5.5,1.7-6.8,4.2v-4.6c0-3.5,2.9-6.4,6.4-6.4H78c3.5,0,6.4,2.9,6.4,6.4V79.1z M87.6,90.8c0,0.9-0.8,1.7-1.7,1.7h-0.6
						v-7h0.6c0.5,0,1,0.2,1.4,0.7c0.2,0.3,0.4,0.7,0.4,1v3.6C87.7,90.8,87.6,90.8,87.6,90.8z"/>
					<path class="st19" d="M64.8,56.3c0,0,4.1,0.4,5.8,2.1c1.7,1.7-0.1,2.7-2.1,2.3C66.5,60.2,64.8,56.1,64.8,56.3L64.8,56.3z"/>
					<path class="st7" d="M52.2,61.5c0,0,5.4-4,8-5.2c2.5-1.2,5.8-0.1,5.8-0.1s5.2,5.8,4.4,6.6c-0.7,0.8-2.9,4.6-5.6,5.4
						c-2.7,0.8-4.7,0-6.8-0.3c-2-0.4-14.8,6.6-19,9.3c-4.2,2.6-9.5,6.5-16,5c-6.4-1.4-4.4-9.9,0.3-12C28,67.9,46,64.3,52.2,61.5
						L52.2,61.5z"/>
					<path class="st20" d="M65.5,59.1l3.4,4.2l-0.5,0.4L65,59.5L65.5,59.1z M59.7,63.5l3.4,4.2l-0.5,0.4l-3.4-4.2L59.7,63.5z
						 M61.8,62.3l3.4,4.2l-0.5,0.4l-3.4-4.2L61.8,62.3z M63.8,61.1l3.4,4.2l-0.5,0.4l-3.4-4.2L63.8,61.1z"/>
					<path class="st7" d="M97.6,79.6c0.4,1.9,0.8,1.7,0.6,3.7c-0.2,2,0.2,13.7-3.6,22.2c-3.8,8.5-3,8.4-5.9,10.2
						c-2.9,1.8-4.2,4.1-6.6,3.8c-2.5-0.2-7.1-1.3-9.1-2.2c-1.5-0.7-3.2-1.5-4.1-1.9c-0.1-0.1-0.1-0.3,0.1-0.3h15
						c0.1,0,0.1-0.1,0.1-0.1l-0.3-5.7c0-0.1,0.1-0.1,0.1-0.1c0.5,0,2.1-0.2,2.3-0.8c1-3,3.1-22.3,2.2-26c0-0.1,0-0.2,0.1-0.2
						C92.6,82,95.6,80.5,97.6,79.6L97.6,79.6z"/>
					<path class="st8" d="M97.6,79.6c0.3,1.4,0.6,1.7,0.6,2.5c-4,2.4-7.7,2.4-9.6,2.2c0-0.9-0.1-1.6-0.2-2
						C92.5,82,95.6,80.5,97.6,79.6L97.6,79.6z"/>
					<path class="st8" d="M74,115.1h10.1l-0.3-6c0.3,0,0.7,0,1-0.1c0.1,1.5,0.3,5.4-0.6,6.4c-1.1,1.2-3.6,0.9-8.2,0.1
						C75.2,115.3,74.5,115.2,74,115.1L74,115.1z"/>
					<path class="st21" d="M90.2,84.5c0,0,3.1-1.5,6.2-1.9l0.1,0.7c-3,0.4-6,1.8-6,1.8L90.2,84.5z M71.4,115.3l10.5,2.6l-0.2,0.6
						l-10.5-2.6L71.4,115.3z M87.4,113c0,0-2,2.6-3.2,3.2c-0.3,0.1-1,0.1-1,0.3c0,0.1-0.1,0.2,0,0.4c0,0.1,0.1,0.2,0.1,0.3
						c0,0,0.1,0.1,0.2,0.1s0.1,0,0.2,0c0.9,0,3.1-0.8,3.1-0.8L87,117c0,0-2.2,1-3.2,1c-0.2,0-0.3,0-0.5-0.1
						c-0.1-0.1-0.3-0.2-0.4-0.3c-0.2-0.2-0.3-0.4-0.3-0.6s0-0.5,0.1-0.7l0,0c0.1-0.4,0.9-0.5,1.4-0.7c1.1-0.5,3-3,3-3L87.4,113
						L87.4,113z"/>
					<path class="st22" d="M72.2,15.7l-2.4,4l-0.7-0.1l2.8-4.8L72.2,15.7z"/>
					<path class="st22" d="M48.3,15.7l2.2,3.9l0.8-0.3L48.6,15L48.3,15.7z"/>
					<path class="st23" d="M49.9,19.5c0,0,9.1-1.6,10.7-1.5s10,1.1,10,1.1s-0.4,6.4-2.1,8.4c-1.7,1.9-4.8,4.8-9.2,4.3
						C55.1,31.3,51.6,28.6,49.9,19.5z"/>
					<path class="st24" d="M60.3,18c0.2,0,0.3,0,0.4,0c1.6,0.1,10,1.1,10,1.1s-0.4,6.2-2,8.3l0,0l-0.1,0.1l-0.1,0.1l-0.1,0.1l0,0
						l-0.1,0.1l0,0l-0.1,0.1L68.1,28l0,0L68,28.1l0,0v0.1l0,0l-0.1,0.1l0,0l-0.1,0.1l0,0l-0.1,0.1l0,0l-0.1,0.1l0,0l0,0l-0.1,0.1
						l-0.1,0.1c-0.3,0.3-0.7,0.6-1.1,0.9l0,0l-0.1,0.1l0,0L66,29.9l0,0L65.9,30l-0.1,0.1l0,0l-0.1,0.1c-1.5,1-3.3,1.8-5.5,1.7
						C60.4,29.9,59.8,22.5,60.3,18L60.3,18z"/>
					<path class="st25" d="M67.6,24l-7.3-0.8l-6.7,0.7v0.7l6.6-0.7l7.2,0.8L67.6,24L67.6,24z M66.9,27.1l-6.7-0.7l-5.5,0.7l0.1,0.7
						l5.4-0.7l6.6,0.7L66.9,27.1L66.9,27.1z M68.6,21.4l-8.3-0.9l-7.2,0.7v0.7l7.2-0.7l8.3,0.9V21.4L68.6,21.4z"/>
					<path class="st1" d="M40,82.2c0-4.1,3.2-7.3,7.2-7.3h30.6c4,0,7.2,3.3,7.2,7.3l0,0H40L40,82.2z"/>
					<path class="st18" d="M87.9,85.8V74.5c0,0-4.5,0-10,0H47.3c-5.5,0-10,3.6-10,3.6v7.7c-0.3,0.4-0.5,0.9-0.5,1.4v3.6
						c0,1.4,1.1,2.5,2.5,2.5H40v19.3c0,1.9,1.6,3.5,3.5,3.5h38.2c1.9,0,3.5-1.6,3.5-3.5V93.4h0.6c1.4,0,2.5-1.1,2.5-2.5v-3.6
						C88.4,86.7,88.2,86.2,87.9,85.8z M40.1,92.5h-0.6c-0.9,0-1.7-0.8-1.7-1.7v-3.6c0-0.4,0.1-0.7,0.4-1c0.3-0.4,0.8-0.7,1.4-0.7
						h0.6v7C40.2,92.5,40.1,92.5,40.1,92.5z M68.1,84.7c0,0.5-0.4,0.9-0.9,0.9h-9.1c-0.5,0-0.9-0.4-0.9-0.9v-1.8h11L68.1,84.7z
						 M40.9,82.1c0.2-3.5,3.2-6.4,6.8-6.4h30c3.6,0,6.6,2.8,6.8,6.4H40.9z M84.4,79.1c-1.3-2.5-3.8-4.2-6.8-4.2h-30
						c-3,0-5.5,1.4-6.8,3.9V76c0,0,2.9-1.5,6.4-1.5H78c3.5,0,6.4,0,6.4,0V79.1z M87.6,90.8c0,0.9-0.8,1.7-1.7,1.7h-0.6v-7h0.6
						c0.5,0,1,0.2,1.4,0.7c0.2,0.3,0.4,0.7,0.4,1v3.6C87.7,90.8,87.6,90.8,87.6,90.8z"/>
					<path class="st26" d="M64.2,95.4h3.4v1.9h-3.4v3.4h-1.9v-3.4h-3.4v-1.9h3.4V92h1.9V95.4z"/>
					<path class="st1" d="M63.9,95.1h3.4V97h-3.4v3.4H62V97h-3.4v-1.9H62v-3.4h1.9V95.1z"/>
					<path class="st27" d="M102,20L102,20c0.6,0,1,0.4,1,1v38c0,0.6-0.4,1-1,1l0,0c-0.6,0-1-0.4-1-1V21C101,20.4,101.4,20,102,20z"
						/>
					<path class="st28" d="M116,46.3v-1.1h3.8v1.1H116z M122.4,41.7h1V49h-1.2v-6l-1.5,0.4l-0.3-1L122.4,41.7z M129.4,48.1
						c-0.5,0.7-1.2,1-2.1,1s-1.6-0.3-2.1-1s-0.7-1.6-0.7-2.7c0-1.1,0.2-2.1,0.7-2.7c0.5-0.7,1.2-1,2.1-1s1.6,0.3,2.1,1
						s0.8,1.6,0.8,2.7C130.1,46.5,129.9,47.4,129.4,48.1z M127.3,47.9c0.5,0,1-0.2,1.2-0.7c0.3-0.4,0.4-1.1,0.4-1.9
						c0-0.8-0.1-1.5-0.4-1.9c-0.3-0.4-0.7-0.7-1.2-0.7s-0.9,0.2-1.2,0.7c-0.3,0.4-0.4,1.1-0.4,1.9c0,0.8,0.1,1.5,0.4,1.9
						C126.3,47.7,126.8,47.9,127.3,47.9z M136.9,49.1c-1.1,0-2-0.4-2.7-1.1c-0.7-0.7-1.1-1.6-1.1-2.7c0-1.1,0.4-2,1.1-2.7
						c0.7-0.7,1.6-1.1,2.7-1.1c0.7,0,1.3,0.2,1.8,0.5c0.6,0.3,1,0.7,1.3,1.3l-1,0.6c-0.2-0.4-0.5-0.6-0.8-0.9
						c-0.4-0.2-0.8-0.3-1.2-0.3c-0.8,0-1.4,0.2-1.9,0.7s-0.7,1.1-0.7,1.9c0,0.8,0.2,1.4,0.7,1.9s1.1,0.7,1.9,0.7
						c0.5,0,0.9-0.1,1.2-0.3c0.4-0.2,0.7-0.5,0.8-0.9l1,0.6c-0.3,0.5-0.7,1-1.3,1.3C138.2,48.9,137.6,49.1,136.9,49.1z"/>
					<circle class="st29" cx="131.4" cy="41" r="0.8"/>
				</g>
			</g>
		</g>
	</g>
</g>
<polyline class="st9" points="78.9,74.4 78.9,74.7 44.7,74.7 44.7,74.4 "/>
<g id="Layer_2">
	<rect x="41.9" y="75" transform="matrix(0.9526 -0.3043 0.3043 0.9526 -20.7978 16.8007)" class="st30" width="3.3" height="0.3"/>
</g>
<g>
	<circle class="st4" cx="101.8" cy="57.9" r="12"/>
	<path class="st31" d="M102,12.1c-2.1,0-3.8,1.7-3.8,3.8v32.9c-3.6,1.4-6.2,5-6.2,9.2c0,5.4,4.4,9.8,9.8,9.8s9.8-4.4,9.8-9.8
		c0-4-2.4-7.5-5.9-9V16C105.8,13.7,104.1,12.1,102,12.1z"/>
	<path class="st18" d="M98.2,48.7l0.4,0.9l0.6-0.2v-0.7H98.2z M105.9,48.8h-1v0.7l0.6,0.3L105.9,48.8z M99.2,15.8
		c0-1.5,1.2-2.8,2.8-2.8v-2c-2.6,0-4.8,2.1-4.8,4.8H99.2z M99.2,48.7V15.8h-2v32.9H99.2z M93,57.9c0-3.7,2.3-6.9,5.6-8.2l-0.7-1.9
		c-4,1.6-6.9,5.5-6.9,10.1H93z M101.8,66.7c-4.9,0-8.8-4-8.8-8.8h-2c0,6,4.9,10.8,10.8,10.8V66.7z M110.7,57.9c0,4.9-4,8.8-8.8,8.8
		v2c6,0,10.8-4.9,10.8-10.8C112.7,57.9,110.7,57.9,110.7,57.9z M105.4,49.8c3.1,1.4,5.3,4.5,5.3,8.1h2c0-4.4-2.7-8.3-6.5-9.9
		L105.4,49.8z M104.8,15.8v33h2v-33C106.8,15.8,104.8,15.8,104.8,15.8z M102,13c1.5,0,2.8,1.2,2.8,2.8h2c0-2.6-2.1-4.8-4.8-4.8V13z"
		/>
	<circle class="st28" cx="101.8" cy="57.9" r="5.8"/>
	<path class="st28" d="M102,20.1L102,20.1c0.6,0,1,0.4,1,1v38c0,0.6-0.4,1-1,1l0,0c-0.6,0-1-0.4-1-1v-38
		C101,20.5,101.4,20.1,102,20.1z"/>
</g>
<g class="st32">
	<path class="st13" d="M49,109.6c0.9,0,1.7-0.3,2.4-1l-1.2-1.2c-0.2,0.2-0.7,0.5-1.1,0.5c-0.5,0-0.8-0.3-0.8-0.8
		c0-0.7,0.8-1.5,1.5-1.5c0.3,0,0.6,0.1,0.8,0.4l1.4-1c-0.4-0.6-1.1-1.1-2.1-1.1c-1.7,0-3.5,1.4-3.5,3.2
		C46.5,108.5,47.5,109.6,49,109.6L49,109.6z M56.5,104.1l-0.6,2.9c-0.1,0.5-0.5,0.9-1.1,0.9c-0.3,0-0.5-0.2-0.5-0.5
		c0-0.2,0-0.3,0.7-3.3H53c-0.7,3.2-0.7,3.4-0.7,3.8c0,1,0.7,1.7,1.7,1.7c0.6,0,1.1-0.2,1.5-0.5l-0.1,0.4h2l1.1-5.4H56.5L56.5,104.1z
		 M61.4,104.9c0.5-0.6,1.1-1,1.8-1l-0.2,1.7c-1,0-1.8,0.6-2.1,1.6l-0.5,2.2h-2l1.1-5.4h2L61.4,104.9L61.4,104.9z M68.9,105.4
		c0-0.9-0.9-1.5-2.1-1.5c-1.9,0-3.3,1.5-3.3,3.3c0,1.4,1,2.3,2.5,2.3c0.8,0,1.7-0.3,2.3-0.8l-1-1.2c-0.4,0.3-0.9,0.5-1.4,0.5
		c-0.5,0-0.8-0.3-0.8-0.8h1.1C67.9,107.3,68.9,106.6,68.9,105.4L68.9,105.4z M66.7,105.5c0.3,0,0.5,0.1,0.5,0.3
		c0,0.3-0.3,0.5-0.8,0.5h-1C65.8,105.8,66.2,105.5,66.7,105.5z"/>
	<path class="st13" d="M69.4,109.4h2l1.5-7.2h-2L69.4,109.4L69.4,109.4z M75.4,109.6c-1.5,0-2.6-1.1-2.6-2.4c0-1.8,1.8-3.2,3.5-3.2
		c1.5,0,2.6,1.1,2.6,2.4C78.9,108.1,77.1,109.6,75.4,109.6L75.4,109.6z M75.5,107.9c0.8,0,1.6-0.8,1.6-1.5c0-0.5-0.3-0.8-0.8-0.8
		c-0.8,0-1.6,0.8-1.6,1.5C74.6,107.6,75,107.9,75.5,107.9z"/>
	<path class="st13" d="M66.6,110.3h0.2c0.2,0,0.3,0,0.3,0.1c0.1,0,0.1,0.1,0.2,0.2c0,0.1,0.1,0.2,0.1,0.3c0,0.1,0,0.2,0,0.2
		c0,0.1-0.1,0.1-0.1,0.2c0,0-0.1,0.1-0.2,0.1c-0.1,0-0.2,0-0.3,0h-0.2V110.3L66.6,110.3z M66.8,110.5v0.7h0.1c0.1,0,0.2,0,0.2,0
		c0,0,0.1-0.1,0.1-0.1c0,0,0-0.1,0-0.2c0-0.1,0-0.2-0.1-0.3C67,110.6,67,110.5,66.8,110.5L66.8,110.5L66.8,110.5z M67.5,110.6h0.2
		v0.1c0,0,0-0.1,0.1-0.1c0,0,0.1,0,0.1,0c0,0,0.1,0,0.1,0l-0.1,0.2c0,0,0,0-0.1,0c0,0-0.1,0-0.1,0.1c0,0,0,0.1,0,0.2l0,0v0.3h-0.2
		V110.6L67.5,110.6z M68.1,110.3C68.1,110.3,68.2,110.3,68.1,110.3c0.1,0.1,0.1,0.1,0.1,0.1c0,0,0,0.1,0,0.1c0,0-0.1,0-0.1,0
		c0,0-0.1,0-0.1,0c0,0,0-0.1,0-0.1C68,110.4,68,110.4,68.1,110.3C68.1,110.3,68.1,110.3,68.1,110.3L68.1,110.3z M68,110.6h0.2v0.8
		H68V110.6L68,110.6z M68.3,110.6h0.2l0.2,0.5l0.2-0.5h0.2l-0.3,0.8h-0.1L68.3,110.6L68.3,110.6z M70,111.1h-0.6
		c0,0.1,0,0.1,0.1,0.1c0,0,0.1,0,0.2,0c0.1,0,0.1,0,0.2-0.1l0.2,0.1c0,0.1-0.1,0.1-0.1,0.1c-0.1,0-0.1,0-0.2,0c-0.1,0-0.2,0-0.3-0.1
		c-0.1-0.1-0.1-0.2-0.1-0.3c0-0.1,0-0.2,0.1-0.3c0.1-0.1,0.2-0.1,0.3-0.1c0.1,0,0.2,0,0.3,0.1C70,110.8,70,110.9,70,111.1L70,111.1
		L70,111.1z M69.8,110.9c0,0,0-0.1-0.1-0.1c0,0-0.1,0-0.1,0c-0.1,0-0.1,0-0.1,0c0,0,0,0.1-0.1,0.1H69.8z"/>
	<path class="st13" d="M70.5,110.6h0.2l0.2,0.5l0.2-0.5h0.2l-0.5,1.1h-0.2l0.2-0.3L70.5,110.6L70.5,110.6z M71.8,110.6
		c0.1,0,0.1,0,0.2,0.1c0.1,0,0.1,0.1,0.2,0.1c0,0.1,0.1,0.1,0.1,0.2c0,0.1,0,0.1-0.1,0.2c0,0.1-0.1,0.1-0.2,0.2
		c-0.1,0-0.1,0.1-0.2,0.1c-0.1,0-0.2,0-0.3-0.1c-0.1-0.1-0.1-0.2-0.1-0.3c0-0.1,0-0.2,0.1-0.3C71.6,110.6,71.7,110.6,71.8,110.6
		L71.8,110.6z M71.8,110.8c-0.1,0-0.1,0-0.2,0.1c0,0-0.1,0.1-0.1,0.2c0,0.1,0,0.1,0.1,0.2c0,0,0.1,0.1,0.2,0.1c0.1,0,0.1,0,0.2-0.1
		c0,0,0.1-0.1,0.1-0.2c0-0.1,0-0.1-0.1-0.2C71.9,110.8,71.9,110.8,71.8,110.8L71.8,110.8z M72.4,110.6h0.2v0.4c0,0.1,0,0.1,0,0.2
		c0,0,0,0.1,0,0.1c0,0,0.1,0,0.1,0c0,0,0.1,0,0.1,0c0,0,0,0,0.1-0.1c0,0,0-0.1,0-0.1v-0.4h0.2v0.3c0,0.1,0,0.2,0,0.3
		c0,0.1-0.1,0.1-0.1,0.1c-0.1,0-0.1,0-0.2,0c-0.1,0-0.2,0-0.2-0.1c-0.1,0-0.1-0.1-0.1-0.2c0,0,0-0.1,0-0.3V110.6L72.4,110.6z
		 M73.2,110.6h0.2v0.1c0,0,0-0.1,0.1-0.1c0,0,0.1,0,0.1,0c0,0,0.1,0,0.1,0l-0.1,0.2c0,0,0,0-0.1,0c0,0-0.1,0-0.1,0.1
		c0,0,0,0.1,0,0.2l0,0v0.3h-0.2V110.6L73.2,110.6z M74.2,110.3h0.2v0.4h0.4v-0.4h0.2v1.1h-0.2v-0.5h-0.4v0.5h-0.2V110.3L74.2,110.3z
		 M75.9,111.1h-0.6c0,0.1,0,0.1,0.1,0.1c0,0,0.1,0,0.2,0c0.1,0,0.1,0,0.2-0.1l0.2,0.1c0,0.1-0.1,0.1-0.1,0.1c-0.1,0-0.1,0-0.2,0
		c-0.1,0-0.2,0-0.3-0.1c-0.1-0.1-0.1-0.2-0.1-0.3c0-0.1,0-0.2,0.1-0.3c0.1-0.1,0.2-0.1,0.3-0.1c0.1,0,0.2,0,0.3,0.1
		C75.9,110.8,75.9,110.9,75.9,111.1L75.9,111.1L75.9,111.1z M75.7,110.9c0,0,0-0.1-0.1-0.1c0,0-0.1,0-0.1,0c-0.1,0-0.1,0-0.1,0
		c0,0,0,0.1-0.1,0.1H75.7L75.7,110.9z M76.7,110.6h0.2v0.8h-0.2v-0.1c0,0-0.1,0.1-0.1,0.1c0,0-0.1,0-0.1,0c-0.1,0-0.2,0-0.3-0.1
		c-0.1-0.1-0.1-0.2-0.1-0.3c0-0.1,0-0.2,0.1-0.3c0.1-0.1,0.2-0.1,0.3-0.1c0,0,0.1,0,0.1,0C76.6,110.6,76.6,110.7,76.7,110.6
		L76.7,110.6L76.7,110.6z M76.4,110.8c-0.1,0-0.1,0-0.2,0.1c0,0-0.1,0.1-0.1,0.2c0,0.1,0,0.1,0.1,0.2c0,0,0.1,0.1,0.2,0.1
		c0.1,0,0.1,0,0.2-0.1c0,0,0.1-0.1,0.1-0.2c0-0.1,0-0.1-0.1-0.2C76.6,110.8,76.5,110.8,76.4,110.8L76.4,110.8z M77,110.3h0.2v1.1H77
		V110.3L77,110.3z M77.4,110.3h0.2v0.3h0.1v0.2h-0.1v0.6h-0.2v-0.6h-0.1v-0.2h0.1V110.3L77.4,110.3z M77.8,110.3H78v0.4
		c0,0,0.1-0.1,0.1-0.1c0,0,0.1,0,0.1,0c0.1,0,0.1,0,0.2,0.1c0,0,0.1,0.1,0.1,0.2v0.5h-0.2v-0.3c0-0.1,0-0.2,0-0.2c0,0,0-0.1,0-0.1
		c0,0,0,0-0.1,0c0,0-0.1,0-0.1,0c0,0,0,0.1-0.1,0.1c0,0,0,0.1,0,0.2v0.3h-0.2V110.3z"/>
	<rect x="46.5" y="110.3" class="st13" width="19.5" height="0.2"/>
	<rect x="58.9" y="111.1" class="st13" width="7" height="0.2"/>
	<rect x="52.7" y="110.7" class="st13" width="13.3" height="0.2"/>
</g>
<g>
	<path class="st31" d="M48.8,109.3c0.9,0,1.7-0.3,2.4-1l-1.2-1.2c-0.2,0.2-0.7,0.5-1.1,0.5c-0.5,0-0.8-0.3-0.8-0.8
		c0-0.7,0.8-1.5,1.5-1.5c0.3,0,0.6,0.1,0.8,0.4l1.4-1c-0.4-0.6-1.1-1.1-2.1-1.1c-1.7,0-3.5,1.4-3.5,3.2
		C46.2,108.3,47.3,109.3,48.8,109.3L48.8,109.3z M56.2,103.9l-0.6,2.9c-0.1,0.5-0.5,0.9-1.1,0.9c-0.3,0-0.5-0.2-0.5-0.5
		c0-0.2,0-0.3,0.7-3.3h-1.9c-0.7,3.2-0.7,3.4-0.7,3.8c0,1,0.7,1.7,1.7,1.7c0.6,0,1.1-0.2,1.5-0.5l-0.1,0.4h2l1.1-5.4H56.2
		L56.2,103.9z M61.1,104.7c0.5-0.6,1.1-1,1.8-1l-0.2,1.7c-1,0-1.8,0.6-2.1,1.6l-0.5,2.2h-2l1.1-5.4h2L61.1,104.7L61.1,104.7z
		 M68.6,105.2c0-0.9-0.9-1.5-2.1-1.5c-1.9,0-3.3,1.5-3.3,3.3c0,1.4,1,2.3,2.5,2.3c0.8,0,1.7-0.3,2.3-0.8l-1-1.2
		c-0.4,0.3-0.9,0.5-1.4,0.5c-0.5,0-0.8-0.3-0.8-0.8H66C67.6,107.1,68.6,106.4,68.6,105.2L68.6,105.2z M66.5,105.2
		c0.3,0,0.5,0.1,0.5,0.3c0,0.3-0.3,0.5-0.8,0.5h-1C65.5,105.5,66,105.2,66.5,105.2z"/>
	<path class="st6" d="M69.2,109.2h2l1.5-7.2h-2L69.2,109.2L69.2,109.2z M75.1,109.3c-1.5,0-2.6-1.1-2.6-2.4c0-1.8,1.8-3.2,3.5-3.2
		c1.5,0,2.6,1.1,2.6,2.4C78.6,107.9,76.8,109.3,75.1,109.3L75.1,109.3z M75.2,107.7c0.8,0,1.6-0.8,1.6-1.5c0-0.5-0.3-0.8-0.8-0.8
		c-0.8,0-1.6,0.8-1.6,1.5C74.4,107.3,74.7,107.7,75.2,107.7z"/>
	<path class="st6" d="M66.3,110.1h0.2c0.2,0,0.3,0,0.3,0.1c0.1,0,0.1,0.1,0.2,0.2c0,0.1,0.1,0.2,0.1,0.3c0,0.1,0,0.2,0,0.2
		c0,0.1-0.1,0.1-0.1,0.2c0,0-0.1,0.1-0.2,0.1c-0.1,0-0.2,0-0.3,0h-0.2V110.1L66.3,110.1z M66.5,110.3v0.7h0.1c0.1,0,0.2,0,0.2,0
		c0,0,0.1-0.1,0.1-0.1c0,0,0-0.1,0-0.2c0-0.1,0-0.2-0.1-0.3C66.8,110.3,66.7,110.3,66.5,110.3L66.5,110.3L66.5,110.3z M67.3,110.4
		h0.2v0.1c0,0,0-0.1,0.1-0.1c0,0,0.1,0,0.1,0c0,0,0.1,0,0.1,0l-0.1,0.2c0,0,0,0-0.1,0c0,0-0.1,0-0.1,0.1c0,0,0,0.1,0,0.2l0,0v0.3
		h-0.2V110.4L67.3,110.4z M67.9,110.1C67.9,110.1,67.9,110.1,67.9,110.1c0.1,0.1,0.1,0.1,0.1,0.1c0,0,0,0.1,0,0.1c0,0-0.1,0-0.1,0
		c0,0-0.1,0-0.1,0c0,0,0-0.1,0-0.1C67.7,110.2,67.7,110.1,67.9,110.1C67.8,110.1,67.8,110.1,67.9,110.1L67.9,110.1z M67.8,110.4H68
		v0.8h-0.2V110.4L67.8,110.4z M68,110.4h0.2l0.2,0.5l0.2-0.5h0.2l-0.3,0.8h-0.1L68,110.4L68,110.4z M69.7,110.8h-0.6
		c0,0.1,0,0.1,0.1,0.1c0,0,0.1,0,0.2,0c0.1,0,0.1,0,0.2-0.1l0.2,0.1c0,0.1-0.1,0.1-0.1,0.1c-0.1,0-0.1,0-0.2,0c-0.1,0-0.2,0-0.3-0.1
		c-0.1-0.1-0.1-0.2-0.1-0.3c0-0.1,0-0.2,0.1-0.3c0.1-0.1,0.2-0.1,0.3-0.1c0.1,0,0.2,0,0.3,0.1C69.7,110.6,69.7,110.7,69.7,110.8
		L69.7,110.8L69.7,110.8z M69.5,110.7c0,0,0-0.1-0.1-0.1c0,0-0.1,0-0.1,0c-0.1,0-0.1,0-0.1,0c0,0,0,0.1-0.1,0.1H69.5z"/>
	<path class="st31" d="M70.2,110.4h0.2l0.2,0.5l0.2-0.5h0.2l-0.5,1.1h-0.2l0.2-0.3L70.2,110.4L70.2,110.4z M71.5,110.4
		c0.1,0,0.1,0,0.2,0.1c0.1,0,0.1,0.1,0.2,0.1c0,0.1,0.1,0.1,0.1,0.2c0,0.1,0,0.1-0.1,0.2c0,0.1-0.1,0.1-0.2,0.2
		c-0.1,0-0.1,0.1-0.2,0.1c-0.1,0-0.2,0-0.3-0.1c-0.1-0.1-0.1-0.2-0.1-0.3c0-0.1,0-0.2,0.1-0.3C71.3,110.4,71.4,110.4,71.5,110.4
		L71.5,110.4z M71.5,110.5c-0.1,0-0.1,0-0.2,0.1c0,0-0.1,0.1-0.1,0.2c0,0.1,0,0.1,0.1,0.2c0,0,0.1,0.1,0.2,0.1c0.1,0,0.1,0,0.2-0.1
		c0,0,0.1-0.1,0.1-0.2c0-0.1,0-0.1-0.1-0.2C71.6,110.6,71.6,110.5,71.5,110.5L71.5,110.5z M72.1,110.4h0.2v0.4c0,0.1,0,0.1,0,0.2
		c0,0,0,0.1,0,0.1c0,0,0.1,0,0.1,0c0,0,0.1,0,0.1,0c0,0,0,0,0.1-0.1c0,0,0-0.1,0-0.1v-0.4h0.2v0.3c0,0.1,0,0.2,0,0.3
		c0,0.1-0.1,0.1-0.1,0.1c-0.1,0-0.1,0-0.2,0c-0.1,0-0.2,0-0.2-0.1c-0.1,0-0.1-0.1-0.1-0.2c0,0,0-0.1,0-0.3V110.4L72.1,110.4z
		 M72.9,110.4h0.2v0.1c0,0,0-0.1,0.1-0.1c0,0,0.1,0,0.1,0c0,0,0.1,0,0.1,0l-0.1,0.2c0,0,0,0-0.1,0c0,0-0.1,0-0.1,0.1
		c0,0,0,0.1,0,0.2l0,0v0.3h-0.2V110.4L72.9,110.4z M73.9,110.1h0.2v0.4h0.4v-0.4h0.2v1.1h-0.2v-0.5h-0.4v0.5h-0.2V110.1L73.9,110.1z
		 M75.7,110.8H75c0,0.1,0,0.1,0.1,0.1c0,0,0.1,0,0.2,0c0.1,0,0.1,0,0.2-0.1l0.2,0.1c0,0.1-0.1,0.1-0.1,0.1c-0.1,0-0.1,0-0.2,0
		c-0.1,0-0.2,0-0.3-0.1c-0.1-0.1-0.1-0.2-0.1-0.3c0-0.1,0-0.2,0.1-0.3c0.1-0.1,0.2-0.1,0.3-0.1c0.1,0,0.2,0,0.3,0.1
		C75.6,110.6,75.7,110.7,75.7,110.8L75.7,110.8L75.7,110.8z M75.5,110.7c0,0,0-0.1-0.1-0.1c0,0-0.1,0-0.1,0c-0.1,0-0.1,0-0.1,0
		c0,0,0,0.1-0.1,0.1H75.5L75.5,110.7z M76.4,110.4h0.2v0.8h-0.2v-0.1c0,0-0.1,0.1-0.1,0.1c0,0-0.1,0-0.1,0c-0.1,0-0.2,0-0.3-0.1
		c-0.1-0.1-0.1-0.2-0.1-0.3c0-0.1,0-0.2,0.1-0.3c0.1-0.1,0.2-0.1,0.3-0.1c0,0,0.1,0,0.1,0C76.3,110.4,76.4,110.4,76.4,110.4
		L76.4,110.4L76.4,110.4z M76.2,110.5c-0.1,0-0.1,0-0.2,0.1c0,0-0.1,0.1-0.1,0.2c0,0.1,0,0.1,0.1,0.2c0,0,0.1,0.1,0.2,0.1
		c0.1,0,0.1,0,0.2-0.1c0,0,0.1-0.1,0.1-0.2c0-0.1,0-0.1-0.1-0.2C76.3,110.6,76.3,110.5,76.2,110.5L76.2,110.5z M76.8,110.1H77v1.1
		h-0.2V110.1L76.8,110.1z M77.2,110.1h0.2v0.3h0.1v0.2h-0.1v0.6h-0.2v-0.6h-0.1v-0.2h0.1V110.1L77.2,110.1z M77.6,110.1h0.2v0.4
		c0,0,0.1-0.1,0.1-0.1c0,0,0.1,0,0.1,0c0.1,0,0.1,0,0.2,0.1c0,0,0.1,0.1,0.1,0.2v0.5h-0.2v-0.3c0-0.1,0-0.2,0-0.2c0,0,0-0.1,0-0.1
		c0,0,0,0-0.1,0c0,0-0.1,0-0.1,0c0,0,0,0.1-0.1,0.1c0,0,0,0.1,0,0.2v0.3h-0.2V110.1z"/>
	<rect x="46.2" y="110.1" class="st31" width="19.5" height="0.2"/>
	<rect x="58.7" y="110.9" class="st31" width="7" height="0.2"/>
	<rect x="52.4" y="110.5" class="st31" width="13.3" height="0.2"/>
</g>
<ellipse transform="matrix(0.9107 -0.4131 0.4131 0.9107 -27.5183 23.9613)" class="st30" cx="41.7" cy="75.6" rx="0.9" ry="0.1"/>
<ellipse transform="matrix(0.9107 -0.4131 0.4131 0.9107 -27.6671 23.7919)" class="st28" cx="41.2" cy="75.9" rx="0.4" ry="0.1"/>
</svg>
