<?xml version="1.0" encoding="utf-8"?>
<!-- Generator: Adobe Illustrator 28.3.0, SVG Export Plug-In . SVG Version: 6.00 Build 0)  -->
<svg version="1.0" id="Layer_1" xmlns="http://www.w3.org/2000/svg" xmlns:xlink="http://www.w3.org/1999/xlink" x="0px" y="0px"
	 viewBox="0 0 167.36 75" style="enable-background:new 0 0 167.36 75;" xml:space="preserve">
<style type="text/css">
	.st0{fill:none;stroke:#FFFFFF;stroke-width:0.5;stroke-miterlimit:10;}
	.st1{fill:#FFFFFF;}
	.st2{fill:#FFFFFF;stroke:#FFFFFF;stroke-width:0.5;stroke-miterlimit:10;}
</style>
<path class="st0" d="M67.85-84.55c0-2.67,2.34-4.91,5.11-4.91c1.48,0,2.84,0.64,3.78,1.63l-1.73,1.54c-0.5-0.62-1.25-1.02-2.05-1.02
	c-1.45,0-2.69,1.27-2.69,2.76c0,1.51,1.23,2.78,2.69,2.78c0.82,0,1.55-0.4,2.06-1.02l1.72,1.52c-0.94,1.01-2.3,1.65-3.78,1.65
	C70.19-79.63,67.85-81.88,67.85-84.55z"/>
<path class="st0" d="M84.89-84.34v4.55h-2.24v-4.02c0-0.79-0.5-1.34-1.22-1.34c-0.72,0-1.26,0.54-1.26,1.24v4.12h-2.35v-9.66h2.35
	v3.32c0.44-0.59,1.19-0.97,2.09-0.97C83.79-87.11,84.89-85.96,84.89-84.34z"/>
<path class="st0" d="M86.07-83.37c0-2.03,1.81-3.73,3.98-3.73c2.16,0,3.98,1.7,3.98,3.73s-1.81,3.75-3.98,3.75
	C87.88-79.63,86.07-81.34,86.07-83.37z M91.8-83.37c0-0.97-0.8-1.78-1.76-1.78s-1.76,0.82-1.76,1.78c0,0.97,0.8,1.8,1.76,1.8
	S91.8-82.41,91.8-83.37z"/>
<path class="st0" d="M94.87-83.37c0-2.03,1.81-3.73,3.98-3.73c2.16,0,3.98,1.7,3.98,3.73s-1.81,3.75-3.98,3.75
	C96.68-79.63,94.87-81.34,94.87-83.37z M100.6-83.37c0-0.97-0.8-1.78-1.76-1.78s-1.76,0.82-1.76,1.78c0,0.97,0.8,1.8,1.76,1.8
	S100.6-82.41,100.6-83.37z"/>
<path class="st0" d="M103.48-80.7l0.94-1.51c0.67,0.47,1.58,0.82,2.44,0.82c0.51,0,0.8-0.17,0.8-0.44c0-0.35-0.47-0.48-1.18-0.65
	c-1.39-0.32-2.67-0.68-2.69-2.23c0-1.37,1.12-2.39,2.9-2.39c1.07,0,2.11,0.37,2.91,0.91l-0.86,1.53c-0.62-0.4-1.4-0.71-2.05-0.71
	c-0.43,0-0.73,0.19-0.73,0.42c0,0.32,0.3,0.39,1.15,0.61c1.27,0.3,2.7,0.72,2.7,2.35c0,1.44-1.16,2.36-3.01,2.36
	C105.6-79.63,104.36-80.03,103.48-80.7z"/>
<path class="st0" d="M116.05-82.13l1.39,1.4c-0.64,0.65-1.87,1.11-2.94,1.11c-2.22,0-3.85-1.56-3.85-3.76
	c0-2.17,1.58-3.72,3.74-3.72c2.27,0,3.6,1.66,3.6,4.38h-5.11c0.22,0.72,0.79,1.2,1.55,1.2C114.98-81.52,115.62-81.76,116.05-82.13z
	 M112.9-84.15h2.91c-0.19-0.65-0.68-1.08-1.39-1.08S113.15-84.81,112.9-84.15z"/>
<path class="st0" d="M125.73-86.94h1.48v1.87h-1.48v5.28h-2.24v-5.28h-0.94v-1.87h0.94v-0.51c0-1.34,0.94-2.29,2.29-2.29
	c0.61,0,1.32,0.28,1.75,0.68l-0.47,1.4c-0.14-0.14-0.4-0.24-0.67-0.24c-0.37,0-0.65,0.32-0.65,0.77V-86.94z"/>
<path class="st0" d="M133.12-87.11v1.95c-1.45,0-2.34,0.83-2.34,2.14l-0.01-0.03v3.25h-2.34v-7.15h2.34v1.33
	C131.24-86.54,132.08-87.11,133.12-87.11z"/>
<path class="st0" d="M133.68-83.37c0-2.03,1.81-3.73,3.98-3.73c2.16,0,3.98,1.7,3.98,3.73s-1.81,3.75-3.98,3.75
	C135.49-79.63,133.68-81.34,133.68-83.37z M139.41-83.37c0-0.97-0.8-1.78-1.76-1.78s-1.76,0.82-1.76,1.78c0,0.97,0.8,1.8,1.76,1.8
	S139.41-82.41,139.41-83.37z"/>
<path class="st0" d="M154.33-84.34v4.56h-2.24v-4.15c0-0.72-0.47-1.23-1.14-1.23c-0.71,0-1.21,0.48-1.21,1.13v4.24h-2.24v-4.15
	c0-0.72-0.47-1.23-1.14-1.23c-0.71,0-1.21,0.48-1.21,1.13v4.23h-2.34v-7.15h2.34v0.93c0.35-0.68,1.04-1.09,1.91-1.09
	c0.96,0,1.79,0.47,2.26,1.23c0.39-0.75,1.26-1.23,2.31-1.23C153.14-87.11,154.33-85.96,154.33-84.34z"/>
<path class="st0" d="M70.01-70.03l-1.61,1l-0.94-1.65l3.02-2.02h1.88v9.5h-2.36V-70.03z"/>
<path class="st0" d="M73.76-64.46l1.36-1.67c0.71,0.64,1.57,1.06,2.42,1.06c1,0,1.57-0.55,1.57-1.23c0-0.71-0.6-1.17-1.54-1.17
	c-0.68,0-1.26,0.22-1.75,0.59l-1.57-0.61l0.14-5.21h6.54v2.12h-4.36l-0.06,1.73c0.46-0.33,1.05-0.55,1.8-0.55
	c1.68,0,3.15,1.08,3.15,3.03c0,2.06-1.54,3.36-3.92,3.36C75.91-63.02,74.68-63.57,73.76-64.46z"/>
<path class="st0" d="M82.55-67.95c0-2.88,1.81-4.91,4.38-4.91c2.58,0,4.38,2.03,4.38,4.91c0,2.89-1.8,4.92-4.38,4.92
	C84.36-63.03,82.55-65.07,82.55-67.95z M88.88-67.95c0-1.62-0.8-2.76-1.95-2.76c-1.14,0-1.94,1.15-1.94,2.76
	c0,1.62,0.8,2.78,1.94,2.78C88.07-65.18,88.88-66.34,88.88-67.95z"/>
<path class="st0" d="M92.41-67.95c0-2.88,1.82-4.91,4.38-4.91c2.58,0,4.38,2.03,4.38,4.91c0,2.89-1.8,4.92-4.38,4.92
	C94.23-63.03,92.41-65.07,92.41-67.95z M98.74-67.95c0-1.62-0.8-2.76-1.95-2.76c-1.14,0-1.94,1.15-1.94,2.76
	c0,1.62,0.8,2.78,1.94,2.78C97.94-65.18,98.74-66.34,98.74-67.95z"/>
<path class="st0" d="M109.32-66.89h-2.4v2.47h-1.98v-2.47h-2.42v-1.85h2.42v-2.46h1.98v2.46h2.4V-66.89z"/>
<path class="st0" d="M121.75-65.31v2.12h-6.94v-9.5h2.35v7.38H121.75z"/>
<path class="st0" d="M129.46-67.44v4.24h-2.26v-0.61c-0.5,0.5-1.25,0.77-1.98,0.77c-1.52,0-2.73-0.93-2.73-2.28
	c0-1.4,1.34-2.38,3.03-2.38c0.53,0,1.12,0.12,1.68,0.35v-0.1c0-0.76-0.58-1.31-1.57-1.31c-0.68,0-1.19,0.21-1.8,0.53l-0.73-1.46
	c1-0.5,2.02-0.82,3.13-0.82C128.08-70.51,129.46-69.35,129.46-67.44z M127.2-65.34v-0.76c-0.36-0.14-0.86-0.23-1.34-0.23
	c-0.64,0-1.14,0.4-1.14,0.95c0,0.55,0.44,0.91,1.07,0.91C126.48-64.47,127.11-64.8,127.2-65.34z"/>
<path class="st0" d="M138.97-66.78c0,2.2-1.36,3.75-3.28,3.75c-0.96,0-1.77-0.4-2.34-1.08v0.91h-2.36v-9.66h2.36v3.43
	c0.57-0.68,1.38-1.08,2.34-1.08C137.61-70.51,138.97-68.96,138.97-66.78z M136.71-66.78c0-1.04-0.72-1.78-1.73-1.78
	c-0.97,0-1.63,0.75-1.63,1.78c0,1.05,0.67,1.8,1.63,1.8C135.99-64.98,136.71-65.73,136.71-66.78z"/>
<path class="st0" d="M139.69-64.11l0.94-1.51c0.67,0.47,1.58,0.82,2.44,0.82c0.51,0,0.8-0.17,0.8-0.44c0-0.35-0.47-0.48-1.18-0.65
	c-1.39-0.32-2.67-0.68-2.69-2.23c0-1.37,1.12-2.39,2.9-2.39c1.07,0,2.11,0.37,2.91,0.91l-0.86,1.53c-0.62-0.4-1.4-0.71-2.05-0.71
	c-0.43,0-0.73,0.19-0.73,0.42c0,0.32,0.3,0.39,1.15,0.61c1.27,0.3,2.7,0.72,2.7,2.35c0,1.44-1.16,2.36-3.01,2.36
	C141.81-63.03,140.56-63.43,139.69-64.11z"/>
<path class="st0" d="M33.65-54.45c-12.26,0-22.24-9.96-22.24-22.19s9.97-22.19,22.24-22.19s22.24,9.96,22.24,22.19
	S45.91-54.45,33.65-54.45z M33.65-96.84c-11.16,0-20.24,9.06-20.24,20.19c0,11.13,9.08,20.19,20.24,20.19s20.24-9.06,20.24-20.19
	C53.89-87.78,44.81-96.84,33.65-96.84z"/>
<path class="st0" d="M43.13-67.48h-1.95v-1.09c0-1.14-0.42-2.24-1.18-3.08c0.1-0.09,0.19-0.17,0.28-0.27
	c1.46-1.45,2.26-3.38,2.26-5.43c0-1.02-0.2-2.02-0.59-2.95c0.05-0.21,0.07-0.42,0.07-0.64c0-0.88-0.39-1.67-1-2.21l0.18-0.31
	c0.39-0.67,0.29-1.48-0.19-2.04l0.72-1.25c0.1,0,0.2-0.01,0.31-0.04c0.31-0.08,0.56-0.28,0.72-0.55l0.89-1.54
	c0.16-0.28,0.07-0.64-0.22-0.81l-5.64-3.25c-0.14-0.08-0.3-0.1-0.45-0.06c-0.15,0.04-0.28,0.14-0.36,0.28l-0.89,1.54
	c-0.22,0.38-0.2,0.83,0,1.18l-0.72,1.25c-0.26-0.05-0.52-0.04-0.78,0.03c-0.46,0.12-0.84,0.42-1.08,0.82l-3.26,5.63
	c-0.24,0.41-0.3,0.89-0.18,1.35c0.07,0.26,0.19,0.5,0.36,0.69l-0.64,1.11c-0.16,0.27-0.2,0.59-0.12,0.9
	c0.08,0.31,0.28,0.56,0.55,0.72l3.59,2.07c0.19,0.11,0.39,0.16,0.59,0.16c0.41,0,0.81-0.21,1.03-0.59l0.64-1.11
	c0.11,0.02,0.21,0.03,0.32,0.03c0.15,0,0.31-0.02,0.46-0.06c0.46-0.12,0.84-0.42,1.08-0.82l0.18-0.31c0.26,0.09,0.53,0.14,0.82,0.15
	c0.03,0.21,0.05,0.42,0.05,0.64c0,1.1-0.43,2.14-1.22,2.92c-0.79,0.78-1.83,1.22-2.93,1.22h-2.07c-0.33,0-0.59,0.26-0.59,0.59
	s0.27,0.59,0.59,0.59h2.07c0.33,0,0.59,0.27,0.59,0.59s-0.27,0.59-0.59,0.59h-9.48c-0.33,0-0.59-0.27-0.59-0.59s0.27-0.59,0.59-0.59
	h2.07c0.33,0,0.59-0.26,0.59-0.59s-0.27-0.59-0.59-0.59h-2.07c-0.98,0-1.78,0.8-1.78,1.77s0.8,1.77,1.78,1.77h1.5v2.19h-2.68
	c-0.98,0-1.78,0.8-1.78,1.77v2.36c0,0.33,0.27,0.59,0.59,0.59h21.32c0.33,0,0.59-0.26,0.59-0.59v-2.36
	C44.91-66.69,44.11-67.48,43.13-67.48L43.13-67.48z M39.99-68.58v1.09H38.8v-1.09c0-0.71-0.33-1.34-0.83-1.76
	c0.38-0.17,0.74-0.37,1.09-0.6C39.65-70.29,39.99-69.46,39.99-68.58L39.99-68.58z M34.84-69.67h1.69c0.6,0,1.1,0.49,1.1,1.09v1.09
	h-4.25v-2.19H34.84z M39.05-79.17c-0.98,0-1.78-0.8-1.78-1.77s0.8-1.77,1.78-1.77s1.78,0.8,1.78,1.77S40.03-79.17,39.05-79.17z
	 M36.44-88.25l0.59-1.02l3.59,2.07l-0.59,1.02L36.44-88.25z M37.7-91.62l4.62,2.66l-0.59,1.02l-4.62-2.66L37.7-91.62z M30.81-78.53
	l0.59-1.02l3.59,2.07l-0.59,1.02L30.81-78.53z M36.91-78.43c-0.08,0.14-0.21,0.23-0.36,0.27c-0.15,0.04-0.31,0.02-0.45-0.06
	l-4.62-2.66c0,0,0,0,0,0c0,0,0,0,0,0c-0.14-0.08-0.23-0.21-0.27-0.36c-0.04-0.15-0.02-0.31,0.06-0.45l3.26-5.63
	c0.08-0.14,0.21-0.23,0.36-0.27c0.15-0.04,0.31-0.02,0.45,0.06l4.62,2.66c0.28,0.16,0.38,0.53,0.22,0.81l-0.18,0.31
	c-0.29-0.1-0.61-0.15-0.94-0.15c-1.63,0-2.96,1.33-2.96,2.96c0,0.88,0.39,1.67,1,2.21L36.91-78.43z M36.41-72.27
	c0.82-0.25,1.57-0.7,2.19-1.33c1.01-1.01,1.57-2.34,1.57-3.76c0-0.28-0.02-0.56-0.07-0.83c0.41-0.15,0.77-0.4,1.07-0.7
	c0.12,0.5,0.18,1.01,0.18,1.53c0,1.73-0.68,3.36-1.91,4.59c-0.81,0.81-1.79,1.38-2.86,1.67c0.02-0.11,0.04-0.23,0.04-0.36
	C36.61-71.74,36.54-72.02,36.41-72.27L36.41-72.27z M28.04-69.67h4.15v2.19h-4.15L28.04-69.67z M43.72-63.94H23.58v-1.77
	c0-0.33,0.27-0.59,0.59-0.59h18.96c0.33,0,0.59,0.27,0.59,0.59V-63.94z"/>
<path class="st0" d="M30.69-72.63c0-0.33-0.27-0.59-0.59-0.59h0c-0.33,0-0.59,0.26-0.59,0.59s0.27,0.59,0.59,0.59
	S30.69-72.3,30.69-72.63z"/>
<path class="st1" d="M67.85,29.96c0-2.67,2.34-4.91,5.11-4.91c1.48,0,2.84,0.64,3.78,1.63l-1.73,1.54c-0.5-0.62-1.25-1.02-2.05-1.02
	c-1.45,0-2.69,1.27-2.69,2.76c0,1.51,1.23,2.78,2.69,2.78c0.82,0,1.55-0.4,2.06-1.02l1.72,1.52c-0.94,1.01-2.3,1.65-3.78,1.65
	C70.19,34.88,67.85,32.63,67.85,29.96z"/>
<path class="st1" d="M84.89,30.17v4.55h-2.24V30.7c0-0.79-0.5-1.34-1.22-1.34c-0.72,0-1.26,0.54-1.26,1.24v4.12h-2.35v-9.66h2.35
	v3.32c0.44-0.59,1.19-0.97,2.09-0.97C83.79,27.4,84.89,28.55,84.89,30.17z"/>
<path class="st1" d="M86.07,31.14c0-2.03,1.81-3.73,3.98-3.73c2.16,0,3.98,1.7,3.98,3.73s-1.81,3.75-3.98,3.75
	C87.88,34.88,86.07,33.17,86.07,31.14z M91.8,31.14c0-0.97-0.8-1.78-1.76-1.78s-1.76,0.82-1.76,1.78c0,0.97,0.8,1.8,1.76,1.8
	S91.8,32.1,91.8,31.14z"/>
<path class="st1" d="M94.87,31.14c0-2.03,1.81-3.73,3.98-3.73c2.16,0,3.98,1.7,3.98,3.73s-1.81,3.75-3.98,3.75
	C96.68,34.88,94.87,33.17,94.87,31.14z M100.6,31.14c0-0.97-0.8-1.78-1.76-1.78s-1.76,0.82-1.76,1.78c0,0.97,0.8,1.8,1.76,1.8
	S100.6,32.1,100.6,31.14z"/>
<path class="st1" d="M103.48,33.81l0.94-1.51c0.67,0.47,1.58,0.82,2.44,0.82c0.51,0,0.8-0.17,0.8-0.44c0-0.35-0.47-0.48-1.18-0.65
	c-1.39-0.32-2.67-0.68-2.69-2.23c0-1.37,1.12-2.39,2.9-2.39c1.07,0,2.11,0.37,2.91,0.91l-0.86,1.53c-0.62-0.4-1.4-0.71-2.05-0.71
	c-0.43,0-0.73,0.19-0.73,0.42c0,0.32,0.3,0.39,1.15,0.61c1.27,0.3,2.7,0.72,2.7,2.35c0,1.44-1.16,2.36-3.01,2.36
	C105.6,34.88,104.36,34.48,103.48,33.81z"/>
<path class="st1" d="M116.05,32.38l1.39,1.4c-0.64,0.65-1.87,1.11-2.94,1.11c-2.22,0-3.85-1.56-3.85-3.76
	c0-2.17,1.58-3.72,3.74-3.72c2.27,0,3.6,1.66,3.6,4.38h-5.11c0.22,0.72,0.79,1.2,1.55,1.2C114.98,32.99,115.62,32.76,116.05,32.38z
	 M112.9,30.36h2.91c-0.19-0.65-0.68-1.08-1.39-1.08S113.15,29.7,112.9,30.36z"/>
<path class="st1" d="M125.73,27.57h1.48v1.87h-1.48v5.28h-2.24v-5.28h-0.94v-1.87h0.94v-0.51c0-1.34,0.94-2.29,2.29-2.29
	c0.61,0,1.32,0.28,1.75,0.68l-0.47,1.4c-0.14-0.14-0.4-0.24-0.67-0.24c-0.37,0-0.65,0.32-0.65,0.77V27.57z"/>
<path class="st1" d="M133.12,27.4v1.95c-1.45,0-2.34,0.83-2.34,2.14l-0.01-0.03v3.25h-2.34v-7.15h2.34v1.33
	C131.24,27.97,132.08,27.4,133.12,27.4z"/>
<path class="st1" d="M133.68,31.14c0-2.03,1.81-3.73,3.98-3.73c2.16,0,3.98,1.7,3.98,3.73s-1.81,3.75-3.98,3.75
	C135.49,34.88,133.68,33.17,133.68,31.14z M139.41,31.14c0-0.97-0.8-1.78-1.76-1.78s-1.76,0.82-1.76,1.78c0,0.97,0.8,1.8,1.76,1.8
	S139.41,32.1,139.41,31.14z"/>
<path class="st1" d="M154.33,30.17v4.56h-2.24v-4.15c0-0.72-0.47-1.23-1.14-1.23c-0.71,0-1.21,0.48-1.21,1.13v4.24h-2.24v-4.15
	c0-0.72-0.47-1.23-1.14-1.23c-0.71,0-1.21,0.48-1.21,1.13v4.23h-2.34v-7.15h2.34v0.93c0.35-0.68,1.04-1.09,1.91-1.09
	c0.96,0,1.79,0.47,2.26,1.23c0.39-0.75,1.26-1.23,2.31-1.23C153.14,27.4,154.33,28.55,154.33,30.17z"/>
<path class="st1" d="M70.01,44.48l-1.61,1l-0.94-1.65l3.02-2.02h1.88v9.5h-2.36V44.48z"/>
<path class="st1" d="M73.76,50.05l1.36-1.67c0.71,0.64,1.57,1.06,2.42,1.06c1,0,1.57-0.55,1.57-1.23c0-0.71-0.6-1.17-1.54-1.17
	c-0.68,0-1.26,0.22-1.75,0.59l-1.57-0.61l0.14-5.21h6.54v2.12h-4.36l-0.06,1.73c0.46-0.33,1.05-0.55,1.8-0.55
	c1.68,0,3.15,1.08,3.15,3.03c0,2.06-1.54,3.36-3.92,3.36C75.91,51.49,74.68,50.94,73.76,50.05z"/>
<path class="st1" d="M82.55,46.56c0-2.88,1.81-4.91,4.38-4.91c2.58,0,4.38,2.03,4.38,4.91c0,2.89-1.8,4.92-4.38,4.92
	C84.36,51.48,82.55,49.45,82.55,46.56z M88.88,46.56c0-1.62-0.8-2.76-1.95-2.76c-1.14,0-1.94,1.15-1.94,2.76
	c0,1.62,0.8,2.78,1.94,2.78C88.07,49.34,88.88,48.17,88.88,46.56z"/>
<path class="st1" d="M92.41,46.56c0-2.88,1.82-4.91,4.38-4.91c2.58,0,4.38,2.03,4.38,4.91c0,2.89-1.8,4.92-4.38,4.92
	C94.23,51.48,92.41,49.45,92.41,46.56z M98.74,46.56c0-1.62-0.8-2.76-1.95-2.76c-1.14,0-1.94,1.15-1.94,2.76
	c0,1.62,0.8,2.78,1.94,2.78C97.94,49.34,98.74,48.17,98.74,46.56z"/>
<path class="st1" d="M109.32,47.62h-2.4v2.47h-1.98v-2.47h-2.42v-1.85h2.42v-2.46h1.98v2.46h2.4V47.62z"/>
<path class="st1" d="M121.75,49.2v2.12h-6.94v-9.5h2.35v7.38H121.75z"/>
<path class="st1" d="M129.46,47.07v4.24h-2.26V50.7c-0.5,0.5-1.25,0.77-1.98,0.77c-1.52,0-2.73-0.93-2.73-2.28
	c0-1.4,1.34-2.38,3.03-2.38c0.53,0,1.12,0.12,1.68,0.35v-0.1c0-0.76-0.58-1.31-1.57-1.31c-0.68,0-1.19,0.21-1.8,0.53l-0.73-1.46
	c1-0.5,2.02-0.82,3.13-0.82C128.08,44,129.46,45.16,129.46,47.07z M127.2,49.17v-0.76c-0.36-0.14-0.86-0.23-1.34-0.23
	c-0.64,0-1.14,0.4-1.14,0.95c0,0.55,0.44,0.91,1.07,0.91C126.48,50.04,127.11,49.71,127.2,49.17z"/>
<path class="st1" d="M138.97,47.73c0,2.2-1.36,3.75-3.28,3.75c-0.96,0-1.77-0.4-2.34-1.08v0.91h-2.36v-9.66h2.36v3.43
	c0.57-0.68,1.38-1.08,2.34-1.08C137.61,44,138.97,45.55,138.97,47.73z M136.71,47.73c0-1.04-0.72-1.78-1.73-1.78
	c-0.97,0-1.63,0.75-1.63,1.78c0,1.05,0.67,1.8,1.63,1.8C135.99,49.53,136.71,48.78,136.71,47.73z"/>
<path class="st1" d="M139.69,50.4l0.94-1.51c0.67,0.47,1.58,0.82,2.44,0.82c0.51,0,0.8-0.17,0.8-0.44c0-0.35-0.47-0.48-1.18-0.65
	c-1.39-0.32-2.67-0.68-2.69-2.23c0-1.37,1.12-2.39,2.9-2.39c1.07,0,2.11,0.37,2.91,0.91l-0.86,1.53c-0.62-0.4-1.4-0.71-2.05-0.71
	c-0.43,0-0.73,0.19-0.73,0.42c0,0.32,0.3,0.39,1.15,0.61c1.27,0.3,2.7,0.72,2.7,2.35c0,1.44-1.16,2.36-3.01,2.36
	C141.81,51.48,140.56,51.08,139.69,50.4z"/>
<path class="st2" d="M33.65,60.06c-12.26,0-22.24-9.96-22.24-22.19s9.97-22.19,22.24-22.19s22.24,9.96,22.24,22.19
	S45.91,60.06,33.65,60.06z M33.65,17.67c-11.16,0-20.24,9.06-20.24,20.19c0,11.13,9.08,20.19,20.24,20.19S53.89,49,53.89,37.86
	C53.89,26.73,44.81,17.67,33.65,17.67z"/>
<path class="st1" d="M43.13,47.03h-1.95v-1.09c0-1.14-0.42-2.24-1.18-3.08c0.1-0.09,0.19-0.17,0.28-0.27
	c1.46-1.45,2.26-3.38,2.26-5.43c0-1.02-0.2-2.02-0.59-2.95c0.05-0.21,0.07-0.42,0.07-0.64c0-0.88-0.39-1.67-1-2.21l0.18-0.31
	c0.39-0.67,0.29-1.48-0.19-2.04l0.72-1.25c0.1,0,0.2-0.01,0.31-0.04c0.31-0.08,0.56-0.28,0.72-0.55l0.89-1.54
	c0.16-0.28,0.07-0.64-0.22-0.81l-5.64-3.25c-0.14-0.08-0.3-0.1-0.45-0.06c-0.15,0.04-0.28,0.14-0.36,0.28l-0.89,1.54
	c-0.22,0.38-0.2,0.83,0,1.18l-0.72,1.25c-0.26-0.05-0.52-0.04-0.78,0.03c-0.46,0.12-0.84,0.42-1.08,0.82l-3.26,5.63
	c-0.24,0.41-0.3,0.89-0.18,1.35c0.07,0.26,0.19,0.5,0.36,0.69l-0.64,1.11c-0.16,0.27-0.2,0.59-0.12,0.9
	c0.08,0.31,0.28,0.56,0.55,0.72l3.59,2.07c0.19,0.11,0.39,0.16,0.59,0.16c0.41,0,0.81-0.21,1.03-0.59l0.64-1.11
	c0.11,0.02,0.21,0.03,0.32,0.03c0.15,0,0.31-0.02,0.46-0.06c0.46-0.12,0.84-0.42,1.08-0.82l0.18-0.31c0.26,0.09,0.53,0.14,0.82,0.15
	c0.03,0.21,0.05,0.42,0.05,0.64c0,1.1-0.43,2.14-1.22,2.92c-0.79,0.78-1.83,1.22-2.93,1.22h-2.07c-0.33,0-0.59,0.26-0.59,0.59
	c0,0.33,0.27,0.59,0.59,0.59h2.07c0.33,0,0.59,0.27,0.59,0.59s-0.27,0.59-0.59,0.59h-9.48c-0.33,0-0.59-0.27-0.59-0.59
	s0.27-0.59,0.59-0.59h2.07c0.33,0,0.59-0.26,0.59-0.59c0-0.33-0.27-0.59-0.59-0.59h-2.07c-0.98,0-1.78,0.8-1.78,1.77
	s0.8,1.77,1.78,1.77h1.5v2.19h-2.68c-0.98,0-1.78,0.8-1.78,1.77v2.36c0,0.33,0.27,0.59,0.59,0.59h21.32c0.33,0,0.59-0.26,0.59-0.59
	V48.8C44.91,47.82,44.11,47.03,43.13,47.03L43.13,47.03z M39.99,45.93v1.09H38.8v-1.09c0-0.71-0.33-1.34-0.83-1.76
	c0.38-0.17,0.74-0.37,1.09-0.6C39.65,44.22,39.99,45.06,39.99,45.93L39.99,45.93z M34.84,44.84h1.69c0.6,0,1.1,0.49,1.1,1.09v1.09
	h-4.25v-2.19H34.84z M39.05,35.34c-0.98,0-1.78-0.8-1.78-1.77s0.8-1.77,1.78-1.77s1.78,0.8,1.78,1.77S40.03,35.34,39.05,35.34z
	 M36.44,26.26l0.59-1.02l3.59,2.07l-0.59,1.02L36.44,26.26z M37.7,22.89l4.62,2.66l-0.59,1.02l-4.62-2.66L37.7,22.89z M30.81,35.98
	l0.59-1.02l3.59,2.07l-0.59,1.02L30.81,35.98z M36.91,36.08c-0.08,0.14-0.21,0.23-0.36,0.27c-0.15,0.04-0.31,0.02-0.45-0.06
	l-4.62-2.66c0,0,0,0,0,0c0,0,0,0,0,0c-0.14-0.08-0.23-0.21-0.27-0.36c-0.04-0.15-0.02-0.31,0.06-0.45l3.26-5.63
	c0.08-0.14,0.21-0.23,0.36-0.27c0.15-0.04,0.31-0.02,0.45,0.06l4.62,2.66c0.28,0.16,0.38,0.53,0.22,0.81l-0.18,0.31
	c-0.29-0.1-0.61-0.15-0.94-0.15c-1.63,0-2.96,1.33-2.96,2.96c0,0.88,0.39,1.67,1,2.21L36.91,36.08z M36.41,42.24
	c0.82-0.25,1.57-0.7,2.19-1.33c1.01-1.01,1.57-2.34,1.57-3.76c0-0.28-0.02-0.56-0.07-0.83c0.41-0.15,0.77-0.4,1.07-0.7
	c0.12,0.5,0.18,1.01,0.18,1.53c0,1.73-0.68,3.36-1.91,4.59c-0.81,0.81-1.79,1.38-2.86,1.67c0.02-0.11,0.04-0.23,0.04-0.36
	C36.61,42.77,36.54,42.49,36.41,42.24L36.41,42.24z M28.04,44.84h4.15v2.19h-4.15L28.04,44.84z M43.72,50.58H23.58V48.8
	c0-0.33,0.27-0.59,0.59-0.59h18.96c0.33,0,0.59,0.27,0.59,0.59V50.58z"/>
<path class="st1" d="M30.69,41.89c0-0.33-0.27-0.59-0.59-0.59h0c-0.33,0-0.59,0.26-0.59,0.59c0,0.33,0.27,0.59,0.59,0.59
	S30.69,42.21,30.69,41.89z"/>
</svg>
