<svg width="50" height="50" viewBox="0 0 50 50" fill="none" xmlns="http://www.w3.org/2000/svg">
<path d="M44.2815 36.5075C42.5474 36.9876 41.7563 37.4775 40.6613 38.1588C40.2304 38.4278 39.7384 38.7301 39.1298 39.0709C38.5552 40.3368 37.2175 41.2809 35.9251 41.4066C35.9251 41.4066 35.281 41.373 35.2402 41.4066C35.1994 41.4401 35.1085 41.4066 35.1085 41.4066C35.1085 41.4066 34.9229 41.4066 33.5 41.4066C31.9023 41.2678 29.7149 41.2306 29.1521 41.2306C29.0759 41.2306 29.0003 41.2256 28.9241 41.2161C28.4017 41.1585 25.1161 40.5778 24.7207 39.9774C24.6398 39.8477 24.4519 39.3916 24.6752 38.979C24.8778 38.6046 25.3139 38.4027 25.7652 38.4748L34.05 38.4654C35.3279 38.4654 36.3674 37.515 36.3674 36.3478C36.3674 35.1861 35.3637 34.2784 34.0808 34.2784L26.7845 34.2787H25.8463C25.2834 34.2787 24.7255 34.1205 24.2285 33.8227C22.6268 32.8585 19.3563 31.3701 15.5179 32.2872C14.0425 32.6375 12.7035 33.3243 11.4261 34.3851C11.0407 34.6972 10.6249 34.9804 10.184 35.2159L2 39.5793C2.49167 41.3028 3.2574 42.9304 4.28659 44.4235C5.20412 45.7584 6.31982 46.9534 7.59228 48C8.56055 47.2604 9.62551 46.7183 10.66 46.1996C11.0658 46.0027 11.4712 45.8011 11.872 45.5853C13.2256 44.8603 14.5797 44.2264 16.278 44.3897C18.2504 44.5815 20.0506 45.3641 23.6454 46.9198L23.98 47.0635C24.9182 47.4765 25.4353 47.7018 26.2412 47.7689C26.9675 47.8322 28.0947 47.7104 29.2577 47.5501C32.0467 47.1656 34.937 46.7097 37.4544 45.4493C39.6676 44.3412 42.1983 42.6893 45.7002 39.8049C46.4706 39.1805 46.9676 38.4561 46.9984 37.8747C47.0184 37.4187 46.8513 37.0586 46.5014 36.7946C45.9746 36.4016 45.0826 36.2872 44.2815 36.5075Z" fill="#7BDB81" stroke="#7BDB81" stroke-width="2"/>
<path d="M29.4147 2.28185L29.2701 2.04717C28.4699 0.765028 27.0914 0.000244141 25.5843 0.000244141C23.1935 0.000244141 21.2461 1.94767 21.2461 4.33842C21.2461 5.60437 21.7988 6.80313 22.7595 7.62891L22.9684 7.80891L29.4147 2.28185Z" fill="#7BDB81"/>
<path d="M43.2582 5.1659e-05C41.751 5.1659e-05 40.3725 0.764835 39.5725 2.04697L39.4279 2.28165L45.8742 7.80866L46.0831 7.62867C47.0438 6.80289 47.5966 5.60419 47.5966 4.33817C47.5966 1.94742 45.6491 0 43.2584 0L43.2582 5.1659e-05Z" fill="#7BDB81"/>
<rect width="2.28436" height="6.55884" transform="matrix(0.849207 -0.52806 0.472454 0.881355 38 23.2063)" fill="#61BB67"/>
<rect width="2.28436" height="6.55884" transform="matrix(-0.849207 -0.52806 -0.472454 0.881355 31.1724 23.2063)" fill="#61BB67"/>
<circle cx="34.5" cy="14.5" r="10.5" fill="#61BB67" stroke="#7BDB81" stroke-width="2"/>
<rect x="34" y="8" width="1.5" height="8" fill="#143A69"/>
<path d="M34.4999 15L35.4999 16L30.9026 19.0201L29.9999 17.8222L34.4999 15Z" fill="#143A69"/>
</svg>
