<?xml version="1.0" encoding="utf-8"?>
<!-- Generator: Adobe Illustrator 28.0.0, SVG Export Plug-In . SVG Version: 6.00 Build 0)  -->
<svg version="1.1" id="Layer_1" xmlns="http://www.w3.org/2000/svg" xmlns:xlink="http://www.w3.org/1999/xlink" x="0px" y="0px"
	 width="179px" height="141px" viewBox="0 0 179 141" style="enable-background:new 0 0 179 141;" xml:space="preserve">
<style type="text/css">
	.st0{display:none;}
	.st1{display:inline;fill:#FFFFFF;}
	.st2{display:inline;fill:#F2F3F5;}
	.st3{display:inline;fill:#143A69;}
	.st4{display:inline;fill:none;}
	.st5{display:inline;fill-rule:evenodd;clip-rule:evenodd;fill:#E5E9FC;}
	.st6{display:inline;fill-rule:evenodd;clip-rule:evenodd;fill:#DFE3FA;}
	.st7{display:inline;fill-rule:evenodd;clip-rule:evenodd;fill:#222222;}
	.st8{display:inline;fill-rule:evenodd;clip-rule:evenodd;fill:#D0D3D4;}
	.st9{display:inline;fill-rule:evenodd;clip-rule:evenodd;fill:#081A31;}
	.st10{display:inline;fill-rule:evenodd;clip-rule:evenodd;fill:#BFBFBF;}
	.st11{display:inline;fill-rule:evenodd;clip-rule:evenodd;fill:#7BDB81;}
	.st12{display:inline;fill-rule:evenodd;clip-rule:evenodd;fill:#797D7F;}
	.st13{display:inline;fill-rule:evenodd;clip-rule:evenodd;fill:#4375B1;}
	.st14{display:inline;fill-rule:evenodd;clip-rule:evenodd;fill:#D7D0D0;}
	.st15{display:inline;fill-rule:evenodd;clip-rule:evenodd;fill:#D0E2F9;}
	.st16{display:inline;fill:#081A31;}
	.st17{display:inline;fill:#C1626E;}
	.st18{display:inline;fill:#A35A6A;}
	.st19{display:inline;fill:none;stroke:#080C3E;stroke-width:0.3068;stroke-linecap:round;stroke-linejoin:round;}
	.st20{display:inline;fill:#7BDB81;}
	.st21{display:inline;}
	.st22{fill-opacity:0.2;}
	.st23{display:inline;opacity:0.22;fill:url(#SVGID_1_);enable-background:new    ;}
	.st24{display:inline;fill:none;stroke:#080C3E;stroke-width:0.2993;stroke-linecap:round;stroke-linejoin:round;}
	.st25{display:inline;fill:#1598E1;}
	.st26{display:inline;fill:none;stroke:#7AC1DD;stroke-width:0.2282;stroke-linecap:round;stroke-linejoin:round;}
	.st27{display:inline;fill:#FEC4AD;}
	.st28{display:inline;fill:#140D0F;}
	.st29{display:inline;fill:#F4BCA6;}
	.st30{display:inline;fill:none;stroke:#080C3E;stroke-width:0.2095;stroke-linecap:round;stroke-linejoin:round;}
	.st31{display:inline;fill:#61BB66;stroke:#7BDB81;stroke-width:0.4;}
	.st32{display:inline;fill:#D3D3D3;}
	.st33{display:inline;fill:none;stroke:#D3D3D3;stroke-width:0.1683;stroke-miterlimit:10;}
	.st34{display:inline;fill:#FFFFFF;stroke:#7BDB81;stroke-width:0.3367;stroke-miterlimit:10;}
	.st35{display:inline;fill:#EBB19B;}
	.st36{display:inline;fill:none;stroke:#7BDB81;stroke-width:1.01;stroke-linecap:round;stroke-linejoin:round;}
	.st37{display:inline;fill:url(#SVGID_00000060731324237519983100000005986668638758998179_);}
	.st38{display:inline;fill:url(#SVGID_00000106850908046950822300000000016260260303491462_);}
	.st39{display:inline;fill:#69CBF7;}
	.st40{display:inline;fill:none;stroke:#EBECF2;stroke-width:0.3068;stroke-linecap:round;stroke-linejoin:round;}
	.st41{display:inline;fill-rule:evenodd;clip-rule:evenodd;fill:#FFFFFF;}
	.st42{display:inline;fill:url(#SVGID_00000071554906815181643470000015552140075280666555_);}
	.st43{display:inline;fill:#0E0E35;}
	
		.st44{display:inline;opacity:0.38;fill:url(#SVGID_00000111161936583081678340000011786591942572191911_);enable-background:new    ;}
	.st45{display:inline;opacity:0.39;fill:#6161AD;enable-background:new    ;}
	.st46{display:inline;fill:#121235;}
	.st47{clip-path:url(#SVGID_00000121994821283874381460000016105010740492483480_);}
	.st48{fill:#FFFFFF;}
	.st49{opacity:0.2;fill:#7BDB81;}
	.st50{fill:#1A3B69;}
	.st51{fill-rule:evenodd;clip-rule:evenodd;fill:#FFFFFF;}
	.st52{fill:#47284F;}
	.st53{fill:#00517C;}
	.st54{fill:#163C67;}
	.st55{opacity:0.15;}
	.st56{fill:#F7A28B;}
	.st57{fill:#F38B77;}
	.st58{fill:#3F4F6D;}
	.st59{fill:#435378;}
	.st60{fill:#C1D1D6;}
	.st61{fill:#92A1AF;}
	.st62{fill:#B94063;}
	.st63{fill:#7BDB81;}
	.st64{fill:#F9F6C6;}
	.st65{fill:#FBC7AB;}
	.st66{opacity:0.3;fill:#47284F;}
	.st67{opacity:0.67;}
	.st68{fill:#10153D;}
	.st69{fill-rule:evenodd;clip-rule:evenodd;fill:#7BDB81;}
</style>
<g class="st0">
	<rect class="st1" width="178.3" height="140.5"/>
	<path class="st2" d="M46.7,133.8C27.2,125,11.5,106.2,10,84.9C8.6,63.7,24.3,41.3,45.5,38.9c10.1-1.1,20.5,1.9,30.3-0.8
		c18.4-5,26.8-27.4,44.2-35.3c16.7-7.6,37.7,1.2,48,16.5c10.3,15.2,11.8,34.9,9.2,53.1c-3.8,26.7-18.2,54.5-43.7,63.3
		C111.8,143.1,68.2,141.4,46.7,133.8z"/>
</g>
<g class="st0">
	<path class="st3" d="M28.5,75.4H0.3c-0.1,0-0.1-0.1-0.2-0.2C0,75.2,0,75.1,0,74.9s0-0.3,0.1-0.4c0-0.1,0.1-0.2,0.2-0.2h28.2
		c0.1,0,0.1,0.1,0.2,0.2c0,0.1,0.1,0.2,0.1,0.4c0,0.1,0,0.3-0.1,0.4C28.6,75.4,28.6,75.4,28.5,75.4z"/>
	<path class="st3" d="M31.4,79.9H14.7c-0.1,0-0.1-0.1-0.2-0.2c0-0.1-0.1-0.2-0.1-0.4s0-0.3,0.1-0.4c0-0.1,0.1-0.2,0.2-0.2h16.7
		c0.1,0,0.1,0.1,0.2,0.2c0,0.1,0.1,0.2,0.1,0.4s0,0.3-0.1,0.4C31.5,79.8,31.5,79.9,31.4,79.9z"/>
	<path class="st3" d="M24,86.3H1.5c-0.1,0-0.1-0.1-0.2-0.2c0-0.1-0.1-0.2-0.1-0.4c0-0.1,0-0.3,0.1-0.4c0-0.1,0.1-0.2,0.2-0.2H24
		c0.1,0,0.1,0.1,0.2,0.2c0,0.1,0.1,0.2,0.1,0.4s0,0.3-0.1,0.4S24.1,86.3,24,86.3z"/>
	<path class="st3" d="M39.7,26.3H24.1c0,0-0.1,0-0.1-0.1c0-0.1,0-0.2,0-0.3s0-0.2,0-0.3c0-0.1,0.1-0.1,0.1-0.1h15.6
		c0,0,0.1,0,0.1,0.1c0,0.1,0,0.2,0,0.3c0,0.1,0,0.2,0,0.3C39.8,26.2,39.7,26.3,39.7,26.3z"/>
	<path class="st3" d="M41.3,28.7h-9.2c0,0-0.1,0-0.1-0.1c0-0.1,0-0.2,0-0.3s0-0.2,0-0.3c0-0.1,0.1-0.1,0.1-0.1h9.2
		c0,0,0.1,0,0.1,0.1c0,0.1,0,0.2,0,0.3s0,0.2,0,0.3C41.4,28.7,41.3,28.7,41.3,28.7z"/>
	<path class="st3" d="M37.2,32.3H24.8c0,0-0.1-0.1-0.1-0.1c0-0.1,0-0.2,0-0.3c0-0.1,0-0.2,0-0.3c0-0.1,0.1-0.1,0.1-0.1h12.5
		c0,0,0.1,0,0.1,0.1c0,0.1,0,0.2,0,0.3c0,0.1,0,0.2,0,0.3C37.3,32.3,37.3,32.3,37.2,32.3z"/>
</g>
<g class="st0">
	<rect class="st4" width="178.3" height="140.5"/>
	<path class="st5" d="M125.2,63.5h-2.9v8.2h2.9V63.5z"/>
	<path class="st5" d="M134.6,78.6h-2.9v8.2h2.9V78.6z"/>
	<path class="st6" d="M94.7,78.6h-2.9v8.2h2.9V78.6z"/>
	<path class="st6" d="M85.3,78.6h-2.9v8.2h2.9V78.6z"/>
	<path class="st7" d="M52.9,102.8c-3.3,0-6.5,1-9.2,2.8c-2.7,1.8-4.8,4.4-6.1,7.5c-1.2,3-1.6,6.4-0.9,9.6c0.6,3.2,2.2,6.2,4.5,8.5
		c2.3,2.3,5.3,3.9,8.5,4.5c3.2,0.6,6.6,0.3,9.6-1c3-1.3,5.6-3.4,7.4-6.1c1.8-2.7,2.8-5.9,2.8-9.2c0-4.4-1.8-8.6-4.9-11.7
		C61.5,104.6,57.3,102.8,52.9,102.8L52.9,102.8z"/>
	<path class="st8" d="M52.9,111.2c-1.6,0-3.2,0.5-4.5,1.4c-1.3,0.9-2.4,2.2-3,3.7c-0.6,1.5-0.8,3.1-0.5,4.7c0.3,1.6,1.1,3,2.2,4.2
		c1.1,1.1,2.6,1.9,4.2,2.2c1.6,0.3,3.2,0.1,4.7-0.5c1.5-0.6,2.8-1.7,3.7-3c0.9-1.3,1.4-2.9,1.4-4.5c0-2.2-0.9-4.2-2.4-5.8
		C57.1,112.1,55.1,111.2,52.9,111.2L52.9,111.2z"/>
	<path class="st9" d="M52.9,102.8c-3.5,0-6.9,1.1-9.7,3.1c-2.8,2-5,4.9-6.1,8.2c2.4-0.1,5.9-0.2,9.7-0.3c0.8-0.9,1.8-1.5,2.8-2
		c1.1-0.5,2.2-0.7,3.4-0.7c1.2,0,2.3,0.3,3.4,0.8s2,1.2,2.7,2.1c3.2,0.2,5.9,0.6,7.2,1.2c1.2,0.6,2.2,1.4,2.9,2.5h0.2
		c-0.4-4.1-2.3-7.9-5.4-10.7C61,104.4,57,102.8,52.9,102.8L52.9,102.8z"/>
	<path class="st10" d="M52.9,111.2c-1.1,0-2.3,0.2-3.3,0.7c-1,0.5-2,1.1-2.7,2c4.1,0,8.6,0,12.3,0.3c-0.8-0.9-1.7-1.6-2.8-2.2
		C55.3,111.5,54.1,111.2,52.9,111.2L52.9,111.2z"/>
	<path class="st11" d="M42.6,93.2l4.7-10.8l47.7,0c0,0,1.8,4.1-0.9,7.6c-0.8,1-1.7,2-2.5,3.2H42.6z"/>
	<path class="st9" d="M46.5,84.1l0.7-1.7l47.7,0c0.2,0.6,0.4,1.1,0.5,1.7H46.5z"/>
	<path class="st7" d="M45.6,72.2H95v10.5H45.6c-1,0-2-0.4-2.7-1.2c-0.7-0.7-1.1-1.7-1.1-2.8v-2.6c0-1,0.4-2,1.1-2.8
		C43.6,72.6,44.5,72.2,45.6,72.2z"/>
	<path class="st12" d="M52.9,115.9c-0.7,0-1.4,0.2-1.9,0.6c-0.6,0.4-1,0.9-1.3,1.6c-0.3,0.6-0.3,1.3-0.2,2c0.1,0.7,0.5,1.3,0.9,1.8
		c0.5,0.5,1.1,0.8,1.8,0.9c0.7,0.1,1.4,0.1,2-0.2c0.6-0.3,1.2-0.7,1.6-1.3c0.4-0.6,0.6-1.2,0.6-1.9c0-0.9-0.4-1.8-1-2.5
		C54.7,116.3,53.8,115.9,52.9,115.9L52.9,115.9z"/>
	<path class="st7" d="M145.1,102.8c-3.3,0-6.5,1-9.2,2.8c-2.7,1.8-4.8,4.4-6.1,7.5c-1.2,3-1.6,6.4-0.9,9.6c0.6,3.2,2.2,6.2,4.6,8.5
		c2.3,2.3,5.3,3.9,8.5,4.5c3.2,0.6,6.6,0.3,9.6-1c3-1.3,5.6-3.4,7.4-6.1c1.8-2.7,2.8-5.9,2.8-9.2c0-4.4-1.8-8.6-4.9-11.7
		C153.8,104.6,149.5,102.8,145.1,102.8L145.1,102.8z"/>
	<path class="st9" d="M145.1,102.8c-4.2,0-8.3,1.6-11.4,4.5c-3.1,2.9-4.9,6.9-5.2,11.1c11.5-9.1,23.9-9.6,28.7-10.5
		c-1.6-1.6-3.4-3-5.5-3.9C149.6,103.3,147.4,102.8,145.1,102.8L145.1,102.8z"/>
	<path class="st8" d="M145.1,111.2c-1.6,0-3.2,0.5-4.5,1.4c-1.3,0.9-2.4,2.2-3,3.7c-0.6,1.5-0.8,3.1-0.5,4.7c0.3,1.6,1.1,3,2.2,4.2
		c1.1,1.1,2.6,1.9,4.2,2.2c1.6,0.3,3.2,0.1,4.7-0.5c1.5-0.6,2.8-1.7,3.7-3c0.9-1.3,1.4-2.9,1.4-4.5c0-2.2-0.9-4.2-2.4-5.8
		C149.4,112.1,147.3,111.2,145.1,111.2L145.1,111.2z"/>
	<path class="st12" d="M145.1,115.9c-0.7,0-1.4,0.2-1.9,0.6c-0.6,0.4-1,0.9-1.3,1.6c-0.3,0.6-0.3,1.3-0.2,2c0.1,0.7,0.5,1.3,1,1.8
		c0.5,0.5,1.1,0.8,1.8,0.9c0.7,0.1,1.4,0.1,2-0.2c0.6-0.3,1.2-0.7,1.6-1.3c0.4-0.6,0.6-1.2,0.6-1.9c0-0.9-0.4-1.8-1-2.5
		C146.9,116.3,146,115.9,145.1,115.9L145.1,115.9z"/>
	<path class="st11" d="M140.5,93.3c0,0,6.4-2.1,14.2,3c3.4,2.2,9.5,9.7,2.8,10.4c-4.3,0.4-15.4,0-26.1,7.8
		C136.9,100.4,140.4,93.3,140.5,93.3L140.5,93.3z"/>
	<path class="st13" d="M42.2,96.9h-4c-0.7,0-1.3,0.3-1.8,0.8c-0.5,0.5-0.8,1.1-0.8,1.8v4.2c0,0.7,0.3,1.3,0.8,1.8
		c0.5,0.5,1.1,0.8,1.8,0.8h4c0.7,0,1.3-0.3,1.8-0.8c0.5-0.5,0.8-1.1,0.8-1.8v-4.2c0-0.7-0.3-1.3-0.8-1.8
		C43.6,97.1,42.9,96.9,42.2,96.9z"/>
	<path class="st9" d="M124.9,56.9l18.3,26.2c0,0,1.7,1.4,0,6.9c-2.5,7.9-10.2,34-20.4,34.5c-3.3,0.1-51,0.1-51,0.1
		s-0.4-8.5-5.5-10.8c-4-1.9-21.7-1.4-29-1.2c0,0-2.4-0.4-1.6-3.6l6.9-15.8h49c-2.2,3.1-4,7-2.2,11.9c2.5,6.9,10.1,11.6,10.1,11.6
		l18.5-0.1c0,0,8.9-29.5,8.2-30.9c-0.7-1.3-11.6-29.7-12-29.3C113.8,56.9,124.9,56.9,124.9,56.9L124.9,56.9z"/>
	<path class="st14" d="M124.9,56.9l18.3,26.2c0,0,1.7,1.4,0,6.9c-2.5,7.9-10.2,34-20.4,34.5c-3.3,0.1-51,0.1-51,0.1
		c-0.1-1.9-0.5-3.7-1.1-5.5l52.2-0.1l11.5-33.6l-16.1-28.5C121.3,56.9,124.9,56.9,124.9,56.9z"/>
	<path class="st11" d="M116.8,48c-1.2,0-2.4,0.5-3.2,1.3c-0.9,0.9-1.3,2-1.3,3.2v0.9c0,1.2,0.5,2.4,1.3,3.2c0.9,0.9,2,1.3,3.2,1.3
		c4.3,0,8.6,0,12.9,0V48L116.8,48L116.8,48z"/>
	<path class="st14" d="M69.2,116.2c-0.7-1.1-1.7-1.9-2.9-2.5c-4.1-1.9-22.6-1.5-29.6-1.1c-0.7,0-1.9-1.7-1.2-3.3l7.3-16.8h31.3
		c3.1,0,6.2,1.3,8.4,3.5c2.2,2.2,3.5,5.2,3.5,8.4l0,0c0,3.1-1.3,6.2-3.5,8.4c-2.2,2.2-5.2,3.5-8.4,3.5L69.2,116.2z"/>
	<path class="st7" d="M117.9,56.6c-0.4,0-0.9,0.1-1.2,0.4c-0.4,0.2-0.6,0.6-0.8,1c-0.2,0.4-0.2,0.8-0.1,1.3c0.1,0.4,0.3,0.8,0.6,1.1
		c0.3,0.3,0.7,0.5,1.1,0.6c0.4,0.1,0.9,0,1.3-0.1c0.4-0.2,0.7-0.5,1-0.8c0.2-0.4,0.4-0.8,0.4-1.2c0-0.3-0.1-0.6-0.2-0.8
		c-0.1-0.3-0.3-0.5-0.5-0.7c-0.2-0.2-0.5-0.4-0.7-0.5C118.5,56.7,118.2,56.6,117.9,56.6L117.9,56.6z"/>
	<path class="st15" d="M130.1,47.7H127v10.6h3.1V47.7z"/>
	<path class="st16" d="M110,46.3l7.1,5.3l0.7-0.9l-7.1-5.3L110,46.3z"/>
	<path class="st15" d="M111.4,41.1h-1.5v8.4h1.5V41.1z"/>
	<path class="st17" d="M101.2,103.5l-0.1,4c0,0,3.2,0.8,3.5,0.1l0.6-3.8L101.2,103.5z"/>
	<path class="st18" d="M102.1,105.7c0.8-1.1,1.8-1,2.9-0.9l0.2-0.9l-4-0.4l-0.1,4c0,0,0.2,0.1,0.5,0.1
		C101.6,107,101.8,106.3,102.1,105.7L102.1,105.7z"/>
	<path class="st3" d="M116.1,116.3c0,0,0-3.1-3.9-5.1c0,0-6.5-1.8-6.8-3.2l-0.8-0.7c0,0-1.5,0.7-3.8-0.2l-0.8,5.3L116.1,116.3z"/>
	<path class="st1" d="M111.8,111.1c-1.2,0.8-1.7,2.3-2.2,3.6l6.5,1.6c0,0,0-3.1-3.9-5.1L111.8,111.1z"/>
	<path class="st1" d="M116.1,116.3l-16.1-3.4l0-1.4l16,3.5L116.1,116.3z"/>
	<path class="st19" d="M112.2,111.2c0,0-1.5,1-1.9,2.6"/>
	<path class="st19" d="M108,109.4c-0.4,0.3-0.8,0.8-0.9,1.3"/>
	<path class="st19" d="M106.7,108.6c0,0-1,0.5-1.3,1.3"/>
	<path class="st20" d="M81.7,24.8c0,0-9.1,3-12.5,14.5c0,0-11.1,12.5-6.4,14.5l18.5,2.4c0,0,2.4-0.7,1-4.4c0,0,6.1-15.2,5.1-19.2
		C87.5,32.6,85.8,23.5,81.7,24.8z"/>
	<g class="st21">
		<path class="st22" d="M86.5,32.6c0,0,0.6,0.4-0.3-1.7c-0.3-0.1-0.6-1.2-0.9-1.2c0,0.1-0.1-0.2-0.2-0.2c0,0-0.1,0-0.1,0
			c0,0-0.1-0.1-0.1-0.1c0,0,0-0.1,0-0.1c0,0,0-0.1,0-0.1c-0.1,0-0.7-0.1-0.8-0.1c-2-0.4-3.5,0.4-4.6,1.9c-2.4,3.2-1.6,7.6-1.7,11.4
			c-0.1,2.5,0.1,5.7-2.2,7.4c-3.5,2.6-9.2,2.6-13.5,0.6c-0.5,1.6-0.4,2.9,0.9,3.5l18.5,2.4c0,0,2.4-0.7,1-4.4
			C82.4,51.7,87.5,36.6,86.5,32.6z"/>
	</g>
	<path class="st3" d="M62.9,53.6c0,0-1.3,2.1-0.3,2.6l17.2,2.1c0,0,1.7-0.9,1-2.3L62.9,53.6z"/>
	
		<linearGradient id="SVGID_1_" gradientUnits="userSpaceOnUse" x1="62.165" y1="86.714" x2="80.8711" y2="86.714" gradientTransform="matrix(1 0 0 -1 0 142)">
		<stop  offset="0" style="stop-color:#2C296F"/>
		<stop  offset="0.62" style="stop-color:#2C296F;stop-opacity:0.35"/>
		<stop  offset="1" style="stop-color:#2C296F;stop-opacity:0"/>
	</linearGradient>
	<path class="st23" d="M63.9,55.2c1.2-1.1,3.3-0.4,4.7-0.3c4,0.5,8.5,0.3,12.2,2.1c0.1-0.3,0-0.7-0.1-1l-17.8-2.5
		c0,0-1.3,2.1-0.3,2.6l0.6,0.1C63.3,55.9,63.6,55.5,63.9,55.2L63.9,55.2z"/>
	<path class="st24" d="M79.2,56.3l-0.3,1.3"/>
	<path class="st24" d="M77.2,56L77,57.4"/>
	<path class="st24" d="M75.4,55.9l-0.2,1.4"/>
	<path class="st24" d="M73.3,55.6L73.1,57"/>
	<path class="st24" d="M71,55.4l-0.2,1.4"/>
	<path class="st24" d="M68.6,55l-0.2,1.4"/>
	<path class="st24" d="M66.1,54.7l-0.2,1.4"/>
	<path class="st24" d="M63.7,54.3l-0.2,1.4"/>
	<path class="st25" d="M62.5,56.2c0,0-7,12.5,4.9,15.5c11.9,3,28.5-1.5,30.8-2c0,0,1.3,11.4,2.3,32.1l5.1,0.8c1.5-4.1,0-12.5,0-12.5
		s1-16.4,1.5-20.2c0.5-4.4-0.3-6.6-4.7-7.4c-7.6-1.4-15.9-4.4-23.6-3.7c0,0-0.2,0.8,0.9-0.5"/>
	<path class="st3" d="M62.5,56.2c0,0-7,12.5,4.9,15.5c11.9,3,28.1,1.2,30.4,0.7c0,0-2.3,18.8,2.6,30.5l5.1,0.8
		c1.7-7.3,1.7-12.8,1.7-12.8s0.5-17,0.9-20.8c0.5-4.4-1.3-6.8-5.6-7.6c-7.6-1.4-15.9-4.4-23.6-3.7c0,0-0.2,0.8,0.9-0.5"/>
	<path class="st26" d="M84.1,59c-2.2-0.3-4.4-0.3-6.6-0.2"/>
	<path class="st27" d="M82.9,21.2c0,0-0.5,2.8-1.3,3.1c-0.9,0.3,2.9,3.9,4.5,4.3l0.2-3.5L82.9,21.2z"/>
	<path class="st27" d="M95,10.5c0,0,1.3,4.3,1,6.1c0,0,1.5,2.4,1,3.7c-0.4,1.3-1.9-0.2-2.5-0.4c0,0-1.4,7-4.1,7.1s-9.4-2.4-7.3-8.8
		c0,0-2.2-10.4,3.4-10.3S93.6,7.1,95,10.5z"/>
	<path class="st28" d="M82.9,19.3c2.9,0.8,6.8-0.8,7.5-3.7c0-0.1,0-0.1,0.1-0.1c0,0,0.1-0.1,0.2-0.1c1.9,0,3.5-0.7,5.2-1.3
		c-0.2-1.2-0.5-2.5-0.9-3.7c-1.4-3.3-2.9-2.6-8.4-2.6s-3.4,10.3-3.4,10.3C83,18.6,82.9,19,82.9,19.3L82.9,19.3z"/>
	<path class="st28" d="M82.9,22c0.6-0.2,1-0.6,1.4-1.1c0.8-1,1.3-2.3,1.9-3.4c0,0,0.1-0.1,0.1-0.1c0,0,0.1,0,0.1,0
		c0.6,0.2,1.2,0.6,1.7,1c0.3,0.3,0.6,0.5,0.9,0.7c0.1,0.1,0.3,0.1,0.4,0.2c0-0.3-0.4-1.1-0.5-1.4c-0.2-0.6-0.4-1.3-0.5-1.9
		c-0.1-1,0-2,0.2-3c0.2-1,0.4-2.1,0.4-3.1c0-0.7-0.1-1.3-0.3-2c-0.6,0-1.4,0-2.2,0c-5.6,0-3.4,10.3-3.4,10.3
		C82.7,19.4,82.6,20.8,82.9,22L82.9,22z"/>
	<path class="st29" d="M96,16.6c0-0.2,0-0.4,0.1-0.6c-0.9,1.5-1.7,3.1-1.7,4.7c0.1-0.5,0.2-0.8,0.2-0.8c0.7,0.2,2.1,1.7,2.5,0.4
		C97.5,19,96,16.6,96,16.6z"/>
	<path class="st28" d="M88.6,19.2c0,0,0.2-3.5-1.7-3.1c-1.9,0.4-1.7,3.2-0.7,3.6C87.2,20.2,88.6,19.2,88.6,19.2z"/>
	<path class="st30" d="M86.5,17c0,0,1-0.3,1,1.1"/>
	<path class="st30" d="M86.9,17.8c-0.1,0.1-0.3,0.2-0.3,0.3c-0.1,0.1-0.1,0.3-0.1,0.5"/>
	<path class="st30" d="M87.8,16.2c0,0-2.9-1.1-2.2,2.7"/>
	<path class="st31" d="M97.5,18.2L97.5,18.2c0.1,0.1,0.1,0.2,0.1,0.4c0,0.1-0.1,0.2-0.1,0.3c0,0,0,0.1,0,0.1
		c-0.1,0.4-0.2,0.5-0.2,0.6c0,0,0,0,0,0c0,0,0,0,0,0c0,0,0,0,0,0.1c0,0,0,0.1,0,0.1c0,0,0,0.1,0,0.2v0v1.5c0,0.2-0.1,0.4-0.2,0.6
		l0,0c-0.1,0.2-0.2,0.5-0.2,0.7L96,25.6l0,0l0,0c0,0.2,0,0.4-0.1,0.7c-0.1,0.2-0.2,0.4-0.4,0.6c-0.2,0.2-0.3,0.3-0.6,0.4
		c-0.2,0.1-0.4,0.1-0.7,0.2l0,0c-0.4,0-0.9,0-1.3-0.1c-0.2-0.1-0.5-0.1-0.8-0.1c-0.2,0-0.4,0-0.6,0c-0.1,0-0.3,0-0.4,0
		c-0.3,0-0.7-0.1-1-0.1c-0.3-0.1-0.5-0.1-0.6-0.2c0,0,0-0.1,0-0.1c0-0.1,0.1-0.3,0.2-0.5c0,0,0,0,0,0c0.1-0.2,0.2-0.3,0.3-0.5
		c0-0.1,0.1-0.2,0.1-0.3c0-0.1,0-0.2-0.1-0.3l0,0l0,0c-0.3-0.5-0.6-1-0.8-1.5c-0.1-0.2-0.1-0.4-0.2-0.6c-0.1-0.3-0.2-0.7-0.4-1l0,0
		l0,0c-0.1-0.2-0.2-0.4-0.3-0.5c0-0.1-0.1-0.1-0.1-0.1c-0.1-0.2-0.2-0.3-0.1-0.5c0-0.1,0-0.1,0.1-0.2l0,0l0,0
		c0.1-0.2,0.2-0.4,0.4-0.5c0.2-0.1,0.4-0.2,0.6-0.3c0.4-0.1,0.9,0,1.4,0c0.2,0,0.4,0,0.5,0c0.7,0,1.3,0,2-0.4l0,0l0,0
		c0.4-0.3,0.9-0.6,1.3-0.9c0.7-0.5,1.6-0.8,2.5-0.8C97.2,17.9,97.4,18.1,97.5,18.2z"/>
	<path class="st20" d="M96.7,24.2c-0.3,0-0.6,0-0.9,0c-0.3,0-0.6-0.1-0.9-0.2c-0.6-0.2-1.1-0.5-1.6-0.9c0.2,0.2,0.5,0.3,0.8,0.4
		c0.3,0.1,0.6,0.2,0.8,0.3c0.3,0.1,0.6,0.1,0.9,0.1c0.3,0,0.6,0,0.9-0.1L96.7,24.2z"/>
	<path class="st20" d="M96,25.6c-0.3,0-0.5-0.1-0.8-0.1c-0.3-0.1-0.5-0.1-0.7-0.2c-0.2-0.1-0.5-0.2-0.7-0.4
		c-0.2-0.1-0.4-0.3-0.6-0.5c0.2,0.2,0.4,0.3,0.6,0.4c0.2,0.1,0.5,0.2,0.7,0.3c0.2,0.1,0.5,0.1,0.7,0.2c0.2,0,0.5,0,0.7,0V25.6z"/>
	<path class="st20" d="M95.2,26.9c-0.2,0-0.4-0.1-0.7-0.1c-0.2-0.1-0.4-0.1-0.6-0.2c-0.2-0.1-0.4-0.2-0.6-0.3
		c-0.2-0.1-0.3-0.3-0.5-0.4c0.2,0.1,0.3,0.3,0.5,0.4c0.2,0.1,0.4,0.2,0.6,0.3c0.4,0.1,0.8,0.2,1.2,0.2L95.2,26.9z"/>
	<path class="st32" d="M85,20.4c2.5,3.1,5.9,5.1,5.9,5.1L85,20.4z"/>
	<path class="st33" d="M85,20.4c2.5,3.1,5.9,5.1,5.9,5.1"/>
	<path class="st33" d="M91.3,22.6L88,16.8"/>
	<path class="st34" d="M91.6,22.7c0,0.1-0.1,0.1-0.1,0.2c-0.1,0-0.1,0-0.2,0c-0.1,0-0.1-0.1-0.2-0.1s0-0.1,0-0.2c0,0,0-0.1,0-0.1
		c0,0,0.1-0.1,0.1-0.1c0,0,0.1,0,0.1,0c0,0,0.1,0,0.1,0c0,0,0.1,0,0.1,0.1c0,0,0.1,0.1,0.1,0.1c0,0,0,0.1,0,0.1
		C91.6,22.6,91.6,22.7,91.6,22.7z"/>
	<path class="st34" d="M91.5,25.4c0,0,0,0.1-0.1,0.1c0,0-0.1,0.1-0.1,0.1c0,0-0.1,0-0.1,0c0,0-0.1,0-0.1,0c0,0-0.1,0-0.1-0.1
		c0,0-0.1-0.1-0.1-0.1c0,0,0-0.1,0-0.1c0,0,0-0.1,0-0.1c0-0.1,0.1-0.1,0.1-0.2c0.1,0,0.1,0,0.2,0c0.1,0,0.1,0.1,0.2,0.1
		C91.5,25.2,91.5,25.3,91.5,25.4L91.5,25.4z"/>
	<path class="st35" d="M88.3,26.7c-0.5-0.1-1-0.3-1.4-0.5c-0.5-0.2-0.9-0.5-1.3-0.8c-0.4-0.3-0.7-0.7-0.9-1.2
		c-0.2-0.5-0.2-1-0.1-1.5c-0.1,0.5,0,1,0.2,1.4c0.2,0.4,0.5,0.8,0.9,1.1c0.4,0.3,0.8,0.6,1.2,0.8C87.4,26.3,87.9,26.5,88.3,26.7
		L88.3,26.7z"/>
	<path class="st36" d="M87.6,28.8c-5.3-1.7-6.7-5-6.7-5"/>
	<path class="st28" d="M81.5,18.6c0.9,1.6,3,3.6,4.5,1.3c1-1.5,2.2-2.9,1.3-4.5c-0.4-0.7-1.1-1.3-2-1.5c-0.8-0.2-1.7-0.1-2.5,0.3
		c-0.8,0.4-1.3,1.1-1.6,1.9C81,16.9,81.1,17.8,81.5,18.6L81.5,18.6z"/>
	<path class="st28" d="M97.5,14.6c0.4-0.5,0.7-1.5-0.3-1.7c-0.7-0.1-1.3-0.4-1.7,0.1c-0.2,0.3-0.2,0.6-0.2,0.9
		c0.1,0.3,0.2,0.6,0.5,0.8c0.2,0.2,0.6,0.3,0.9,0.3C96.9,14.9,97.2,14.8,97.5,14.6L97.5,14.6z"/>
	<path class="st28" d="M93.9,14.6c0.4-0.5,0.7-1.5-0.3-1.7c-0.7-0.1-1.3-0.4-1.7,0.1c-0.2,0.3-0.2,0.6-0.2,0.9
		c0.1,0.3,0.2,0.6,0.5,0.8c0.2,0.2,0.6,0.3,0.9,0.3C93.4,14.9,93.7,14.8,93.9,14.6L93.9,14.6z"/>
	<path class="st28" d="M95.6,14.6c0.4-0.5,0.7-1.5-0.3-1.7c-0.7-0.1-1.3-0.4-1.7,0.1c-0.2,0.3-0.2,0.6-0.2,0.9
		c0.1,0.3,0.2,0.6,0.5,0.8c0.2,0.2,0.6,0.3,0.9,0.3C95.1,14.9,95.4,14.8,95.6,14.6L95.6,14.6z"/>
	<path class="st28" d="M91.4,15.1c0.4-0.5,0.7-1.5-0.3-1.7c-0.7-0.1-1.3-0.4-1.7,0.1c-0.2,0.3-0.2,0.6-0.2,0.9
		c0.1,0.3,0.2,0.6,0.5,0.8c0.2,0.2,0.6,0.3,0.9,0.3C90.9,15.4,91.2,15.3,91.4,15.1z"/>
	<path class="st28" d="M89.9,16.1c0.4-0.5,0.7-1.5-0.3-1.7c-0.7-0.1-1.3-0.4-1.7,0.1c-0.2,0.3-0.2,0.6-0.2,0.9
		c0.1,0.3,0.2,0.6,0.5,0.8c0.2,0.2,0.6,0.3,0.9,0.3C89.4,16.4,89.7,16.3,89.9,16.1L89.9,16.1z"/>
	<path class="st3" d="M97.4,13.3c0,0-1.3-8-8.3-7.2c0,0-10.9,0.1-7.9,12.1c0,0,7.3,3.6,8.7-3.8L97.4,13.3z"/>
	
		<linearGradient id="SVGID_00000054250042289523173350000013614872082250029732_" gradientUnits="userSpaceOnUse" x1="83.9626" y1="122.9634" x2="83.9626" y2="135.7139" gradientTransform="matrix(1 0 0 -1 0 142)">
		<stop  offset="0" style="stop-color:#E88054;stop-opacity:0.91"/>
		<stop  offset="7.000000e-02" style="stop-color:#E47D57;stop-opacity:0.81"/>
		<stop  offset="0.25" style="stop-color:#D9755E;stop-opacity:0.57"/>
		<stop  offset="0.43" style="stop-color:#D16E64;stop-opacity:0.36"/>
		<stop  offset="0.6" style="stop-color:#CA6968;stop-opacity:0.21"/>
		<stop  offset="0.75" style="stop-color:#C5656B;stop-opacity:9.000000e-02"/>
		<stop  offset="0.89" style="stop-color:#C2636D;stop-opacity:2.000000e-02"/>
		<stop  offset="1" style="stop-color:#C1626E;stop-opacity:0"/>
	</linearGradient>
	<path style="display:inline;fill:url(#SVGID_00000054250042289523173350000013614872082250029732_);" d="M82.9,15.1
		c-0.3-2.1,0.8-4.2,1.9-5.9c0.7-1.1,1.5-2.1,2.5-2.9c-2.9,0.6-8.3,3-6.1,11.9c0,0,2.9,1.4,5.4,0.6C84.8,18.4,83.2,16.9,82.9,15.1z"
		/>
	<path class="st3" d="M89.4,14.3c0,0,6.6-0.7,7.5-1.2c0.9-0.5,5.8,0.5,6.8,1.6L89.4,14.3z"/>
	
		<linearGradient id="SVGID_00000029766576920664123820000016029145698988494782_" gradientUnits="userSpaceOnUse" x1="90.276" y1="126.1127" x2="103.8912" y2="129.1692" gradientTransform="matrix(1 0 0 -1 0 142)">
		<stop  offset="0" style="stop-color:#C1626E;stop-opacity:0"/>
		<stop  offset="0.25" style="stop-color:#CC6A67;stop-opacity:0.26"/>
		<stop  offset="0.61" style="stop-color:#DB765D;stop-opacity:0.61"/>
		<stop  offset="0.87" style="stop-color:#E47D56;stop-opacity:0.83"/>
		<stop  offset="1" style="stop-color:#E88054;stop-opacity:0.91"/>
	</linearGradient>
	<path style="display:inline;fill:url(#SVGID_00000029766576920664123820000016029145698988494782_);" d="M89.4,14.3
		c0,0,6.6-0.7,7.5-1.2c0.9-0.5,5.8,0.5,6.8,1.6L89.4,14.3z"/>
	<path class="st39" d="M108.2,103.6l-9.4-0.7l1.6,2.7l6.2,0.4L108.2,103.6z"/>
	<path class="st40" d="M107.1,105.9l1.1-2.3l-9.4-0.7"/>
	<path class="st3" d="M59.7,49.5l-12.9-7.1c-1.2-0.6-2-1.7-2.4-3c-0.4-1.3-0.2-2.7,0.4-3.8l7.8-14.2c1.2-2.1,3.9-3.5,6.1-2.8
		c1.6,0.5,3.2,0.8,4.8,1.1L74.7,22c1.2,0.6,2,1.7,2.4,3c0.4,1.3,0.2,2.7-0.4,3.8L66.5,47.5c-0.6,1.2-1.7,2-3,2.4
		C62.2,50.3,60.8,50.1,59.7,49.5z"/>
	<path class="st1" d="M63,30.2l1.6,0.9L64,32l-1.6-0.9l-0.9,1.6l-0.9-0.5l0.9-1.6L60,29.7l0.5-0.9l1.6,0.9l0.9-1.6l0.9,0.5L63,30.2z
		"/>
	<path class="st1" d="M53.4,34.3c0.4,0.2,0.7,0.2,1.1,0.1l-0.2-0.7c-0.1,0-0.4,0-0.5,0c-0.2-0.1-0.2-0.3-0.2-0.5
		c0.1-0.3,0.6-0.4,0.9-0.3c0.1,0.1,0.2,0.2,0.2,0.3l0.7-0.1c0-0.3-0.2-0.6-0.6-0.8c-0.7-0.3-1.6-0.1-1.9,0.5
		C52.6,33.4,52.8,34,53.4,34.3z M57.2,33.6l-0.8,1c-0.1,0.2-0.4,0.2-0.6,0.1c-0.1-0.1-0.2-0.2-0.1-0.3c0-0.1,0.1-0.1,0.9-1.1
		L55.9,33c-0.9,1.1-0.9,1.1-1,1.3c-0.2,0.4-0.1,0.7,0.3,0.9c0.2,0.1,0.5,0.1,0.7,0.1l-0.1,0.1l0.8,0.4L58,34L57.2,33.6z M58.9,34.9
		l0.2-0.3l-0.8-0.4L56.9,36l0.8,0.4l0.6-0.8c0.3-0.3,0.7-0.4,1.1-0.2l0.4-0.6C59.5,34.7,59.2,34.7,58.9,34.9z M61.6,36.5
		c0.2-0.3,0-0.7-0.5-0.9c-0.7-0.4-1.5-0.1-1.9,0.6c-0.3,0.5-0.1,1,0.5,1.3c0.3,0.1,0.7,0.2,1,0.1L60.6,37c-0.2,0-0.4,0-0.6-0.1
		c-0.2-0.1-0.2-0.3-0.1-0.5l0.4,0.2C60.9,37,61.4,36.9,61.6,36.5z M60.8,36.1c0.1,0.1,0.2,0.1,0.2,0.2c-0.1,0.1-0.2,0.1-0.4,0
		l-0.4-0.2C60.4,36,60.6,36,60.8,36.1z"/>
	<path class="st20" d="M61.1,38.1l0.8,0.4l1.9-2.4L63,35.7L61.1,38.1z M63.3,39.3c0.6,0.3,1.6,0.1,1.9-0.5c0.3-0.5,0.1-1.1-0.5-1.4
		c-0.6-0.3-1.6-0.1-1.9,0.5C62.5,38.4,62.7,39,63.3,39.3z M63.6,38.7c-0.2-0.1-0.3-0.3-0.2-0.5c0.1-0.3,0.6-0.4,0.9-0.3
		c0.2,0.1,0.2,0.3,0.2,0.5C64.4,38.7,63.9,38.8,63.6,38.7z"/>
	<path class="st20" d="M59.8,37.9L59.8,37.9C60,38,60,38,60,38c0,0,0,0.1,0,0.1c0,0,0,0.1,0,0.1c0,0,0,0.1-0.1,0.1c0,0,0,0-0.1,0
		c0,0-0.1,0-0.1,0c0,0-0.1,0-0.1,0l-0.1,0L59.8,37.9z M59.9,38l-0.1,0.3l0,0c0,0,0.1,0,0.1,0c0,0,0,0,0.1,0c0,0,0,0,0.1-0.1
		c0,0,0-0.1,0-0.1C60,38.1,59.9,38,59.9,38L59.9,38z M60.1,38.2L60.1,38.2L60.1,38.2C60.2,38.2,60.2,38.2,60.1,38.2
		c0.1,0,0.1,0.1,0.1,0.1c0,0,0,0,0,0l-0.1,0.1c0,0,0,0,0,0c0,0,0,0,0,0c0,0,0,0-0.1,0.1l0,0l-0.1,0.1l-0.1,0L60.1,38.2z M60.4,38.2
		C60.4,38.2,60.4,38.2,60.4,38.2C60.5,38.2,60.5,38.2,60.4,38.2C60.4,38.3,60.4,38.3,60.4,38.2C60.4,38.3,60.4,38.3,60.4,38.2
		C60.4,38.3,60.4,38.3,60.4,38.2C60.3,38.2,60.3,38.2,60.4,38.2C60.4,38.2,60.4,38.2,60.4,38.2C60.4,38.2,60.4,38.2,60.4,38.2z
		 M60.3,38.3L60.3,38.3l-0.1,0.3l-0.1,0L60.3,38.3z M60.4,38.3L60.4,38.3l0.1,0.2l0.2-0.1l0.1,0l-0.3,0.2l0,0L60.4,38.3z M61,38.8
		l-0.2-0.1c0,0,0,0,0,0.1c0,0,0,0,0,0c0,0,0.1,0,0.1,0L61,38.8c-0.1,0.1-0.1,0.1-0.1,0.1c0,0-0.1,0-0.1,0c0,0-0.1-0.1-0.1-0.1
		c0,0,0-0.1,0-0.1c0,0,0.1-0.1,0.1-0.1c0,0,0.1,0,0.1,0c0,0,0.1,0.1,0.1,0.1C61,38.7,61,38.8,61,38.8L61,38.8z M60.9,38.7
		C60.9,38.7,60.9,38.7,60.9,38.7C60.9,38.7,60.9,38.6,60.9,38.7c-0.1-0.1-0.1-0.1-0.1-0.1c0,0,0,0,0,0L60.9,38.7z"/>
	<path class="st1" d="M61.3,38.7L61.3,38.7l0.1,0.3l0.2-0.1l0.1,0l-0.4,0.3l-0.1,0l0.1-0.1L61.3,38.7z M61.8,39
		C61.8,39,61.8,39,61.8,39c0.1,0.1,0.1,0.1,0.1,0.1c0,0,0,0.1,0,0.1c0,0,0,0.1-0.1,0.1c0,0-0.1,0-0.1,0c0,0-0.1,0-0.1,0
		c0,0-0.1-0.1-0.1-0.1c0,0,0-0.1,0-0.1c0,0,0.1-0.1,0.1-0.1C61.7,39,61.7,39,61.8,39z M61.7,39.1C61.7,39,61.7,39,61.7,39.1
		c-0.1,0-0.1,0-0.1,0c0,0,0,0.1,0,0.1c0,0,0,0,0,0.1c0,0,0,0,0.1,0c0,0,0,0,0.1-0.1C61.8,39.2,61.8,39.1,61.7,39.1
		C61.8,39.1,61.7,39.1,61.7,39.1z M62,39.1L62,39.1l0,0.2c0,0,0,0,0,0.1c0,0,0,0,0,0c0,0,0,0,0,0c0,0,0,0,0,0c0,0,0,0,0,0
		c0,0,0,0,0-0.1l0.1-0.1l0.1,0l-0.1,0.1c0,0.1,0,0.1-0.1,0.1c0,0,0,0-0.1,0c0,0-0.1,0-0.1,0c0,0-0.1,0-0.1-0.1c0,0,0-0.1,0-0.1
		c0,0,0-0.1,0-0.1L62,39.1z M62.3,39.3L62.3,39.3L62.3,39.3C62.3,39.3,62.4,39.3,62.3,39.3c0.1,0,0.1,0.1,0.1,0.1c0,0,0,0,0,0
		l-0.1,0.1c0,0,0,0,0,0c0,0,0,0,0,0c0,0,0,0-0.1,0.1l0,0l-0.1,0.1l-0.1,0L62.3,39.3z"/>
	<path class="st1" d="M62.7,39.3L62.7,39.3l0,0.2l0.1,0.1l0.1-0.2l0.1,0l-0.2,0.4l-0.1,0l0.1-0.2l-0.1-0.1l-0.1,0.2l-0.1,0
		L62.7,39.3z M63.2,40L63,39.8c0,0,0,0,0,0.1c0,0,0,0,0,0c0,0,0.1,0,0.1,0L63.2,40C63.1,40,63.1,40,63.1,40c0,0-0.1,0-0.1,0
		c0,0-0.1-0.1-0.1-0.1c0,0,0-0.1,0-0.1c0,0,0.1-0.1,0.1-0.1c0,0,0.1,0,0.1,0c0,0,0.1,0.1,0.1,0.1C63.3,39.8,63.3,39.9,63.2,40
		L63.2,40z M63.2,39.9C63.2,39.8,63.2,39.8,63.2,39.9C63.2,39.8,63.1,39.8,63.2,39.9c-0.1-0.1-0.1-0.1-0.1-0.1c0,0,0,0,0,0
		L63.2,39.9z M63.6,39.9L63.6,39.9l-0.1,0.3l-0.1,0l0,0c0,0,0,0-0.1,0c0,0,0,0-0.1,0c0,0-0.1-0.1-0.1-0.1c0,0,0-0.1,0-0.1
		c0,0,0.1-0.1,0.1-0.1C63.4,39.8,63.5,39.8,63.6,39.9C63.5,39.9,63.5,39.9,63.6,39.9C63.6,39.9,63.6,39.9,63.6,39.9L63.6,39.9z
		 M63.5,39.9C63.5,39.9,63.4,39.9,63.5,39.9c-0.1,0-0.1,0-0.1,0c0,0,0,0.1,0,0.1c0,0,0,0,0,0.1c0,0,0,0,0.1,0c0,0,0,0,0.1-0.1
		C63.5,40,63.5,40,63.5,39.9C63.5,40,63.5,40,63.5,39.9z M63.8,39.9L63.8,39.9l-0.1,0.4l-0.1,0L63.8,39.9z M63.9,40L63.9,40l0,0.1
		l0,0l0,0.1l0,0l-0.1,0.2l-0.1,0l0.1-0.2l0,0L63.9,40l-0.1,0.1L63.9,40z M64.1,40L64.1,40l0,0.2c0,0,0,0,0.1,0c0,0,0,0,0,0
		c0,0,0,0,0.1,0.1c0,0,0,0.1,0,0.1l-0.1,0.2l-0.1,0l0.1-0.1c0,0,0-0.1,0-0.1c0,0,0,0,0,0c0,0,0,0,0,0c0,0,0,0,0,0c0,0,0,0,0,0
		c0,0,0,0,0,0.1L64,40.5l-0.1,0L64.1,40z"/>
	<path class="st41" d="M59.6,37.8l-7.3-3.7l0,0.1L59.6,37.8L59.6,37.8z"/>
	<path class="st41" d="M59.4,38.1l-2.6-1.3l0,0.1L59.4,38.1L59.4,38.1z"/>
	<path class="st41" d="M59.5,37.9l-5-2.5l0,0.1L59.5,37.9L59.5,37.9z"/>
	<path class="st20" d="M45.4,36.9c0.8-0.6,1.2-1.8,1.7-2.6c1-1.7,2.3-3.2,3.4-4.7c1.2-1.7,2.2-3.5,2.9-5.4c0.7-1.7,1.5-3.3,1.4-5
		c-1,0.5-1.8,1.3-2.3,2.3l-7.8,14.2c-0.3,0.5-0.5,1.1-0.6,1.7c0.2,0,0.4,0,0.6-0.1C45,37.1,45.2,37,45.4,36.9L45.4,36.9z"/>
	
		<linearGradient id="SVGID_00000137123818799499223090000011796839815240837509_" gradientUnits="userSpaceOnUse" x1="53.3638" y1="96.0841" x2="68.3894" y2="123.6311" gradientTransform="matrix(1 0 0 -1 0 142)">
		<stop  offset="0" style="stop-color:#E88054;stop-opacity:0.91"/>
		<stop  offset="7.000000e-02" style="stop-color:#E47D57;stop-opacity:0.81"/>
		<stop  offset="0.25" style="stop-color:#D9755E;stop-opacity:0.57"/>
		<stop  offset="0.43" style="stop-color:#D16E64;stop-opacity:0.36"/>
		<stop  offset="0.6" style="stop-color:#CA6968;stop-opacity:0.21"/>
		<stop  offset="0.75" style="stop-color:#C5656B;stop-opacity:9.000000e-02"/>
		<stop  offset="0.89" style="stop-color:#C2636D;stop-opacity:2.000000e-02"/>
		<stop  offset="1" style="stop-color:#C1626E;stop-opacity:0"/>
	</linearGradient>
	<path style="display:inline;fill:url(#SVGID_00000137123818799499223090000011796839815240837509_);" d="M74.7,22L71,21.2
		c0.5,0.8,1,1.6,1.3,2.4c1.7,4.1-0.1,8.7-2,12.4c-1.5,2.9-4.4,9.3-8.1,9.9c-1.8,0.3-3.7-0.4-5.3-1.1c-1.9-0.9-3.8-1.9-5.5-3
		c-1.7-1-3.4-1.9-5-3c-0.8-0.6-1.5-1.2-2.1-2c-0.2,1.1-0.1,2.2,0.3,3.2c0.4,1,1.2,1.8,2.2,2.3l12.9,7.1c1.2,0.6,2.6,0.8,3.8,0.4
		c1.3-0.4,2.4-1.2,3-2.4l10.2-18.6c0.6-1.2,0.8-2.6,0.4-3.8C76.7,23.7,75.9,22.7,74.7,22z"/>
	<path class="st20" d="M55.4,19.2c0.2,0.8,0.1,1.7-0.2,2.5c-0.3,0.8-0.7,1.6-1.2,2.3c-0.9,1.5-1.8,2.9-2.7,4.4
		c-0.9,1.5-1.8,2.9-2.7,4.3l-2.8,4.3v0c-0.2,0.3-0.3,0.7-0.3,1c0,0.4,0.1,0.7,0.3,1.1c0.4,0.7,1,1.2,1.7,1.7
		c1.3,0.9,2.8,1.7,4.2,2.6c1.4,0.8,2.8,1.6,4.3,2.4l4.3,2.4c-2.9-1.5-5.9-3-8.7-4.6c-1.4-0.8-2.9-1.6-4.3-2.6
		c-0.7-0.5-1.3-1.1-1.8-1.8c-0.3-0.4-0.4-0.8-0.4-1.3s0.1-0.9,0.4-1.3l0,0l5.5-8.6c0.9-1.4,1.9-2.9,2.8-4.3c0.5-0.7,0.9-1.4,1.2-2.2
		C55.4,20.8,55.5,20,55.4,19.2z"/>
	<path class="st20" d="M55.7,19.1c0,0-4.8-2.2-2.9-0.4C54.7,20.4,55.7,19.1,55.7,19.1z"/>
	<path class="st20" d="M74.6,22.4c0,0-1-6.4,0.8-6.1c1.8,0.3,3,4.8,1,7.6l-0.9-0.8c0,0,2-3.4,0.3-5.6c0,0-1.3-0.9-0.8,5L74.6,22.4z"
		/>
	<path class="st43" d="M76.7,24c0,0,9.3,1.6,10.7,9.4l-2.3,1.3c0,0-0.3-7.4-7.9-7.7C77.2,26.9,76.3,25.3,76.7,24z"/>
	<path class="st43" d="M68,44.7l-1.3,2.6c0,0,10.5,4.4,15.8,4.4l0.7-1.9C83.2,49.7,74.3,48.4,68,44.7z"/>
	<path class="st3" d="M89.8,47.7c0,0-1.3-19.4-6.1-19.5c-6.6-0.2-6.2,6.8-5.2,11.4c0.7,3,1.7,6,3,8.8c0.8,1.7,1.4,3.7,2.6,5.3
		c1.6,2.1,2.1,1.7,5.3,2.4c5.9,1.2,13,2.8,18.3,2.1c0.2,0,0.4-0.1,0.5-0.2c0.2-0.1,0.3-0.2,0.4-0.4c0.1-0.2,0.2-0.3,0.2-0.5
		c0-0.2,0-0.4-0.1-0.6L109,55c-0.1-0.3-0.4-0.6-0.6-0.8c-0.3-0.2-0.6-0.3-1-0.4L89.8,47.7z"/>
	
		<linearGradient id="SVGID_00000134218530393038935210000017282581190843178402_" gradientUnits="userSpaceOnUse" x1="78.2768" y1="97.9149" x2="105.7385" y2="97.9149" gradientTransform="matrix(1 0 0 -1 0 142)">
		<stop  offset="0" style="stop-color:#2C296F;stop-opacity:0"/>
		<stop  offset="0.38" style="stop-color:#2C296F;stop-opacity:0.35"/>
		<stop  offset="1" style="stop-color:#2C296F"/>
	</linearGradient>
	
		<path style="display:inline;opacity:0.38;fill:url(#SVGID_00000134218530393038935210000017282581190843178402_);enable-background:new    ;" d="
		M106.1,54.6c-2.2-0.5-6.9,0.1-6.9,0.1s-6.4-2.5-9.5-2.6c-1.5-0.1-3.1-0.3-4.3-1.1c-1.4-0.9-2.3-2.5-3-3.9
		c-1.5-3.3-2.6-6.7-3.2-10.3c-0.4-1.9-0.4-3.9-0.1-5.8c-1.1,2.4-0.7,5.9-0.1,8.5c0.7,3,1.7,5.9,3,8.6c0.7,1.7,1.4,3.6,2.6,5.2
		c1.6,2,3.1,1.7,5.4,1.5c5.2-0.4,10,3.3,15.2,2.6c0.2,0,0.4-0.1,0.5-0.2s0.3-0.2,0.4-0.4c0.1-0.2,0.1-0.3,0.2-0.5
		c0-0.2,0-0.4-0.1-0.5L106.1,54.6z"/>
	<path class="st45" d="M85.4,29.9c0,0.7-1,1.2-2.3,1.2c-1.3,0-2.3-0.5-2.3-1.2c0-0.6,1-1.2,2.3-1.2C84.4,28.7,85.4,29.2,85.4,29.9z"
		/>
	<path class="st17" d="M111.8,55.7l-2-0.4l-0.6,2.8l2,0.4L111.8,55.7z"/>
	<path class="st27" d="M111.5,55.3l-0.3,3.3c0,0,0.6,0.3,0.7-0.1c0,0,1,0.9,1.2,1.1c0,0,3.1,1.1,3.7,0.6c0,0-1.3-2.1-0.5-2.2
		l1.4-0.7c0,0,1.3-0.3,1.7,0.4c0.4,0.8,0.8,1.8,0,2.4c0,0-0.7,0.3-0.5,0.5c0,0,0.5,0.7,2.2-0.8c0,0,0.7-1.4,0.7-1.8
		c0,0-0.7-2-1.7-3.1c0,0-0.6-0.5-1.8-0.1l-3.8,0.8c0,0-1.9,0.4-2.3,0.1C111.9,55.4,112,55.2,111.5,55.3z"/>
	<path class="st3" d="M108.5,58.3c-0.7-0.1-0.2-0.6-0.1-1.3l0.2-1.4c0.1-0.7-0.3-1.3,0.4-1.2c0.3,0,0.6,0.2,0.8,0.5
		c0.2,0.3,0.3,0.6,0.2,0.9l-0.2,1.4c-0.1,0.3-0.2,0.6-0.5,0.8C109.1,58.3,108.8,58.4,108.5,58.3L108.5,58.3z"/>
	<path class="st43" d="M66.3,47.9c0.1,0,0.1,0,0.2,0c0.1,0,0.1-0.1,0.1-0.1l1.7-3.4c0-0.1,0-0.1,0-0.2c0-0.1-0.1-0.1-0.1-0.1l0,0
		c-0.1,0-0.1,0-0.2,0c-0.1,0-0.1,0.1-0.1,0.1l-1.7,3.4c0,0.1,0,0.1,0,0.2C66.2,47.8,66.2,47.9,66.3,47.9L66.3,47.9z"/>
	<path class="st43" d="M63.9,46.5c0.1,0,0.1,0,0.2,0c0.1,0,0.1-0.1,0.1-0.1l1.7-3.4c0-0.1,0-0.1,0-0.2c0-0.1-0.1-0.1-0.1-0.1l0,0
		c0,0-0.1,0-0.1,0c0,0-0.1,0-0.1,0c0,0-0.1,0-0.1,0.1c0,0,0,0-0.1,0.1l-1.7,3.4c0,0.1,0,0.1,0,0.2C63.8,46.5,63.9,46.5,63.9,46.5
		L63.9,46.5z"/>
	<path class="st43" d="M67.3,44.3l-1.3-0.7l-1.4,2.9l1,0.8L67.3,44.3z"/>
	<path class="st46" d="M67.3,44.3l-1.3-0.7l-1.4,2.9l1,0.8L67.3,44.3z"/>
</g>
<g>
	<g>
		<defs>
			<rect id="SVGID_00000182523868800836591690000006172425193171760005_" y="0.4" width="178.3" height="140.5"/>
		</defs>
		<clipPath id="SVGID_00000069399068437815737090000016905957810258320018_">
			<use xlink:href="#SVGID_00000182523868800836591690000006172425193171760005_"  style="overflow:visible;"/>
		</clipPath>
		<g style="clip-path:url(#SVGID_00000069399068437815737090000016905957810258320018_);">
			<rect class="st48" width="178.3" height="140.5"/>
			<path class="st49" d="M46.7,133.8C27.2,125,11.5,106.2,10,84.9C8.6,63.7,24.3,41.3,45.5,38.9c10.1-1.1,20.5,1.9,30.3-0.8
				c18.4-5,26.8-27.4,44.2-35.3c16.7-7.6,37.7,1.2,48,16.5c10.3,15.2,11.8,34.9,9.2,53.1c-3.8,26.7-18.2,54.5-43.7,63.3
				C111.8,143.1,68.2,141.4,46.7,133.8z"/>
			<path class="st50" d="M28.5,75.4H0.3c-0.1,0-0.1-0.1-0.2-0.2C0,75.2,0,75.1,0,74.9s0-0.3,0.1-0.4c0-0.1,0.1-0.2,0.2-0.2h28.2
				c0.1,0,0.1,0.1,0.2,0.2c0,0.1,0.1,0.2,0.1,0.4c0,0.1,0,0.3-0.1,0.4C28.6,75.4,28.6,75.4,28.5,75.4z"/>
			<path class="st50" d="M31.4,79.9H14.7c-0.1,0-0.1-0.1-0.2-0.2c0-0.1-0.1-0.2-0.1-0.4s0-0.3,0.1-0.4c0-0.1,0.1-0.2,0.2-0.2h16.7
				c0.1,0,0.1,0.1,0.2,0.2c0,0.1,0.1,0.2,0.1,0.4s0,0.3-0.1,0.4C31.5,79.8,31.5,79.9,31.4,79.9z"/>
			<path class="st50" d="M24,86.3H1.5c-0.1,0-0.1-0.1-0.2-0.2c0-0.1-0.1-0.2-0.1-0.4c0-0.1,0-0.3,0.1-0.4c0-0.1,0.1-0.2,0.2-0.2H24
				c0.1,0,0.1,0.1,0.2,0.2c0,0.1,0.1,0.2,0.1,0.4s0,0.3-0.1,0.4S24.1,86.3,24,86.3z"/>
			<path class="st50" d="M39.7,26.3H24.1c0,0-0.1,0-0.1-0.1c0-0.1,0-0.2,0-0.3s0-0.2,0-0.3c0-0.1,0.1-0.1,0.1-0.1h15.6
				c0,0,0.1,0,0.1,0.1c0,0.1,0,0.2,0,0.3c0,0.1,0,0.2,0,0.3C39.8,26.2,39.7,26.3,39.7,26.3z"/>
			<path class="st50" d="M41.3,28.7h-9.2c0,0-0.1,0-0.1-0.1c0-0.1,0-0.2,0-0.3s0-0.2,0-0.3c0-0.1,0.1-0.1,0.1-0.1h9.2
				c0,0,0.1,0,0.1,0.1c0,0.1,0,0.2,0,0.3s0,0.2,0,0.3C41.4,28.7,41.3,28.7,41.3,28.7z"/>
			<path class="st50" d="M37.2,32.3H24.8c0,0-0.1-0.1-0.1-0.1c0-0.1,0-0.2,0-0.3c0-0.1,0-0.2,0-0.3c0-0.1,0.1-0.1,0.1-0.1h12.5
				c0,0,0.1,0,0.1,0.1c0,0.1,0,0.2,0,0.3c0,0.1,0,0.2,0,0.3C37.3,32.3,37.3,32.3,37.2,32.3z"/>
			<path class="st48" d="M61.3,38.7L61.3,38.7l0.1,0.3l0.2-0.1l0.1,0l-0.4,0.3l-0.1,0l0.1-0.1L61.3,38.7z M61.8,39
				C61.8,39,61.8,39,61.8,39c0.1,0.1,0.1,0.1,0.1,0.1c0,0,0,0.1,0,0.1c0,0,0,0.1-0.1,0.1c0,0-0.1,0-0.1,0c0,0-0.1,0-0.1,0
				c0,0-0.1-0.1-0.1-0.1c0,0,0-0.1,0-0.1c0,0,0.1-0.1,0.1-0.1C61.7,39,61.7,39,61.8,39z M61.7,39.1C61.7,39,61.7,39,61.7,39.1
				c-0.1,0-0.1,0-0.1,0c0,0,0,0.1,0,0.1c0,0,0,0,0,0.1c0,0,0,0,0.1,0c0,0,0,0,0.1-0.1C61.8,39.2,61.8,39.1,61.7,39.1
				C61.8,39.1,61.7,39.1,61.7,39.1z M62,39.1L62,39.1l0,0.2c0,0,0,0,0,0.1c0,0,0,0,0,0c0,0,0,0,0,0c0,0,0,0,0,0c0,0,0,0,0,0
				c0,0,0,0,0-0.1l0.1-0.1l0.1,0l-0.1,0.1c0,0.1,0,0.1-0.1,0.1c0,0,0,0-0.1,0c0,0-0.1,0-0.1,0c0,0-0.1,0-0.1-0.1c0,0,0-0.1,0-0.1
				c0,0,0-0.1,0-0.1L62,39.1z M62.3,39.3L62.3,39.3L62.3,39.3C62.3,39.3,62.4,39.3,62.3,39.3c0.1,0,0.1,0.1,0.1,0.1c0,0,0,0,0,0
				l-0.1,0.1c0,0,0,0,0,0c0,0,0,0,0,0c0,0,0,0-0.1,0.1l0,0l-0.1,0.1l-0.1,0L62.3,39.3z"/>
			<path class="st51" d="M59.6,37.8l-7.3-3.7l0,0.1L59.6,37.8L59.6,37.8z"/>
			<path class="st51" d="M59.4,38.1l-2.6-1.3l0,0.1L59.4,38.1L59.4,38.1z"/>
			<path class="st51" d="M59.5,37.9l-5-2.5l0,0.1L59.5,37.9L59.5,37.9z"/>
		</g>
	</g>
</g>
<g>
	<path class="st52" d="M50.8,77.1h50.5v-5.7H61c-2.8,0-5.5,1.1-7.4,3L50.8,77.1z"/>
	<path class="st53" d="M65.5,32.3c0.1-0.5,0.2-1.1,0.4-1.8c0.3-0.9,0.7-1.6,1-2.1c0.4,0,0.9,0,1.4,0.1c0.4,0.1,0.9,0.1,1.2,0.2
		c0.1,0.6,0.2,1.4,0.2,2.3c0,0.9-0.1,1.7-0.2,2.4c-0.2,0.1-2.6,0.8-3.7-0.5C65.7,32.7,65.6,32.6,65.5,32.3z"/>
	<path class="st54" d="M46.4,71.8l26.7,1.1c0-0.3,0.1-0.7,0.2-1.2c1.4-11.5-0.8-13.4,0.2-20.4c0,0,2.2-16.8,2.1-18.1
		c0-0.4-0.2-0.6-0.2-0.6c-0.2-0.2-0.4-0.3-0.6-0.3l-13.8-0.6c-7.6-0.3-14.1,5.6-14.4,13.1l-1,26.1C45.5,71.3,45.9,71.7,46.4,71.8z"
		/>
	<path class="st54" d="M42.7,69.4l11.9,0.5l0.8-21.2c0-0.8-0.6-1.5-1.4-1.6l-9.8-0.4c-1.2,0-2.2,0.9-2.2,2.1l-0.7,19
		C41.3,68.7,41.9,69.4,42.7,69.4z"/>
	<ellipse class="st55" cx="86.5" cy="135.7" rx="75" ry="2.1"/>
	<path class="st56" d="M121.7,53.5h4.8c0.9,0,1.6,0.7,1.6,1.7v3.1c0,0.9-0.7,1.7-1.6,1.7h-3.9v-1.2l0,0c-1.2,0-2.3-0.5-3.1-1.3
		l-0.6-0.6L121.7,53.5z"/>
	<polygon class="st56" points="121.7,53.5 118.9,56.8 107,53.9 108.7,49.4 	"/>
	<polygon class="st57" points="108.7,49.4 109.2,49.6 109.4,54.5 107,53.9 	"/>
	<path class="st54" d="M85.9,31.9L85.9,31.9c1.6-1.3,3.8-1,5.1,0.5l12.3,14.7l2.2,0.8l-2.1,5.7l-1.2-0.3c-1.8-0.4-3.5-1.4-4.8-2.8
		l-12-13C84,35.9,84.2,33.3,85.9,31.9z"/>
	<path class="st58" d="M103.5,53.8l0.1-0.2l2.1-5.7l0.2-0.6c0.1-0.3,0.5-0.5,0.8-0.4l2,0.8c0.3,0.1,0.5,0.5,0.4,0.8l-0.2,0.5
		l-1.9,5.3l-0.2,0.7c-0.1,0.3-0.5,0.5-0.8,0.4l-2-0.8C103.5,54.5,103.3,54.1,103.5,53.8z"/>
	<path class="st58" d="M90.3,33c-1.1-1.4-3.1-1.7-4.6-0.9c0.1-0.1,0.2-0.2,0.3-0.2h0c1.6-1.3,3.8-1,5.1,0.5l12.3,14.7l2.2,0.8
		l-0.3,0.9l-2.5-0.9L90.3,33z"/>
	<path class="st52" d="M90.2,62.5l25.7,7c4.4,1.2,6.5,6.5,4.1,10.5l-15,25.7l-8.3-3.8l12-23.5l-24.4-5.3c-4.7-1-7.5-6.1-5.9-10.8
		l0,0H90.2z"/>
	<path class="st56" d="M97.8,103.8l0.6-1l4.7,2.2l-1.1,2.1l-5.3-1.5C97.1,105,97.4,104.4,97.8,103.8z"/>
	<path class="st48" d="M99.1,108l0.4,1.2l-0.6-0.4c-0.2-0.2-0.5-0.3-0.8-0.3h-2.8c0.4-1,0.9-2,1.4-2.9l5.3,1.5l-0.3,0.6h-2.4
		C99.2,107.7,99.1,107.9,99.1,108z"/>
	<path class="st52" d="M105.2,113H94l0.2-0.8c0.3-1.3,0.7-2.5,1.2-3.7h2.8c0.3,0,0.6,0.1,0.8,0.3l0.6,0.4l-0.4-1.2
		c-0.1-0.2,0.1-0.3,0.2-0.3h2.4l1.8,1.7c0.8,0.8,1.9,1.2,3,1.2h1.2c1.2,0,2.2,0.7,2.8,1.7l-2.3,0.4C107.2,112.9,106.2,113,105.2,113
		z"/>
	<path class="st48" d="M105.2,113c1,0,2-0.1,3-0.3l2.3-0.4c0.2,0.4,0.4,0.9,0.4,1.4l-3.5,0.3c-0.6,0.1-1.1,0.1-1.7,0.1H93.7L94,113
		H105.2z"/>
	<polygon class="st52" points="98.4,102.9 103.2,105 102.7,106 97.5,104.3 	"/>
	<path class="st53" d="M129.8,60.2h1.2l3.1,11.4c2.4,8.9,1.5,18.4-2.7,26.6l-1.5,0.6L129.8,60.2z"/>
	<path class="st54" d="M134.2,71.6l-3.1-11.4h1.1l6.4,24.5c0.6,2.2,2.5,3.7,4.7,3.7c0.2,0,0.3,0.1,0.3,0.3v4.7l-12.2,4.7
		C135.6,90,136.6,80.5,134.2,71.6z"/>
	<ellipse class="st52" cx="144.5" cy="118" rx="17.1" ry="17.6"/>
	<ellipse class="st59" cx="144.5" cy="118" rx="12.3" ry="12.7"/>
	<ellipse class="st60" cx="144.5" cy="118" rx="10" ry="10.3"/>
	<path class="st61" d="M144.5,107.7c1.9,0,3.7,0.5,5.2,1.5c-0.7-0.2-1.4-0.3-2.2-0.3c-4.9,0-8.9,4.1-8.9,9.1c0,5,4,9.1,8.9,9.1
		c0.8,0,1.5-0.1,2.2-0.3c-1.5,0.9-3.3,1.5-5.2,1.5c-5.5,0-10-4.6-10-10.3C134.4,112.3,138.9,107.7,144.5,107.7z"/>
	<ellipse class="st61" cx="144.5" cy="118" rx="4.4" ry="4.6"/>
	<ellipse class="st62" cx="144.5" cy="118" rx="3" ry="3.1"/>
	<ellipse class="st52" cx="53.4" cy="118" rx="17.1" ry="17.6"/>
	<ellipse class="st59" cx="53.4" cy="118" rx="12.3" ry="12.7"/>
	<ellipse class="st60" cx="53.4" cy="118" rx="10" ry="10.3"/>
	<path class="st61" d="M53.4,107.7c1.9,0,3.7,0.5,5.2,1.5c-0.7-0.2-1.4-0.3-2.2-0.3c-4.9,0-8.9,4.1-8.9,9.1c0,5,4,9.1,8.9,9.1
		c0.8,0,1.5-0.1,2.2-0.3c-1.5,0.9-3.3,1.5-5.2,1.5c-5.5,0-10-4.6-10-10.3C43.4,112.3,47.8,107.7,53.4,107.7z"/>
	<ellipse class="st61" cx="53.4" cy="118" rx="4.4" ry="4.6"/>
	<ellipse class="st52" cx="53.4" cy="118" rx="3" ry="3.1"/>
	<path class="st58" d="M143.6,94.8c-8.8,0.3-16.3,6.6-18.6,15.4l-0.4,1.4l-0.4,0.2l0.8-3c2.3-8.7,9.8-15.1,18.6-15.4
		c0.2,0,0.5,0,0.7,0c3.8,0,7.4,1,10.6,2.9l-0.6,1c-3-1.7-6.5-2.6-10-2.6C144.1,94.7,143.9,94.8,143.6,94.8z"/>
	<path class="st53" d="M142,102.7l-17.4,8.8l0.4-1.4c2.3-8.7,9.8-15.1,18.6-15.4c0.2,0,0.5,0,0.7,0c3.6,0,7,0.9,10,2.6l-3.1,5.4H142
		z"/>
	<path class="st54" d="M123.4,113.1h8.1c3.7,0,7.2-1.5,9.8-4.2l0,0c2.6-2.7,6.1-4.2,9.8-4.2h9.6l-3.1-3.1c-3.5-3.6-8.3-5.7-13.3-5.7
		h0c-6.4,0-12.4,3.4-15.9,9L123.4,113.1z"/>
	<path class="st54" d="M129.6,60.2l3.3,11.4c2.6,9.1,1.5,18.9-3.2,27.2l-1.6,2.9c-4.6,8.2-13.5,13.3-23.1,13.3H24.1l2.9-10.3
		c2.9-10.2,9.5-18.9,18.7-24.4l5.2-3.2h45V79c0,1.3-0.8,2.4-2.1,2.8l0,0c-4.8,1.6-8.3,5.7-8.9,10.7l0,0C84,100.2,90.1,107,98,107
		h6.6c6.3,0,12.2-3.2,15.6-8.4l3.1-4.7c3.4-5.2,4.5-11.5,3.2-17.5l-3.5-16.3H129.6z"/>
	<path class="st61" d="M82,115.7h20.7c9.4,0,18-5.3,22.6-13.7l1.6-2.9c4.6-8.5,5.7-18.4,3.1-27.8c-0.8-3-0.4-6.3,1.1-9.1
		c0.2-0.4,0.1-0.9-0.3-1.1c-0.4-0.2-0.8-0.1-1,0.3c-1.7,3.1-2.1,6.8-1.2,10.2c2.5,9,1.4,18.4-3,26.6l-1.6,2.9
		c-4.3,8-12.4,12.9-21.2,12.9H82c-0.4,0-0.8,0.3-0.8,0.8S81.5,115.7,82,115.7z"/>
	<path class="st53" d="M81.2,111.9H33.7l0.7,0.7c1.2,1.2,2.7,1.9,4.4,1.9h37.4C78.2,114.5,80,113.5,81.2,111.9L81.2,111.9z"/>
	<ellipse class="st61" cx="60.5" cy="109.4" rx="10.3" ry="10.6"/>
	<path class="st59" d="M60.5,117.5c4.4,0,7.9-3.7,7.9-8.1c0-4.5-3.5-8.1-7.9-8.1c-4.4,0-7.9,3.7-7.9,8.1
		C52.5,113.8,56.1,117.5,60.5,117.5z M60.5,102.1c3.9,0,7.1,3.3,7.1,7.3c0,4-3.2,7.3-7.1,7.3c-3.9,0-7.1-3.3-7.1-7.3
		C53.4,105.3,56.6,102.1,60.5,102.1z"/>
	<g>
		<path class="st59" d="M55.3,109.8h10.3c0.2,0,0.4-0.2,0.4-0.4s-0.2-0.4-0.4-0.4H55.3c-0.2,0-0.4,0.2-0.4,0.4
			S55.1,109.8,55.3,109.8z"/>
	</g>
	<g>
		<path class="st59" d="M56.2,108.1h8.5c0.2,0,0.4-0.2,0.4-0.4s-0.2-0.4-0.4-0.4h-8.5c-0.2,0-0.4,0.2-0.4,0.4S56,108.1,56.2,108.1z"
			/>
	</g>
	<g>
		<path class="st59" d="M57.4,106.3h6.1c0.2,0,0.4-0.2,0.4-0.4c0-0.2-0.2-0.4-0.4-0.4h-6.1c-0.2,0-0.4,0.2-0.4,0.4
			C57,106.1,57.2,106.3,57.4,106.3z"/>
	</g>
	<g>
		<path class="st59" d="M58.8,104.6h3.3c0.2,0,0.4-0.2,0.4-0.4c0-0.2-0.2-0.4-0.4-0.4h-3.3c-0.2,0-0.4,0.2-0.4,0.4
			C58.4,104.4,58.6,104.6,58.8,104.6z"/>
	</g>
	<g>
		<path class="st59" d="M56.2,111.5h8.5c0.2,0,0.4-0.2,0.4-0.4c0-0.2-0.2-0.4-0.4-0.4h-8.5c-0.2,0-0.4,0.2-0.4,0.4
			C55.8,111.3,56,111.5,56.2,111.5z"/>
	</g>
	<g>
		<path class="st59" d="M57.4,113.3h6.1c0.2,0,0.4-0.2,0.4-0.4c0-0.2-0.2-0.4-0.4-0.4h-6.1c-0.2,0-0.4,0.2-0.4,0.4
			C57,113.1,57.2,113.3,57.4,113.3z"/>
	</g>
	<g>
		<path class="st59" d="M58.8,115h3.3c0.2,0,0.4-0.2,0.4-0.4c0-0.2-0.2-0.4-0.4-0.4h-3.3c-0.2,0-0.4,0.2-0.4,0.4
			C58.4,114.8,58.6,115,58.8,115z"/>
	</g>
	<path class="st53" d="M49.4,86.4L49.4,86.4c4.9-3.1,10.5-4.7,16.2-4.7h1.9c9.7,0,18,8.2,18,18.3c0,4.6-1.6,8.7-4.3,11.9H67.8H54.4
		H33.7l1.8-6.7C37.6,97.4,42.6,90.6,49.4,86.4z"/>
	<path class="st54" d="M52.1,93.2L52.1,93.2c3.6-2.2,7.7-3.4,11.9-3.4h1.4c7.1,0,13.2,6,13.2,13.4c0,3.3-1.2,6.4-3.2,8.7h-9.8h-9.8
		H40.6L42,107C43.5,101.3,47.2,96.3,52.1,93.2z"/>
	<path class="st63" d="M51.9,109.2h16c0.3,0,0.5-0.2,0.5-0.5c0-0.3-0.2-0.5-0.5-0.5h-16c-0.3,0-0.5,0.2-0.5,0.5
		C51.4,109,51.6,109.2,51.9,109.2z"/>
	<path class="st63" d="M52.4,107.3h16c0.3,0,0.5-0.2,0.5-0.5c0-0.3-0.2-0.5-0.5-0.5h-16c-0.3,0-0.5,0.2-0.5,0.5
		C51.9,107.1,52.1,107.3,52.4,107.3z"/>
	<path class="st63" d="M52.9,105.5h16c0.3,0,0.5-0.2,0.5-0.5c0-0.3-0.2-0.5-0.5-0.5h-16c-0.3,0-0.5,0.2-0.5,0.5
		C52.4,105.3,52.6,105.5,52.9,105.5z"/>
	<path class="st63" d="M53.4,103.6h16c0.3,0,0.5-0.2,0.5-0.5s-0.2-0.5-0.5-0.5h-16c-0.3,0-0.5,0.2-0.5,0.5S53.1,103.6,53.4,103.6z"
		/>
	<path class="st63" d="M53.9,101.8l16,0c0.3,0,0.5-0.2,0.5-0.5c0-0.3-0.2-0.5-0.5-0.5l-16,0c-0.3,0-0.5,0.2-0.5,0.5
		C53.4,101.6,53.6,101.8,53.9,101.8z"/>
	<path class="st53" d="M97.8,77.1H55.1l0,0c0.9,1,2.2,1.5,3.6,1.5h35.2C95.3,78.6,96.7,78,97.8,77.1L97.8,77.1z"/>
	<path class="st54" d="M123.5,60.2h8.7h4v-8.4h-2.8c-2.4,0-4.7,0.5-6.9,1.6l-2,1c-1.3,0.6-2,2.1-1.6,3.6L123.5,60.2z"/>
	<rect x="136.2" y="51.8" class="st53" width="1.3" height="8.4"/>
	<path class="st64" d="M138.2,52.2v7.7c0,0.2-0.1,0.3-0.3,0.3h-0.4v-8.4h0.3C138,51.8,138.2,51.9,138.2,52.2z"/>
	<polygon class="st53" points="129.8,60.2 123.5,60.2 123.6,60.9 130,60.9 	"/>
	<path class="st58" d="M90.2,62.5l21.4,6.6c4.7,1.5,6.9,7.1,4.3,11.5l-14.7,25.2l-8.3-3.8l12-23.5l-24.4-5.3
		c-4.7-1-7.5-6.1-5.9-10.8l0,0H90.2z"/>
	<path class="st65" d="M94,103.8l0.6-1l4.7,2.2l-1.1,2.1l-5.3-1.5C93.3,105,93.7,104.4,94,103.8z"/>
	<path class="st48" d="M95.3,108l0.4,1.2l-0.6-0.4c-0.2-0.2-0.5-0.3-0.8-0.3h-2.8c0.4-1,0.9-2,1.4-2.9l5.3,1.5l-0.3,0.6h-2.4
		C95.4,107.7,95.3,107.9,95.3,108z"/>
	<path class="st52" d="M101.4,113H90.2l0.2-0.8c0.3-1.3,0.7-2.5,1.2-3.7h2.8c0.3,0,0.6,0.1,0.8,0.3l0.6,0.4l-0.4-1.2
		c-0.1-0.2,0.1-0.3,0.2-0.3H98l1.8,1.7c0.8,0.8,1.9,1.2,3,1.2h1.2c1.2,0,2.2,0.7,2.8,1.7l-2.3,0.4C103.4,112.9,102.4,113,101.4,113z
		"/>
	<path class="st48" d="M101.4,113c1,0,2-0.1,3-0.3l2.3-0.4c0.2,0.4,0.4,0.9,0.4,1.4l-3.5,0.3c-0.6,0.1-1.1,0.1-1.7,0.1H89.9l0.3-1.1
		H101.4z"/>
	<polygon class="st52" points="94.6,102.9 99.4,105 98.9,106 93.7,104.3 	"/>
	<path class="st65" d="M95,23.5l0.6-3.8c0.2-1.3,1.3-2.2,2.5-2.2h3.7l-0.3,1.8c-0.2,1.3-0.2,2.6,0.1,3.9l0.2,0.7
		c0.1,0.3-0.2,0.6-0.5,0.6h-0.7c-1,3.6-5.1,5.1-8.1,2.8l-4.6-3.6l2.4,1.8C92.1,26.7,94.6,25.7,95,23.5z"/>
	<path class="st56" d="M102.1,16.2l-0.2,1.3l0,0h-3.7c-1.3,0-2.3,0.9-2.5,2.2L95,23.5c-0.4,2.2-2.9,3.3-4.6,2l-2.4-1.8l0,0l0,0v-7.5
		H102.1z"/>
	<polygon class="st52" points="87.9,23.7 92.5,27.3 91.9,29.1 87.9,23.7 	"/>
	<polygon class="st65" points="84.7,28.7 87.9,23.7 91.9,29.1 90.8,32.2 	"/>
	<path class="st52" d="M99.1,20.5c-0.1,0.4,0.1,0.8,0.3,0.9c0.2,0,0.5-0.3,0.5-0.7c0.1-0.4-0.1-0.8-0.3-0.9
		C99.4,19.7,99.2,20,99.1,20.5z"/>
	<path class="st52" d="M100.2,18.9c-0.4-0.2-0.8-0.2-1.2,0.1c-0.4,0.2-0.7-0.3-0.3-0.6c0.6-0.4,1.3-0.4,1.8-0.1
		C100.9,18.6,100.5,19.2,100.2,18.9L100.2,18.9z"/>
	<g>
		<path class="st48" d="M99.3,23.1l-0.7,0.3c-1.1,0.4-2.3,0.4-3.4,0.1L93.3,23l0.4-0.9l1.4,0.4c1.1,0.3,2.3,0.3,3.4-0.1l0.7-0.3
			c0.7-0.2,1.3-0.4,2-0.5l0.3,0l0.2,1l-0.5,0.1C100.6,22.7,99.9,22.9,99.3,23.1z"/>
		<path class="st63" d="M93.3,23l1.8,0.5c1.1,0.3,2.3,0.3,3.4-0.1l0.7-0.3c0.7-0.2,1.3-0.4,2-0.5l0.5-0.1l0.1,0.3
			c0.1,0.6,0.1,1.2-0.1,1.7l-0.4,1.2c-0.7,2.1-2.6,3.5-4.7,3.6h0C95.3,29.4,94,29,93,28.1l-1.5-1.3L93.3,23z"/>
	</g>
	<path class="st66" d="M95.1,22.5l-0.2,1c-0.3,1.6-1.7,2.6-3.1,2.5l1.9-3.9L95.1,22.5z"/>
	<path class="st58" d="M92.5,24.5l1.4,4.1c0,0.1-0.1,0.3-0.2,0.3l0,0c-1-0.1-2-0.8-2.5-1.7L89.4,24L92.5,24.5z"/>
	<path class="st54" d="M93.8,18.3l-0.8,4.5c-0.1,0.8-0.9,1.2-1.6,1l-7.6-2.9v-5.6c0-5.8,4.5-10.4,10.1-10.4l0,0
		c5.5,0,9.9,4.5,10.1,10.1h-6.4C95.8,14.9,94.2,16.3,93.8,18.3z"/>
	<g class="st67">
		<g>
			<path class="st60" d="M87.7,13.2c0.5,0,1-0.3,1.2-0.8c1-2,2.9-3.2,5.1-3.2c0.8,0,1.4-0.6,1.4-1.4c0-0.8-0.6-1.4-1.4-1.4
				c-3.2,0-6,1.8-7.5,4.7c-0.3,0.7-0.1,1.5,0.6,1.9C87.3,13.2,87.5,13.2,87.7,13.2z"/>
		</g>
		<g>
			<path class="st60" d="M98.1,10.7c0.4,0,0.8-0.2,1.1-0.6c0.4-0.6,0.3-1.5-0.3-2l-0.1,0c-0.6-0.5-1.5-0.3-1.9,0.3
				c-0.4,0.6-0.3,1.5,0.3,2l0,0C97.6,10.6,97.9,10.7,98.1,10.7z"/>
		</g>
	</g>
	<path class="st54" d="M91.4,23.7c0.7,0.3,1.5-0.2,1.6-1l0.8-4.5c0.3-1.9,2-3.4,3.9-3.4h6.4c0,0.1,0,0.2,0,0.3v1h-6
		c-1.5,0-2.7,1.1-3,2.6l-0.8,4.5c-0.3,1.6-1.9,2.5-3.4,1.9l-6.4-2.9c-0.4-0.2-0.7-0.6-0.7-1.1v-0.2L91.4,23.7z"/>
	<path class="st54" d="M92.1,60.1l-1.9-8.4l2.7-15.1c0.3-1.8-0.5-3.6-2.1-4.5l-6.1-3.5c-0.8-0.5-1.8-0.4-2.5,0.3v0
		c-5.1,4.5-8.2,10.8-8.8,17.6l-1.2,13.2c-0.1,1.4,1,2.7,2.4,2.7l0,0h15.6l0,0C91.4,62.5,92.3,61.4,92.1,60.1z"/>
	<path class="st68" d="M82.8,35l-0.1,0.2c-0.6,2.6-0.2,5.3,1.3,7.5l6.2,9.1l1.3-7.1L82.8,35z"/>
	<g>
		<polygon class="st54" points="91.4,30.5 93.1,31.4 91.4,33.3 90.8,32.2 		"/>
		<polygon class="st54" points="93.1,31.4 93.5,34.6 91.7,32.9 		"/>
	</g>
	<polygon class="st54" points="83.7,28.4 85.5,26.8 91.9,30.4 91,34.2 	"/>
	<path class="st65" d="M119.7,55.1h4.8c0.9,0,1.6,0.7,1.6,1.7v3.1c0,0.9-0.7,1.7-1.6,1.7h-3.9v-1.2l0,0c-1.2,0-2.3-0.5-3.1-1.3
		l-0.6-0.6L119.7,55.1z"/>
	<polygon class="st65" points="119.7,55.1 116.9,58.3 105.1,55.5 106.7,51 	"/>
	<polygon class="st56" points="106.7,51 107.3,51.2 107.5,56.1 105.1,55.5 	"/>
	<path class="st54" d="M83.9,33.4L83.9,33.4c1.6-1.3,3.8-1,5.1,0.5l12.3,14.7l2.2,0.8l-2.1,5.7l-1.2-0.3c-1.8-0.4-3.5-1.4-4.8-2.8
		l-12-13C82,37.5,82.2,34.8,83.9,33.4z"/>
	<path class="st58" d="M101.5,55.4l0.1-0.2l2.1-5.7l0.2-0.6c0.1-0.3,0.5-0.5,0.8-0.4l2,0.8c0.3,0.1,0.5,0.5,0.4,0.8l-0.2,0.5
		l-1.9,5.3l-0.2,0.7c-0.1,0.3-0.5,0.5-0.8,0.4l-2-0.8C101.5,56,101.4,55.7,101.5,55.4z"/>
	<path class="st58" d="M88.3,34.6c-1.1-1.4-3.1-1.7-4.6-0.9c0.1-0.1,0.2-0.2,0.3-0.2l0,0c1.6-1.3,3.8-1,5.1,0.5l12.3,14.7l2.2,0.8
		l-0.3,0.9l-2.5-0.9L88.3,34.6z"/>
	<path class="st52" d="M119,60.3c-0.4-0.7-1.2-0.9-1.9-0.6l0,0c0,0,0.1,0,0.1-0.1l3.1-1.7c0.7-0.4,1.5-0.1,1.9,0.6
		c0.4,0.7,0.1,1.5-0.5,1.9l-3,1.7C119.2,61.7,119.4,60.9,119,60.3z"/>
	<path class="st59" d="M117.9,62.3c-0.5,0-0.9-0.3-1.2-0.7c-0.3-0.7-0.1-1.5,0.5-1.9l0,0c0.7-0.4,1.5-0.1,1.9,0.6
		c0.3,0.7,0.1,1.5-0.5,1.9l0,0C118.4,62.2,118.1,62.3,117.9,62.3z"/>
	<path class="st68" d="M75,34.3c0.2,0-0.4,4-1.6,15.7c-0.5,5.1-0.6,7.1-0.3,9.6c0.1,0.8,0.3,2.2,0.3,4.2c0,2.4-0.3,4.6-0.4,4.6
		c-0.1,0,0.2-2.1,0-5.2c-0.1-1.8-0.4-3.1-0.5-3.7c-0.6-3.4-0.3-6.7-0.1-10.3C73.1,41.4,74.8,34.3,75,34.3z"/>
	<path class="st68" d="M76.8,36.3c-0.4,0.8-1.3,2.8-2,5.1c-1.4,5.1-1.6,11.6-1.4,11.6c0.1,0,0.1-3.6,1.4-8.7
		c0.6-2.5,1.5-5.2,1.5-5.2c0.8-2.4,1.4-4.2,1.3-4.3C77.5,34.9,77,36,76.8,36.3z"/>
	<path class="st68" d="M73.3,37.6c-0.8,0.8-1.6,1.5-2.5,2.3c0.2-0.9,1.5-6.6,6-9.6c0.4-0.2,5.5-3.4,10.6-0.2
		c3.6,2.3,5.1,6.4,5.1,6.4c0,0-1.4-2.5-4-4.3c-0.6-0.4-2.3-1.6-4.3-1.8l0,0c0,0-3.4-0.2-6.1,1.1c-3.1,1.4-5.6,4.8-5.2,5.8
		C73,37.5,73.1,37.6,73.3,37.6z"/>
	<path class="st68" d="M69.3,31.8c0.1-0.9,0.1-1.7,0.2-2.6c0.1,0.9,0.2,1.5,0.2,2.1c0,0.2,0.1,0.6-0.1,0.6
		C69.5,32,69.4,31.9,69.3,31.8z"/>
	<path class="st53" d="M54.1,69.8c0.2,0,0.9-5.3,1-11.3c0.1-3.3-0.1-6-0.2-7.9c-0.1,1.8-0.3,4.4-0.5,7.5
		C54.3,60.5,53.8,69.8,54.1,69.8z"/>
	<path class="st68" d="M42.1,52.4c1.2,0.2,2.7,0.5,4.3,0.6c0.7,0.1,1.4,0.1,2,0.2c-0.8,0-2,0.1-3.5-0.1
		C43.7,52.8,42.7,52.6,42.1,52.4z"/>
	<path class="st53" d="M53.8,69.2c-0.1-0.3-1.5-0.3-3.3-0.4c-1.7-0.1-2.9-0.2-4.1-0.6c-0.7-0.3-1.9-0.8-3.1-1.9
		c0.1,0.3,0.2,0.7,0.5,1.1c0.6,0.9,1.6,1.2,2.3,1.4c1.1,0.3,2,0.3,2.3,0.3c1.2,0,2.9,0,5.2,0.2C53.7,69.3,53.8,69.2,53.8,69.2z"/>
	<path class="st53" d="M73.2,32.4c-0.9,1.5-1.8,3.7-2.3,6.5c0,0.1-0.1,0.7-0.2,1.5c-0.1,1.6,0.1,3.3,0.4,7.2
		c0.8,8.8,0.9,13.3,0.9,14.4c0.1,3.3,0,6.2,0,6.2c0,0-0.1-2.5-0.3-7.1c-0.1-3.4-0.2-5.1-0.4-7.1c-0.3-3.5-0.5-4.2-0.7-6.7
		c-0.2-2.6-0.6-5.6-0.2-9.1c0.2-1.6,0.6-3.1,1.7-4.6C72.5,33,72.9,32.7,73.2,32.4z"/>
	<path class="st68" d="M65.7,31.8c0.2-0.6,0.4-1.3,0.7-2c0.2-0.4,0.4-0.8,0.6-1.2c-0.4,0.7-0.6,1.2-0.7,1.6
		c-0.1,0.2-0.2,0.7-0.5,1.3C65.8,31.6,65.7,31.7,65.7,31.8z"/>
	<path class="st53" d="M45,49.9c0.7-0.3,1.7-0.7,3-1c1.5-0.3,3.2-0.6,4.8,0.4c0.3,0.2,1.8,1,2.2,2.8c0.2,0.8,0.1,1.5,0,1.9
		c0-0.4,0.1-1.4-0.4-2.4c-0.6-1.3-1.8-1.8-2.3-2c-1.2-0.5-2.2-0.4-4.1-0.3C47.4,49.4,46.3,49.6,45,49.9z"/>
	<path class="st68" d="M72.6,71.5c-1.9-0.2-3.5-0.2-4.4-0.1c-5,0.1-7.3,1-10.1-0.3c-1.2-0.5-2-1.2-2.5-1.7
		c0.1-6.2,0.3-12.3,0.4-18.5c0,0,0,7.1-1,16.4c-0.1,1.2-0.3,2.2-0.4,3c-1.5,0.3-3.4,0.5-5.6,0.4c-1.1-0.1-2.1-0.2-3-0.4
		c-0.3,0.4-0.3,0.8,0,1.1c0.2,0.2,0.6,0.1,0.6,0.1c3.1,0.2,6.3,0.4,9.5,0.6c2.7,0.1,5.4,0.3,8,0.3c2.9,0.1,5.7,0.3,8.6,0.4
		C72.8,72.3,72.7,71.9,72.6,71.5z"/>
</g>
<g>
	<path class="st51" d="M50.5,44.9c0.6,0,1.1-0.2,1.5-0.6l-0.7-0.7c-0.2,0.2-0.4,0.3-0.7,0.3c-0.3,0-0.5-0.2-0.5-0.5
		c0-0.4,0.5-0.9,0.9-0.9c0.2,0,0.4,0.1,0.5,0.2l0.9-0.6c-0.3-0.4-0.7-0.6-1.3-0.6c-1,0-2.1,0.9-2.1,1.9C49,44.3,49.6,44.9,50.5,44.9
		L50.5,44.9z M55,41.6l-0.4,1.8c-0.1,0.3-0.3,0.5-0.6,0.5c-0.2,0-0.3-0.1-0.3-0.3c0-0.1,0-0.2,0.4-2h-1.2c-0.4,1.9-0.5,2.1-0.5,2.3
		c0,0.6,0.4,1,1,1c0.4,0,0.7-0.1,0.9-0.3l-0.1,0.3h1.2l0.7-3.2H55L55,41.6z M58,42.1c0.3-0.4,0.7-0.6,1.1-0.6l-0.1,1
		c-0.6,0-1.1,0.4-1.3,1l-0.3,1.4h-1.2l0.7-3.2h1.2L58,42.1L58,42.1z M62.5,42.4c0-0.5-0.5-0.9-1.3-0.9c-1.1,0-2,0.9-2,2
		c0,0.8,0.6,1.4,1.5,1.4c0.5,0,1-0.2,1.4-0.5l-0.6-0.7C61.3,43.9,61,44,60.8,44c-0.3,0-0.5-0.2-0.5-0.5h0.7
		C61.9,43.5,62.5,43.1,62.5,42.4L62.5,42.4z M61.2,42.4c0.2,0,0.3,0.1,0.3,0.2c0,0.2-0.2,0.3-0.5,0.3h-0.6
		C60.7,42.6,60.9,42.4,61.2,42.4z"/>
	<path class="st69" d="M62.9,44.8h1.2l0.9-4.4h-1.2L62.9,44.8L62.9,44.8z M66.5,44.9c-0.9,0-1.6-0.6-1.6-1.5c0-1.1,1.1-1.9,2.1-1.9
		c0.9,0,1.6,0.6,1.6,1.5C68.6,44,67.5,44.9,66.5,44.9L66.5,44.9z M66.5,43.9c0.5,0,0.9-0.5,0.9-0.9c0-0.3-0.2-0.5-0.5-0.5
		c-0.5,0-1,0.5-1,0.9C66,43.7,66.2,43.9,66.5,43.9z"/>
	<path class="st69" d="M61.1,45.4h0.1c0.1,0,0.2,0,0.2,0c0,0,0.1,0.1,0.1,0.1c0,0.1,0,0.1,0,0.2c0,0,0,0.1,0,0.1c0,0,0,0.1-0.1,0.1
		c0,0-0.1,0-0.1,0.1c0,0-0.1,0-0.2,0h-0.1V45.4L61.1,45.4z M61.3,45.5v0.4h0.1c0.1,0,0.1,0,0.1,0c0,0,0,0,0.1-0.1c0,0,0-0.1,0-0.1
		c0-0.1,0-0.1-0.1-0.2C61.4,45.5,61.4,45.5,61.3,45.5L61.3,45.5L61.3,45.5z M61.7,45.5h0.1v0.1c0,0,0,0,0-0.1c0,0,0,0,0.1,0
		c0,0,0,0,0,0l0,0.1c0,0,0,0,0,0c0,0,0,0,0,0c0,0,0,0.1,0,0.1l0,0V46h-0.1V45.5L61.7,45.5z M62.1,45.3
		C62.1,45.3,62.1,45.4,62.1,45.3C62.1,45.4,62.2,45.4,62.1,45.3c0.1,0.1,0.1,0.1,0.1,0.1c0,0,0,0-0.1,0c0,0,0,0-0.1,0
		C62,45.5,62,45.4,62.1,45.3C62,45.4,62,45.4,62.1,45.3C62,45.4,62.1,45.3,62.1,45.3L62.1,45.3z M62,45.5h0.1V46H62V45.5L62,45.5z
		 M62.2,45.5h0.1l0.1,0.3l0.1-0.3h0.1L62.5,46h-0.1L62.2,45.5L62.2,45.5z M63.2,45.8h-0.4c0,0,0,0.1,0,0.1c0,0,0.1,0,0.1,0
		c0,0,0.1,0,0.1,0l0.1,0c0,0-0.1,0.1-0.1,0.1c0,0-0.1,0-0.1,0c-0.1,0-0.1,0-0.2-0.1c0,0-0.1-0.1-0.1-0.2c0-0.1,0-0.1,0.1-0.2
		c0,0,0.1-0.1,0.2-0.1c0.1,0,0.1,0,0.2,0.1C63.2,45.6,63.2,45.7,63.2,45.8L63.2,45.8L63.2,45.8z M63.1,45.7
		C63.1,45.7,63.1,45.7,63.1,45.7C63,45.6,63,45.6,63,45.6c0,0-0.1,0-0.1,0c0,0,0,0,0,0.1H63.1z"/>
	<path class="st51" d="M63.5,45.5h0.1l0.1,0.3l0.1-0.3H64l-0.3,0.6h-0.1l0.1-0.2L63.5,45.5L63.5,45.5z M64.3,45.5c0,0,0.1,0,0.1,0
		c0,0,0.1,0.1,0.1,0.1c0,0,0,0.1,0,0.1c0,0,0,0.1,0,0.1c0,0-0.1,0.1-0.1,0.1c0,0-0.1,0-0.1,0c-0.1,0-0.1,0-0.2-0.1
		c0,0-0.1-0.1-0.1-0.2c0-0.1,0-0.1,0.1-0.2C64.2,45.5,64.2,45.5,64.3,45.5L64.3,45.5z M64.3,45.6C64.3,45.6,64.2,45.7,64.3,45.6
		c-0.1,0.1-0.1,0.1-0.1,0.1c0,0,0,0.1,0,0.1c0,0,0.1,0,0.1,0c0,0,0.1,0,0.1,0c0,0,0-0.1,0-0.1C64.4,45.7,64.4,45.7,64.3,45.6
		C64.4,45.7,64.3,45.6,64.3,45.6L64.3,45.6z M64.6,45.5h0.1v0.2c0,0,0,0.1,0,0.1s0,0,0,0c0,0,0,0,0.1,0c0,0,0,0,0.1,0c0,0,0,0,0,0
		c0,0,0,0,0-0.1v-0.2h0.1v0.2c0,0.1,0,0.1,0,0.2c0,0,0,0.1-0.1,0.1c0,0-0.1,0-0.1,0c-0.1,0-0.1,0-0.1,0c0,0-0.1-0.1-0.1-0.1
		c0,0,0-0.1,0-0.2V45.5L64.6,45.5z M65.2,45.5h0.1v0.1c0,0,0,0,0-0.1c0,0,0,0,0.1,0c0,0,0,0,0,0l0,0.1c0,0,0,0,0,0c0,0,0,0,0,0
		c0,0,0,0.1,0,0.1l0,0V46h-0.1V45.5z"/>
	<path class="st51" d="M65.7,45.4h0.1v0.2h0.2v-0.2h0.1V46h-0.1v-0.3h-0.2V46h-0.1V45.4L65.7,45.4z M66.8,45.8h-0.4c0,0,0,0.1,0,0.1
		c0,0,0.1,0,0.1,0c0,0,0.1,0,0.1,0l0.1,0c0,0-0.1,0.1-0.1,0.1c0,0-0.1,0-0.1,0c-0.1,0-0.1,0-0.2-0.1c0,0-0.1-0.1-0.1-0.2
		c0-0.1,0-0.1,0.1-0.2c0,0,0.1-0.1,0.2-0.1c0.1,0,0.1,0,0.2,0.1C66.8,45.6,66.8,45.7,66.8,45.8L66.8,45.8L66.8,45.8z M66.7,45.7
		C66.7,45.7,66.7,45.7,66.7,45.7c-0.1-0.1-0.1-0.1-0.1-0.1c0,0-0.1,0-0.1,0c0,0,0,0,0,0.1H66.7L66.7,45.7z M67.2,45.5h0.1V46h-0.1
		V46c0,0,0,0-0.1,0c0,0,0,0-0.1,0C67,46,67,46,66.9,46c0,0-0.1-0.1-0.1-0.2c0-0.1,0-0.1,0.1-0.2c0,0,0.1-0.1,0.2-0.1
		C67.1,45.5,67.2,45.5,67.2,45.5C67.2,45.6,67.2,45.6,67.2,45.5L67.2,45.5L67.2,45.5z M67.1,45.6C67.1,45.6,67.1,45.6,67.1,45.6
		C67,45.7,67,45.7,67,45.8c0,0,0,0.1,0,0.1c0,0,0.1,0,0.1,0c0,0,0.1,0,0.1,0c0,0,0-0.1,0-0.1C67.3,45.7,67.2,45.7,67.1,45.6
		C67.2,45.6,67.2,45.6,67.1,45.6L67.1,45.6z M67.5,45.4h0.1V46h-0.1V45.4L67.5,45.4z M67.7,45.4h0.1v0.2h0.1v0.1h-0.1V46h-0.1v-0.4
		h-0.1v-0.1h0.1V45.4L67.7,45.4z M68,45.4h0.1v0.2c0,0,0,0,0.1,0c0,0,0,0,0.1,0c0,0,0.1,0,0.1,0c0,0,0,0.1,0,0.1V46h-0.1v-0.2
		c0-0.1,0-0.1,0-0.1c0,0,0,0,0,0c0,0,0,0,0,0c0,0,0,0-0.1,0c0,0,0,0,0,0.1c0,0,0,0,0,0.1V46H68V45.4z"/>
	<rect x="49" y="45.4" class="st51" width="11.8" height="0.1"/>
	<rect x="56.5" y="45.9" class="st51" width="4.3" height="0.1"/>
	<rect x="52.7" y="45.6" class="st51" width="8" height="0.1"/>
</g>
</svg>
