<svg width="50" height="50" viewBox="0 0 50 50" fill="none" xmlns="http://www.w3.org/2000/svg">
<path d="M27.6372 6.09155C26.1518 4.70665 23.8482 4.70665 22.3628 6.09155L20.3083 8.00699C19.9046 8.38331 19.3552 8.56182 18.8075 8.49463L16.0195 8.15261C14.0037 7.90532 12.14 9.25935 11.7523 11.2529L11.2161 14.0101C11.1107 14.5518 10.7711 15.0192 10.2885 15.2868L7.83195 16.6488C6.0558 17.6336 5.34395 19.8244 6.20204 21.6651L7.38886 24.211C7.62203 24.7112 7.62203 25.2888 7.38886 25.789L6.20204 28.3349C5.34395 30.1756 6.0558 32.3664 7.83195 33.3512L10.2885 34.7132C10.7711 34.9808 11.1107 35.4482 11.2161 35.9899L11.7523 38.7471C12.14 40.7407 14.0037 42.0947 16.0195 41.8474L18.8075 41.5054C19.3552 41.4382 19.9046 41.6167 20.3083 41.993L22.3628 43.9084C23.8482 45.2933 26.1518 45.2933 27.6372 43.9084L29.6917 41.993C30.0954 41.6167 30.6448 41.4382 31.1925 41.5054L33.9805 41.8474C35.9963 42.0947 37.86 40.7407 38.2477 38.7471L38.7839 35.9899C38.8893 35.4482 39.2289 34.9808 39.7115 34.7132L42.168 33.3512C43.9442 32.3664 44.656 30.1756 43.798 28.3349L42.6111 25.789C42.378 25.2888 42.378 24.7112 42.6111 24.211L43.798 21.6651C44.656 19.8244 43.9442 17.6336 42.1681 16.6488L39.7115 15.2868C39.2289 15.0192 38.8893 14.5518 38.7839 14.0101L38.2477 11.2529C37.86 9.25935 35.9963 7.90532 33.9805 8.15261L31.1925 8.49463C30.6448 8.56182 30.0954 8.38331 29.6917 8.00699L27.6372 6.09155Z" fill="#61BB67" stroke="#7BDB81" stroke-width="2"/>
<circle cx="25" cy="25" r="12" fill="#7BDB81"/>
<path d="M23.0547 29.8125C23.2891 30.0469 23.6875 30.0469 23.9219 29.8125L30.8125 22.9219C31.0469 22.6875 31.0469 22.2891 30.8125 22.0547L29.9688 21.2109C29.7344 20.9766 29.3594 20.9766 29.125 21.2109L23.5 26.8359L20.8516 24.2109C20.6172 23.9766 20.2422 23.9766 20.0078 24.2109L19.1641 25.0547C18.9297 25.2891 18.9297 25.6875 19.1641 25.9219L23.0547 29.8125Z" fill="#143A69"/>
</svg>
