<?xml version="1.0" encoding="utf-8"?>
<!-- Generator: Adobe Illustrator 28.0.0, SVG Export Plug-In . SVG Version: 6.00 Build 0)  -->
<svg version="1.1" id="Layer_1" xmlns="http://www.w3.org/2000/svg" xmlns:xlink="http://www.w3.org/1999/xlink" x="0px" y="0px"
	 width="50px" height="50px" viewBox="0 0 50 50" style="enable-background:new 0 0 50 50;" xml:space="preserve">
<style type="text/css">
	.st0{display:none;}
	.st1{display:inline;}
	.st2{display:inline;clip-path:url(#SVGID_00000093877032715045987430000017641097227151741586_);}
	.st3{fill:#7BDB81;}
	.st4{fill:#61BB67;stroke:#7BDB81;stroke-width:2;}
	.st5{fill:#61BB67;stroke:#7BDB81;}
	.st6{fill:#61BB67;stroke:#7BDB81;stroke-width:1.6553;}
	.st7{fill:#7BDB81;stroke:#143A69;stroke-width:2;}
	.st8{fill:#143A69;}
	.st9{fill:#7BDB81;stroke:#7BDB81;stroke-width:2;}
	.st10{fill:#61BB67;}
	.st11{display:inline;fill:#61BB67;stroke:#7BDB81;stroke-width:0.25;}
	.st12{fill-rule:evenodd;clip-rule:evenodd;fill:#61BB67;stroke:#7BDB81;stroke-width:0.25;}
</style>
<g class="st0">
	<defs>
		<rect id="SVGID_1_" width="50" height="50"/>
	</defs>
	<clipPath id="SVGID_00000168797355428613552040000003066251278606114471_" class="st1">
		<use xlink:href="#SVGID_1_"  style="overflow:visible;"/>
	</clipPath>
	<g style="display:inline;clip-path:url(#SVGID_00000168797355428613552040000003066251278606114471_);">
		<path class="st3" d="M31.7,6.1V2.9l1.4,0v3.2H31.7z"/>
		<path class="st3" d="M27.7,6.1V2.9h-0.5c-0.5,0-0.9,0.4-0.9,0.9v1.4c0,0.2,0.1,0.5,0.3,0.6C26.8,6,27,6.1,27.2,6.1H27.7z"/>
		<path class="st3" d="M29,6.1V2.9h1.4v3.2H29z"/>
		<path class="st3" d="M34.3,6.1V2.9l1.4,0v3.2H34.3z"/>
		<path class="st4" d="M36.7,9.1l-8.7,0l0.4-0.7l7.9,0L36.7,9.1z"/>
		<path class="st5" d="M36.3,12.7h-0.5v0.5v1.2v0.5h0.5h1.3h0.5v-0.5v-1.2v-0.5h-0.5H36.3z M36.3,15.1h-0.5v0.5v1.3v0.5h0.5h1.3h0.5
			v-0.5v-1.3v-0.5h-0.5H36.3z M36.3,17.7h-0.5v0.5v1.3v0.5h0.5h1.3h0.5v-0.5v-1.3v-0.5h-0.5H36.3z M26.4,11.8h12v21.1l0,9.3
			c-3.4,3.1-8.6,3.1-12,0v-0.5l0-2.1l0-7c0-5.6,0-12.6,0-18l0-2.1L26.4,11.8z"/>
		<path class="st3" d="M37.5,2.9H37v3.2h0.5c0.5,0,0.9-0.4,0.9-0.9V3.8c0-0.2-0.1-0.5-0.3-0.6C38,3,37.8,2.9,37.5,2.9z"/>
		<path class="st6" d="M27.8,3.6h8.9c0.5,0,0.8,0.4,0.8,0.8l0,0c0,0.5-0.4,0.8-0.8,0.8h-8.9c-0.5,0-0.8-0.4-0.8-0.8l0,0
			C27,4,27.3,3.6,27.8,3.6z"/>
		<path class="st7" d="M42.2,4.3L41.4,3l-0.8,1.3l-4.2,6.6c0,0,0,0,0,0c-0.6,1-1,2.1-1,3.3v0.2c0,3.3,2.7,6,6,6c3.3,0,6-2.7,6-6
			v-0.2c0-1.2-0.3-2.3-1-3.3L42.2,4.3z"/>
		<path class="st8" d="M35.1,23.4h0.3c0.6,0,1,0.4,1,1v15.4c0,0.6-0.4,1-1,1h-0.3c-0.6,0-1-0.4-1-1V24.4
			C34.1,23.8,34.5,23.4,35.1,23.4z"/>
		<circle class="st8" cx="19.8" cy="30" r="15.9"/>
		<circle class="st9" cx="20" cy="29.8" r="13"/>
		<circle class="st10" cx="19.9" cy="29.7" r="11.6"/>
		<path class="st8" d="M16.9,28.3c0.8,0,1.4,0.3,1.9,0.8c0.5,0.5,0.7,1.1,0.7,1.9c0,0.8-0.3,1.4-0.8,1.9c-0.5,0.5-1.2,0.7-2,0.7
			c-0.8,0-1.5-0.2-2-0.7C14.3,32.4,14,31.8,14,31c0-0.6,0.2-1.1,0.5-1.6l2.4-3.6h1.7L16.9,28.3z M15.9,31.9c0.2,0.2,0.5,0.3,0.9,0.3
			c0.4,0,0.7-0.1,0.9-0.3c0.2-0.2,0.4-0.5,0.4-0.9c0-0.4-0.1-0.7-0.4-0.9c-0.2-0.2-0.5-0.3-0.9-0.3c-0.4,0-0.7,0.1-0.9,0.3
			c-0.2,0.2-0.4,0.5-0.4,0.9S15.6,31.7,15.9,31.9z M23.1,33.7c-1,0-1.7-0.4-2.3-1.1c-0.5-0.7-0.8-1.7-0.8-2.9c0-1.2,0.3-2.2,0.8-2.9
			c0.5-0.7,1.3-1.1,2.3-1.1c1,0,1.7,0.4,2.3,1.1c0.5,0.7,0.8,1.7,0.8,2.9c0,1.2-0.3,2.2-0.8,2.9C24.8,33.3,24.1,33.7,23.1,33.7z
			 M21.9,31.5c0.3,0.4,0.7,0.6,1.2,0.6s0.9-0.2,1.2-0.6c0.3-0.4,0.4-1.1,0.4-1.9c0-0.8-0.1-1.4-0.4-1.9c-0.3-0.4-0.7-0.6-1.2-0.6
			s-0.9,0.2-1.2,0.6c-0.3,0.4-0.4,1.1-0.4,1.9S21.7,31.1,21.9,31.5z"/>
	</g>
</g>
<g class="st0">
	<path class="st11" d="M4.1,44.1H3.2v-0.9c0-0.2-0.2-0.3-0.3-0.3S2.5,43,2.5,43.2v1.2c0,0.2,0.2,0.3,0.3,0.3h1.2
		c0.2,0,0.3-0.2,0.3-0.3S4.3,44.1,4.1,44.1z"/>
	<path class="st11" d="M18.9,44.1h-2.5c-0.2,0-0.3,0.2-0.3,0.3s0.2,0.3,0.3,0.3h2.5c0.2,0,0.3-0.2,0.3-0.3S19,44.1,18.9,44.1z"/>
	<path class="st11" d="M23.8,44.1h-2.5c-0.2,0-0.3,0.2-0.3,0.3s0.2,0.3,0.3,0.3h2.5c0.2,0,0.3-0.2,0.3-0.3S24,44.1,23.8,44.1z"/>
	<path class="st11" d="M9,44.1H6.6c-0.2,0-0.3,0.2-0.3,0.3s0.2,0.3,0.3,0.3H9c0.2,0,0.3-0.2,0.3-0.3S9.2,44.1,9,44.1z"/>
	<path class="st11" d="M13.9,44.1h-2.5c-0.2,0-0.3,0.2-0.3,0.3s0.2,0.3,0.3,0.3h2.5c0.2,0,0.3-0.2,0.3-0.3S14.1,44.1,13.9,44.1z"/>
	<path class="st11" d="M28.7,44.1h-2.5c-0.2,0-0.3,0.2-0.3,0.3s0.2,0.3,0.3,0.3h2.5c0.2,0,0.3-0.2,0.3-0.3S28.9,44.1,28.7,44.1z"/>
	<path class="st11" d="M47.1,32.6c-0.2,0-0.3,0.2-0.3,0.3v2.6c0,0.2,0.2,0.3,0.3,0.3s0.3-0.2,0.3-0.3v-2.6
		C47.5,32.7,47.3,32.6,47.1,32.6z"/>
	<path class="st11" d="M47.1,27.4c-0.2,0-0.3,0.2-0.3,0.3v2.6c0,0.2,0.2,0.3,0.3,0.3s0.3-0.2,0.3-0.3v-2.6
		C47.5,27.6,47.3,27.4,47.1,27.4z"/>
	<path class="st11" d="M47.1,22.2c-0.2,0-0.3,0.2-0.3,0.3v2.6c0,0.2,0.2,0.3,0.3,0.3s0.3-0.2,0.3-0.3v-2.6
		C47.5,22.4,47.3,22.2,47.1,22.2L47.1,22.2z"/>
	<path class="st11" d="M47.1,17.1c-0.2,0-0.3,0.2-0.3,0.3V20c0,0.2,0.2,0.3,0.3,0.3s0.3-0.2,0.3-0.3v-2.6
		C47.5,17.2,47.3,17.1,47.1,17.1z"/>
	<path class="st11" d="M47.1,13.3h-1.2c-0.2,0-0.3,0.2-0.3,0.3c0,0.2,0.2,0.3,0.3,0.3h0.9v0.9c0,0.2,0.2,0.3,0.3,0.3
		s0.3-0.2,0.3-0.3v-1.2C47.5,13.4,47.3,13.3,47.1,13.3z"/>
	<path class="st11" d="M11.5,14h2.5c0.2,0,0.3-0.2,0.3-0.3c0-0.2-0.2-0.3-0.3-0.3h-2.5c-0.2,0-0.3,0.2-0.3,0.3
		C11.1,13.8,11.3,14,11.5,14z"/>
	<path class="st11" d="M6.6,14H9c0.2,0,0.3-0.2,0.3-0.3c0-0.2-0.2-0.3-0.3-0.3H6.6c-0.2,0-0.3,0.2-0.3,0.3C6.2,13.8,6.4,14,6.6,14z"
		/>
	<path class="st11" d="M26.2,14h2.5c0.2,0,0.3-0.2,0.3-0.3c0-0.2-0.2-0.3-0.3-0.3h-2.5c-0.2,0-0.3,0.2-0.3,0.3
		C25.9,13.8,26,14,26.2,14z"/>
	<path class="st11" d="M31.1,14h2.5c0.2,0,0.3-0.2,0.3-0.3c0-0.2-0.2-0.3-0.3-0.3h-2.5c-0.2,0-0.3,0.2-0.3,0.3
		C30.8,13.8,31,14,31.1,14z"/>
	<path class="st11" d="M41,14h2.5c0.2,0,0.3-0.2,0.3-0.3c0-0.2-0.2-0.3-0.3-0.3H41c-0.2,0-0.3,0.2-0.3,0.3C40.6,13.8,40.8,14,41,14z
		"/>
	<path class="st11" d="M36.1,14h2.5c0.2,0,0.3-0.2,0.3-0.3c0-0.2-0.2-0.3-0.3-0.3h-2.5c-0.2,0-0.3,0.2-0.3,0.3
		C35.7,13.8,35.9,14,36.1,14z"/>
	<path class="st11" d="M16.4,14h2.5c0.2,0,0.3-0.2,0.3-0.3c0-0.2-0.2-0.3-0.3-0.3h-2.5c-0.2,0-0.3,0.2-0.3,0.3
		C16,13.8,16.2,14,16.4,14z"/>
	<path class="st11" d="M21.3,14h2.5c0.2,0,0.3-0.2,0.3-0.3c0-0.2-0.2-0.3-0.3-0.3h-2.5c-0.2,0-0.3,0.2-0.3,0.3
		C21,13.8,21.1,14,21.3,14z"/>
	<path class="st11" d="M4.1,13.3H2.9c-0.2,0-0.3,0.2-0.3,0.3v1.2c0,0.2,0.2,0.3,0.3,0.3s0.3-0.2,0.3-0.3V14h0.9
		c0.2,0,0.3-0.2,0.3-0.3C4.4,13.4,4.3,13.3,4.1,13.3z"/>
	<path class="st11" d="M2.9,20.4c0.2,0,0.3-0.2,0.3-0.3v-2.6c0-0.2-0.2-0.3-0.3-0.3s-0.3,0.2-0.3,0.3V20C2.5,20.2,2.7,20.4,2.9,20.4
		z"/>
	<path class="st11" d="M2.9,25.5c0.2,0,0.3-0.2,0.3-0.3v-2.6c0-0.2-0.2-0.3-0.3-0.3s-0.3,0.2-0.3,0.3v2.6
		C2.5,25.4,2.7,25.5,2.9,25.5z"/>
	<path class="st11" d="M2.9,35.8c0.2,0,0.3-0.2,0.3-0.3v-2.6c0-0.2-0.2-0.3-0.3-0.3s-0.3,0.2-0.3,0.3v2.6
		C2.5,35.7,2.7,35.8,2.9,35.8z"/>
	<path class="st11" d="M2.9,30.7c0.2,0,0.3-0.2,0.3-0.3v-2.6c0-0.2-0.2-0.3-0.3-0.3s-0.3,0.2-0.3,0.3v2.6
		C2.5,30.5,2.7,30.7,2.9,30.7z"/>
	<path class="st11" d="M2.9,41c0.2,0,0.3-0.2,0.3-0.3v-2.6c0-0.2-0.2-0.3-0.3-0.3s-0.3,0.2-0.3,0.3v2.6C2.5,40.8,2.7,41,2.9,41z"/>
	<path class="st11" d="M47.5,11.5H35.2v-1.2c0-0.6-0.5-1-1-1H34l-0.7-4.1c-0.2-1-1-1.7-2-1.7H18.7c-1,0-1.8,0.7-2,1.7L16,9.3h-0.1
		c-0.6,0-1,0.5-1,1v1.2H2.5c-1,0-1.7,0.8-1.7,1.7v31.6c0,1,0.8,1.7,1.7,1.7h45c1,0,1.7-0.8,1.7-1.7V13.3
		C49.2,12.3,48.5,11.5,47.5,11.5z M33.7,10L33.7,10L33.7,10h0.4c0.2,0,0.3,0.2,0.3,0.3v1.2h-3.8v-1.2c0-0.2,0.2-0.3,0.3-0.3h0.4h0h0
		H33.7z M17.4,5.2c0.1-0.6,0.7-1.1,1.3-1.1h12.6c0.6,0,1.2,0.5,1.3,1.1l0.7,4h-1.5l-0.5-3c-0.1-0.3-0.3-0.6-0.7-0.6H19.4
		c-0.3,0-0.6,0.2-0.7,0.6l-0.3,1.7c0,0.2,0.1,0.4,0.3,0.4c0.2,0,0.4-0.1,0.4-0.3l0.3-1.7h11.1L31,9.3h0c-0.6,0-1,0.5-1,1v1.2H20
		v-1.2c0-0.6-0.5-1-1-1h-2.3L17.4,5.2z M15.5,10.3c0-0.2,0.2-0.3,0.3-0.3H19c0.2,0,0.3,0.2,0.3,0.3v1.2h-3.8V10.3z M48.5,44.8
		c0,0.6-0.5,1-1,1h-45c-0.6,0-1-0.5-1-1V13.3c0-0.6,0.5-1,1-1h45c0.6,0,1,0.5,1,1L48.5,44.8L48.5,44.8z"/>
	<path class="st11" d="M47.1,36.6H35.6v-5.2h0.7v3.8c0,0.2,0.2,0.4,0.4,0.4h2.5c0.2,0,0.4-0.2,0.4-0.4v-3.8h0.7v4
		c0,0.2,0.2,0.3,0.3,0.3s0.3-0.2,0.3-0.3v-4.1c0.2-0.1,0.3-0.4,0.3-0.6v-3.6c0-0.3-0.1-0.5-0.3-0.6v-4.5c0-0.2,0.1-0.3,0.2-0.4
		c0.3-0.2,0.5-0.6,0.5-1V20c0-0.4-0.3-0.7-0.7-0.7h-0.7l0.4-1c0.1-0.3,0.1-0.7-0.1-1c-0.2-0.3-0.5-0.5-0.9-0.5h-3.7
		c-0.3,0-0.7,0.2-0.9,0.5c-0.2,0.3-0.2,0.7-0.1,1l0.4,1h-0.7c-0.4,0-0.7,0.3-0.7,0.7v0.5c0,0.4,0.2,0.7,0.5,1
		c0.1,0.1,0.2,0.2,0.2,0.4v4.5c-0.2,0.1-0.3,0.4-0.3,0.6v3.6c0,0.3,0.1,0.5,0.3,0.6v5.4h-2.7c-0.7,0-1.3,0.6-1.3,1.3v4.1
		c0,0.2,0.2,0.3,0.3,0.3c0.2,0,0.3-0.2,0.3-0.3v-4.1c0-0.4,0.3-0.6,0.6-0.6h5.1c-2.4,0.8-4.1,3.1-4.1,5.8c0,0.4,0.2,0.8,0.5,1.1h0
		h-2.5h0c-0.2,0-0.3,0.2-0.3,0.3c0,0.2,0.2,0.3,0.3,0.3h0h16c0.2,0,0.3-0.2,0.3-0.3v-7.5C47.5,36.8,47.3,36.6,47.1,36.6L47.1,36.6z
		 M35.8,17.8c0.1-0.1,0.2-0.2,0.3-0.2h3.7c0.1,0,0.2,0.1,0.3,0.2c0.1,0.1,0.1,0.2,0,0.3l-0.5,1.2h-3.3l-0.5-1.2
		C35.7,18.1,35.8,17.9,35.8,17.8L35.8,17.8z M35.1,20.9c-0.1-0.1-0.2-0.2-0.2-0.4v-0.4h1.2h3.8H41v0.4c0,0.2-0.1,0.3-0.2,0.4
		c-0.1,0.1-0.1,0.1-0.2,0.2h-3.4c-0.2,0-0.3,0.2-0.3,0.3s0.2,0.3,0.3,0.3h3.1c0,0,0,0,0,0.1v4.3h-0.7v-2.1c0-0.2-0.2-0.4-0.4-0.4
		h-2.5c-0.2,0-0.4,0.2-0.4,0.4v2.1h-0.7v-4.3C35.6,21.5,35.4,21.1,35.1,20.9L35.1,20.9z M35.3,30.6v-3.6c0,0,0-0.1,0.1-0.1h5.2
		c0,0,0.1,0,0.1,0.1v3.6c0,0,0,0.1-0.1,0.1L35.3,30.6C35.3,30.7,35.3,30.6,35.3,30.6z M36.4,38.7h6.4c0.2,0,0.3,0.2,0.3,0.3
		s-0.2,0.3-0.3,0.3h-6.4c-0.2,0-0.3-0.2-0.3-0.3S36.2,38.7,36.4,38.7z M44.2,42.1h-9.2c-0.2,0-0.3-0.2-0.3-0.3
		c0-0.2,0.2-0.3,0.3-0.3h9.2c0.2,0,0.3,0.2,0.3,0.3C44.6,41.9,44.4,42.1,44.2,42.1z"/>
	<path class="st11" d="M28.1,37.4v-6.2c0.2-0.1,0.3-0.4,0.3-0.6v-3.6c0-0.3-0.1-0.5-0.3-0.6v-4.5c0-0.2,0.1-0.3,0.2-0.4
		c0.3-0.2,0.5-0.6,0.5-1V20c0-0.4-0.3-0.7-0.7-0.7h-0.7l0.4-1c0.1-0.3,0.1-0.7-0.1-1c-0.2-0.3-0.5-0.5-0.9-0.5h-3.7
		c-0.3,0-0.7,0.2-0.9,0.5c-0.2,0.3-0.2,0.7-0.1,1l0.4,1h-0.7c-0.4,0-0.7,0.3-0.7,0.7v0.5c0,0.4,0.2,0.7,0.5,1
		c0.1,0.1,0.2,0.2,0.2,0.4v4.5c-0.2,0.1-0.3,0.4-0.3,0.6v3.6c0,0.3,0.1,0.5,0.3,0.6v6.2c0,1.7,1.4,3.1,3.1,3.1S28.1,39.1,28.1,37.4
		L28.1,37.4z M22.9,17.8c0.1-0.1,0.2-0.2,0.3-0.2h3.7c0.1,0,0.2,0.1,0.3,0.2c0.1,0.1,0.1,0.2,0,0.3l-0.5,1.2h-3.3l-0.5-1.2
		C22.8,18.1,22.8,17.9,22.9,17.8L22.9,17.8z M22.1,20.9c-0.1-0.1-0.2-0.2-0.2-0.4v-0.4h1.2h3.8h1.2v0.4c0,0.2-0.1,0.3-0.2,0.4
		c-0.1,0.1-0.1,0.1-0.2,0.2h-3.4c-0.2,0-0.3,0.2-0.3,0.3s0.2,0.3,0.3,0.3h3.1c0,0,0,0,0,0.1v4.3h-0.7v-2.1c0-0.2-0.2-0.4-0.4-0.4
		h-2.5c-0.2,0-0.4,0.2-0.4,0.4v2.1h-0.7v-4.3C22.6,21.5,22.4,21.1,22.1,20.9L22.1,20.9z M22.3,30.6v-3.6c0,0,0-0.1,0.1-0.1h5.2
		c0,0,0.1,0,0.1,0.1v3.6c0,0,0,0.1-0.1,0.1L22.3,30.6C22.3,30.7,22.3,30.6,22.3,30.6L22.3,30.6z M25,39.8c-1.3,0-2.4-1.1-2.4-2.4v-6
		h0.7v6.1c0,0.9,0.7,1.6,1.6,1.6s1.6-0.7,1.6-1.6v-6.1h0.7v6C27.4,38.7,26.3,39.8,25,39.8L25,39.8z"/>
	<path class="st11" d="M15.1,19.4h-0.7l0.4-1c0.1-0.3,0.1-0.7-0.1-1c-0.2-0.3-0.5-0.5-0.9-0.5h-3.7c-0.3,0-0.7,0.2-0.9,0.5
		c-0.2,0.3-0.2,0.7-0.1,1l0.4,1H8.9c-0.4,0-0.7,0.3-0.7,0.7v0.5c0,0.4,0.2,0.7,0.5,1C8.9,21.6,9,21.7,9,21.9v4.5
		c-0.2,0.1-0.3,0.4-0.3,0.6v3.6c0,0.3,0.1,0.5,0.3,0.6v6.2c0,1.7,1.4,3.1,3.1,3.1s3.1-1.4,3.1-3.1v-6.2c0.2-0.1,0.3-0.4,0.3-0.6
		v-3.6c0-0.3-0.1-0.5-0.3-0.6v-4.5c0-0.2,0.1-0.3,0.2-0.4c0.3-0.2,0.5-0.6,0.5-1V20C15.8,19.7,15.5,19.4,15.1,19.4L15.1,19.4z
		 M9.9,17.8c0.1-0.1,0.2-0.2,0.3-0.2h3.7c0.1,0,0.2,0.1,0.3,0.2c0.1,0.1,0.1,0.2,0,0.3l-0.5,1.2h-3.3l-0.5-1.2
		C9.8,18.1,9.8,17.9,9.9,17.8L9.9,17.8z M14.4,37.4c0,1.3-1.1,2.4-2.4,2.4s-2.4-1.1-2.4-2.4v-6h0.7v6.1c0,0.9,0.7,1.6,1.6,1.6
		s1.6-0.7,1.6-1.6v-6.1h0.7V37.4z M14.7,30.6C14.7,30.6,14.7,30.7,14.7,30.6l-5.3,0.1c0,0-0.1,0-0.1-0.1v-3.6c0,0,0-0.1,0.1-0.1h5.2
		c0,0,0.1,0,0.1,0.1V30.6z M15.1,20.5c0,0.2-0.1,0.3-0.2,0.4c-0.1,0.1-0.1,0.1-0.2,0.2h-3.4c-0.2,0-0.3,0.2-0.3,0.3
		c0,0.2,0.2,0.3,0.3,0.3h3.1c0,0,0,0,0,0.1v4.3h-0.7v-2.1c0-0.2-0.2-0.4-0.4-0.4h-2.5c-0.2,0-0.4,0.2-0.4,0.4v2.1H9.7v-4.3
		c0-0.4-0.2-0.7-0.5-1C9.1,20.8,9,20.7,9,20.5v-0.4h1.2h3.8h1.2L15.1,20.5z"/>
</g>
<g id="Layer_x0020_1">
	<g id="_214759712">
		<path id="_214761848" class="st12" d="M48.1,24.2h-0.7c0,5.4,0,10.8,0,16.2c0,0.3-0.2,0.5-0.5,0.5H3.1c-0.3,0-0.5-0.2-0.5-0.5
			l0-16.2H1.9c-0.3,0-0.5-0.2-0.5-0.5v-4.1c0-0.3,0.2-0.5,0.5-0.5l46.1,0c0.3,0,0.5,0.2,0.5,0.5v4.1C48.5,24,48.3,24.2,48.1,24.2
			L48.1,24.2L48.1,24.2z M46.4,24.2H46v13h0.4V24.2z M45,24.2H5v13l40,0V24.2L45,24.2z M4,24.2H3.6v13H4V24.2z"/>
		<path id="_214761488" class="st12" d="M10.7,36c-1.2,0-2.3-0.5-3.2-1.3c-0.8-0.9-1.3-2-1.3-3.2v-6.3h3.1v3.2l-1.7,0
			c-0.3,0-0.5,0.2-0.5,0.5c0,0.3,0.2,0.5,0.5,0.5h2.2c0.3,0,0.5-0.2,0.5-0.5v-3.7h4.9v6.3c0,1.2-0.5,2.3-1.3,3.2
			C13,35.5,11.9,36,10.7,36L10.7,36z M13.8,27.2h-1.4c-0.3,0-0.5-0.2-0.5-0.5c0-0.3,0.2-0.5,0.5-0.5l1.4,0c0.3,0,0.5,0.2,0.5,0.5
			C14.3,27,14.1,27.2,13.8,27.2L13.8,27.2z M13.8,29.3h-2.3c-0.3,0-0.5-0.2-0.5-0.5c0-0.3,0.2-0.5,0.5-0.5l2.3,0
			c0.3,0,0.5,0.2,0.5,0.5C14.3,29,14.1,29.3,13.8,29.3L13.8,29.3z M14.2,18.2l0-10.2c0-0.3,0.2-0.5,0.5-0.5c0.3,0,0.5,0.2,0.5,0.5
			v10.2H14.2L14.2,18.2z M6.2,18.2L6.2,8c0-0.3,0.2-0.5,0.5-0.5C7,7.5,7.2,7.7,7.2,8v10.2H6.2L6.2,18.2z"/>
		<path id="_214761464" class="st12" d="M9.3,18.2V12H6.7c-0.3,0-0.5-0.2-0.5-0.5c0-0.3,0.2-0.5,0.5-0.5l3,0c0.3,0,0.5,0.2,0.5,0.5
			v6.7L9.3,18.2L9.3,18.2z"/>
		<path id="_214761800" class="st12" d="M14.7,12h-3.3c-0.3,0-0.5-0.2-0.5-0.5c0-0.3,0.2-0.5,0.5-0.5l3.3,0c0.3,0,0.5,0.2,0.5,0.5
			C15.2,11.8,15,12,14.7,12L14.7,12z"/>
		<path id="_214761656" class="st12" d="M14.7,14h-2.5c-0.3,0-0.5-0.2-0.5-0.5c0-0.3,0.2-0.5,0.5-0.5l2.5,0c0.3,0,0.5,0.2,0.5,0.5
			C15.2,13.8,15,14,14.7,14L14.7,14z"/>
		<path id="_214761944" class="st12" d="M14.7,16.1h-3.3c-0.3,0-0.5-0.2-0.5-0.5c0-0.3,0.2-0.5,0.5-0.5h3.3c0.3,0,0.5,0.2,0.5,0.5
			C15.2,15.9,15,16.1,14.7,16.1L14.7,16.1z"/>
		<path id="_214761200" class="st12" d="M14.7,18.1h-2.5c-0.3,0-0.5-0.2-0.5-0.5c0-0.3,0.2-0.5,0.5-0.5l2.5,0c0.3,0,0.5,0.2,0.5,0.5
			C15.2,17.9,15,18.1,14.7,18.1z"/>
		<path id="_214761416" class="st12" d="M15,8.3c2.2,0,2.1-3,0-3H6.5c-2.1,0-2.2,3,0,3H15z"/>
		<path id="_214761920" class="st12" d="M25,36c-1.2,0-2.3-0.5-3.2-1.3c-0.8-0.9-1.3-2-1.3-3.2v-6.3h3.1v3.2l-1.7,0
			c-0.3,0-0.5,0.2-0.5,0.5c0,0.3,0.2,0.5,0.5,0.5h2.2c0.3,0,0.5-0.2,0.5-0.5v-3.7h4.9v6.3c0,1.2-0.5,2.3-1.3,3.2
			C27.3,35.5,26.2,36,25,36L25,36z M28.1,27.2h-1.4c-0.3,0-0.5-0.2-0.5-0.5c0-0.3,0.2-0.5,0.5-0.5l1.4,0c0.3,0,0.5,0.2,0.5,0.5
			C28.6,27,28.4,27.2,28.1,27.2L28.1,27.2z M28.1,29.3h-2.3c-0.3,0-0.5-0.2-0.5-0.5c0-0.3,0.2-0.5,0.5-0.5l2.3,0
			c0.3,0,0.5,0.2,0.5,0.5C28.6,29,28.4,29.3,28.1,29.3L28.1,29.3z M28.5,18.2l0-10.2c0-0.3,0.2-0.5,0.5-0.5c0.3,0,0.5,0.2,0.5,0.5
			v10.2H28.5L28.5,18.2z M20.5,18.2l0-10.2c0-0.3,0.2-0.5,0.5-0.5c0.3,0,0.5,0.2,0.5,0.5v10.2H20.5L20.5,18.2z"/>
		<path id="_214761680" class="st12" d="M23.5,18.2V12H21c-0.3,0-0.5-0.2-0.5-0.5c0-0.3,0.2-0.5,0.5-0.5l3,0c0.3,0,0.5,0.2,0.5,0.5
			v6.7L23.5,18.2L23.5,18.2z"/>
		<path id="_214761776" class="st12" d="M29,12h-3.3c-0.3,0-0.5-0.2-0.5-0.5c0-0.3,0.2-0.5,0.5-0.5l3.3,0c0.3,0,0.5,0.2,0.5,0.5
			C29.5,11.8,29.3,12,29,12L29,12z"/>
		<path id="_214761104" class="st12" d="M29,14h-2.5c-0.3,0-0.5-0.2-0.5-0.5c0-0.3,0.2-0.5,0.5-0.5l2.5,0c0.3,0,0.5,0.2,0.5,0.5
			C29.5,13.8,29.3,14,29,14L29,14z"/>
		<path id="_214760984" class="st12" d="M29,16.1h-3.3c-0.3,0-0.5-0.2-0.5-0.5c0-0.3,0.2-0.5,0.5-0.5H29c0.3,0,0.5,0.2,0.5,0.5
			C29.5,15.9,29.3,16.1,29,16.1L29,16.1z"/>
		<path id="_214760888" class="st12" d="M29,18.1h-2.5c-0.3,0-0.5-0.2-0.5-0.5c0-0.3,0.2-0.5,0.5-0.5l2.5,0c0.3,0,0.5,0.2,0.5,0.5
			C29.5,17.9,29.3,18.1,29,18.1z"/>
		<path id="_214760768" class="st12" d="M29.3,8.3c2.2,0,2.1-3,0-3h-8.5c-2.1,0-2.2,3,0,3H29.3z"/>
		<path id="_214760432" class="st12" d="M39.3,36c-1.2,0-2.3-0.5-3.2-1.3c-0.8-0.9-1.3-2-1.3-3.2v-6.3h3.1v3.2l-1.7,0
			c-0.3,0-0.5,0.2-0.5,0.5c0,0.3,0.2,0.5,0.5,0.5h2.2c0.3,0,0.5-0.2,0.5-0.5v-3.7h4.9v6.3c0,1.2-0.5,2.3-1.3,3.2
			C41.6,35.5,40.5,36,39.3,36L39.3,36z M42.4,27.2h-1.4c-0.3,0-0.5-0.2-0.5-0.5c0-0.3,0.2-0.5,0.5-0.5l1.4,0c0.3,0,0.5,0.2,0.5,0.5
			C42.9,27,42.6,27.2,42.4,27.2L42.4,27.2z M42.4,29.3H40c-0.3,0-0.5-0.2-0.5-0.5c0-0.3,0.2-0.5,0.5-0.5l2.3,0
			c0.3,0,0.5,0.2,0.5,0.5C42.9,29,42.6,29.3,42.4,29.3L42.4,29.3z M42.8,18.2l0-10.2c0-0.3,0.2-0.5,0.5-0.5c0.3,0,0.5,0.2,0.5,0.5
			v10.2H42.8L42.8,18.2z M34.8,18.2l0-10.2c0-0.3,0.2-0.5,0.5-0.5c0.3,0,0.5,0.2,0.5,0.5v10.2H34.8L34.8,18.2z"/>
		<path id="_214760696" class="st12" d="M37.8,18.2V12h-2.5c-0.3,0-0.5-0.2-0.5-0.5c0-0.3,0.2-0.5,0.5-0.5l3,0
			c0.3,0,0.5,0.2,0.5,0.5v6.7H37.8L37.8,18.2z"/>
		<path id="_214760504" class="st12" d="M43.3,12h-3.3c-0.3,0-0.5-0.2-0.5-0.5c0-0.3,0.2-0.5,0.5-0.5l3.3,0c0.3,0,0.5,0.2,0.5,0.5
			C43.8,11.8,43.6,12,43.3,12L43.3,12z"/>
		<path id="_214760672" class="st12" d="M43.3,14h-2.5c-0.3,0-0.5-0.2-0.5-0.5c0-0.3,0.2-0.5,0.5-0.5l2.5,0c0.3,0,0.5,0.2,0.5,0.5
			C43.8,13.8,43.6,14,43.3,14L43.3,14z"/>
		<path id="_214760576" class="st12" d="M43.3,16.1h-3.3c-0.3,0-0.5-0.2-0.5-0.5c0-0.3,0.2-0.5,0.5-0.5h3.3c0.3,0,0.5,0.2,0.5,0.5
			C43.8,15.9,43.6,16.1,43.3,16.1L43.3,16.1z"/>
		<path id="_214760552" class="st12" d="M43.3,18.1h-2.5c-0.3,0-0.5-0.2-0.5-0.5c0-0.3,0.2-0.5,0.5-0.5l2.5,0c0.3,0,0.5,0.2,0.5,0.5
			C43.8,17.9,43.6,18.1,43.3,18.1z"/>
		<path id="_214760624" class="st12" d="M43.6,8.3c2.2,0,2.1-3,0-3H35c-2.1,0-2.2,3,0,3H43.6z"/>
	</g>
</g>
</svg>
