<svg width="50" height="50" viewBox="0 0 50 50" fill="none" xmlns="http://www.w3.org/2000/svg">
<g clip-path="url(#clip0_326_1430)">
<mask id="path-1-inside-1_326_1430" fill="white">
<path d="M6 1.01171L9.05456 0.452197C10.6709 0.156135 12.3369 0.298091 13.8799 0.86333L14.2849 1.01171C16.068 1.66495 18.025 1.66495 19.8081 1.01171C21.5913 0.358464 23.5483 0.358464 25.3314 1.01171C27.1145 1.66495 29.0715 1.66495 30.8547 1.01171L31.2597 0.863329C32.8026 0.298091 34.4687 0.156135 36.085 0.452196L39.1395 1.01171V43.6047L36.3779 42.5929C34.5948 41.9397 32.6378 41.9397 30.8547 42.5929C29.0715 43.2462 27.1145 43.2462 25.3314 42.5929C23.5483 41.9397 21.5913 41.9397 19.8081 42.5929C18.025 43.2462 16.068 43.2462 14.2849 42.5929C12.5017 41.9397 10.5448 41.9397 8.76163 42.5929L6 43.6047V1.01171Z"/>
</mask>
<path d="M6 1.01171L9.05456 0.452197C10.6709 0.156135 12.3369 0.298091 13.8799 0.86333L14.2849 1.01171C16.068 1.66495 18.025 1.66495 19.8081 1.01171C21.5913 0.358464 23.5483 0.358464 25.3314 1.01171C27.1145 1.66495 29.0715 1.66495 30.8547 1.01171L31.2597 0.863329C32.8026 0.298091 34.4687 0.156135 36.085 0.452196L39.1395 1.01171V43.6047L36.3779 42.5929C34.5948 41.9397 32.6378 41.9397 30.8547 42.5929C29.0715 43.2462 27.1145 43.2462 25.3314 42.5929C23.5483 41.9397 21.5913 41.9397 19.8081 42.5929C18.025 43.2462 16.068 43.2462 14.2849 42.5929C12.5017 41.9397 10.5448 41.9397 8.76163 42.5929L6 43.6047V1.01171Z" fill="#61BB67"/>
<path d="M6 1.01171L5.63965 -0.95556L4 -0.655221V1.01171H6ZM39.1395 1.01171H41.1395V-0.655221L39.4999 -0.95556L39.1395 1.01171ZM39.1395 43.6047L38.4516 45.4826L41.1395 46.4673V43.6047H39.1395ZM6 43.6047H4V46.4673L6.68798 45.4826L6 43.6047ZM36.3779 42.5929L35.6899 44.4709L36.3779 42.5929ZM31.2597 0.863329L31.9477 2.74128L31.2597 0.863329ZM36.085 0.452196L35.7246 2.41947L36.085 0.452196ZM30.8547 1.01171L30.1667 -0.866239L30.8547 1.01171ZM14.2849 1.01171L13.5969 2.88966L14.2849 1.01171ZM37.1395 1.01171V43.6047H41.1395V1.01171H37.1395ZM8 43.6047V1.01171H4V43.6047H8ZM6.36035 2.97898L9.41491 2.41947L8.69421 -1.51507L5.63965 -0.95556L6.36035 2.97898ZM13.1919 2.74128L13.5969 2.88966L14.9729 -0.866238L14.5678 -1.01462L13.1919 2.74128ZM31.5426 2.88966L31.9477 2.74128L30.5717 -1.01462L30.1667 -0.866239L31.5426 2.88966ZM35.7246 2.41947L38.7792 2.97898L39.4999 -0.95556L36.4453 -1.51507L35.7246 2.41947ZM8.07365 40.715L5.31202 41.7267L6.68798 45.4826L9.4496 44.4709L8.07365 40.715ZM39.8275 41.7267L37.0659 40.715L35.6899 44.4709L38.4516 45.4826L39.8275 41.7267ZM37.0659 40.715C34.8385 39.899 32.394 39.899 30.1667 40.715L31.5426 44.4709C32.8816 43.9804 34.351 43.9804 35.6899 44.4709L37.0659 40.715ZM24.6434 44.4709C26.8708 45.2869 29.3153 45.2869 31.5426 44.4709L30.1667 40.715C28.8277 41.2055 27.3583 41.2055 26.0194 40.715L24.6434 44.4709ZM20.4961 44.4709C21.835 43.9804 23.3045 43.9804 24.6434 44.4709L26.0194 40.715C23.792 39.899 21.3475 39.899 19.1202 40.715L20.4961 44.4709ZM13.5969 44.4709C15.8243 45.2869 18.2688 45.2869 20.4961 44.4709L19.1202 40.715C17.7812 41.2055 16.3118 41.2055 14.9729 40.715L13.5969 44.4709ZM9.4496 44.4709C10.7885 43.9804 12.258 43.9804 13.5969 44.4709L14.9729 40.715C12.7455 39.899 10.301 39.899 8.07365 40.715L9.4496 44.4709ZM31.9477 2.74128C33.1554 2.29884 34.4595 2.18773 35.7246 2.41947L36.4453 -1.51507C34.4779 -1.87546 32.4498 -1.70266 30.5717 -1.01462L31.9477 2.74128ZM24.6434 2.88966C26.8708 3.70564 29.3153 3.70564 31.5426 2.88966L30.1667 -0.866239C28.8278 -0.375731 27.3583 -0.37573 26.0194 -0.866239L24.6434 2.88966ZM20.4961 2.88966C21.835 2.39915 23.3045 2.39915 24.6434 2.88966L26.0194 -0.866239C23.792 -1.68222 21.3475 -1.68222 19.1202 -0.866239L20.4961 2.88966ZM13.5969 2.88966C15.8243 3.70564 18.2688 3.70564 20.4961 2.88966L19.1202 -0.866239C17.7812 -0.37573 16.3118 -0.37573 14.9729 -0.866238L13.5969 2.88966ZM9.41491 2.41947C10.6801 2.18773 11.9842 2.29884 13.1919 2.74128L14.5678 -1.01462C12.6897 -1.70266 10.6617 -1.87546 8.69421 -1.51507L9.41491 2.41947Z" fill="#7BDB81" mask="url(#path-1-inside-1_326_1430)"/>
<rect x="13" y="8" width="14" height="1.5" fill="#143A69"/>
<rect x="13" y="12" width="10" height="1.5" fill="#143A69"/>
<rect x="13.2588" y="22" width="18.4705" height="1.5" fill="#143A69"/>
<rect x="13.2588" y="28.025" width="8.12274" height="1.5" fill="#143A69"/>
<rect x="9.87891" y="17" width="25.4116" height="1.2" fill="#143A69"/>
<circle cx="37.4237" cy="36.2815" r="13.7184" fill="#143A69"/>
<circle cx="37.5939" cy="36.0939" r="11.0939" fill="#7BDB81" stroke="#7BDB81" stroke-width="2"/>
<circle cx="37.5" cy="36" r="10" fill="#61BB67"/>
<circle cx="37.4239" cy="36.2816" r="2.70758" fill="#143A69"/>
<circle cx="37.4238" cy="36.2816" r="1.44404" fill="#143A69"/>
<rect x="39.5959" y="35.7401" width="4.73" height="1.08303" rx="0.541516" fill="#143A69"/>
<rect x="36.8821" y="33.9641" width="6.29" height="1.08303" rx="0.541516" transform="rotate(-90 36.8821 33.9641)" fill="#143A69"/>
</g>
<defs>
<clipPath id="clip0_326_1430">
<rect width="50" height="50" fill="white"/>
</clipPath>
</defs>
</svg>
