<svg width="76" height="78" viewBox="0 0 76 78" fill="none" xmlns="http://www.w3.org/2000/svg">
<path fill-rule="evenodd" clip-rule="evenodd" d="M12.8965 42.9204L12.2282 32.401L12.0901 30.2446C11.9698 28.3688 10.3392 26.9297 8.46338 27.05C7.87081 27.0901 7.32722 27.2728 6.85938 27.5712V46.8224C10.0002 49.6805 12.8965 48.286 12.8965 42.9204Z" fill="#FFE5C1"/>
<path fill-rule="evenodd" clip-rule="evenodd" d="M63.7855 32.401L63.1172 42.9204C65.3417 48.495 69.2247 46.4857 69.5723 48.495L69.1542 27.5712C68.6863 27.2727 68.1383 27.09 67.5502 27.05C65.6745 26.9297 64.0393 28.3688 63.919 30.2446L63.7855 32.401Z" fill="#FFE5C1"/>
<path fill-rule="evenodd" clip-rule="evenodd" d="M49.7031 59.6758L49.1016 67.6467L56.1199 70.8472L63.6259 67.6467C69.6229 62.1174 74.2386 55.2605 74.8713 45.3514L75.9896 27.7077C76.1099 25.8319 74.6752 24.2013 72.7952 24.081C70.9195 23.9607 69.2888 25.3998 69.1685 27.2756L69.1507 27.5696L68.0145 45.4272C67.667 43.4177 65.4438 42.0767 63.1135 42.9187C62.6591 43.0791 62.209 43.3241 61.7635 43.6627L58.1414 46.688L53.5791 50.4974C50.2733 53.2555 50.0149 55.5634 49.7031 59.6758Z" fill="#FFE5C1"/>
<path fill-rule="evenodd" clip-rule="evenodd" d="M22.422 50.4974L17.8597 46.688L14.2376 43.6627C13.7921 43.3241 13.3376 43.0791 12.8876 42.9187C10.5574 42.0765 8.3297 43.4177 7.98673 45.4272L6.85057 27.5696L6.83278 27.2756C6.71247 25.3998 5.07729 23.9607 3.20164 24.081C1.326 24.2013 -0.113281 25.8318 0.00702629 27.7076L1.1298 45.3513C1.75795 55.2603 6.37375 62.1172 12.3707 67.6465L19.1979 69.5675L26.8997 67.6465L26.2981 59.6756C25.9863 55.5633 25.7235 53.2554 22.422 50.4974Z" fill="#FFE5C1"/>
<path fill-rule="evenodd" clip-rule="evenodd" d="M16.0088 49.0815L20.571 52.8909C22.9992 54.9226 22.9769 56.5488 23.2888 60.6613L23.7834 67.6475H26.8933L26.2918 59.6766C25.9798 55.5643 25.717 53.2562 22.4156 50.4983L17.8534 46.6889L14.2312 43.6636C13.7857 43.325 13.3313 43.08 12.8812 42.9195C10.8229 42.1755 8.84018 43.1378 8.17188 44.7596C9.86941 44.1224 11.5 45.4457 13.1307 46.6799L16.0088 49.0815Z" fill="#FED1A3"/>
<path fill-rule="evenodd" clip-rule="evenodd" d="M26.8959 67.6445H12.367H8.76262C7.95621 67.6445 7.29688 68.3084 7.29688 69.1148V76.404C7.29688 77.2104 7.95621 77.8699 8.76262 77.8699H29.2662C30.0726 77.8699 30.7319 77.2104 30.7319 76.404V69.1148C30.7319 68.3084 30.0726 67.6445 29.2662 67.6445H26.8959Z" fill="#EB5468"/>
<path fill-rule="evenodd" clip-rule="evenodd" d="M46.7314 67.6445C45.925 67.6445 45.2656 68.3084 45.2656 69.1148V76.404C45.2656 77.2104 45.925 77.8699 46.7314 77.8699H67.2349C68.0413 77.8699 68.7007 77.2104 68.7007 76.404V69.1148C68.7007 68.3084 68.0413 67.6445 67.2349 67.6445H63.6262H49.1016H46.7314Z" fill="#EB5468"/>
<path fill-rule="evenodd" clip-rule="evenodd" d="M48.8005 42.9613C54.7663 36.9954 54.7663 27.327 48.8005 21.3656C42.8392 15.4042 33.1711 15.4042 27.2053 21.3656C21.2441 27.327 21.2441 36.9954 27.2053 42.9613C27.6242 43.3802 28.0607 43.7677 28.5152 44.1243H47.495C47.9451 43.7679 48.3816 43.3758 48.8005 42.9613Z" fill="#1CC8EB"/>
<path fill-rule="evenodd" clip-rule="evenodd" d="M41.8994 35.4752C40.291 33.3587 37.0298 33.3142 34.1115 35.4752C30.819 36.9677 28.5156 40.2916 28.5156 44.1233C34.0581 48.5342 41.953 48.5342 47.4955 44.1233C47.4953 40.2914 45.1919 36.9677 41.8994 35.4752Z" fill="#EB5468"/>
<path fill-rule="evenodd" clip-rule="evenodd" d="M24.0757 16.7736L24.1604 12.7368L26.4639 9.41751L22.6501 8.08987L20.2085 4.87305L17.7669 8.08987L13.9531 9.41751L16.2566 12.7368L16.3412 16.7736L20.2085 15.6063L24.0757 16.7736Z" fill="#FDCA5C"/>
<path fill-rule="evenodd" clip-rule="evenodd" d="M34.0535 7.85954L34.1381 11.8962L38.0054 10.7332L41.8726 11.8962L41.9573 7.85954L44.2606 4.54462L40.4468 3.21241L38.0054 0L35.5594 3.21241L31.75 4.54462L34.0535 7.85954Z" fill="#FDCA5C"/>
<path fill-rule="evenodd" clip-rule="evenodd" d="M49.5312 9.41751L51.8302 12.7368L51.9193 16.7736L55.7865 15.6063L59.6493 16.7736L59.7384 12.7368L62.0419 9.41751L58.2281 8.08987L55.7865 4.87305L53.3405 8.08987L49.5312 9.41751Z" fill="#FDCA5C"/>
<path fill-rule="evenodd" clip-rule="evenodd" d="M7.98735 45.4272L6.83355 27.2756C6.71324 25.3998 5.07806 23.9607 3.20242 24.081C1.63416 24.179 0.368876 25.3419 0.0703125 26.8166C4.42314 25.4888 4.08016 27.7077 4.23165 30.1092L4.88657 43.6004C5.04247 46.8484 5.6796 48.947 6.66868 49.936C8.19237 51.4553 12.3136 55.9822 13.6859 57.2876C15.0581 58.5886 17.6422 58.1475 15.9848 55.8263C14.6126 54.5208 10.9725 50.6489 9.44884 49.1296C8.39725 48.0782 8.04089 47.1293 7.98735 45.4272Z" fill="#FED1A3"/>
<path fill-rule="evenodd" clip-rule="evenodd" d="M25.2626 69.1148V76.404C25.2626 77.2104 24.6033 77.8699 23.7969 77.8699H29.2769C30.0833 77.8699 30.7426 77.2104 30.7426 76.404V69.1148C30.7426 68.3084 30.0833 67.6445 29.2769 67.6445H26.9066H24.8795H23.7969C24.6031 67.6445 25.2626 68.3084 25.2626 69.1148Z" fill="#EB5468"/>
<path fill-rule="evenodd" clip-rule="evenodd" d="M59.7188 67.6469H63.6217C69.6187 62.1176 74.2343 55.2607 74.867 45.3516L75.9854 27.7079C76.0923 26.0282 74.9473 24.5401 73.3567 24.1658C73.2364 26.6163 71.8418 44.6344 71.588 46.2694C71.2137 48.6352 70.8083 51.6739 69.7523 54.1735C67.587 59.3241 63.791 63.9132 59.7188 67.6469Z" fill="#FED1A3"/>
<path fill-rule="evenodd" clip-rule="evenodd" d="M43.9595 21.0671C48.9852 26.0884 49.7739 33.7429 46.3342 39.5975C47.0739 40.9431 47.4926 42.4892 47.4926 44.1243C47.9426 43.7678 48.3791 43.3759 48.798 42.9614C54.7638 36.9955 54.7638 27.327 48.798 21.3657C45.4387 18.0062 40.9076 16.5404 36.5234 16.9637C39.2502 17.5785 41.8387 18.9419 43.9595 21.0671Z" fill="#1CC8EB"/>
<path fill-rule="evenodd" clip-rule="evenodd" d="M24.1656 12.737L26.4691 9.41766L22.6553 8.08987L20.2137 4.87305L19.3359 6.03141C20.383 9.15469 20.4943 12.5854 19.6611 15.7756L20.2135 15.6063L24.0807 16.7736L24.1656 12.737Z" fill="#FDCA5C"/>
<path fill-rule="evenodd" clip-rule="evenodd" d="M37.6348 0.485641C38.6775 3.84057 38.6507 7.5298 37.5547 10.8669L38.0047 10.7332L41.8719 11.8962L41.9566 7.85954L44.2601 4.54462L40.4463 3.21241L38.0047 0L37.6348 0.485641Z" fill="#FDCA5C"/>
<path fill-rule="evenodd" clip-rule="evenodd" d="M55.048 5.84433C56.0327 9.07454 56.0327 12.6033 55.0391 15.8335L55.7875 15.6063L59.6503 16.7736L59.7394 12.737L62.0429 9.41767L58.2291 8.08987L55.7875 4.87305L55.048 5.84433Z" fill="#FDCA5C"/>
<path fill-rule="evenodd" clip-rule="evenodd" d="M40.1328 36.4707C42.4763 38.5781 44.0981 42.0579 44.3655 46.0456C45.4659 45.5421 46.5175 44.9005 47.4976 44.1208C47.4976 40.2891 45.1941 36.9653 41.9017 35.4727C41.3759 35.8961 40.7789 36.2347 40.1328 36.4707Z" fill="#E5384F"/>
<path fill-rule="evenodd" clip-rule="evenodd" d="M41.9018 35.4734C43.3142 34.3373 44.2185 32.5908 44.2185 30.6348C44.2185 27.2041 41.4384 24.4238 38.0077 24.4238C34.577 24.4238 31.7969 27.204 31.7969 30.6348C31.7969 32.5908 32.7014 34.3373 34.1136 35.4734C35.1784 36.3334 36.5328 36.8458 38.0075 36.8458C39.4826 36.8456 40.837 36.3332 41.9018 35.4734Z" fill="#FFE5C1"/>
<path fill-rule="evenodd" clip-rule="evenodd" d="M40.7844 29.9891C40.7844 31.945 39.8799 33.6916 38.4677 34.8277C37.5499 35.5674 36.4182 36.053 35.1797 36.1733C36.0263 36.601 36.9841 36.846 38 36.846C39.4747 36.846 40.8291 36.3336 41.894 35.4737C43.3063 34.3375 44.2107 32.591 44.2107 30.6351C44.2107 27.2044 41.4305 24.4241 37.9998 24.4241C37.7948 24.4241 37.5899 24.4375 37.3939 24.4553C39.4032 25.4801 40.7844 27.5741 40.7844 29.9891Z" fill="#FFE5C1"/>
<path fill-rule="evenodd" clip-rule="evenodd" d="M62.5595 76.404C62.5595 77.2104 61.9002 77.8699 61.0938 77.8699H67.2422C68.0486 77.8699 68.708 77.2104 68.708 76.404V69.1148C68.708 68.3084 68.0486 67.6445 67.2422 67.6445H63.6334H61.0939C61.9003 67.6445 62.5596 68.3084 62.5596 69.1148V76.404H62.5595Z" fill="#EB5468"/>
<path fill-rule="evenodd" clip-rule="evenodd" d="M63.3881 48.1801L57.6897 54.1772C56.3842 55.5496 57.6407 58.0134 60.0243 55.8302C61.3965 54.5248 65.0366 50.6529 66.5559 49.1336C67.8258 47.8683 68.2133 46.5449 68.0217 45.4311C67.9995 45.3108 67.9727 45.1905 67.937 45.0746C67.4157 43.288 65.3573 42.1608 63.1964 42.8958C66.5424 44.58 64.7559 46.8122 63.3881 48.1801Z" fill="#FED1A3"/>
</svg>
