<svg width="77" height="78" viewBox="0 0 77 78" fill="none" xmlns="http://www.w3.org/2000/svg">
<path d="M56.6246 53.6181L58.3038 52.7317L68.409 47.283L69.6223 46.6273C72.2146 45.2268 75.4506 46.1119 76.9701 48.6367L53.1559 64.988C49.9459 66.5777 46.3088 67.091 42.784 66.4527L29.0182 63.9165C27.7522 63.599 26.4119 63.7775 25.2728 64.4145L17.8181 69.1272L12.6094 52.0438L12.6535 52.0298C14.2605 51.7337 15.7552 51.0017 16.9745 49.9148L19.2559 47.8853C23.8176 44.4527 29.916 43.8571 35.0558 46.3418L36.0004 46.7984C37.4784 47.5136 39.0987 47.8853 40.7405 47.8853H49.9012C53.2462 47.8866 56.0945 50.3159 56.6246 53.6181Z" fill="#F7CAA5"/>
<path d="M69.2867 28.0174V34.6814H51.0602V27.0682C51.0622 25.5595 50.6144 24.0848 49.7734 22.8328C50.9125 21.9096 52.3256 21.3902 53.7916 21.3555C54.8438 22.7786 56.4942 23.6363 58.263 23.6797C60.0324 23.7232 61.723 22.9478 62.844 21.5781C62.8995 21.5012 62.9623 21.4303 63.0325 21.3662C66.5466 21.5827 69.286 24.4966 69.2867 28.0174Z" fill="#1CC8EB"/>
<path d="M68.391 47.2682L68.3997 47.2836L58.2945 52.7323L56.6153 53.6187C56.3673 52.0558 55.5798 50.6293 54.3906 49.5851L60.8855 46.0857L62.5386 45.194C64.5801 44.1585 67.26 45.2782 68.391 47.2682Z" fill="#EDB288"/>
<path d="M64.2124 10.2468V13.2095C64.2124 16.4803 61.5606 19.1321 58.2898 19.1321C55.019 19.1321 52.3672 16.4803 52.3672 13.2095V10.2468C52.3672 6.97603 55.019 4.32422 58.2898 4.32422C61.5606 4.32422 64.2124 6.97603 64.2124 10.2468Z" fill="#1CC8EB"/>
<path d="M60.8114 45.9356L60.8923 46.086L54.3974 49.5855C53.1568 48.4878 51.5558 47.8829 49.8987 47.8862H47.8672L53.2684 44.9496C55.7157 43.5305 58.8113 43.9349 60.8114 45.9356Z" fill="#EDB288"/>
<path d="M49.7757 22.8315C50.6166 24.0835 51.0645 25.5582 51.0625 27.0669V38.0632H25.9375V27.0669C25.9362 22.9358 29.2297 19.558 33.3595 19.4551C34.5614 21.0808 36.4471 22.0608 38.4686 22.1102C40.49 22.1604 42.4212 21.2746 43.702 19.7098C43.7662 19.6229 43.8377 19.5413 43.9159 19.4671C46.287 19.6128 48.4542 20.8575 49.7757 22.8315Z" fill="#FDCA5C"/>
<path d="M45.2668 6.76623V10.1493C45.2668 13.8867 42.2373 16.9162 38.5006 16.9162C34.7639 16.9162 31.7344 13.8867 31.7344 10.1493V6.76623C31.7344 3.02949 34.7639 0 38.5006 0C42.2373 0 45.2668 3.02949 45.2668 6.76623Z" fill="#FDCA5C"/>
<path d="M26.938 22.6289L27.2047 22.8669C26.3792 24.1122 25.94 25.5735 25.942 27.0682V34.6814H7.6875V28.0174C7.6875 24.4023 10.5699 21.447 14.1837 21.3555C15.2365 22.7786 16.8869 23.6363 18.6564 23.6797C20.4258 23.7232 22.1164 22.9478 23.2381 21.5781C23.2935 21.5012 23.3557 21.4303 23.4246 21.3662C24.6926 21.441 25.9119 21.8795 26.938 22.6289Z" fill="#1CC8EB"/>
<path d="M24.6031 10.2468V13.2095C24.6031 16.4803 21.9512 19.1321 18.6804 19.1321C15.4096 19.1321 12.7578 16.4803 12.7578 13.2095V10.2468C12.7578 6.97603 15.4096 4.32422 18.6804 4.32422C21.9512 4.32422 24.6031 6.97603 24.6031 10.2468Z" fill="#1CC8EB"/>
<path d="M56.7059 55.7238C56.6905 55.7238 56.6751 55.7238 56.6598 55.7224L48.8474 55.3681C46.5592 55.2652 44.2657 55.3708 41.9969 55.685C41.6319 55.7378 41.267 55.5914 41.0397 55.3013C40.8124 55.0112 40.7589 54.6215 40.898 54.2799C41.0377 53.939 41.3492 53.699 41.7148 53.6508C44.1079 53.32 46.5265 53.2083 48.9403 53.3166L55.5782 53.6181C55.0595 50.8887 52.675 48.9134 49.8969 48.9121H40.7362C38.94 48.9094 37.1672 48.503 35.5489 47.7229L34.6043 47.2656C29.8261 44.9421 24.1495 45.4889 19.9021 48.6808L17.6527 50.6822C16.293 51.8941 14.6265 52.7096 12.8357 53.0392C12.4727 53.1114 12.0991 52.9824 11.8577 52.7016C11.6164 52.4215 11.5449 52.0325 11.6699 51.6842C11.7956 51.3366 12.0984 51.0826 12.4634 51.0204C13.8852 50.7584 15.2081 50.1106 16.287 49.1487L18.5691 47.1186C18.5899 47.0992 18.6119 47.0818 18.634 47.0651C23.4978 43.3872 30.0146 42.7508 35.4988 45.4173L36.4433 45.8746C37.7829 46.5203 39.2495 46.8565 40.7362 46.8586H49.8969C54.2252 46.8586 57.734 50.368 57.7327 54.6963C57.7327 55.2632 57.2734 55.7231 56.7059 55.7231V55.7238Z" fill="#EDB288"/>
<path d="M17.8173 69.1325L20.2205 77.0131H3.67523L0 46.8672H11.029L12.6086 52.0491L17.8173 69.1325ZM13.2858 71.7389C13.2858 70.5209 12.2985 69.5329 11.0805 69.5329C9.8619 69.5329 8.87457 70.5209 8.87457 71.7389C8.87457 72.9575 9.8619 73.9448 11.0805 73.9448C12.2985 73.9448 13.2865 72.9575 13.2858 71.7389Z" fill="#EB5468"/>
<path d="M13.2862 71.7391C13.2862 72.9578 12.2989 73.9451 11.0809 73.9451C9.86233 73.9451 8.875 72.9578 8.875 71.7391C8.875 70.5212 9.86233 69.5332 11.0809 69.5332C12.2989 69.5332 13.2862 70.5212 13.2862 71.7391Z" fill="#F8EC7D"/>
</svg>
