<svg width="78" height="77" viewBox="0 0 78 77" fill="none" xmlns="http://www.w3.org/2000/svg">
<path d="M37.2285 0.300914L22.9833 6.95992C21.7722 7.52574 21.0286 8.8162 21.1164 10.196C21.3639 14.0719 22.303 22.0172 25.8587 27.9442C30.3438 35.4204 35.9129 37.377 37.8624 37.8505C38.3328 37.964 38.8198 37.964 39.2898 37.8505C41.239 37.377 46.8085 35.4204 51.2936 27.9442C54.8496 22.0175 55.7884 14.0716 56.0359 10.196C56.1237 8.8162 55.3794 7.52574 54.169 6.95992L39.9238 0.300914C39.0667 -0.100305 38.0852 -0.100305 37.2285 0.300914Z" fill="#FDCA5C"/>
<path d="M54.1662 6.95743L48.625 4.36719C49.2934 5.03138 49.6666 5.98074 49.6033 6.97864C49.3554 10.8542 48.417 18.8001 44.861 24.7268C40.3759 32.203 34.8067 34.1596 32.8572 34.6332C32.4596 34.7293 32.0503 34.7389 31.6484 34.6724C34.3306 36.7813 36.717 37.5706 37.8596 37.848C38.3299 37.9615 38.817 37.9615 39.287 37.848C41.2362 37.3745 46.8057 35.4176 51.2908 27.9417C54.8468 22.0147 55.7855 14.0691 56.0331 10.1935C56.1208 8.81371 55.3766 7.52325 54.1662 6.95743Z" fill="#FDCA5C"/>
<path d="M54.1707 6.9586L51.6062 5.75977C52.424 6.42332 52.8937 7.4762 52.823 8.58726C52.5751 12.4628 51.6367 20.4087 48.0807 26.3354C43.5956 33.8116 38.0265 35.7682 36.077 36.2418C35.6069 36.3553 35.1199 36.3553 34.6495 36.2418C34.2959 36.1559 33.8217 36.0203 33.2578 35.8126C35.262 37.0854 36.9562 37.6287 37.8644 37.8492C38.3348 37.9627 38.8218 37.9627 39.2918 37.8492C41.241 37.3757 46.8105 35.4188 51.2956 27.9428C54.8516 22.0159 55.7904 14.0703 56.0379 10.1947C56.1253 8.81488 55.3811 7.52442 54.1707 6.9586Z" fill="#FDCA5C"/>
<path d="M37.627 5.83036L27.6004 10.5173C26.7478 10.9157 26.2247 11.8239 26.2861 12.7951C26.4604 15.5233 27.1214 21.1156 29.6241 25.2872C32.7812 30.5493 36.7008 31.9266 38.0729 32.26C38.404 32.34 38.7467 32.34 39.0775 32.26C40.4497 31.9266 44.3696 30.5493 47.5263 25.2872C50.0291 21.1156 50.6897 15.5229 50.8643 12.7951C50.926 11.8239 50.4023 10.9157 49.5501 10.5173L39.5238 5.83036C38.9207 5.54841 38.2298 5.54841 37.627 5.83036Z" fill="#F1F2F2"/>
<path d="M37.9149 25.4023C37.5159 25.4023 37.1295 25.2538 36.8321 24.9827L32.22 20.7789C31.5639 20.181 31.5166 19.1644 32.1149 18.5083C32.7126 17.8521 33.7294 17.8048 34.3856 18.4031L37.6976 21.4219L43.2134 14.1514C43.7496 13.4445 44.7581 13.3059 45.4657 13.8425C46.1727 14.3791 46.3112 15.3876 45.7747 16.0948L39.1954 24.767C38.9224 25.1264 38.5109 25.355 38.0615 25.3962C38.0126 25.4 37.9638 25.4023 37.9149 25.4023Z" fill="#1CC8EB"/>
<path d="M46.0188 52.0018C46.566 51.8019 47.0489 51.4171 47.3626 50.8731L49.1446 47.7865C49.2334 47.6328 49.1806 47.4361 49.027 47.3473L35.9112 39.775C34.3735 38.8873 32.4073 39.4139 31.5196 40.9516L30.3594 42.9609L46.0188 52.0018Z" fill="#FCC4AE"/>
<path d="M55.1566 38.1348L30.3203 52.4742L41.3905 71.6484L52.026 65.508C54.0813 64.3214 55.7803 62.6046 56.9457 60.5371L65.3041 55.7115L55.1566 38.1348Z" fill="#F2AD97"/>
<path d="M56.0234 58.9375L64.3816 54.1118L65.3041 55.7096L56.946 60.5353L56.0234 58.9375Z" fill="#E59076"/>
<path d="M68.9731 56.9223L77.1621 52.1945L64.1315 29.625L55.9425 34.3528C54.7125 35.063 54.2911 36.636 55.0012 37.8661L65.4599 55.981C66.1701 57.211 67.7431 57.6325 68.9731 56.9223Z" fill="#EB5468"/>
<path d="M55.9425 34.3536L56.112 34.2559L65.1728 49.95C65.6824 50.8325 66.8108 51.1347 67.6933 50.6255L74.115 46.9177L77.1621 52.1953L68.9731 56.9231C67.7431 57.6333 66.1701 57.2118 65.4599 55.9818L55.0012 37.8668C54.2911 36.6368 54.7125 35.0638 55.9425 34.3536Z" fill="#EB5468"/>
<path d="M56.024 58.9397L56.9467 60.5375C55.7813 62.605 54.0822 64.3217 52.0269 65.5084L41.3914 71.6488L40.4688 70.051L51.1043 63.9106C53.1595 62.7239 54.8586 61.0072 56.024 58.9397Z" fill="#E59076"/>
<path d="M59.3266 59.6868L22.0072 38.1406L11.8594 55.7168L20.2178 60.5423C21.3832 62.6098 23.0822 64.3266 25.1375 65.5132L33.676 70.4429L42.6638 75.6321C43.9874 76.3962 45.68 75.9429 46.4445 74.6191C47.2087 73.2955 46.7554 71.6028 45.4315 70.8387L50.2249 73.606C51.5485 74.3702 53.2411 73.9169 54.0053 72.593C54.7695 71.2695 54.3162 69.5768 52.9923 68.8126L55.389 70.1963C56.7126 70.9605 58.4052 70.5072 59.1694 69.1833C59.9336 67.8594 59.48 66.1671 58.1564 65.4026L56.5586 64.4802C57.8822 65.2444 59.5748 64.7908 60.339 63.4672C61.1038 62.1437 60.6502 60.4513 59.3266 59.6868Z" fill="#FCC4AE"/>
<path d="M8.18897 56.9262L0 52.1984L13.0306 29.6289L21.2196 34.3567C22.4496 35.0669 22.8711 36.6399 22.1609 37.87L11.7022 55.9849C10.992 57.2149 9.41899 57.6364 8.18897 56.9262Z" fill="#EB5468"/>
<path d="M21.2196 34.3575L21.0501 34.2598L11.9893 49.9539C11.4797 50.8364 10.3513 51.1386 9.46882 50.6294L3.04708 46.9216L0 52.1992L8.18897 56.927C9.41899 57.6372 10.992 57.2157 11.7022 55.9857L22.1609 37.8707C22.8711 36.6407 22.4496 35.0677 21.2196 34.3575Z" fill="#EB5468"/>
<path d="M54.3311 71.6666C53.4656 72.3807 52.2195 72.5295 51.1908 71.9357L40.6051 65.8242L39.6406 67.4947L50.2263 73.6062C51.5499 74.3704 53.2425 73.9171 54.007 72.5932C54.1771 72.298 54.278 71.9839 54.3311 71.6666Z" fill="#F2AD97"/>
<path d="M59.5012 68.2557C58.6358 68.9698 57.3897 69.1186 56.3609 68.5248L43.3785 61.0293L42.4141 62.6998L55.3964 70.1953C56.72 70.9595 58.4127 70.5062 59.1768 69.1823C59.3472 68.8871 59.4478 68.573 59.5012 68.2557Z" fill="#F2AD97"/>
<path d="M60.6612 62.5401C59.7958 63.2541 58.5497 63.403 57.5209 62.8092L46.1363 56.2363L45.1719 57.9068L56.5565 64.4796C57.88 65.2438 59.5727 64.7902 60.3368 63.4666C60.5072 63.1715 60.6082 62.8574 60.6612 62.5401Z" fill="#F2AD97"/>
<path d="M11.8594 55.7151L12.7819 54.1173L21.14 58.943L20.2175 60.5408L11.8594 55.7151Z" fill="#F2AD97"/>
<path d="M43.6293 73.9604L26.0612 63.9142C24.0059 62.7276 22.3068 61.0109 21.1414 58.9434L20.2188 60.5412C21.3841 62.6087 23.0832 64.3254 25.1385 65.512L42.6648 75.6309C43.9884 76.3951 45.681 75.9415 46.4455 74.6179C46.6159 74.3231 46.7165 74.0087 46.7696 73.6914C45.9041 74.4054 44.6577 74.5542 43.6293 73.9604Z" fill="#F2AD97"/>
<path d="M34.4953 75.6251L38.6898 73.2037C40.0134 72.4395 40.467 70.7468 39.7028 69.4233C38.9386 68.0997 37.246 67.6461 35.9224 68.4102L31.7279 70.8317C30.4044 71.5959 29.9508 73.2885 30.7149 74.6121C31.4791 75.9357 33.1718 76.3893 34.4953 75.6251Z" fill="#F2AD97"/>
<path d="M37.7732 71.6033L33.5787 74.0248C32.5368 74.6263 31.2727 74.4639 30.4062 73.7261C30.4619 74.0283 30.558 74.3283 30.7207 74.6099C31.4848 75.9335 33.1775 76.3871 34.5011 75.6229L38.6955 73.2014C40.0191 72.4373 40.4727 70.7446 39.7085 69.4211C39.5459 69.1394 39.3347 68.906 39.1006 68.707C39.3067 69.8255 38.8154 71.0015 37.7732 71.6033Z" fill="#E59076"/>
<path d="M26.9406 73.5975L35.1296 68.8697C36.4532 68.1055 36.9068 66.4128 36.1426 65.0893C35.3784 63.7657 33.6858 63.3121 32.3622 64.0763L24.1733 68.8041C22.8497 69.5683 22.3961 71.2609 23.1602 72.5845C23.9244 73.908 25.6171 74.3617 26.9406 73.5975Z" fill="#F2AD97"/>
<path d="M34.2052 67.2693L26.0162 71.9972C24.9743 72.5987 23.7102 72.4363 22.8438 71.6985C22.8994 72.0007 22.9955 72.3007 23.1582 72.5823C23.9223 73.9058 25.615 74.3595 26.9386 73.5953L35.1275 68.8675C36.4511 68.1033 36.9047 66.4106 36.1405 65.0871C35.9779 64.8054 35.7667 64.572 35.5326 64.373C35.7387 65.4915 35.2471 66.6675 34.2052 67.2693Z" fill="#E59076"/>
<path d="M21.7766 70.1881L31.5634 64.5376C32.8869 63.7735 33.3405 62.0808 32.5764 60.7572C31.8122 59.4337 30.1195 58.9801 28.796 59.7442L19.0092 65.3947C17.6856 66.1589 17.232 67.8515 17.9962 69.1751C18.7604 70.4987 20.453 70.9523 21.7766 70.1881Z" fill="#F2AD97"/>
<path d="M30.6389 62.9415L20.8521 68.592C19.8102 69.1935 18.5461 69.0312 17.6797 68.2931C17.7353 68.5953 17.8314 68.8952 17.9941 69.1768C18.7583 70.5004 20.4509 70.954 21.7745 70.1898L31.5613 64.5393C32.8848 63.7752 33.3385 62.0825 32.5743 60.759C32.4116 60.4773 32.2004 60.2439 31.9663 60.0449C32.1724 61.164 31.6809 62.34 30.6389 62.9415Z" fill="#E59076"/>
<path d="M20.6047 64.4724L27.9948 60.2056C29.3183 59.4414 29.772 57.7488 29.0078 56.4252C28.2436 55.1016 26.551 54.648 25.2274 55.4122L17.8373 59.679C16.5138 60.4432 16.0601 62.1358 16.8243 63.4594C17.5885 64.783 19.2808 65.2366 20.6047 64.4724Z" fill="#F2AD97"/>
<path d="M27.0782 58.6076L19.6881 62.874C18.6461 63.4755 17.382 63.3132 16.5156 62.5754C16.5712 62.8776 16.6674 63.1775 16.83 63.4591C17.5942 64.7827 19.2869 65.2363 20.6104 64.4722L28.0005 60.2057C29.3241 59.4415 29.7777 57.7489 29.0135 56.425C28.8508 56.1433 28.6396 55.9099 28.4056 55.7109C28.6113 56.83 28.1201 58.006 27.0782 58.6076Z" fill="#E59076"/>
<path d="M27.0885 59.6601L27.736 59.2862C28.5046 58.8423 28.7683 57.8592 28.3243 57.0905L28.0867 56.679C27.6427 55.9103 26.6596 55.6467 25.8909 56.0906L25.2434 56.4645C24.9358 56.642 24.8307 57.0352 25.0081 57.3428L26.2102 59.4248C26.3876 59.7322 26.7808 59.8376 27.0885 59.6601Z" fill="#FFD2C0"/>
<path d="M30.655 63.9922L31.3024 63.6183C32.0711 63.1743 32.3348 62.1912 31.8908 61.4225L31.6532 61.011C31.2092 60.2423 30.2261 59.9787 29.4574 60.4227L28.5232 60.9621C28.374 61.0483 28.3229 61.2389 28.409 61.3881L29.7767 63.7568C29.9541 64.0645 30.3473 64.17 30.655 63.9922Z" fill="#FFD2C0"/>
<path d="M34.2213 68.3242L34.8688 67.9503C35.6374 67.5063 35.9011 66.5232 35.4571 65.7545L35.2195 65.343C34.7755 64.5743 33.7924 64.3107 33.0237 64.7547L32.3763 65.1286C32.0686 65.3061 31.9635 65.6992 32.1409 66.0069L33.343 68.0889C33.5204 68.3962 33.9139 68.5017 34.2213 68.3242Z" fill="#FFD2C0"/>
<path d="M37.7916 72.6543L38.4391 72.2804C39.2078 71.8364 39.4714 70.8533 39.0274 70.0846L38.7898 69.6731C38.3458 68.9044 37.3627 68.6408 36.5941 69.0848L35.9466 69.4587C35.6389 69.6361 35.5338 70.0293 35.7112 70.337L36.9133 72.419C37.0908 72.7263 37.4839 72.8317 37.7916 72.6543Z" fill="#FFD2C0"/>
<path d="M35.8131 50.3679L47.2581 43.76L45.6368 40.9518C44.7492 39.4141 42.783 38.8872 41.2453 39.7751L28.1295 47.3475C27.9758 47.4362 27.9231 47.6329 28.0118 47.7866L28.3471 48.3675C29.8565 50.9816 33.1991 51.8772 35.8131 50.3679Z" fill="#F2AD97"/>
<path d="M32.6817 47.8L34.1493 46.9525C34.5904 46.6979 34.7418 46.1337 34.4869 45.6923L33.6125 44.1777L29.4453 46.5838L29.6835 46.9966C30.2899 48.0462 31.6321 48.406 32.6817 47.8Z" fill="#FFD2C0"/>
</svg>
