<svg width="72" height="77" viewBox="0 0 72 77" fill="none" xmlns="http://www.w3.org/2000/svg">
<path d="M71.486 64.6475L48.8256 41.9871C48.7083 41.8698 48.5724 41.7698 48.4184 41.7077C47.9556 41.5211 47.4517 41.6373 47.1217 41.9674L36.7921 52.297C36.3271 52.7623 36.3271 53.5162 36.7921 53.9812L59.4722 76.6613C60.195 77.3838 61.4108 76.8669 61.5043 75.8853L62.2116 68.4596C62.2657 67.8912 62.7157 67.4412 63.2842 67.3871L70.7229 66.6786C71.7057 66.5847 72.2114 65.3729 71.486 64.6475Z" fill="#FDCA5C"/>
<path d="M35.9 52.297L25.5901 41.9871C25.4728 41.8698 25.3369 41.7698 25.1829 41.7077C24.7201 41.5211 24.2162 41.6373 23.8862 41.9674L1.23061 64.6233C0.53235 65.3216 0.928779 66.5795 1.93549 66.6753L9.4081 67.3871C9.97658 67.4412 10.4265 67.8912 10.4807 68.4596L11.1884 75.8903C11.2806 76.8585 12.4934 77.3879 13.2201 76.6615L35.9002 53.9814C36.365 53.5162 36.365 52.7623 35.9 52.297Z" fill="#FDCA5C"/>
<path d="M47.1664 59.5282C47.5288 59.6958 47.9317 59.7842 48.3308 59.7842C48.7494 59.7842 49.1542 59.6922 49.5325 59.5108C50.2585 59.1628 50.784 58.4987 51.0153 57.7275L51.6808 55.5081C51.794 55.1305 52.1672 54.8932 52.5571 54.9508L54.9274 55.3006C55.0619 55.3205 55.1975 55.3304 55.3335 55.3304H55.3336C56.3728 55.3304 57.3604 54.7469 57.8415 53.7484C58.0264 53.3646 58.11 52.9398 58.1124 52.5137L58.1193 51.2828L48.8237 41.9871C48.7064 41.8698 48.5704 41.7698 48.4164 41.7077C47.9537 41.5211 47.4497 41.6373 47.1197 41.9674L36.7902 52.297C36.3252 52.7623 36.3252 53.5162 36.7902 53.9812L43.0583 60.2495L43.9933 58.8128C44.2083 58.4824 44.6332 58.3599 44.9913 58.525L47.1664 59.5282Z" fill="#FB9D46"/>
<path d="M35.8991 52.297L25.5892 41.9871C25.4719 41.8698 25.3359 41.7698 25.1819 41.7077C24.7192 41.5211 24.2152 41.6373 23.8853 41.9674L14.3725 51.4802L14.3692 52.3609C14.366 53.1664 14.7122 53.9325 15.3177 54.4622C15.9122 54.983 16.7447 55.2323 17.5277 55.1242L19.9013 54.7968C20.2917 54.743 20.6627 54.9837 20.7723 55.3624L21.4389 57.664C21.8982 59.2503 23.7368 60.106 25.2478 59.4252L27.4328 58.4424C27.7923 58.2806 28.2161 58.4074 28.428 58.7397L29.4839 60.3963L35.8988 53.9814C36.3641 53.5162 36.3641 52.7623 35.8991 52.297Z" fill="#FB9D46"/>
<path d="M66.2852 29.6699L63.7089 27.4115C63.2642 27.0217 63.173 26.3646 63.4946 25.8685L65.3402 23.0204C65.7243 22.4277 65.5197 21.5718 64.8591 21.2655L61.7508 19.8246C61.2142 19.576 60.9417 18.9711 61.1103 18.4044L62.0785 15.1519C62.2872 14.4505 61.8523 13.7125 61.1225 13.6035L57.7342 13.0965C57.1493 13.009 56.7174 12.5057 56.7195 11.9142L56.7321 8.51849C56.7348 7.81166 56.0987 7.20619 55.3786 7.30394L51.9847 7.77226C51.399 7.85302 50.8427 7.49178 50.6781 6.92375L49.7326 3.65862C49.5365 2.98171 48.7536 2.58122 48.0929 2.87825L44.9686 4.2835C44.4293 4.52608 43.7937 4.33628 43.4758 3.83744L41.6505 0.973548C41.2712 0.378603 40.4075 0.211368 39.8556 0.684046L37.2535 2.91268C36.8044 3.29738 36.1411 3.29423 35.6955 2.90532L33.1148 0.652163C32.561 0.168958 31.7003 0.335892 31.3135 0.930085L29.4648 3.77126C29.1423 4.2668 28.505 4.45088 27.9679 4.20319L24.8571 2.76846C24.1924 2.46166 23.4116 2.86125 23.2082 3.53891L22.2336 6.78945C22.0636 7.35582 21.504 7.7118 20.919 7.62563L17.5298 7.12528C16.8216 7.02166 16.169 7.5984 16.1648 8.31035L16.1454 11.7227C16.1421 12.3141 15.7052 12.8134 15.1196 12.8953L11.7267 13.3702C10.9958 13.4727 10.5539 14.2064 10.7562 14.9098L11.6937 18.1712C11.857 18.7395 11.5787 19.3415 11.0398 19.5853L7.91817 20.9967C7.25239 21.2979 7.04109 22.149 7.42007 22.7462L9.23905 25.6126C9.55592 26.1118 9.45832 26.7681 9.01015 27.1537L6.43652 29.3668C5.90113 29.8273 5.85646 30.7061 6.40418 31.1858L8.98068 33.4442C9.42538 33.834 9.51667 34.4911 9.19498 34.9872L7.34864 37.8367C6.96469 38.4291 7.17058 39.2845 7.83049 39.5904L10.9385 41.0311C11.4751 41.2797 11.7477 41.8846 11.579 42.4513L10.6106 45.7044C10.402 46.4054 10.8374 47.1432 11.5668 47.2522L14.9551 47.7592C15.54 47.8467 15.9719 48.3501 15.9698 48.9414L15.9571 52.3353C15.9544 53.0416 16.5892 53.6507 17.3107 53.5513L20.7045 53.083C21.2903 53.0022 21.8466 53.3635 22.0111 53.9315L22.9568 57.1972C23.1527 57.8737 23.9363 58.2745 24.5963 57.977L27.7207 56.5716C28.26 56.329 28.8957 56.5188 29.2135 57.0177L31.0362 59.8773C31.4164 60.4738 32.2792 60.6461 32.8338 60.1709L35.4359 57.9423C35.885 57.5576 36.5483 57.5607 36.9939 57.9496L39.5746 60.2028C40.1055 60.6666 40.9689 60.5502 41.356 59.9552L43.2246 57.0838C43.5471 56.5883 44.1844 56.4042 44.7215 56.6519L47.8323 58.0866C48.4985 58.3943 49.2784 57.9922 49.4819 57.3138L50.4557 54.0657C50.6256 53.4993 51.1852 53.1433 51.7703 53.2295L55.1282 53.7252C55.8519 53.8321 56.5199 53.2958 56.5243 52.5584L56.5438 49.1325C56.5471 48.5412 56.984 48.0419 57.5698 47.9599L60.931 47.4897C61.6305 47.3919 62.1432 46.6767 61.9419 45.9767L60.9955 42.6842C60.8322 42.1159 61.1106 41.5139 61.6494 41.2701L64.7418 39.8719C65.3853 39.5809 65.6761 38.7505 65.2857 38.1355L63.4501 35.2428C63.1333 34.7436 63.2308 34.0873 63.6789 33.7017L66.2526 31.4886C66.7883 31.0285 66.8329 30.1496 66.2852 29.6699Z" fill="#1CC8EB"/>
<path d="M36.3454 53.2929C48.9734 53.2929 59.2104 43.0559 59.2104 30.4279C59.2104 17.8 48.9734 7.56299 36.3454 7.56299C23.7174 7.56299 13.4805 17.8 13.4805 30.4279C13.4805 43.0559 23.7174 53.2929 36.3454 53.2929Z" fill="#FB9D46"/>
<path d="M36.3455 50.1169C47.2196 50.1169 56.0348 41.3017 56.0348 30.4276C56.0348 19.5535 47.2196 10.7383 36.3455 10.7383C25.4714 10.7383 16.6562 19.5535 16.6562 30.4276C16.6562 41.3017 25.4714 50.1169 36.3455 50.1169Z" fill="#FDCA5C"/>
<path fill-rule="evenodd" clip-rule="evenodd" d="M24.8457 26.7451L29.2696 33.1326L29.4411 40.9007L36.8829 38.6544L44.3162 40.9007L44.4877 33.1326L48.9204 26.7451L41.5814 24.1903L36.8829 18L32.176 24.1903L24.8457 26.7451Z" fill="#1CC8EB"/>
<path fill-rule="evenodd" clip-rule="evenodd" d="M35.4704 19.8691C37.3652 26.0851 37.3652 32.8756 35.4531 39.0917L36.8934 38.6544L44.3267 40.9007L44.4982 33.1329L48.9309 26.7454L41.5919 24.1903L36.8934 18L35.4704 19.8691Z" fill="#1CC8EB"/>
</svg>
