<svg width="76" height="76" viewBox="0 0 76 76" fill="none" xmlns="http://www.w3.org/2000/svg">
<path d="M58.5533 8.37615L58.267 1.21704C58.2605 1.05066 58.2213 0.887193 58.1515 0.736C58.0817 0.584807 57.9829 0.448852 57.8605 0.335912C57.7382 0.222971 57.5947 0.135263 57.4385 0.0778046C57.2822 0.0203461 57.1161 -0.0057351 56.9497 0.00105306L49.7906 0.288583L49.8919 2.82189L54.0516 2.65469L42.3984 15.6227L44.2819 17.3149L55.8604 4.43433L56.0225 8.48002L58.5533 8.37615Z" fill="#7CB2F8"/>
<path d="M46.3654 25.3353C46.3652 24.5897 46.3114 23.8451 46.2046 23.1072C46.1582 22.726 46.2294 22.3397 46.4087 22.0002C46.588 21.6606 46.8668 21.3839 47.2077 21.2072L48.387 20.5562C48.6159 20.4359 48.8178 20.2701 48.9804 20.069C49.143 19.8679 49.2628 19.6357 49.3326 19.3867C49.4023 19.1377 49.4205 18.877 49.3859 18.6207C49.3514 18.3645 49.2649 18.1179 49.1318 17.8962L45.8676 12.4927C45.583 12.0394 45.1352 11.7127 44.6166 11.58C44.0981 11.4473 43.5484 11.5187 43.081 11.7796L41.8891 12.4382C41.5245 12.6305 41.1126 12.7148 40.7018 12.6811C40.291 12.6475 39.8983 12.4973 39.5698 12.2482C38.3938 11.3868 37.1142 10.6765 35.761 10.1342C35.3823 9.99903 35.0531 9.75278 34.8165 9.4276C34.5799 9.10242 34.4469 8.71343 34.4348 8.31146V7.01568C34.4225 6.48844 34.2018 5.98755 33.8211 5.62266C33.4403 5.25778 32.9304 5.05864 32.4031 5.06884H25.8748C25.3467 5.05728 24.8355 5.25582 24.4536 5.62084C24.0717 5.98587 23.8503 6.48754 23.838 7.01568V8.31906C23.826 8.72103 23.693 9.11002 23.4564 9.4352C23.2198 9.76038 22.8906 10.0066 22.5119 10.1418C21.1587 10.6841 19.8791 11.3944 18.703 12.2558C18.3746 12.5049 17.9819 12.6551 17.5711 12.6887C17.1603 12.7224 16.7484 12.6381 16.3838 12.4458L15.1919 11.7872C14.7245 11.5263 14.1748 11.4549 13.6562 11.5876C13.1377 11.7203 12.6899 12.047 12.4052 12.5003L9.14615 17.9038C9.01301 18.1255 8.92653 18.3721 8.89201 18.6283C8.85748 18.8846 8.87564 19.1453 8.94537 19.3943C9.01509 19.6433 9.13492 19.8755 9.29751 20.0766C9.46011 20.2777 9.66204 20.4435 9.89094 20.5638L11.0702 21.2148C11.4112 21.3915 11.69 21.6682 11.8693 22.0078C12.0486 22.3473 12.1198 22.7336 12.0734 23.1148C11.8589 24.5924 11.8589 26.0933 12.0734 27.5709C12.1198 27.9521 12.0486 28.3384 11.8693 28.678C11.69 29.0175 11.4112 29.2942 11.0702 29.4709L9.89094 30.1219C9.66204 30.2423 9.46011 30.408 9.29751 30.6091C9.13492 30.8102 9.01509 31.0424 8.94537 31.2914C8.87564 31.5405 8.85748 31.8011 8.89201 32.0574C8.92653 32.3137 9.01301 32.5602 9.14615 32.7819L12.4103 38.1854C12.695 38.6387 13.1428 38.9654 13.6613 39.0981C14.1799 39.2308 14.7295 39.1594 15.1969 38.8986L16.3889 38.2399C16.7535 38.0476 17.1653 37.9633 17.5762 37.997C17.987 38.0307 18.3797 38.1808 18.7081 38.4299C19.8841 39.2913 21.1638 40.0016 22.5169 40.5439C22.8957 40.6791 23.2249 40.9253 23.4615 41.2505C23.6981 41.5757 23.8311 41.9647 23.8431 42.3666V43.67C23.8593 44.1946 24.0818 44.6916 24.4621 45.0532C24.8425 45.4149 25.3501 45.6119 25.8748 45.6017H32.4031C32.9313 45.6132 33.4424 45.4147 33.8243 45.0497C34.2062 44.6846 34.4276 44.183 34.4399 43.6548V42.3514C34.4519 41.9495 34.5849 41.5605 34.8215 41.2353C35.0581 40.9101 35.3873 40.6639 35.7661 40.5287C37.1192 39.9864 38.3989 39.2761 39.5749 38.4147C39.9033 38.1656 40.296 38.0154 40.7068 37.9818C41.1177 37.9481 41.5296 38.0324 41.8941 38.2247L43.0861 38.8834C43.5535 39.1442 44.1032 39.2156 44.6217 39.0829C45.1402 38.9502 45.588 38.6235 45.8727 38.1702L49.1369 32.7667C49.27 32.545 49.3565 32.2985 49.391 32.0422C49.4255 31.7859 49.4074 31.5253 49.3376 31.2762C49.2679 31.0272 49.1481 30.795 48.9855 30.5939C48.8229 30.3928 48.621 30.2271 48.3921 30.1067L47.2128 29.4557C46.8719 29.279 46.593 29.0023 46.4137 28.6628C46.2344 28.3232 46.1632 27.9369 46.2096 27.5557C46.3144 26.8202 46.3665 26.0782 46.3654 25.3353Z" fill="#EB5468"/>
<path d="M39.9003 25.3337C39.9016 27.6982 39.1241 29.9973 37.6879 31.8756C36.2517 33.7539 34.2368 35.1069 31.9546 35.7254C29.6724 36.3438 27.2501 36.1934 25.062 35.2973C22.8739 34.4011 21.0419 32.8092 19.8492 30.7676C19.3749 29.977 19.0126 29.1244 18.7725 28.2343C18.5024 27.2911 18.366 26.3147 18.3672 25.3337C18.3661 22.9606 19.1495 20.6537 20.5954 18.7721C22.0414 16.8904 24.0689 15.5396 26.3622 14.9297C28.6556 14.3199 31.0863 14.4853 33.2759 15.4002C35.4655 16.3151 37.2912 17.9282 38.469 19.9884C38.9458 20.8002 39.3081 21.674 39.5456 22.585C39.7804 23.4824 39.8996 24.4061 39.9003 25.3337Z" fill="#E6EEF3"/>
<path d="M2.51562 65.8691H17.7154V74.7357H2.51562V65.8691Z" fill="#D98285"/>
<path d="M30.3984 53.2031H45.5983V74.7362H30.3984V53.2031Z" fill="#FFCB52"/>
<path d="M58.2656 26.6016H73.4654V74.7343H58.2656V26.6016Z" fill="#1CC8EB"/>
<path d="M0 73.4668H75.9991V76.0001H0V73.4668Z" fill="#7E95B3"/>
<path d="M39.5395 22.5869L32.8896 29.9841C32.7597 30.1248 32.6005 30.2352 32.4231 30.3074C32.2458 30.3797 32.0548 30.412 31.8636 30.4021C31.6699 30.3883 31.4821 30.3296 31.315 30.2307C31.1479 30.1317 31.0062 29.9953 30.9009 29.8321L26.7083 23.5622L19.8431 30.7694L2.4646 49.0092L0.640625 47.2612L18.7664 28.2361L25.9736 20.6616C26.1056 20.5252 26.2659 20.4193 26.4431 20.3515C26.6204 20.2837 26.8103 20.2555 26.9996 20.2689C27.1886 20.2876 27.371 20.3485 27.5332 20.4472C27.6954 20.5458 27.8334 20.6797 27.937 20.8389L32.1042 27.0708L38.4628 19.9902C38.9397 20.802 39.302 21.6758 39.5395 22.5869Z" fill="#7CB2F8"/>
</svg>
