<svg id="SvgjsSvg1048" width="288" height="288" xmlns="http://www.w3.org/2000/svg" version="1.1" xmlns:xlink="http://www.w3.org/1999/xlink" xmlns:svgjs="http://svgjs.com/svgjs"><defs id="SvgjsDefs1049"></defs><g id="SvgjsG1050"><svg xmlns="http://www.w3.org/2000/svg" xmlns:svgjs="http://svgjs.com/svgjs" xmlns:xlink="http://www.w3.org/1999/xlink" viewBox="0 0 288 288" width="288" height="288"><svg xmlns="http://www.w3.org/2000/svg" viewBox="0 -960 960 960" width="288" height="288"><path fill="#4fcfa2" d="M100.001-589.999v-117.692q0-30.308 21-51.308t51.308-21h615.382q30.308 0 51.308 21t21 51.308v117.692H800v-117.692q0-4.616-3.846-8.463-3.847-3.846-8.463-3.846H172.309q-4.616 0-8.463 3.846-3.846 3.847-3.846 8.463v117.692h-59.999Zm72.308 409.998q-30.308 0-51.308-21t-21-51.308v-117.692H160v117.692q0 4.616 3.846 8.463 3.847 3.846 8.463 3.846h615.382q4.616 0 8.463-3.846 3.846-3.847 3.846-8.463v-117.692h59.999v117.692q0 30.308-21 51.308t-51.308 21H172.309Zm227.691-110q8.307 0 15.807-4.153 7.5-4.154 11.346-12.462L560-572.309l52.847 105.693q3.846 8.308 11.346 12.462 7.5 4.153 15.807 4.153h189.999q12.769 0 21.384-8.615 8.616-8.615 8.616-21.384t-8.616-21.384q-8.615-8.615-21.384-8.615H658.846l-71.693-143.385q-3.846-7.923-11.153-11.269-7.308-3.346-16-3.346-8.307 0-15.807 3.346t-11.346 11.269L400-387.691l-52.847-105.693q-3.846-8.308-11.346-12.462-7.5-4.153-15.807-4.153H130.001q-12.769 0-21.384 8.615-8.616 8.615-8.616 21.384t8.616 21.384q8.615 8.615 21.384 8.615h171.153l71.693 143.385q3.846 8.308 11.346 12.462 7.5 4.153 15.807 4.153ZM480-480Z" class="color000 svgShape color127ccf"></path></svg></svg></g></svg>